M48
; DRILL file {KiCad 5.1.10} date Mon Oct 11 20:28:48 2021
; FORMAT={-:-/ absolute / metric / decimal}
; #@! TF.CreationDate,2021-10-11T20:28:48-03:00
; #@! TF.GenerationSoftware,Kicad,Pcbnew,5.1.10
; #@! TF.FileFunction,Plated,1,4,PTH
FMAT,2
METRIC
T1C0.500
T2C0.600
T3C0.750
T4C0.760
T5C0.800
T6C1.000
T7C1.300
T8C3.200
%
G90
G05
T1
X61.22Y-138.68
X61.745Y-65.705
X61.923Y-136.983
X61.923Y-140.377
X62.448Y-64.008
X62.448Y-67.402
X63.62Y-136.28
X63.62Y-141.08
X64.145Y-63.305
X64.145Y-68.105
X65.317Y-136.983
X65.317Y-140.377
X65.842Y-64.008
X65.842Y-67.402
X66.02Y-138.68
X66.545Y-65.705
X188.22Y-46.68
X188.22Y-138.68
X188.923Y-44.983
X188.923Y-48.377
X188.923Y-136.983
X188.923Y-140.377
X190.62Y-44.28
X190.62Y-49.08
X190.62Y-136.28
X190.62Y-141.08
X192.317Y-44.983
X192.317Y-48.377
X192.317Y-136.983
X192.317Y-140.377
X193.02Y-46.68
X193.02Y-138.68
T2
X60.413Y-56.345
X60.413Y-59.723
X60.87Y-70.43
X60.87Y-71.93
X60.87Y-73.43
X60.87Y-77.68
X60.87Y-79.18
X60.905Y-61.213
X60.931Y-54.939
X61.12Y-96.68
X61.12Y-98.68
X61.12Y-100.68
X61.12Y-102.68
X61.12Y-104.68
X61.12Y-106.68
X61.15Y-89.95
X62.138Y-48.806
X62.37Y-70.43
X62.37Y-71.93
X62.37Y-73.43
X62.37Y-77.68
X62.37Y-79.18
X62.513Y-61.213
X62.539Y-54.939
X63.12Y-96.68
X63.12Y-98.68
X63.12Y-100.68
X63.12Y-102.68
X63.12Y-104.68
X63.12Y-106.68
X63.281Y-48.806
X63.87Y-70.43
X63.87Y-71.93
X63.87Y-77.68
X63.87Y-79.18
X64.122Y-61.213
X64.147Y-54.939
X65.12Y-96.68
X65.12Y-98.68
X65.12Y-100.68
X65.12Y-102.68
X65.12Y-104.68
X65.12Y-106.68
X65.37Y-70.43
X65.37Y-71.93
X65.37Y-110.18
X65.37Y-113.43
X65.553Y-56.73
X65.553Y-56.73
X65.553Y-59.33
X65.553Y-59.33
X66.62Y-110.18
X66.87Y-70.43
X66.87Y-71.93
X67.12Y-96.68
X67.12Y-98.68
X67.12Y-100.68
X67.12Y-102.68
X67.12Y-104.68
X67.12Y-106.68
X67.12Y-113.43
X67.131Y-61.07
X67.162Y-56.73
X67.162Y-56.73
X67.162Y-59.33
X67.162Y-59.33
X68.12Y-137.68
X68.12Y-139.18
X68.12Y-140.68
X68.37Y-68.93
X68.745Y-61.81
X68.77Y-56.73
X68.77Y-56.73
X68.87Y-113.43
X69.12Y-96.68
X69.12Y-98.68
X69.12Y-100.68
X69.12Y-102.68
X69.12Y-104.68
X69.12Y-106.68
X69.62Y-137.68
X69.62Y-139.18
X69.62Y-140.68
X69.758Y-48.806
X70.049Y-61.81
X70.23Y-56.726
X70.901Y-48.806
X71.12Y-137.68
X71.12Y-139.18
X71.12Y-140.68
X71.657Y-61.81
X71.83Y-56.726
X72.62Y-72.93
X73.12Y-95.43
X73.12Y-96.68
X73.12Y-107.68
X73.12Y-109.18
X73.12Y-118.68
X73.12Y-120.18
X73.12Y-121.68
X73.266Y-56.764
X73.266Y-61.81
X74.12Y-72.93
X74.62Y-107.68
X74.62Y-109.18
X74.838Y-48.806
X74.87Y-95.43
X74.87Y-96.68
X75.12Y-118.68
X75.12Y-120.18
X75.12Y-121.68
X75.981Y-48.806
X76.12Y-107.68
X76.12Y-109.18
X76.37Y-95.43
X76.37Y-96.68
X77.12Y-118.68
X77.12Y-120.18
X77.12Y-121.68
X78.87Y-57.43
X78.87Y-68.18
X79.12Y-81.18
X79.12Y-118.68
X79.12Y-120.18
X79.12Y-121.68
X80.62Y-83.43
X80.62Y-84.93
X80.62Y-96.68
X80.62Y-98.68
X80.62Y-100.68
X80.62Y-102.68
X80.62Y-104.68
X80.62Y-106.68
X80.64Y-89.87
X81.87Y-83.43
X81.87Y-84.93
X82.62Y-96.68
X82.62Y-98.68
X82.62Y-100.68
X82.62Y-102.68
X82.62Y-104.68
X82.62Y-106.68
X83.12Y-83.43
X83.12Y-84.93
X84.37Y-83.43
X84.37Y-84.93
X84.37Y-132.68
X84.37Y-134.18
X84.37Y-135.68
X84.62Y-96.68
X84.62Y-98.68
X84.62Y-100.68
X84.62Y-102.68
X84.62Y-104.68
X84.62Y-106.68
X84.62Y-137.18
X84.62Y-138.68
X84.62Y-140.18
X84.62Y-141.68
X86.12Y-132.68
X86.12Y-134.18
X86.12Y-135.68
X86.12Y-137.18
X86.12Y-138.68
X86.12Y-140.18
X86.12Y-141.68
X86.37Y-80.68
X86.37Y-82.18
X86.37Y-83.68
X86.62Y-96.68
X86.62Y-98.68
X86.62Y-100.68
X86.62Y-102.68
X86.62Y-104.68
X86.62Y-106.68
X86.9Y-118.23
X87.541Y-48.93
X87.62Y-80.68
X87.62Y-82.18
X87.62Y-83.68
X87.87Y-120.18
X87.87Y-122.18
X87.87Y-124.18
X87.87Y-132.68
X87.87Y-134.18
X87.87Y-135.68
X88.62Y-96.68
X88.62Y-98.68
X88.62Y-100.68
X88.62Y-102.68
X88.62Y-104.68
X88.62Y-106.68
X88.681Y-48.93
X88.87Y-80.68
X88.87Y-82.18
X88.87Y-83.68
X89.37Y-120.18
X89.37Y-122.18
X89.37Y-124.18
X89.62Y-56.93
X92.37Y-95.43
X92.37Y-96.68
X92.62Y-107.18
X92.62Y-109.18
X93.87Y-78.18
X93.87Y-79.93
X93.87Y-81.68
X93.87Y-83.43
X93.87Y-86.68
X93.87Y-88.43
X93.87Y-89.93
X93.87Y-91.68
X94.12Y-95.43
X94.12Y-96.68
X94.12Y-107.18
X94.12Y-109.18
X95.158Y-48.93
X95.62Y-78.18
X95.62Y-79.93
X95.62Y-81.68
X95.62Y-83.43
X95.62Y-86.68
X95.62Y-88.43
X95.62Y-89.93
X95.62Y-91.68
X95.62Y-107.18
X95.62Y-109.18
X95.62Y-133.18
X95.62Y-134.68
X95.62Y-136.18
X95.62Y-137.68
X95.62Y-139.18
X95.62Y-140.68
X95.87Y-75.43
X95.87Y-95.43
X95.87Y-96.68
X96.301Y-48.93
X97.3Y-121.48
X97.37Y-78.18
X97.37Y-79.93
X97.37Y-81.68
X97.37Y-83.43
X97.37Y-86.68
X97.37Y-88.43
X97.37Y-89.93
X97.37Y-91.68
X97.62Y-75.43
X97.62Y-133.18
X97.62Y-134.68
X97.62Y-136.18
X97.62Y-137.68
X97.62Y-139.18
X97.62Y-140.68
X98.0Y-111.83
X99.37Y-75.43
X99.52Y-106.38
X100.32Y-115.78
X100.32Y-117.88
X100.87Y-48.93
X101.12Y-64.219
X101.62Y-86.68
X101.62Y-88.43
X101.62Y-89.93
X101.62Y-91.68
X101.87Y-78.18
X101.87Y-79.93
X101.87Y-81.68
X101.87Y-83.43
X102.845Y-96.355
X102.87Y-100.43
X103.37Y-86.68
X103.37Y-88.43
X103.37Y-89.93
X103.37Y-91.68
X103.37Y-94.18
X103.62Y-78.18
X103.62Y-79.93
X103.62Y-81.68
X103.62Y-83.43
X104.22Y-103.48
X105.12Y-48.93
X105.318Y-88.43
X105.37Y-78.18
X105.37Y-79.93
X105.37Y-81.68
X105.37Y-83.43
X105.37Y-86.68
X105.37Y-89.93
X105.37Y-91.68
X107.37Y-48.93
X109.02Y-115.78
X109.02Y-117.88
X109.12Y-48.93
X110.195Y-96.355
X110.22Y-90.98
X110.42Y-106.38
X110.87Y-48.93
X110.92Y-84.605
X112.57Y-102.78
X112.62Y-48.93
X112.62Y-50.43
X112.62Y-51.93
X113.62Y-45.93
X113.62Y-47.18
X114.37Y-48.93
X114.37Y-50.43
X114.37Y-51.93
X114.6Y-43.79
X114.87Y-45.93
X114.87Y-47.18
X116.12Y-45.93
X116.12Y-47.18
X116.17Y-43.78
X117.695Y-140.605
X117.695Y-141.62
X117.72Y-115.88
X117.72Y-117.88
X117.82Y-106.88
X119.12Y-53.93
X122.02Y-102.68
X122.55Y-86.08
X122.857Y-140.602
X122.857Y-141.62
X123.12Y-52.63
X123.145Y-50.305
X123.37Y-91.43
X124.1Y-84.47
X124.4Y-94.53
X124.62Y-88.68
X124.7Y-82.28
X125.62Y-105.48
X126.12Y-115.88
X126.12Y-117.88
X127.295Y-140.615
X127.295Y-141.63
X128.12Y-98.18
X128.52Y-44.48
X128.82Y-59.48
X132.22Y-50.18
X132.22Y-51.48
X132.22Y-52.68
X132.22Y-53.88
X132.42Y-140.6
X132.42Y-141.62
X133.62Y-50.18
X133.62Y-51.48
X133.62Y-52.68
X133.62Y-53.88
X134.02Y-107.88
X134.62Y-115.88
X134.62Y-117.88
X135.02Y-50.18
X135.02Y-51.48
X135.02Y-52.68
X135.02Y-53.88
X136.42Y-50.18
X136.42Y-51.48
X136.42Y-52.68
X136.42Y-53.88
X136.82Y-98.205
X137.957Y-140.602
X137.957Y-141.62
X142.62Y-107.08
X143.157Y-140.593
X143.157Y-141.62
X143.22Y-115.88
X143.22Y-117.88
X144.5Y-78.38
X144.5Y-86.28
X144.9Y-91.28
X144.938Y-93.417
X145.482Y-58.442
X146.12Y-67.78
X146.812Y-57.172
X147.42Y-44.43
X147.47Y-45.73
X147.62Y-67.78
X148.02Y-55.88
X148.257Y-140.602
X148.257Y-141.62
X149.12Y-67.78
X150.9Y-57.38
X151.22Y-106.38
X151.82Y-115.88
X151.82Y-117.88
X153.157Y-140.593
X153.157Y-141.62
X154.42Y-62.48
X155.92Y-106.38
X158.92Y-64.08
X159.77Y-89.43
X160.42Y-115.88
X160.42Y-117.88
X161.22Y-74.48
X161.32Y-80.78
X161.42Y-60.38
X161.92Y-101.78
X163.12Y-106.38
X163.27Y-89.43
X163.62Y-60.43
X165.92Y-79.48
X167.77Y-89.48
X168.32Y-122.08
X168.92Y-79.48
X169.87Y-89.18
X171.12Y-73.08
X171.87Y-89.13
X171.92Y-77.08
X172.12Y-84.78
X172.22Y-119.78
X173.02Y-112.68
X174.02Y-77.08
X174.37Y-44.43
X174.92Y-63.78
X174.92Y-66.18
X176.22Y-125.58
X180.12Y-109.48
X180.62Y-83.68
X182.22Y-86.48
X182.67Y-96.93
X182.82Y-93.83
X183.42Y-84.78
X183.62Y-125.43
X183.92Y-86.68
X184.62Y-97.43
X185.72Y-95.18
X188.02Y-89.08
X189.62Y-56.08
X189.62Y-65.08
X189.62Y-77.48
X189.62Y-83.88
X189.62Y-102.68
X189.62Y-114.68
X189.62Y-126.68
X189.62Y-129.48
X193.37Y-59.13
X193.37Y-61.93
X193.42Y-83.78
X193.42Y-86.48
X193.42Y-129.88
X193.42Y-132.18
X193.52Y-51.08
X193.52Y-53.18
X193.52Y-71.08
X193.52Y-74.18
X193.52Y-96.78
X193.52Y-99.03
X193.52Y-108.68
X193.52Y-111.45
X193.62Y-121.18
X193.62Y-123.98
T3
X99.05Y-127.68
X100.32Y-127.68
X101.59Y-127.68
X107.82Y-127.68
X109.09Y-127.68
X110.36Y-127.68
X116.45Y-127.68
X117.72Y-127.68
X118.99Y-127.68
X124.85Y-127.68
X126.12Y-127.68
X127.39Y-127.68
X133.32Y-127.68
X134.59Y-127.68
X135.86Y-127.68
X141.95Y-127.68
X143.22Y-127.68
X144.49Y-127.68
X150.55Y-127.68
X151.82Y-127.68
X153.09Y-127.68
X159.15Y-127.68
X160.42Y-127.68
X161.69Y-127.68
X165.83Y-127.68
X167.1Y-127.68
X168.37Y-127.68
X171.93Y-127.73
X173.2Y-127.73
X174.47Y-127.73
X178.08Y-127.68
X179.35Y-127.68
X180.62Y-127.68
T4
X197.12Y-47.37
X197.12Y-49.91
X197.12Y-59.64
X197.12Y-62.18
X197.12Y-71.87
X197.12Y-74.41
X197.12Y-84.07
X197.12Y-86.61
X197.12Y-96.77
X197.12Y-99.31
X197.12Y-109.18
X197.12Y-111.72
X197.12Y-121.68
X197.12Y-124.22
X197.12Y-133.92
X197.12Y-136.46
X199.66Y-48.64
X199.66Y-51.18
X199.66Y-60.91
X199.66Y-63.45
X199.66Y-73.14
X199.66Y-75.68
X199.66Y-85.34
X199.66Y-87.88
X199.66Y-98.04
X199.66Y-100.58
X199.66Y-110.45
X199.66Y-112.99
X199.66Y-122.95
X199.66Y-125.49
X199.66Y-135.19
X199.66Y-137.73
T5
X100.34Y-112.88
X100.34Y-120.5
X102.88Y-112.88
X102.88Y-120.5
X105.42Y-112.88
X105.42Y-120.5
X109.04Y-112.88
X109.04Y-120.5
X111.58Y-112.88
X111.58Y-120.5
X114.12Y-112.88
X114.12Y-120.5
X117.74Y-112.88
X117.74Y-120.5
X120.28Y-112.88
X120.28Y-120.5
X122.82Y-112.88
X122.82Y-120.5
X126.14Y-112.88
X126.14Y-120.5
X128.68Y-112.88
X128.68Y-120.5
X131.22Y-112.88
X131.22Y-120.5
X134.64Y-112.88
X134.64Y-120.5
X137.18Y-112.88
X137.18Y-120.5
X139.72Y-112.88
X139.72Y-120.5
X143.22Y-112.86
X143.22Y-120.48
X145.76Y-112.86
X145.76Y-120.48
X148.3Y-112.86
X148.3Y-120.48
X151.82Y-112.86
X151.82Y-120.48
X154.36Y-112.86
X154.36Y-120.48
X156.9Y-112.86
X156.9Y-120.48
X160.42Y-112.86
X160.42Y-120.48
X162.96Y-112.86
X162.96Y-120.48
X165.5Y-112.86
X165.5Y-120.48
T6
X61.12Y-87.93
X67.12Y-87.93
X80.87Y-87.93
X86.87Y-87.93
X150.87Y-48.28
X150.87Y-50.82
X150.87Y-53.36
X151.4Y-60.94
X151.4Y-63.48
X159.12Y-56.08
X175.12Y-56.08
T7
X67.845Y-127.005
X67.845Y-132.085
X101.79Y-133.68
X106.87Y-133.68
X116.87Y-133.68
X121.95Y-133.68
X127.03Y-133.68
X132.11Y-133.68
X137.19Y-133.68
X142.27Y-133.68
X147.35Y-133.68
X152.43Y-133.68
X153.52Y-80.78
X162.92Y-133.68
X168.0Y-133.68
X173.08Y-133.68
X173.52Y-80.78
X178.16Y-133.68
T8
X63.62Y-138.68
X64.145Y-65.705
X190.62Y-46.68
X190.62Y-138.68
T0
M30
