G04 #@! TF.GenerationSoftware,KiCad,Pcbnew,5.1.10*
G04 #@! TF.CreationDate,2021-10-14T00:06:10-03:00*
G04 #@! TF.ProjectId,tesis,74657369-732e-46b6-9963-61645f706362,v1.0*
G04 #@! TF.SameCoordinates,Original*
G04 #@! TF.FileFunction,Paste,Top*
G04 #@! TF.FilePolarity,Positive*
%FSLAX46Y46*%
G04 Gerber Fmt 4.6, Leading zero omitted, Abs format (unit mm)*
G04 Created by KiCad (PCBNEW 5.1.10) date 2021-10-14 00:06:10*
%MOMM*%
%LPD*%
G01*
G04 APERTURE LIST*
%ADD10O,2.500000X0.900000*%
%ADD11O,0.900000X2.500000*%
%ADD12R,6.000000X6.000000*%
%ADD13R,2.300000X3.500000*%
%ADD14R,0.800000X0.900000*%
%ADD15R,2.000000X1.780000*%
G04 APERTURE END LIST*
D10*
X143620000Y-44472000D03*
X143620000Y-45742000D03*
X143620000Y-47012000D03*
X143620000Y-48282000D03*
X143620000Y-49552000D03*
X143620000Y-50822000D03*
X143620000Y-52092000D03*
X143620000Y-53362000D03*
X143620000Y-54632000D03*
X143620000Y-55902000D03*
X143620000Y-57172000D03*
X143620000Y-58442000D03*
X143620000Y-59712000D03*
X143620000Y-60982000D03*
D11*
X140335000Y-62472000D03*
X139065000Y-62472000D03*
X137795000Y-62472000D03*
X136525000Y-62472000D03*
X135255000Y-62472000D03*
X133985000Y-62472000D03*
X132715000Y-62472000D03*
X131445000Y-62472000D03*
X130175000Y-62472000D03*
X128905000Y-62472000D03*
D10*
X125620000Y-60982000D03*
X125620000Y-59712000D03*
X125620000Y-58442000D03*
X125620000Y-57172000D03*
X125620000Y-55902000D03*
X125620000Y-54632000D03*
X125620000Y-53362000D03*
X125620000Y-52092000D03*
X125620000Y-50822000D03*
X125620000Y-49552000D03*
X125620000Y-48282000D03*
X125620000Y-47012000D03*
X125620000Y-45742000D03*
X125620000Y-44472000D03*
D12*
X134320000Y-52172000D03*
G36*
G01*
X112075000Y-101305000D02*
X111775000Y-101305000D01*
G75*
G02*
X111625000Y-101155000I0J150000D01*
G01*
X111625000Y-99405000D01*
G75*
G02*
X111775000Y-99255000I150000J0D01*
G01*
X112075000Y-99255000D01*
G75*
G02*
X112225000Y-99405000I0J-150000D01*
G01*
X112225000Y-101155000D01*
G75*
G02*
X112075000Y-101305000I-150000J0D01*
G01*
G37*
G36*
G01*
X113345000Y-101305000D02*
X113045000Y-101305000D01*
G75*
G02*
X112895000Y-101155000I0J150000D01*
G01*
X112895000Y-99405000D01*
G75*
G02*
X113045000Y-99255000I150000J0D01*
G01*
X113345000Y-99255000D01*
G75*
G02*
X113495000Y-99405000I0J-150000D01*
G01*
X113495000Y-101155000D01*
G75*
G02*
X113345000Y-101305000I-150000J0D01*
G01*
G37*
G36*
G01*
X114615000Y-101305000D02*
X114315000Y-101305000D01*
G75*
G02*
X114165000Y-101155000I0J150000D01*
G01*
X114165000Y-99405000D01*
G75*
G02*
X114315000Y-99255000I150000J0D01*
G01*
X114615000Y-99255000D01*
G75*
G02*
X114765000Y-99405000I0J-150000D01*
G01*
X114765000Y-101155000D01*
G75*
G02*
X114615000Y-101305000I-150000J0D01*
G01*
G37*
G36*
G01*
X115885000Y-101305000D02*
X115585000Y-101305000D01*
G75*
G02*
X115435000Y-101155000I0J150000D01*
G01*
X115435000Y-99405000D01*
G75*
G02*
X115585000Y-99255000I150000J0D01*
G01*
X115885000Y-99255000D01*
G75*
G02*
X116035000Y-99405000I0J-150000D01*
G01*
X116035000Y-101155000D01*
G75*
G02*
X115885000Y-101305000I-150000J0D01*
G01*
G37*
G36*
G01*
X117155000Y-101305000D02*
X116855000Y-101305000D01*
G75*
G02*
X116705000Y-101155000I0J150000D01*
G01*
X116705000Y-99405000D01*
G75*
G02*
X116855000Y-99255000I150000J0D01*
G01*
X117155000Y-99255000D01*
G75*
G02*
X117305000Y-99405000I0J-150000D01*
G01*
X117305000Y-101155000D01*
G75*
G02*
X117155000Y-101305000I-150000J0D01*
G01*
G37*
G36*
G01*
X118425000Y-101305000D02*
X118125000Y-101305000D01*
G75*
G02*
X117975000Y-101155000I0J150000D01*
G01*
X117975000Y-99405000D01*
G75*
G02*
X118125000Y-99255000I150000J0D01*
G01*
X118425000Y-99255000D01*
G75*
G02*
X118575000Y-99405000I0J-150000D01*
G01*
X118575000Y-101155000D01*
G75*
G02*
X118425000Y-101305000I-150000J0D01*
G01*
G37*
G36*
G01*
X119695000Y-101305000D02*
X119395000Y-101305000D01*
G75*
G02*
X119245000Y-101155000I0J150000D01*
G01*
X119245000Y-99405000D01*
G75*
G02*
X119395000Y-99255000I150000J0D01*
G01*
X119695000Y-99255000D01*
G75*
G02*
X119845000Y-99405000I0J-150000D01*
G01*
X119845000Y-101155000D01*
G75*
G02*
X119695000Y-101305000I-150000J0D01*
G01*
G37*
G36*
G01*
X120965000Y-101305000D02*
X120665000Y-101305000D01*
G75*
G02*
X120515000Y-101155000I0J150000D01*
G01*
X120515000Y-99405000D01*
G75*
G02*
X120665000Y-99255000I150000J0D01*
G01*
X120965000Y-99255000D01*
G75*
G02*
X121115000Y-99405000I0J-150000D01*
G01*
X121115000Y-101155000D01*
G75*
G02*
X120965000Y-101305000I-150000J0D01*
G01*
G37*
G36*
G01*
X120965000Y-92005000D02*
X120665000Y-92005000D01*
G75*
G02*
X120515000Y-91855000I0J150000D01*
G01*
X120515000Y-90105000D01*
G75*
G02*
X120665000Y-89955000I150000J0D01*
G01*
X120965000Y-89955000D01*
G75*
G02*
X121115000Y-90105000I0J-150000D01*
G01*
X121115000Y-91855000D01*
G75*
G02*
X120965000Y-92005000I-150000J0D01*
G01*
G37*
G36*
G01*
X119695000Y-92005000D02*
X119395000Y-92005000D01*
G75*
G02*
X119245000Y-91855000I0J150000D01*
G01*
X119245000Y-90105000D01*
G75*
G02*
X119395000Y-89955000I150000J0D01*
G01*
X119695000Y-89955000D01*
G75*
G02*
X119845000Y-90105000I0J-150000D01*
G01*
X119845000Y-91855000D01*
G75*
G02*
X119695000Y-92005000I-150000J0D01*
G01*
G37*
G36*
G01*
X118425000Y-92005000D02*
X118125000Y-92005000D01*
G75*
G02*
X117975000Y-91855000I0J150000D01*
G01*
X117975000Y-90105000D01*
G75*
G02*
X118125000Y-89955000I150000J0D01*
G01*
X118425000Y-89955000D01*
G75*
G02*
X118575000Y-90105000I0J-150000D01*
G01*
X118575000Y-91855000D01*
G75*
G02*
X118425000Y-92005000I-150000J0D01*
G01*
G37*
G36*
G01*
X117155000Y-92005000D02*
X116855000Y-92005000D01*
G75*
G02*
X116705000Y-91855000I0J150000D01*
G01*
X116705000Y-90105000D01*
G75*
G02*
X116855000Y-89955000I150000J0D01*
G01*
X117155000Y-89955000D01*
G75*
G02*
X117305000Y-90105000I0J-150000D01*
G01*
X117305000Y-91855000D01*
G75*
G02*
X117155000Y-92005000I-150000J0D01*
G01*
G37*
G36*
G01*
X115885000Y-92005000D02*
X115585000Y-92005000D01*
G75*
G02*
X115435000Y-91855000I0J150000D01*
G01*
X115435000Y-90105000D01*
G75*
G02*
X115585000Y-89955000I150000J0D01*
G01*
X115885000Y-89955000D01*
G75*
G02*
X116035000Y-90105000I0J-150000D01*
G01*
X116035000Y-91855000D01*
G75*
G02*
X115885000Y-92005000I-150000J0D01*
G01*
G37*
G36*
G01*
X114615000Y-92005000D02*
X114315000Y-92005000D01*
G75*
G02*
X114165000Y-91855000I0J150000D01*
G01*
X114165000Y-90105000D01*
G75*
G02*
X114315000Y-89955000I150000J0D01*
G01*
X114615000Y-89955000D01*
G75*
G02*
X114765000Y-90105000I0J-150000D01*
G01*
X114765000Y-91855000D01*
G75*
G02*
X114615000Y-92005000I-150000J0D01*
G01*
G37*
G36*
G01*
X113345000Y-92005000D02*
X113045000Y-92005000D01*
G75*
G02*
X112895000Y-91855000I0J150000D01*
G01*
X112895000Y-90105000D01*
G75*
G02*
X113045000Y-89955000I150000J0D01*
G01*
X113345000Y-89955000D01*
G75*
G02*
X113495000Y-90105000I0J-150000D01*
G01*
X113495000Y-91855000D01*
G75*
G02*
X113345000Y-92005000I-150000J0D01*
G01*
G37*
G36*
G01*
X112075000Y-92005000D02*
X111775000Y-92005000D01*
G75*
G02*
X111625000Y-91855000I0J150000D01*
G01*
X111625000Y-90105000D01*
G75*
G02*
X111775000Y-89955000I150000J0D01*
G01*
X112075000Y-89955000D01*
G75*
G02*
X112225000Y-90105000I0J-150000D01*
G01*
X112225000Y-91855000D01*
G75*
G02*
X112075000Y-92005000I-150000J0D01*
G01*
G37*
G36*
G01*
X81995000Y-127680000D02*
X81995000Y-125680000D01*
G75*
G02*
X82245000Y-125430000I250000J0D01*
G01*
X87745000Y-125430000D01*
G75*
G02*
X87995000Y-125680000I0J-250000D01*
G01*
X87995000Y-127680000D01*
G75*
G02*
X87745000Y-127930000I-250000J0D01*
G01*
X82245000Y-127930000D01*
G75*
G02*
X81995000Y-127680000I0J250000D01*
G01*
G37*
G36*
G01*
X71995000Y-127680000D02*
X71995000Y-125680000D01*
G75*
G02*
X72245000Y-125430000I250000J0D01*
G01*
X77745000Y-125430000D01*
G75*
G02*
X77995000Y-125680000I0J-250000D01*
G01*
X77995000Y-127680000D01*
G75*
G02*
X77745000Y-127930000I-250000J0D01*
G01*
X72245000Y-127930000D01*
G75*
G02*
X71995000Y-127680000I0J250000D01*
G01*
G37*
G36*
G01*
X89370000Y-76430000D02*
X89370000Y-74430000D01*
G75*
G02*
X89620000Y-74180000I250000J0D01*
G01*
X94520000Y-74180000D01*
G75*
G02*
X94770000Y-74430000I0J-250000D01*
G01*
X94770000Y-76430000D01*
G75*
G02*
X94520000Y-76680000I-250000J0D01*
G01*
X89620000Y-76680000D01*
G75*
G02*
X89370000Y-76430000I0J250000D01*
G01*
G37*
G36*
G01*
X80970000Y-76430000D02*
X80970000Y-74430000D01*
G75*
G02*
X81220000Y-74180000I250000J0D01*
G01*
X86120000Y-74180000D01*
G75*
G02*
X86370000Y-74430000I0J-250000D01*
G01*
X86370000Y-76430000D01*
G75*
G02*
X86120000Y-76680000I-250000J0D01*
G01*
X81220000Y-76680000D01*
G75*
G02*
X80970000Y-76430000I0J250000D01*
G01*
G37*
G36*
G01*
X78470000Y-116930000D02*
X78470000Y-114930000D01*
G75*
G02*
X78720000Y-114680000I250000J0D01*
G01*
X83620000Y-114680000D01*
G75*
G02*
X83870000Y-114930000I0J-250000D01*
G01*
X83870000Y-116930000D01*
G75*
G02*
X83620000Y-117180000I-250000J0D01*
G01*
X78720000Y-117180000D01*
G75*
G02*
X78470000Y-116930000I0J250000D01*
G01*
G37*
G36*
G01*
X86870000Y-116930000D02*
X86870000Y-114930000D01*
G75*
G02*
X87120000Y-114680000I250000J0D01*
G01*
X92020000Y-114680000D01*
G75*
G02*
X92270000Y-114930000I0J-250000D01*
G01*
X92270000Y-116930000D01*
G75*
G02*
X92020000Y-117180000I-250000J0D01*
G01*
X87120000Y-117180000D01*
G75*
G02*
X86870000Y-116930000I0J250000D01*
G01*
G37*
G36*
G01*
X83782500Y-110655000D02*
X83782500Y-109705000D01*
G75*
G02*
X84032500Y-109455000I250000J0D01*
G01*
X84707500Y-109455000D01*
G75*
G02*
X84957500Y-109705000I0J-250000D01*
G01*
X84957500Y-110655000D01*
G75*
G02*
X84707500Y-110905000I-250000J0D01*
G01*
X84032500Y-110905000D01*
G75*
G02*
X83782500Y-110655000I0J250000D01*
G01*
G37*
G36*
G01*
X85857500Y-110655000D02*
X85857500Y-109705000D01*
G75*
G02*
X86107500Y-109455000I250000J0D01*
G01*
X86782500Y-109455000D01*
G75*
G02*
X87032500Y-109705000I0J-250000D01*
G01*
X87032500Y-110655000D01*
G75*
G02*
X86782500Y-110905000I-250000J0D01*
G01*
X86107500Y-110905000D01*
G75*
G02*
X85857500Y-110655000I0J250000D01*
G01*
G37*
G36*
G01*
X69120000Y-76430000D02*
X69120000Y-74430000D01*
G75*
G02*
X69370000Y-74180000I250000J0D01*
G01*
X74270000Y-74180000D01*
G75*
G02*
X74520000Y-74430000I0J-250000D01*
G01*
X74520000Y-76430000D01*
G75*
G02*
X74270000Y-76680000I-250000J0D01*
G01*
X69370000Y-76680000D01*
G75*
G02*
X69120000Y-76430000I0J250000D01*
G01*
G37*
G36*
G01*
X60720000Y-76430000D02*
X60720000Y-74430000D01*
G75*
G02*
X60970000Y-74180000I250000J0D01*
G01*
X65870000Y-74180000D01*
G75*
G02*
X66120000Y-74430000I0J-250000D01*
G01*
X66120000Y-76430000D01*
G75*
G02*
X65870000Y-76680000I-250000J0D01*
G01*
X60970000Y-76680000D01*
G75*
G02*
X60720000Y-76430000I0J250000D01*
G01*
G37*
G36*
G01*
X77770000Y-114930000D02*
X77770000Y-116930000D01*
G75*
G02*
X77520000Y-117180000I-250000J0D01*
G01*
X72620000Y-117180000D01*
G75*
G02*
X72370000Y-116930000I0J250000D01*
G01*
X72370000Y-114930000D01*
G75*
G02*
X72620000Y-114680000I250000J0D01*
G01*
X77520000Y-114680000D01*
G75*
G02*
X77770000Y-114930000I0J-250000D01*
G01*
G37*
G36*
G01*
X69370000Y-114930000D02*
X69370000Y-116930000D01*
G75*
G02*
X69120000Y-117180000I-250000J0D01*
G01*
X64220000Y-117180000D01*
G75*
G02*
X63970000Y-116930000I0J250000D01*
G01*
X63970000Y-114930000D01*
G75*
G02*
X64220000Y-114680000I250000J0D01*
G01*
X69120000Y-114680000D01*
G75*
G02*
X69370000Y-114930000I0J-250000D01*
G01*
G37*
G36*
G01*
X69420000Y-109705000D02*
X69420000Y-110655000D01*
G75*
G02*
X69170000Y-110905000I-250000J0D01*
G01*
X68495000Y-110905000D01*
G75*
G02*
X68245000Y-110655000I0J250000D01*
G01*
X68245000Y-109705000D01*
G75*
G02*
X68495000Y-109455000I250000J0D01*
G01*
X69170000Y-109455000D01*
G75*
G02*
X69420000Y-109705000I0J-250000D01*
G01*
G37*
G36*
G01*
X71495000Y-109705000D02*
X71495000Y-110655000D01*
G75*
G02*
X71245000Y-110905000I-250000J0D01*
G01*
X70570000Y-110905000D01*
G75*
G02*
X70320000Y-110655000I0J250000D01*
G01*
X70320000Y-109705000D01*
G75*
G02*
X70570000Y-109455000I250000J0D01*
G01*
X71245000Y-109455000D01*
G75*
G02*
X71495000Y-109705000I0J-250000D01*
G01*
G37*
D13*
X95120000Y-118380000D03*
X95120000Y-112980000D03*
G36*
G01*
X87770001Y-68667500D02*
X86969999Y-68667500D01*
G75*
G02*
X86720000Y-68417501I0J249999D01*
G01*
X86720000Y-67592499D01*
G75*
G02*
X86969999Y-67342500I249999J0D01*
G01*
X87770001Y-67342500D01*
G75*
G02*
X88020000Y-67592499I0J-249999D01*
G01*
X88020000Y-68417501D01*
G75*
G02*
X87770001Y-68667500I-249999J0D01*
G01*
G37*
G36*
G01*
X87770001Y-70592500D02*
X86969999Y-70592500D01*
G75*
G02*
X86720000Y-70342501I0J249999D01*
G01*
X86720000Y-69517499D01*
G75*
G02*
X86969999Y-69267500I249999J0D01*
G01*
X87770001Y-69267500D01*
G75*
G02*
X88020000Y-69517499I0J-249999D01*
G01*
X88020000Y-70342501D01*
G75*
G02*
X87770001Y-70592500I-249999J0D01*
G01*
G37*
X61870000Y-112780000D03*
X61870000Y-118180000D03*
G36*
G01*
X76270001Y-70592500D02*
X75469999Y-70592500D01*
G75*
G02*
X75220000Y-70342501I0J249999D01*
G01*
X75220000Y-69517499D01*
G75*
G02*
X75469999Y-69267500I249999J0D01*
G01*
X76270001Y-69267500D01*
G75*
G02*
X76520000Y-69517499I0J-249999D01*
G01*
X76520000Y-70342501D01*
G75*
G02*
X76270001Y-70592500I-249999J0D01*
G01*
G37*
G36*
G01*
X76270001Y-68667500D02*
X75469999Y-68667500D01*
G75*
G02*
X75220000Y-68417501I0J249999D01*
G01*
X75220000Y-67592499D01*
G75*
G02*
X75469999Y-67342500I249999J0D01*
G01*
X76270001Y-67342500D01*
G75*
G02*
X76520000Y-67592499I0J-249999D01*
G01*
X76520000Y-68417501D01*
G75*
G02*
X76270001Y-68667500I-249999J0D01*
G01*
G37*
G36*
G01*
X84070001Y-68530000D02*
X83169999Y-68530000D01*
G75*
G02*
X82920000Y-68280001I0J249999D01*
G01*
X82920000Y-67579999D01*
G75*
G02*
X83169999Y-67330000I249999J0D01*
G01*
X84070001Y-67330000D01*
G75*
G02*
X84320000Y-67579999I0J-249999D01*
G01*
X84320000Y-68280001D01*
G75*
G02*
X84070001Y-68530000I-249999J0D01*
G01*
G37*
G36*
G01*
X84070001Y-70530000D02*
X83169999Y-70530000D01*
G75*
G02*
X82920000Y-70280001I0J249999D01*
G01*
X82920000Y-69579999D01*
G75*
G02*
X83169999Y-69330000I249999J0D01*
G01*
X84070001Y-69330000D01*
G75*
G02*
X84320000Y-69579999I0J-249999D01*
G01*
X84320000Y-70280001D01*
G75*
G02*
X84070001Y-70530000I-249999J0D01*
G01*
G37*
G36*
G01*
X72820001Y-70530000D02*
X71919999Y-70530000D01*
G75*
G02*
X71670000Y-70280001I0J249999D01*
G01*
X71670000Y-69579999D01*
G75*
G02*
X71919999Y-69330000I249999J0D01*
G01*
X72820001Y-69330000D01*
G75*
G02*
X73070000Y-69579999I0J-249999D01*
G01*
X73070000Y-70280001D01*
G75*
G02*
X72820001Y-70530000I-249999J0D01*
G01*
G37*
G36*
G01*
X72820001Y-68530000D02*
X71919999Y-68530000D01*
G75*
G02*
X71670000Y-68280001I0J249999D01*
G01*
X71670000Y-67579999D01*
G75*
G02*
X71919999Y-67330000I249999J0D01*
G01*
X72820001Y-67330000D01*
G75*
G02*
X73070000Y-67579999I0J-249999D01*
G01*
X73070000Y-68280001D01*
G75*
G02*
X72820001Y-68530000I-249999J0D01*
G01*
G37*
G36*
G01*
X174920000Y-96929999D02*
X174920000Y-97830001D01*
G75*
G02*
X174670001Y-98080000I-249999J0D01*
G01*
X173969999Y-98080000D01*
G75*
G02*
X173720000Y-97830001I0J249999D01*
G01*
X173720000Y-96929999D01*
G75*
G02*
X173969999Y-96680000I249999J0D01*
G01*
X174670001Y-96680000D01*
G75*
G02*
X174920000Y-96929999I0J-249999D01*
G01*
G37*
G36*
G01*
X176920000Y-96929999D02*
X176920000Y-97830001D01*
G75*
G02*
X176670001Y-98080000I-249999J0D01*
G01*
X175969999Y-98080000D01*
G75*
G02*
X175720000Y-97830001I0J249999D01*
G01*
X175720000Y-96929999D01*
G75*
G02*
X175969999Y-96680000I249999J0D01*
G01*
X176670001Y-96680000D01*
G75*
G02*
X176920000Y-96929999I0J-249999D01*
G01*
G37*
G36*
G01*
X177557200Y-92680001D02*
X177557200Y-91779999D01*
G75*
G02*
X177807199Y-91530000I249999J0D01*
G01*
X178507201Y-91530000D01*
G75*
G02*
X178757200Y-91779999I0J-249999D01*
G01*
X178757200Y-92680001D01*
G75*
G02*
X178507201Y-92930000I-249999J0D01*
G01*
X177807199Y-92930000D01*
G75*
G02*
X177557200Y-92680001I0J249999D01*
G01*
G37*
G36*
G01*
X175557200Y-92680001D02*
X175557200Y-91779999D01*
G75*
G02*
X175807199Y-91530000I249999J0D01*
G01*
X176507201Y-91530000D01*
G75*
G02*
X176757200Y-91779999I0J-249999D01*
G01*
X176757200Y-92680001D01*
G75*
G02*
X176507201Y-92930000I-249999J0D01*
G01*
X175807199Y-92930000D01*
G75*
G02*
X175557200Y-92680001I0J249999D01*
G01*
G37*
G36*
G01*
X177557200Y-95580001D02*
X177557200Y-94679999D01*
G75*
G02*
X177807199Y-94430000I249999J0D01*
G01*
X178507201Y-94430000D01*
G75*
G02*
X178757200Y-94679999I0J-249999D01*
G01*
X178757200Y-95580001D01*
G75*
G02*
X178507201Y-95830000I-249999J0D01*
G01*
X177807199Y-95830000D01*
G75*
G02*
X177557200Y-95580001I0J249999D01*
G01*
G37*
G36*
G01*
X175557200Y-95580001D02*
X175557200Y-94679999D01*
G75*
G02*
X175807199Y-94430000I249999J0D01*
G01*
X176507201Y-94430000D01*
G75*
G02*
X176757200Y-94679999I0J-249999D01*
G01*
X176757200Y-95580001D01*
G75*
G02*
X176507201Y-95830000I-249999J0D01*
G01*
X175807199Y-95830000D01*
G75*
G02*
X175557200Y-95580001I0J249999D01*
G01*
G37*
G36*
G01*
X175557200Y-89530001D02*
X175557200Y-88629999D01*
G75*
G02*
X175807199Y-88380000I249999J0D01*
G01*
X176507201Y-88380000D01*
G75*
G02*
X176757200Y-88629999I0J-249999D01*
G01*
X176757200Y-89530001D01*
G75*
G02*
X176507201Y-89780000I-249999J0D01*
G01*
X175807199Y-89780000D01*
G75*
G02*
X175557200Y-89530001I0J249999D01*
G01*
G37*
G36*
G01*
X177557200Y-89530001D02*
X177557200Y-88629999D01*
G75*
G02*
X177807199Y-88380000I249999J0D01*
G01*
X178507201Y-88380000D01*
G75*
G02*
X178757200Y-88629999I0J-249999D01*
G01*
X178757200Y-89530001D01*
G75*
G02*
X178507201Y-89780000I-249999J0D01*
G01*
X177807199Y-89780000D01*
G75*
G02*
X177557200Y-89530001I0J249999D01*
G01*
G37*
G36*
G01*
X177557200Y-92680001D02*
X177557200Y-91779999D01*
G75*
G02*
X177807199Y-91530000I249999J0D01*
G01*
X178507201Y-91530000D01*
G75*
G02*
X178757200Y-91779999I0J-249999D01*
G01*
X178757200Y-92680001D01*
G75*
G02*
X178507201Y-92930000I-249999J0D01*
G01*
X177807199Y-92930000D01*
G75*
G02*
X177557200Y-92680001I0J249999D01*
G01*
G37*
G36*
G01*
X179557200Y-92680001D02*
X179557200Y-91779999D01*
G75*
G02*
X179807199Y-91530000I249999J0D01*
G01*
X180507201Y-91530000D01*
G75*
G02*
X180757200Y-91779999I0J-249999D01*
G01*
X180757200Y-92680001D01*
G75*
G02*
X180507201Y-92930000I-249999J0D01*
G01*
X179807199Y-92930000D01*
G75*
G02*
X179557200Y-92680001I0J249999D01*
G01*
G37*
G36*
G01*
X177557200Y-95580001D02*
X177557200Y-94679999D01*
G75*
G02*
X177807199Y-94430000I249999J0D01*
G01*
X178507201Y-94430000D01*
G75*
G02*
X178757200Y-94679999I0J-249999D01*
G01*
X178757200Y-95580001D01*
G75*
G02*
X178507201Y-95830000I-249999J0D01*
G01*
X177807199Y-95830000D01*
G75*
G02*
X177557200Y-95580001I0J249999D01*
G01*
G37*
G36*
G01*
X179557200Y-95580001D02*
X179557200Y-94679999D01*
G75*
G02*
X179807199Y-94430000I249999J0D01*
G01*
X180507201Y-94430000D01*
G75*
G02*
X180757200Y-94679999I0J-249999D01*
G01*
X180757200Y-95580001D01*
G75*
G02*
X180507201Y-95830000I-249999J0D01*
G01*
X179807199Y-95830000D01*
G75*
G02*
X179557200Y-95580001I0J249999D01*
G01*
G37*
G36*
G01*
X179557200Y-89530001D02*
X179557200Y-88629999D01*
G75*
G02*
X179807199Y-88380000I249999J0D01*
G01*
X180507201Y-88380000D01*
G75*
G02*
X180757200Y-88629999I0J-249999D01*
G01*
X180757200Y-89530001D01*
G75*
G02*
X180507201Y-89780000I-249999J0D01*
G01*
X179807199Y-89780000D01*
G75*
G02*
X179557200Y-89530001I0J249999D01*
G01*
G37*
G36*
G01*
X177557200Y-89530001D02*
X177557200Y-88629999D01*
G75*
G02*
X177807199Y-88380000I249999J0D01*
G01*
X178507201Y-88380000D01*
G75*
G02*
X178757200Y-88629999I0J-249999D01*
G01*
X178757200Y-89530001D01*
G75*
G02*
X178507201Y-89780000I-249999J0D01*
G01*
X177807199Y-89780000D01*
G75*
G02*
X177557200Y-89530001I0J249999D01*
G01*
G37*
G36*
G01*
X119670000Y-49605000D02*
X119670000Y-50555000D01*
G75*
G02*
X119420000Y-50805000I-250000J0D01*
G01*
X118745000Y-50805000D01*
G75*
G02*
X118495000Y-50555000I0J250000D01*
G01*
X118495000Y-49605000D01*
G75*
G02*
X118745000Y-49355000I250000J0D01*
G01*
X119420000Y-49355000D01*
G75*
G02*
X119670000Y-49605000I0J-250000D01*
G01*
G37*
G36*
G01*
X121745000Y-49605000D02*
X121745000Y-50555000D01*
G75*
G02*
X121495000Y-50805000I-250000J0D01*
G01*
X120820000Y-50805000D01*
G75*
G02*
X120570000Y-50555000I0J250000D01*
G01*
X120570000Y-49605000D01*
G75*
G02*
X120820000Y-49355000I250000J0D01*
G01*
X121495000Y-49355000D01*
G75*
G02*
X121745000Y-49605000I0J-250000D01*
G01*
G37*
G36*
G01*
X119045000Y-46442500D02*
X118095000Y-46442500D01*
G75*
G02*
X117845000Y-46192500I0J250000D01*
G01*
X117845000Y-45517500D01*
G75*
G02*
X118095000Y-45267500I250000J0D01*
G01*
X119045000Y-45267500D01*
G75*
G02*
X119295000Y-45517500I0J-250000D01*
G01*
X119295000Y-46192500D01*
G75*
G02*
X119045000Y-46442500I-250000J0D01*
G01*
G37*
G36*
G01*
X119045000Y-44367500D02*
X118095000Y-44367500D01*
G75*
G02*
X117845000Y-44117500I0J250000D01*
G01*
X117845000Y-43442500D01*
G75*
G02*
X118095000Y-43192500I250000J0D01*
G01*
X119045000Y-43192500D01*
G75*
G02*
X119295000Y-43442500I0J-250000D01*
G01*
X119295000Y-44117500D01*
G75*
G02*
X119045000Y-44367500I-250000J0D01*
G01*
G37*
G36*
G01*
X122095000Y-44367500D02*
X121145000Y-44367500D01*
G75*
G02*
X120895000Y-44117500I0J250000D01*
G01*
X120895000Y-43442500D01*
G75*
G02*
X121145000Y-43192500I250000J0D01*
G01*
X122095000Y-43192500D01*
G75*
G02*
X122345000Y-43442500I0J-250000D01*
G01*
X122345000Y-44117500D01*
G75*
G02*
X122095000Y-44367500I-250000J0D01*
G01*
G37*
G36*
G01*
X122095000Y-46442500D02*
X121145000Y-46442500D01*
G75*
G02*
X120895000Y-46192500I0J250000D01*
G01*
X120895000Y-45517500D01*
G75*
G02*
X121145000Y-45267500I250000J0D01*
G01*
X122095000Y-45267500D01*
G75*
G02*
X122345000Y-45517500I0J-250000D01*
G01*
X122345000Y-46192500D01*
G75*
G02*
X122095000Y-46442500I-250000J0D01*
G01*
G37*
G36*
G01*
X109061999Y-96941999D02*
X108111999Y-96941999D01*
G75*
G02*
X107861999Y-96691999I0J250000D01*
G01*
X107861999Y-96016999D01*
G75*
G02*
X108111999Y-95766999I250000J0D01*
G01*
X109061999Y-95766999D01*
G75*
G02*
X109311999Y-96016999I0J-250000D01*
G01*
X109311999Y-96691999D01*
G75*
G02*
X109061999Y-96941999I-250000J0D01*
G01*
G37*
G36*
G01*
X109061999Y-94866999D02*
X108111999Y-94866999D01*
G75*
G02*
X107861999Y-94616999I0J250000D01*
G01*
X107861999Y-93941999D01*
G75*
G02*
X108111999Y-93691999I250000J0D01*
G01*
X109061999Y-93691999D01*
G75*
G02*
X109311999Y-93941999I0J-250000D01*
G01*
X109311999Y-94616999D01*
G75*
G02*
X109061999Y-94866999I-250000J0D01*
G01*
G37*
G36*
G01*
X106051999Y-94866999D02*
X105101999Y-94866999D01*
G75*
G02*
X104851999Y-94616999I0J250000D01*
G01*
X104851999Y-93941999D01*
G75*
G02*
X105101999Y-93691999I250000J0D01*
G01*
X106051999Y-93691999D01*
G75*
G02*
X106301999Y-93941999I0J-250000D01*
G01*
X106301999Y-94616999D01*
G75*
G02*
X106051999Y-94866999I-250000J0D01*
G01*
G37*
G36*
G01*
X106051999Y-96941999D02*
X105101999Y-96941999D01*
G75*
G02*
X104851999Y-96691999I0J250000D01*
G01*
X104851999Y-96016999D01*
G75*
G02*
X105101999Y-95766999I250000J0D01*
G01*
X106051999Y-95766999D01*
G75*
G02*
X106301999Y-96016999I0J-250000D01*
G01*
X106301999Y-96691999D01*
G75*
G02*
X106051999Y-96941999I-250000J0D01*
G01*
G37*
G36*
G01*
X118570000Y-48330001D02*
X118570000Y-47429999D01*
G75*
G02*
X118819999Y-47180000I249999J0D01*
G01*
X119520001Y-47180000D01*
G75*
G02*
X119770000Y-47429999I0J-249999D01*
G01*
X119770000Y-48330001D01*
G75*
G02*
X119520001Y-48580000I-249999J0D01*
G01*
X118819999Y-48580000D01*
G75*
G02*
X118570000Y-48330001I0J249999D01*
G01*
G37*
G36*
G01*
X120570000Y-48330001D02*
X120570000Y-47429999D01*
G75*
G02*
X120819999Y-47180000I249999J0D01*
G01*
X121520001Y-47180000D01*
G75*
G02*
X121770000Y-47429999I0J-249999D01*
G01*
X121770000Y-48330001D01*
G75*
G02*
X121520001Y-48580000I-249999J0D01*
G01*
X120819999Y-48580000D01*
G75*
G02*
X120570000Y-48330001I0J249999D01*
G01*
G37*
G36*
G01*
X112380001Y-85180000D02*
X111479999Y-85180000D01*
G75*
G02*
X111230000Y-84930001I0J249999D01*
G01*
X111230000Y-84229999D01*
G75*
G02*
X111479999Y-83980000I249999J0D01*
G01*
X112380001Y-83980000D01*
G75*
G02*
X112630000Y-84229999I0J-249999D01*
G01*
X112630000Y-84930001D01*
G75*
G02*
X112380001Y-85180000I-249999J0D01*
G01*
G37*
G36*
G01*
X112380001Y-87180000D02*
X111479999Y-87180000D01*
G75*
G02*
X111230000Y-86930001I0J249999D01*
G01*
X111230000Y-86229999D01*
G75*
G02*
X111479999Y-85980000I249999J0D01*
G01*
X112380001Y-85980000D01*
G75*
G02*
X112630000Y-86229999I0J-249999D01*
G01*
X112630000Y-86930001D01*
G75*
G02*
X112380001Y-87180000I-249999J0D01*
G01*
G37*
G36*
G01*
X115450001Y-87220000D02*
X114549999Y-87220000D01*
G75*
G02*
X114300000Y-86970001I0J249999D01*
G01*
X114300000Y-86269999D01*
G75*
G02*
X114549999Y-86020000I249999J0D01*
G01*
X115450001Y-86020000D01*
G75*
G02*
X115700000Y-86269999I0J-249999D01*
G01*
X115700000Y-86970001D01*
G75*
G02*
X115450001Y-87220000I-249999J0D01*
G01*
G37*
G36*
G01*
X115450001Y-85220000D02*
X114549999Y-85220000D01*
G75*
G02*
X114300000Y-84970001I0J249999D01*
G01*
X114300000Y-84269999D01*
G75*
G02*
X114549999Y-84020000I249999J0D01*
G01*
X115450001Y-84020000D01*
G75*
G02*
X115700000Y-84269999I0J-249999D01*
G01*
X115700000Y-84970001D01*
G75*
G02*
X115450001Y-85220000I-249999J0D01*
G01*
G37*
G36*
G01*
X107919999Y-101830000D02*
X108820001Y-101830000D01*
G75*
G02*
X109070000Y-102079999I0J-249999D01*
G01*
X109070000Y-102780001D01*
G75*
G02*
X108820001Y-103030000I-249999J0D01*
G01*
X107919999Y-103030000D01*
G75*
G02*
X107670000Y-102780001I0J249999D01*
G01*
X107670000Y-102079999D01*
G75*
G02*
X107919999Y-101830000I249999J0D01*
G01*
G37*
G36*
G01*
X107919999Y-103830000D02*
X108820001Y-103830000D01*
G75*
G02*
X109070000Y-104079999I0J-249999D01*
G01*
X109070000Y-104780001D01*
G75*
G02*
X108820001Y-105030000I-249999J0D01*
G01*
X107919999Y-105030000D01*
G75*
G02*
X107670000Y-104780001I0J249999D01*
G01*
X107670000Y-104079999D01*
G75*
G02*
X107919999Y-103830000I249999J0D01*
G01*
G37*
G36*
G01*
X105119999Y-103830000D02*
X106020001Y-103830000D01*
G75*
G02*
X106270000Y-104079999I0J-249999D01*
G01*
X106270000Y-104780001D01*
G75*
G02*
X106020001Y-105030000I-249999J0D01*
G01*
X105119999Y-105030000D01*
G75*
G02*
X104870000Y-104780001I0J249999D01*
G01*
X104870000Y-104079999D01*
G75*
G02*
X105119999Y-103830000I249999J0D01*
G01*
G37*
G36*
G01*
X105119999Y-101830000D02*
X106020001Y-101830000D01*
G75*
G02*
X106270000Y-102079999I0J-249999D01*
G01*
X106270000Y-102780001D01*
G75*
G02*
X106020001Y-103030000I-249999J0D01*
G01*
X105119999Y-103030000D01*
G75*
G02*
X104870000Y-102780001I0J249999D01*
G01*
X104870000Y-102079999D01*
G75*
G02*
X105119999Y-101830000I249999J0D01*
G01*
G37*
G36*
G01*
X102369999Y-101830000D02*
X103270001Y-101830000D01*
G75*
G02*
X103520000Y-102079999I0J-249999D01*
G01*
X103520000Y-102780001D01*
G75*
G02*
X103270001Y-103030000I-249999J0D01*
G01*
X102369999Y-103030000D01*
G75*
G02*
X102120000Y-102780001I0J249999D01*
G01*
X102120000Y-102079999D01*
G75*
G02*
X102369999Y-101830000I249999J0D01*
G01*
G37*
G36*
G01*
X102369999Y-103830000D02*
X103270001Y-103830000D01*
G75*
G02*
X103520000Y-104079999I0J-249999D01*
G01*
X103520000Y-104780001D01*
G75*
G02*
X103270001Y-105030000I-249999J0D01*
G01*
X102369999Y-105030000D01*
G75*
G02*
X102120000Y-104780001I0J249999D01*
G01*
X102120000Y-104079999D01*
G75*
G02*
X102369999Y-103830000I249999J0D01*
G01*
G37*
G36*
G01*
X107919999Y-105830000D02*
X108820001Y-105830000D01*
G75*
G02*
X109070000Y-106079999I0J-249999D01*
G01*
X109070000Y-106780001D01*
G75*
G02*
X108820001Y-107030000I-249999J0D01*
G01*
X107919999Y-107030000D01*
G75*
G02*
X107670000Y-106780001I0J249999D01*
G01*
X107670000Y-106079999D01*
G75*
G02*
X107919999Y-105830000I249999J0D01*
G01*
G37*
G36*
G01*
X107919999Y-103830000D02*
X108820001Y-103830000D01*
G75*
G02*
X109070000Y-104079999I0J-249999D01*
G01*
X109070000Y-104780001D01*
G75*
G02*
X108820001Y-105030000I-249999J0D01*
G01*
X107919999Y-105030000D01*
G75*
G02*
X107670000Y-104780001I0J249999D01*
G01*
X107670000Y-104079999D01*
G75*
G02*
X107919999Y-103830000I249999J0D01*
G01*
G37*
G36*
G01*
X105119999Y-105830000D02*
X106020001Y-105830000D01*
G75*
G02*
X106270000Y-106079999I0J-249999D01*
G01*
X106270000Y-106780001D01*
G75*
G02*
X106020001Y-107030000I-249999J0D01*
G01*
X105119999Y-107030000D01*
G75*
G02*
X104870000Y-106780001I0J249999D01*
G01*
X104870000Y-106079999D01*
G75*
G02*
X105119999Y-105830000I249999J0D01*
G01*
G37*
G36*
G01*
X105119999Y-103830000D02*
X106020001Y-103830000D01*
G75*
G02*
X106270000Y-104079999I0J-249999D01*
G01*
X106270000Y-104780001D01*
G75*
G02*
X106020001Y-105030000I-249999J0D01*
G01*
X105119999Y-105030000D01*
G75*
G02*
X104870000Y-104780001I0J249999D01*
G01*
X104870000Y-104079999D01*
G75*
G02*
X105119999Y-103830000I249999J0D01*
G01*
G37*
G36*
G01*
X102369999Y-105830000D02*
X103270001Y-105830000D01*
G75*
G02*
X103520000Y-106079999I0J-249999D01*
G01*
X103520000Y-106780001D01*
G75*
G02*
X103270001Y-107030000I-249999J0D01*
G01*
X102369999Y-107030000D01*
G75*
G02*
X102120000Y-106780001I0J249999D01*
G01*
X102120000Y-106079999D01*
G75*
G02*
X102369999Y-105830000I249999J0D01*
G01*
G37*
G36*
G01*
X102369999Y-103830000D02*
X103270001Y-103830000D01*
G75*
G02*
X103520000Y-104079999I0J-249999D01*
G01*
X103520000Y-104780001D01*
G75*
G02*
X103270001Y-105030000I-249999J0D01*
G01*
X102369999Y-105030000D01*
G75*
G02*
X102120000Y-104780001I0J249999D01*
G01*
X102120000Y-104079999D01*
G75*
G02*
X102369999Y-103830000I249999J0D01*
G01*
G37*
D14*
X161170000Y-93480000D03*
X162120000Y-95480000D03*
X160220000Y-95480000D03*
X165220000Y-95480000D03*
X167120000Y-95480000D03*
X166170000Y-93480000D03*
X170270000Y-95480000D03*
X172170000Y-95480000D03*
X171220000Y-93480000D03*
G36*
G01*
X159769999Y-100980000D02*
X160670001Y-100980000D01*
G75*
G02*
X160920000Y-101229999I0J-249999D01*
G01*
X160920000Y-101930001D01*
G75*
G02*
X160670001Y-102180000I-249999J0D01*
G01*
X159769999Y-102180000D01*
G75*
G02*
X159520000Y-101930001I0J249999D01*
G01*
X159520000Y-101229999D01*
G75*
G02*
X159769999Y-100980000I249999J0D01*
G01*
G37*
G36*
G01*
X159769999Y-98980000D02*
X160670001Y-98980000D01*
G75*
G02*
X160920000Y-99229999I0J-249999D01*
G01*
X160920000Y-99930001D01*
G75*
G02*
X160670001Y-100180000I-249999J0D01*
G01*
X159769999Y-100180000D01*
G75*
G02*
X159520000Y-99930001I0J249999D01*
G01*
X159520000Y-99229999D01*
G75*
G02*
X159769999Y-98980000I249999J0D01*
G01*
G37*
G36*
G01*
X170669999Y-115280000D02*
X171570001Y-115280000D01*
G75*
G02*
X171820000Y-115529999I0J-249999D01*
G01*
X171820000Y-116230001D01*
G75*
G02*
X171570001Y-116480000I-249999J0D01*
G01*
X170669999Y-116480000D01*
G75*
G02*
X170420000Y-116230001I0J249999D01*
G01*
X170420000Y-115529999D01*
G75*
G02*
X170669999Y-115280000I249999J0D01*
G01*
G37*
G36*
G01*
X170669999Y-117280000D02*
X171570001Y-117280000D01*
G75*
G02*
X171820000Y-117529999I0J-249999D01*
G01*
X171820000Y-118230001D01*
G75*
G02*
X171570001Y-118480000I-249999J0D01*
G01*
X170669999Y-118480000D01*
G75*
G02*
X170420000Y-118230001I0J249999D01*
G01*
X170420000Y-117529999D01*
G75*
G02*
X170669999Y-117280000I249999J0D01*
G01*
G37*
G36*
G01*
X173770001Y-116480000D02*
X172869999Y-116480000D01*
G75*
G02*
X172620000Y-116230001I0J249999D01*
G01*
X172620000Y-115529999D01*
G75*
G02*
X172869999Y-115280000I249999J0D01*
G01*
X173770001Y-115280000D01*
G75*
G02*
X174020000Y-115529999I0J-249999D01*
G01*
X174020000Y-116230001D01*
G75*
G02*
X173770001Y-116480000I-249999J0D01*
G01*
G37*
G36*
G01*
X173770001Y-118480000D02*
X172869999Y-118480000D01*
G75*
G02*
X172620000Y-118230001I0J249999D01*
G01*
X172620000Y-117529999D01*
G75*
G02*
X172869999Y-117280000I249999J0D01*
G01*
X173770001Y-117280000D01*
G75*
G02*
X174020000Y-117529999I0J-249999D01*
G01*
X174020000Y-118230001D01*
G75*
G02*
X173770001Y-118480000I-249999J0D01*
G01*
G37*
G36*
G01*
X164769999Y-98880000D02*
X165670001Y-98880000D01*
G75*
G02*
X165920000Y-99129999I0J-249999D01*
G01*
X165920000Y-99830001D01*
G75*
G02*
X165670001Y-100080000I-249999J0D01*
G01*
X164769999Y-100080000D01*
G75*
G02*
X164520000Y-99830001I0J249999D01*
G01*
X164520000Y-99129999D01*
G75*
G02*
X164769999Y-98880000I249999J0D01*
G01*
G37*
G36*
G01*
X164769999Y-100880000D02*
X165670001Y-100880000D01*
G75*
G02*
X165920000Y-101129999I0J-249999D01*
G01*
X165920000Y-101830001D01*
G75*
G02*
X165670001Y-102080000I-249999J0D01*
G01*
X164769999Y-102080000D01*
G75*
G02*
X164520000Y-101830001I0J249999D01*
G01*
X164520000Y-101129999D01*
G75*
G02*
X164769999Y-100880000I249999J0D01*
G01*
G37*
G36*
G01*
X164169999Y-104880000D02*
X165070001Y-104880000D01*
G75*
G02*
X165320000Y-105129999I0J-249999D01*
G01*
X165320000Y-105830001D01*
G75*
G02*
X165070001Y-106080000I-249999J0D01*
G01*
X164169999Y-106080000D01*
G75*
G02*
X163920000Y-105830001I0J249999D01*
G01*
X163920000Y-105129999D01*
G75*
G02*
X164169999Y-104880000I249999J0D01*
G01*
G37*
G36*
G01*
X164169999Y-106880000D02*
X165070001Y-106880000D01*
G75*
G02*
X165320000Y-107129999I0J-249999D01*
G01*
X165320000Y-107830001D01*
G75*
G02*
X165070001Y-108080000I-249999J0D01*
G01*
X164169999Y-108080000D01*
G75*
G02*
X163920000Y-107830001I0J249999D01*
G01*
X163920000Y-107129999D01*
G75*
G02*
X164169999Y-106880000I249999J0D01*
G01*
G37*
G36*
G01*
X167170001Y-106080000D02*
X166269999Y-106080000D01*
G75*
G02*
X166020000Y-105830001I0J249999D01*
G01*
X166020000Y-105129999D01*
G75*
G02*
X166269999Y-104880000I249999J0D01*
G01*
X167170001Y-104880000D01*
G75*
G02*
X167420000Y-105129999I0J-249999D01*
G01*
X167420000Y-105830001D01*
G75*
G02*
X167170001Y-106080000I-249999J0D01*
G01*
G37*
G36*
G01*
X167170001Y-108080000D02*
X166269999Y-108080000D01*
G75*
G02*
X166020000Y-107830001I0J249999D01*
G01*
X166020000Y-107129999D01*
G75*
G02*
X166269999Y-106880000I249999J0D01*
G01*
X167170001Y-106880000D01*
G75*
G02*
X167420000Y-107129999I0J-249999D01*
G01*
X167420000Y-107830001D01*
G75*
G02*
X167170001Y-108080000I-249999J0D01*
G01*
G37*
G36*
G01*
X169769999Y-98880000D02*
X170670001Y-98880000D01*
G75*
G02*
X170920000Y-99129999I0J-249999D01*
G01*
X170920000Y-99830001D01*
G75*
G02*
X170670001Y-100080000I-249999J0D01*
G01*
X169769999Y-100080000D01*
G75*
G02*
X169520000Y-99830001I0J249999D01*
G01*
X169520000Y-99129999D01*
G75*
G02*
X169769999Y-98880000I249999J0D01*
G01*
G37*
G36*
G01*
X169769999Y-100880000D02*
X170670001Y-100880000D01*
G75*
G02*
X170920000Y-101129999I0J-249999D01*
G01*
X170920000Y-101830001D01*
G75*
G02*
X170670001Y-102080000I-249999J0D01*
G01*
X169769999Y-102080000D01*
G75*
G02*
X169520000Y-101830001I0J249999D01*
G01*
X169520000Y-101129999D01*
G75*
G02*
X169769999Y-100880000I249999J0D01*
G01*
G37*
G36*
G01*
X178869999Y-107080000D02*
X179770001Y-107080000D01*
G75*
G02*
X180020000Y-107329999I0J-249999D01*
G01*
X180020000Y-108030001D01*
G75*
G02*
X179770001Y-108280000I-249999J0D01*
G01*
X178869999Y-108280000D01*
G75*
G02*
X178620000Y-108030001I0J249999D01*
G01*
X178620000Y-107329999D01*
G75*
G02*
X178869999Y-107080000I249999J0D01*
G01*
G37*
G36*
G01*
X178869999Y-105080000D02*
X179770001Y-105080000D01*
G75*
G02*
X180020000Y-105329999I0J-249999D01*
G01*
X180020000Y-106030001D01*
G75*
G02*
X179770001Y-106280000I-249999J0D01*
G01*
X178869999Y-106280000D01*
G75*
G02*
X178620000Y-106030001I0J249999D01*
G01*
X178620000Y-105329999D01*
G75*
G02*
X178869999Y-105080000I249999J0D01*
G01*
G37*
G36*
G01*
X181870001Y-108280000D02*
X180969999Y-108280000D01*
G75*
G02*
X180720000Y-108030001I0J249999D01*
G01*
X180720000Y-107329999D01*
G75*
G02*
X180969999Y-107080000I249999J0D01*
G01*
X181870001Y-107080000D01*
G75*
G02*
X182120000Y-107329999I0J-249999D01*
G01*
X182120000Y-108030001D01*
G75*
G02*
X181870001Y-108280000I-249999J0D01*
G01*
G37*
G36*
G01*
X181870001Y-106280000D02*
X180969999Y-106280000D01*
G75*
G02*
X180720000Y-106030001I0J249999D01*
G01*
X180720000Y-105329999D01*
G75*
G02*
X180969999Y-105080000I249999J0D01*
G01*
X181870001Y-105080000D01*
G75*
G02*
X182120000Y-105329999I0J-249999D01*
G01*
X182120000Y-106030001D01*
G75*
G02*
X181870001Y-106280000I-249999J0D01*
G01*
G37*
D15*
X183530000Y-115340000D03*
X175910000Y-120420000D03*
X183530000Y-117880000D03*
X175910000Y-117880000D03*
X183530000Y-120420000D03*
X175910000Y-115340000D03*
X176820000Y-105140000D03*
X169200000Y-110220000D03*
X176820000Y-107680000D03*
X169200000Y-107680000D03*
X176820000Y-110220000D03*
X169200000Y-105140000D03*
X183810000Y-105140000D03*
X191430000Y-110220000D03*
X183810000Y-107680000D03*
X191430000Y-107680000D03*
X183810000Y-110220000D03*
X191430000Y-105140000D03*
G36*
G01*
X118540001Y-85220000D02*
X117639999Y-85220000D01*
G75*
G02*
X117390000Y-84970001I0J249999D01*
G01*
X117390000Y-84269999D01*
G75*
G02*
X117639999Y-84020000I249999J0D01*
G01*
X118540001Y-84020000D01*
G75*
G02*
X118790000Y-84269999I0J-249999D01*
G01*
X118790000Y-84970001D01*
G75*
G02*
X118540001Y-85220000I-249999J0D01*
G01*
G37*
G36*
G01*
X118540001Y-87220000D02*
X117639999Y-87220000D01*
G75*
G02*
X117390000Y-86970001I0J249999D01*
G01*
X117390000Y-86269999D01*
G75*
G02*
X117639999Y-86020000I249999J0D01*
G01*
X118540001Y-86020000D01*
G75*
G02*
X118790000Y-86269999I0J-249999D01*
G01*
X118790000Y-86970001D01*
G75*
G02*
X118540001Y-87220000I-249999J0D01*
G01*
G37*
M02*
