%FSLAX45Y45*%
G04 Gerber Fmt 4.5, Leading zero omitted, Abs format (unit mm)*
G04 Created by KiCad (PCBNEW 5.1.10) date 2021-10-17 19:14:27*
%MOMM*%
%LPD*%
G01*
G04 APERTURE LIST*
%TA.AperFunction,Profile*%
%ADD10C,0.100000*%
%TD*%
%ADD11C,0.200000*%
%ADD12C,0.300000*%
G04 APERTURE END LIST*
D10*
X20562000Y-4268000D02*
G75*
G02*
X20962000Y-4668000I0J-400000D01*
G01*
X20962000Y-13868000D02*
G75*
G02*
X20562000Y-14268000I-400000J0D01*
G01*
X5962000Y-4668000D02*
G75*
G02*
X6362000Y-4268000I400000J0D01*
G01*
X6362000Y-14268000D02*
G75*
G02*
X5962000Y-13868000I0J400000D01*
G01*
X5962000Y-4668000D02*
X5962000Y-13868000D01*
X20562000Y-4268000D02*
X6362000Y-4268000D01*
X20962000Y-13868000D02*
X20962000Y-4668000D01*
X6362000Y-14268000D02*
X20562000Y-14268000D01*
D11*
X20438500Y-4379500D02*
X20763500Y-4704500D01*
X20763500Y-4379500D02*
X20438500Y-4704500D01*
X20438500Y-5141500D02*
X20763500Y-5466500D01*
X20763500Y-5141500D02*
X20438500Y-5466500D01*
X20438500Y-5606500D02*
X20763500Y-5931500D01*
X20763500Y-5606500D02*
X20438500Y-5931500D01*
X20438500Y-6368500D02*
X20763500Y-6693500D01*
X20763500Y-6368500D02*
X20438500Y-6693500D01*
X20438500Y-6829500D02*
X20763500Y-7154500D01*
X20763500Y-6829500D02*
X20438500Y-7154500D01*
X20438500Y-7591500D02*
X20763500Y-7916500D01*
X20763500Y-7591500D02*
X20438500Y-7916500D01*
X20438500Y-8049500D02*
X20763500Y-8374500D01*
X20763500Y-8049500D02*
X20438500Y-8374500D01*
X20438500Y-8811500D02*
X20763500Y-9136500D01*
X20763500Y-8811500D02*
X20438500Y-9136500D01*
X20438500Y-9319500D02*
X20763500Y-9644500D01*
X20763500Y-9319500D02*
X20438500Y-9644500D01*
X20438500Y-10081500D02*
X20763500Y-10406500D01*
X20763500Y-10081500D02*
X20438500Y-10406500D01*
X20438500Y-10560500D02*
X20763500Y-10885500D01*
X20763500Y-10560500D02*
X20438500Y-10885500D01*
X20438500Y-11322500D02*
X20763500Y-11647500D01*
X20763500Y-11322500D02*
X20438500Y-11647500D01*
X20438500Y-11810500D02*
X20763500Y-12135500D01*
X20763500Y-11810500D02*
X20438500Y-12135500D01*
X20438500Y-12572500D02*
X20763500Y-12897500D01*
X20763500Y-12572500D02*
X20438500Y-12897500D01*
X20438500Y-13034500D02*
X20763500Y-13359500D01*
X20763500Y-13034500D02*
X20438500Y-13359500D01*
X20438500Y-13796500D02*
X20763500Y-14121500D01*
X20763500Y-13796500D02*
X20438500Y-14121500D01*
D12*
X5998428Y-14738714D02*
X5998428Y-14438714D01*
X6069857Y-14438714D01*
X6112714Y-14453000D01*
X6141286Y-14481571D01*
X6155571Y-14510143D01*
X6169857Y-14567286D01*
X6169857Y-14610143D01*
X6155571Y-14667286D01*
X6141286Y-14695857D01*
X6112714Y-14724429D01*
X6069857Y-14738714D01*
X5998428Y-14738714D01*
X6298428Y-14738714D02*
X6298428Y-14538714D01*
X6298428Y-14595857D02*
X6312714Y-14567286D01*
X6327000Y-14553000D01*
X6355571Y-14538714D01*
X6384143Y-14538714D01*
X6484143Y-14738714D02*
X6484143Y-14538714D01*
X6484143Y-14438714D02*
X6469857Y-14453000D01*
X6484143Y-14467286D01*
X6498428Y-14453000D01*
X6484143Y-14438714D01*
X6484143Y-14467286D01*
X6669857Y-14738714D02*
X6641286Y-14724429D01*
X6627000Y-14695857D01*
X6627000Y-14438714D01*
X6827000Y-14738714D02*
X6798428Y-14724429D01*
X6784143Y-14695857D01*
X6784143Y-14438714D01*
X7169857Y-14738714D02*
X7169857Y-14438714D01*
X7269857Y-14653000D01*
X7369857Y-14438714D01*
X7369857Y-14738714D01*
X7641286Y-14738714D02*
X7641286Y-14581571D01*
X7627000Y-14553000D01*
X7598428Y-14538714D01*
X7541286Y-14538714D01*
X7512714Y-14553000D01*
X7641286Y-14724429D02*
X7612714Y-14738714D01*
X7541286Y-14738714D01*
X7512714Y-14724429D01*
X7498428Y-14695857D01*
X7498428Y-14667286D01*
X7512714Y-14638714D01*
X7541286Y-14624429D01*
X7612714Y-14624429D01*
X7641286Y-14610143D01*
X7784143Y-14538714D02*
X7784143Y-14838714D01*
X7784143Y-14553000D02*
X7812714Y-14538714D01*
X7869857Y-14538714D01*
X7898428Y-14553000D01*
X7912714Y-14567286D01*
X7927000Y-14595857D01*
X7927000Y-14681571D01*
X7912714Y-14710143D01*
X7898428Y-14724429D01*
X7869857Y-14738714D01*
X7812714Y-14738714D01*
X7784143Y-14724429D01*
X8055571Y-14710143D02*
X8069857Y-14724429D01*
X8055571Y-14738714D01*
X8041286Y-14724429D01*
X8055571Y-14710143D01*
X8055571Y-14738714D01*
X8055571Y-14553000D02*
X8069857Y-14567286D01*
X8055571Y-14581571D01*
X8041286Y-14567286D01*
X8055571Y-14553000D01*
X8055571Y-14581571D01*
X5387000Y-15070500D02*
X5712000Y-15395500D01*
X5712000Y-15070500D02*
X5387000Y-15395500D01*
X5969857Y-15068714D02*
X6155571Y-15068714D01*
X6055571Y-15183000D01*
X6098428Y-15183000D01*
X6127000Y-15197286D01*
X6141286Y-15211571D01*
X6155571Y-15240143D01*
X6155571Y-15311571D01*
X6141286Y-15340143D01*
X6127000Y-15354429D01*
X6098428Y-15368714D01*
X6012714Y-15368714D01*
X5984143Y-15354429D01*
X5969857Y-15340143D01*
X6284143Y-15340143D02*
X6298428Y-15354429D01*
X6284143Y-15368714D01*
X6269857Y-15354429D01*
X6284143Y-15340143D01*
X6284143Y-15368714D01*
X6412714Y-15097286D02*
X6427000Y-15083000D01*
X6455571Y-15068714D01*
X6527000Y-15068714D01*
X6555571Y-15083000D01*
X6569857Y-15097286D01*
X6584143Y-15125857D01*
X6584143Y-15154429D01*
X6569857Y-15197286D01*
X6398428Y-15368714D01*
X6584143Y-15368714D01*
X6855571Y-15068714D02*
X6712714Y-15068714D01*
X6698428Y-15211571D01*
X6712714Y-15197286D01*
X6741286Y-15183000D01*
X6812714Y-15183000D01*
X6841286Y-15197286D01*
X6855571Y-15211571D01*
X6869857Y-15240143D01*
X6869857Y-15311571D01*
X6855571Y-15340143D01*
X6841286Y-15354429D01*
X6812714Y-15368714D01*
X6741286Y-15368714D01*
X6712714Y-15354429D01*
X6698428Y-15340143D01*
X7055571Y-15068714D02*
X7084143Y-15068714D01*
X7112714Y-15083000D01*
X7127000Y-15097286D01*
X7141286Y-15125857D01*
X7155571Y-15183000D01*
X7155571Y-15254429D01*
X7141286Y-15311571D01*
X7127000Y-15340143D01*
X7112714Y-15354429D01*
X7084143Y-15368714D01*
X7055571Y-15368714D01*
X7027000Y-15354429D01*
X7012714Y-15340143D01*
X6998428Y-15311571D01*
X6984143Y-15254429D01*
X6984143Y-15183000D01*
X6998428Y-15125857D01*
X7012714Y-15097286D01*
X7027000Y-15083000D01*
X7055571Y-15068714D01*
X7284143Y-15368714D02*
X7284143Y-15168714D01*
X7284143Y-15197286D02*
X7298428Y-15183000D01*
X7327000Y-15168714D01*
X7369857Y-15168714D01*
X7398428Y-15183000D01*
X7412714Y-15211571D01*
X7412714Y-15368714D01*
X7412714Y-15211571D02*
X7427000Y-15183000D01*
X7455571Y-15168714D01*
X7498428Y-15168714D01*
X7527000Y-15183000D01*
X7541286Y-15211571D01*
X7541286Y-15368714D01*
X7684143Y-15368714D02*
X7684143Y-15168714D01*
X7684143Y-15197286D02*
X7698428Y-15183000D01*
X7727000Y-15168714D01*
X7769857Y-15168714D01*
X7798428Y-15183000D01*
X7812714Y-15211571D01*
X7812714Y-15368714D01*
X7812714Y-15211571D02*
X7827000Y-15183000D01*
X7855571Y-15168714D01*
X7898428Y-15168714D01*
X7927000Y-15183000D01*
X7941286Y-15211571D01*
X7941286Y-15368714D01*
X8527000Y-15054429D02*
X8269857Y-15440143D01*
X8912714Y-15068714D02*
X8941286Y-15068714D01*
X8969857Y-15083000D01*
X8984143Y-15097286D01*
X8998429Y-15125857D01*
X9012714Y-15183000D01*
X9012714Y-15254429D01*
X8998429Y-15311571D01*
X8984143Y-15340143D01*
X8969857Y-15354429D01*
X8941286Y-15368714D01*
X8912714Y-15368714D01*
X8884143Y-15354429D01*
X8869857Y-15340143D01*
X8855571Y-15311571D01*
X8841286Y-15254429D01*
X8841286Y-15183000D01*
X8855571Y-15125857D01*
X8869857Y-15097286D01*
X8884143Y-15083000D01*
X8912714Y-15068714D01*
X9141286Y-15340143D02*
X9155571Y-15354429D01*
X9141286Y-15368714D01*
X9127000Y-15354429D01*
X9141286Y-15340143D01*
X9141286Y-15368714D01*
X9441286Y-15368714D02*
X9269857Y-15368714D01*
X9355571Y-15368714D02*
X9355571Y-15068714D01*
X9327000Y-15111571D01*
X9298429Y-15140143D01*
X9269857Y-15154429D01*
X9555571Y-15097286D02*
X9569857Y-15083000D01*
X9598429Y-15068714D01*
X9669857Y-15068714D01*
X9698429Y-15083000D01*
X9712714Y-15097286D01*
X9727000Y-15125857D01*
X9727000Y-15154429D01*
X9712714Y-15197286D01*
X9541286Y-15368714D01*
X9727000Y-15368714D01*
X9898429Y-15197286D02*
X9869857Y-15183000D01*
X9855571Y-15168714D01*
X9841286Y-15140143D01*
X9841286Y-15125857D01*
X9855571Y-15097286D01*
X9869857Y-15083000D01*
X9898429Y-15068714D01*
X9955571Y-15068714D01*
X9984143Y-15083000D01*
X9998429Y-15097286D01*
X10012714Y-15125857D01*
X10012714Y-15140143D01*
X9998429Y-15168714D01*
X9984143Y-15183000D01*
X9955571Y-15197286D01*
X9898429Y-15197286D01*
X9869857Y-15211571D01*
X9855571Y-15225857D01*
X9841286Y-15254429D01*
X9841286Y-15311571D01*
X9855571Y-15340143D01*
X9869857Y-15354429D01*
X9898429Y-15368714D01*
X9955571Y-15368714D01*
X9984143Y-15354429D01*
X9998429Y-15340143D01*
X10012714Y-15311571D01*
X10012714Y-15254429D01*
X9998429Y-15225857D01*
X9984143Y-15211571D01*
X9955571Y-15197286D01*
X10198429Y-15068714D02*
X10227000Y-15068714D01*
X10255571Y-15083000D01*
X10269857Y-15097286D01*
X10284143Y-15125857D01*
X10298429Y-15183000D01*
X10298429Y-15254429D01*
X10284143Y-15311571D01*
X10269857Y-15340143D01*
X10255571Y-15354429D01*
X10227000Y-15368714D01*
X10198429Y-15368714D01*
X10169857Y-15354429D01*
X10155571Y-15340143D01*
X10141286Y-15311571D01*
X10127000Y-15254429D01*
X10127000Y-15183000D01*
X10141286Y-15125857D01*
X10155571Y-15097286D01*
X10169857Y-15083000D01*
X10198429Y-15068714D01*
X10412714Y-15068714D02*
X10412714Y-15125857D01*
X10527000Y-15068714D02*
X10527000Y-15125857D01*
X10969857Y-15483000D02*
X10955571Y-15468714D01*
X10927000Y-15425857D01*
X10912714Y-15397286D01*
X10898429Y-15354429D01*
X10884143Y-15283000D01*
X10884143Y-15225857D01*
X10898429Y-15154429D01*
X10912714Y-15111571D01*
X10927000Y-15083000D01*
X10955571Y-15040143D01*
X10969857Y-15025857D01*
X11241286Y-15368714D02*
X11069857Y-15368714D01*
X11155571Y-15368714D02*
X11155571Y-15068714D01*
X11127000Y-15111571D01*
X11098429Y-15140143D01*
X11069857Y-15154429D01*
X11498428Y-15068714D02*
X11441286Y-15068714D01*
X11412714Y-15083000D01*
X11398428Y-15097286D01*
X11369857Y-15140143D01*
X11355571Y-15197286D01*
X11355571Y-15311571D01*
X11369857Y-15340143D01*
X11384143Y-15354429D01*
X11412714Y-15368714D01*
X11469857Y-15368714D01*
X11498428Y-15354429D01*
X11512714Y-15340143D01*
X11527000Y-15311571D01*
X11527000Y-15240143D01*
X11512714Y-15211571D01*
X11498428Y-15197286D01*
X11469857Y-15183000D01*
X11412714Y-15183000D01*
X11384143Y-15197286D01*
X11369857Y-15211571D01*
X11355571Y-15240143D01*
X11884143Y-15368714D02*
X11884143Y-15068714D01*
X12012714Y-15368714D02*
X12012714Y-15211571D01*
X11998428Y-15183000D01*
X11969857Y-15168714D01*
X11927000Y-15168714D01*
X11898428Y-15183000D01*
X11884143Y-15197286D01*
X12198428Y-15368714D02*
X12169857Y-15354429D01*
X12155571Y-15340143D01*
X12141286Y-15311571D01*
X12141286Y-15225857D01*
X12155571Y-15197286D01*
X12169857Y-15183000D01*
X12198428Y-15168714D01*
X12241286Y-15168714D01*
X12269857Y-15183000D01*
X12284143Y-15197286D01*
X12298428Y-15225857D01*
X12298428Y-15311571D01*
X12284143Y-15340143D01*
X12269857Y-15354429D01*
X12241286Y-15368714D01*
X12198428Y-15368714D01*
X12469857Y-15368714D02*
X12441286Y-15354429D01*
X12427000Y-15325857D01*
X12427000Y-15068714D01*
X12698428Y-15354429D02*
X12669857Y-15368714D01*
X12612714Y-15368714D01*
X12584143Y-15354429D01*
X12569857Y-15325857D01*
X12569857Y-15211571D01*
X12584143Y-15183000D01*
X12612714Y-15168714D01*
X12669857Y-15168714D01*
X12698428Y-15183000D01*
X12712714Y-15211571D01*
X12712714Y-15240143D01*
X12569857Y-15268714D01*
X12827000Y-15354429D02*
X12855571Y-15368714D01*
X12912714Y-15368714D01*
X12941286Y-15354429D01*
X12955571Y-15325857D01*
X12955571Y-15311571D01*
X12941286Y-15283000D01*
X12912714Y-15268714D01*
X12869857Y-15268714D01*
X12841286Y-15254429D01*
X12827000Y-15225857D01*
X12827000Y-15211571D01*
X12841286Y-15183000D01*
X12869857Y-15168714D01*
X12912714Y-15168714D01*
X12941286Y-15183000D01*
X13055571Y-15483000D02*
X13069857Y-15468714D01*
X13098428Y-15425857D01*
X13112714Y-15397286D01*
X13127000Y-15354429D01*
X13141286Y-15283000D01*
X13141286Y-15225857D01*
X13127000Y-15154429D01*
X13112714Y-15111571D01*
X13098428Y-15083000D01*
X13069857Y-15040143D01*
X13055571Y-15025857D01*
X13598428Y-15483000D02*
X13584143Y-15468714D01*
X13555571Y-15425857D01*
X13541286Y-15397286D01*
X13527000Y-15354429D01*
X13512714Y-15283000D01*
X13512714Y-15225857D01*
X13527000Y-15154429D01*
X13541286Y-15111571D01*
X13555571Y-15083000D01*
X13584143Y-15040143D01*
X13598428Y-15025857D01*
X13712714Y-15168714D02*
X13712714Y-15368714D01*
X13712714Y-15197286D02*
X13727000Y-15183000D01*
X13755571Y-15168714D01*
X13798428Y-15168714D01*
X13827000Y-15183000D01*
X13841286Y-15211571D01*
X13841286Y-15368714D01*
X14027000Y-15368714D02*
X13998428Y-15354429D01*
X13984143Y-15340143D01*
X13969857Y-15311571D01*
X13969857Y-15225857D01*
X13984143Y-15197286D01*
X13998428Y-15183000D01*
X14027000Y-15168714D01*
X14069857Y-15168714D01*
X14098428Y-15183000D01*
X14112714Y-15197286D01*
X14127000Y-15225857D01*
X14127000Y-15311571D01*
X14112714Y-15340143D01*
X14098428Y-15354429D01*
X14069857Y-15368714D01*
X14027000Y-15368714D01*
X14212714Y-15168714D02*
X14327000Y-15168714D01*
X14255571Y-15068714D02*
X14255571Y-15325857D01*
X14269857Y-15354429D01*
X14298428Y-15368714D01*
X14327000Y-15368714D01*
X14655571Y-15168714D02*
X14655571Y-15468714D01*
X14655571Y-15183000D02*
X14684143Y-15168714D01*
X14741286Y-15168714D01*
X14769857Y-15183000D01*
X14784143Y-15197286D01*
X14798428Y-15225857D01*
X14798428Y-15311571D01*
X14784143Y-15340143D01*
X14769857Y-15354429D01*
X14741286Y-15368714D01*
X14684143Y-15368714D01*
X14655571Y-15354429D01*
X14969857Y-15368714D02*
X14941286Y-15354429D01*
X14927000Y-15325857D01*
X14927000Y-15068714D01*
X15212714Y-15368714D02*
X15212714Y-15211571D01*
X15198428Y-15183000D01*
X15169857Y-15168714D01*
X15112714Y-15168714D01*
X15084143Y-15183000D01*
X15212714Y-15354429D02*
X15184143Y-15368714D01*
X15112714Y-15368714D01*
X15084143Y-15354429D01*
X15069857Y-15325857D01*
X15069857Y-15297286D01*
X15084143Y-15268714D01*
X15112714Y-15254429D01*
X15184143Y-15254429D01*
X15212714Y-15240143D01*
X15312714Y-15168714D02*
X15427000Y-15168714D01*
X15355571Y-15068714D02*
X15355571Y-15325857D01*
X15369857Y-15354429D01*
X15398428Y-15368714D01*
X15427000Y-15368714D01*
X15641286Y-15354429D02*
X15612714Y-15368714D01*
X15555571Y-15368714D01*
X15527000Y-15354429D01*
X15512714Y-15325857D01*
X15512714Y-15211571D01*
X15527000Y-15183000D01*
X15555571Y-15168714D01*
X15612714Y-15168714D01*
X15641286Y-15183000D01*
X15655571Y-15211571D01*
X15655571Y-15240143D01*
X15512714Y-15268714D01*
X15912714Y-15368714D02*
X15912714Y-15068714D01*
X15912714Y-15354429D02*
X15884143Y-15368714D01*
X15827000Y-15368714D01*
X15798428Y-15354429D01*
X15784143Y-15340143D01*
X15769857Y-15311571D01*
X15769857Y-15225857D01*
X15784143Y-15197286D01*
X15798428Y-15183000D01*
X15827000Y-15168714D01*
X15884143Y-15168714D01*
X15912714Y-15183000D01*
X16027000Y-15483000D02*
X16041286Y-15468714D01*
X16069857Y-15425857D01*
X16084143Y-15397286D01*
X16098428Y-15354429D01*
X16112714Y-15283000D01*
X16112714Y-15225857D01*
X16098428Y-15154429D01*
X16084143Y-15111571D01*
X16069857Y-15083000D01*
X16041286Y-15040143D01*
X16027000Y-15025857D01*
M02*
