%FSLAX45Y45*%
G04 Gerber Fmt 4.5, Leading zero omitted, Abs format (unit mm)*
G04 Created by KiCad (PCBNEW 5.1.10) date 2021-10-11 20:28:49*
%MOMM*%
%LPD*%
G01*
G04 APERTURE LIST*
%TA.AperFunction,Profile*%
%ADD10C,0.100000*%
%TD*%
%ADD11C,0.200000*%
%ADD12C,0.300000*%
G04 APERTURE END LIST*
D10*
X20562000Y-4268000D02*
G75*
G02*
X20962000Y-4668000I0J-400000D01*
G01*
X20962000Y-13868000D02*
G75*
G02*
X20562000Y-14268000I-400000J0D01*
G01*
X5962000Y-4668000D02*
G75*
G02*
X6362000Y-4268000I400000J0D01*
G01*
X6362000Y-14268000D02*
G75*
G02*
X5962000Y-13868000I0J400000D01*
G01*
X5962000Y-4668000D02*
X5962000Y-13868000D01*
X20562000Y-4268000D02*
X6362000Y-4268000D01*
X20962000Y-13868000D02*
X20962000Y-4668000D01*
X6362000Y-14268000D02*
X20562000Y-14268000D01*
D11*
X6097000Y-13843000D02*
X6147000Y-13893000D01*
X6147000Y-13843000D02*
X6097000Y-13893000D01*
X6149500Y-6545500D02*
X6199500Y-6595500D01*
X6199500Y-6545500D02*
X6149500Y-6595500D01*
X6167294Y-13673294D02*
X6217294Y-13723294D01*
X6217294Y-13673294D02*
X6167294Y-13723294D01*
X6167294Y-14012706D02*
X6217294Y-14062706D01*
X6217294Y-14012706D02*
X6167294Y-14062706D01*
X6219794Y-6375794D02*
X6269794Y-6425794D01*
X6269794Y-6375794D02*
X6219794Y-6425794D01*
X6219794Y-6715206D02*
X6269794Y-6765206D01*
X6269794Y-6715206D02*
X6219794Y-6765206D01*
X6337000Y-13603000D02*
X6387000Y-13653000D01*
X6387000Y-13603000D02*
X6337000Y-13653000D01*
X6337000Y-14083000D02*
X6387000Y-14133000D01*
X6387000Y-14083000D02*
X6337000Y-14133000D01*
X6389500Y-6305500D02*
X6439500Y-6355500D01*
X6439500Y-6305500D02*
X6389500Y-6355500D01*
X6389500Y-6785500D02*
X6439500Y-6835500D01*
X6439500Y-6785500D02*
X6389500Y-6835500D01*
X6506706Y-13673294D02*
X6556706Y-13723294D01*
X6556706Y-13673294D02*
X6506706Y-13723294D01*
X6506706Y-14012706D02*
X6556706Y-14062706D01*
X6556706Y-14012706D02*
X6506706Y-14062706D01*
X6559206Y-6375794D02*
X6609206Y-6425794D01*
X6609206Y-6375794D02*
X6559206Y-6425794D01*
X6559206Y-6715206D02*
X6609206Y-6765206D01*
X6609206Y-6715206D02*
X6559206Y-6765206D01*
X6577000Y-13843000D02*
X6627000Y-13893000D01*
X6627000Y-13843000D02*
X6577000Y-13893000D01*
X6629500Y-6545500D02*
X6679500Y-6595500D01*
X6679500Y-6545500D02*
X6629500Y-6595500D01*
X18797000Y-4643000D02*
X18847000Y-4693000D01*
X18847000Y-4643000D02*
X18797000Y-4693000D01*
X18797000Y-13843000D02*
X18847000Y-13893000D01*
X18847000Y-13843000D02*
X18797000Y-13893000D01*
X18867294Y-4473294D02*
X18917294Y-4523294D01*
X18917294Y-4473294D02*
X18867294Y-4523294D01*
X18867294Y-4812706D02*
X18917294Y-4862706D01*
X18917294Y-4812706D02*
X18867294Y-4862706D01*
X18867294Y-13673294D02*
X18917294Y-13723294D01*
X18917294Y-13673294D02*
X18867294Y-13723294D01*
X18867294Y-14012706D02*
X18917294Y-14062706D01*
X18917294Y-14012706D02*
X18867294Y-14062706D01*
X19037000Y-4403000D02*
X19087000Y-4453000D01*
X19087000Y-4403000D02*
X19037000Y-4453000D01*
X19037000Y-4883000D02*
X19087000Y-4933000D01*
X19087000Y-4883000D02*
X19037000Y-4933000D01*
X19037000Y-13603000D02*
X19087000Y-13653000D01*
X19087000Y-13603000D02*
X19037000Y-13653000D01*
X19037000Y-14083000D02*
X19087000Y-14133000D01*
X19087000Y-14083000D02*
X19037000Y-14133000D01*
X19206706Y-4473294D02*
X19256706Y-4523294D01*
X19256706Y-4473294D02*
X19206706Y-4523294D01*
X19206706Y-4812706D02*
X19256706Y-4862706D01*
X19256706Y-4812706D02*
X19206706Y-4862706D01*
X19206706Y-13673294D02*
X19256706Y-13723294D01*
X19256706Y-13673294D02*
X19206706Y-13723294D01*
X19206706Y-14012706D02*
X19256706Y-14062706D01*
X19256706Y-14012706D02*
X19206706Y-14062706D01*
X19277000Y-4643000D02*
X19327000Y-4693000D01*
X19327000Y-4643000D02*
X19277000Y-4693000D01*
X19277000Y-13843000D02*
X19327000Y-13893000D01*
X19327000Y-13843000D02*
X19277000Y-13893000D01*
X6071310Y-5634520D02*
G75*
G03*
X6071310Y-5634520I-30000J0D01*
G01*
X6071310Y-5972340D02*
G75*
G03*
X6071310Y-5972340I-30000J0D01*
G01*
X6117000Y-7043000D02*
G75*
G03*
X6117000Y-7043000I-30000J0D01*
G01*
X6117000Y-7193000D02*
G75*
G03*
X6117000Y-7193000I-30000J0D01*
G01*
X6117000Y-7343000D02*
G75*
G03*
X6117000Y-7343000I-30000J0D01*
G01*
X6117000Y-7768000D02*
G75*
G03*
X6117000Y-7768000I-30000J0D01*
G01*
X6117000Y-7918000D02*
G75*
G03*
X6117000Y-7918000I-30000J0D01*
G01*
X6120513Y-6121310D02*
G75*
G03*
X6120513Y-6121310I-30000J0D01*
G01*
X6123053Y-5493930D02*
G75*
G03*
X6123053Y-5493930I-30000J0D01*
G01*
X6142000Y-9668000D02*
G75*
G03*
X6142000Y-9668000I-30000J0D01*
G01*
X6142000Y-9868000D02*
G75*
G03*
X6142000Y-9868000I-30000J0D01*
G01*
X6142000Y-10068000D02*
G75*
G03*
X6142000Y-10068000I-30000J0D01*
G01*
X6142000Y-10268000D02*
G75*
G03*
X6142000Y-10268000I-30000J0D01*
G01*
X6142000Y-10468000D02*
G75*
G03*
X6142000Y-10468000I-30000J0D01*
G01*
X6142000Y-10668000D02*
G75*
G03*
X6142000Y-10668000I-30000J0D01*
G01*
X6145000Y-8995000D02*
G75*
G03*
X6145000Y-8995000I-30000J0D01*
G01*
X6243800Y-4880600D02*
G75*
G03*
X6243800Y-4880600I-30000J0D01*
G01*
X6267000Y-7043000D02*
G75*
G03*
X6267000Y-7043000I-30000J0D01*
G01*
X6267000Y-7193000D02*
G75*
G03*
X6267000Y-7193000I-30000J0D01*
G01*
X6267000Y-7343000D02*
G75*
G03*
X6267000Y-7343000I-30000J0D01*
G01*
X6267000Y-7768000D02*
G75*
G03*
X6267000Y-7768000I-30000J0D01*
G01*
X6267000Y-7918000D02*
G75*
G03*
X6267000Y-7918000I-30000J0D01*
G01*
X6281347Y-6121310D02*
G75*
G03*
X6281347Y-6121310I-30000J0D01*
G01*
X6283887Y-5493930D02*
G75*
G03*
X6283887Y-5493930I-30000J0D01*
G01*
X6342000Y-9668000D02*
G75*
G03*
X6342000Y-9668000I-30000J0D01*
G01*
X6342000Y-9868000D02*
G75*
G03*
X6342000Y-9868000I-30000J0D01*
G01*
X6342000Y-10068000D02*
G75*
G03*
X6342000Y-10068000I-30000J0D01*
G01*
X6342000Y-10268000D02*
G75*
G03*
X6342000Y-10268000I-30000J0D01*
G01*
X6342000Y-10468000D02*
G75*
G03*
X6342000Y-10468000I-30000J0D01*
G01*
X6342000Y-10668000D02*
G75*
G03*
X6342000Y-10668000I-30000J0D01*
G01*
X6358100Y-4880600D02*
G75*
G03*
X6358100Y-4880600I-30000J0D01*
G01*
X6417000Y-7043000D02*
G75*
G03*
X6417000Y-7043000I-30000J0D01*
G01*
X6417000Y-7193000D02*
G75*
G03*
X6417000Y-7193000I-30000J0D01*
G01*
X6417000Y-7768000D02*
G75*
G03*
X6417000Y-7768000I-30000J0D01*
G01*
X6417000Y-7918000D02*
G75*
G03*
X6417000Y-7918000I-30000J0D01*
G01*
X6442180Y-6121310D02*
G75*
G03*
X6442180Y-6121310I-30000J0D01*
G01*
X6444720Y-5493930D02*
G75*
G03*
X6444720Y-5493930I-30000J0D01*
G01*
X6542000Y-9668000D02*
G75*
G03*
X6542000Y-9668000I-30000J0D01*
G01*
X6542000Y-9868000D02*
G75*
G03*
X6542000Y-9868000I-30000J0D01*
G01*
X6542000Y-10068000D02*
G75*
G03*
X6542000Y-10068000I-30000J0D01*
G01*
X6542000Y-10268000D02*
G75*
G03*
X6542000Y-10268000I-30000J0D01*
G01*
X6542000Y-10468000D02*
G75*
G03*
X6542000Y-10468000I-30000J0D01*
G01*
X6542000Y-10668000D02*
G75*
G03*
X6542000Y-10668000I-30000J0D01*
G01*
X6567000Y-7043000D02*
G75*
G03*
X6567000Y-7043000I-30000J0D01*
G01*
X6567000Y-7193000D02*
G75*
G03*
X6567000Y-7193000I-30000J0D01*
G01*
X6567000Y-11018000D02*
G75*
G03*
X6567000Y-11018000I-30000J0D01*
G01*
X6567000Y-11343000D02*
G75*
G03*
X6567000Y-11343000I-30000J0D01*
G01*
X6585333Y-5673000D02*
G75*
G03*
X6585333Y-5673000I-30000J0D01*
G01*
X6585333Y-5673000D02*
G75*
G03*
X6585333Y-5673000I-30000J0D01*
G01*
X6585333Y-5933000D02*
G75*
G03*
X6585333Y-5933000I-30000J0D01*
G01*
X6585333Y-5933000D02*
G75*
G03*
X6585333Y-5933000I-30000J0D01*
G01*
X6692000Y-11018000D02*
G75*
G03*
X6692000Y-11018000I-30000J0D01*
G01*
X6717000Y-7043000D02*
G75*
G03*
X6717000Y-7043000I-30000J0D01*
G01*
X6717000Y-7193000D02*
G75*
G03*
X6717000Y-7193000I-30000J0D01*
G01*
X6742000Y-9668000D02*
G75*
G03*
X6742000Y-9668000I-30000J0D01*
G01*
X6742000Y-9868000D02*
G75*
G03*
X6742000Y-9868000I-30000J0D01*
G01*
X6742000Y-10068000D02*
G75*
G03*
X6742000Y-10068000I-30000J0D01*
G01*
X6742000Y-10268000D02*
G75*
G03*
X6742000Y-10268000I-30000J0D01*
G01*
X6742000Y-10468000D02*
G75*
G03*
X6742000Y-10468000I-30000J0D01*
G01*
X6742000Y-10668000D02*
G75*
G03*
X6742000Y-10668000I-30000J0D01*
G01*
X6742000Y-11343000D02*
G75*
G03*
X6742000Y-11343000I-30000J0D01*
G01*
X6743140Y-6106960D02*
G75*
G03*
X6743140Y-6106960I-30000J0D01*
G01*
X6746167Y-5673000D02*
G75*
G03*
X6746167Y-5673000I-30000J0D01*
G01*
X6746167Y-5673000D02*
G75*
G03*
X6746167Y-5673000I-30000J0D01*
G01*
X6746167Y-5933000D02*
G75*
G03*
X6746167Y-5933000I-30000J0D01*
G01*
X6746167Y-5933000D02*
G75*
G03*
X6746167Y-5933000I-30000J0D01*
G01*
X6842000Y-13768000D02*
G75*
G03*
X6842000Y-13768000I-30000J0D01*
G01*
X6842000Y-13918000D02*
G75*
G03*
X6842000Y-13918000I-30000J0D01*
G01*
X6842000Y-14068000D02*
G75*
G03*
X6842000Y-14068000I-30000J0D01*
G01*
X6867000Y-6893000D02*
G75*
G03*
X6867000Y-6893000I-30000J0D01*
G01*
X6904460Y-6181000D02*
G75*
G03*
X6904460Y-6181000I-30000J0D01*
G01*
X6907000Y-5673000D02*
G75*
G03*
X6907000Y-5673000I-30000J0D01*
G01*
X6907000Y-5673000D02*
G75*
G03*
X6907000Y-5673000I-30000J0D01*
G01*
X6917000Y-11343000D02*
G75*
G03*
X6917000Y-11343000I-30000J0D01*
G01*
X6942000Y-9668000D02*
G75*
G03*
X6942000Y-9668000I-30000J0D01*
G01*
X6942000Y-9868000D02*
G75*
G03*
X6942000Y-9868000I-30000J0D01*
G01*
X6942000Y-10068000D02*
G75*
G03*
X6942000Y-10068000I-30000J0D01*
G01*
X6942000Y-10268000D02*
G75*
G03*
X6942000Y-10268000I-30000J0D01*
G01*
X6942000Y-10468000D02*
G75*
G03*
X6942000Y-10468000I-30000J0D01*
G01*
X6942000Y-10668000D02*
G75*
G03*
X6942000Y-10668000I-30000J0D01*
G01*
X6992000Y-13768000D02*
G75*
G03*
X6992000Y-13768000I-30000J0D01*
G01*
X6992000Y-13918000D02*
G75*
G03*
X6992000Y-13918000I-30000J0D01*
G01*
X6992000Y-14068000D02*
G75*
G03*
X6992000Y-14068000I-30000J0D01*
G01*
X7005800Y-4880600D02*
G75*
G03*
X7005800Y-4880600I-30000J0D01*
G01*
X7034913Y-6181000D02*
G75*
G03*
X7034913Y-6181000I-30000J0D01*
G01*
X7053020Y-5672620D02*
G75*
G03*
X7053020Y-5672620I-30000J0D01*
G01*
X7120100Y-4880600D02*
G75*
G03*
X7120100Y-4880600I-30000J0D01*
G01*
X7142000Y-13768000D02*
G75*
G03*
X7142000Y-13768000I-30000J0D01*
G01*
X7142000Y-13918000D02*
G75*
G03*
X7142000Y-13918000I-30000J0D01*
G01*
X7142000Y-14068000D02*
G75*
G03*
X7142000Y-14068000I-30000J0D01*
G01*
X7195747Y-6181000D02*
G75*
G03*
X7195747Y-6181000I-30000J0D01*
G01*
X7213040Y-5672620D02*
G75*
G03*
X7213040Y-5672620I-30000J0D01*
G01*
X7292000Y-7293000D02*
G75*
G03*
X7292000Y-7293000I-30000J0D01*
G01*
X7342000Y-9543000D02*
G75*
G03*
X7342000Y-9543000I-30000J0D01*
G01*
X7342000Y-9668000D02*
G75*
G03*
X7342000Y-9668000I-30000J0D01*
G01*
X7342000Y-10768000D02*
G75*
G03*
X7342000Y-10768000I-30000J0D01*
G01*
X7342000Y-10918000D02*
G75*
G03*
X7342000Y-10918000I-30000J0D01*
G01*
X7342000Y-11868000D02*
G75*
G03*
X7342000Y-11868000I-30000J0D01*
G01*
X7342000Y-12018000D02*
G75*
G03*
X7342000Y-12018000I-30000J0D01*
G01*
X7342000Y-12168000D02*
G75*
G03*
X7342000Y-12168000I-30000J0D01*
G01*
X7356550Y-5676430D02*
G75*
G03*
X7356550Y-5676430I-30000J0D01*
G01*
X7356580Y-6181000D02*
G75*
G03*
X7356580Y-6181000I-30000J0D01*
G01*
X7442000Y-7293000D02*
G75*
G03*
X7442000Y-7293000I-30000J0D01*
G01*
X7492000Y-10768000D02*
G75*
G03*
X7492000Y-10768000I-30000J0D01*
G01*
X7492000Y-10918000D02*
G75*
G03*
X7492000Y-10918000I-30000J0D01*
G01*
X7513800Y-4880600D02*
G75*
G03*
X7513800Y-4880600I-30000J0D01*
G01*
X7517000Y-9543000D02*
G75*
G03*
X7517000Y-9543000I-30000J0D01*
G01*
X7517000Y-9668000D02*
G75*
G03*
X7517000Y-9668000I-30000J0D01*
G01*
X7542000Y-11868000D02*
G75*
G03*
X7542000Y-11868000I-30000J0D01*
G01*
X7542000Y-12018000D02*
G75*
G03*
X7542000Y-12018000I-30000J0D01*
G01*
X7542000Y-12168000D02*
G75*
G03*
X7542000Y-12168000I-30000J0D01*
G01*
X7628100Y-4880600D02*
G75*
G03*
X7628100Y-4880600I-30000J0D01*
G01*
X7642000Y-10768000D02*
G75*
G03*
X7642000Y-10768000I-30000J0D01*
G01*
X7642000Y-10918000D02*
G75*
G03*
X7642000Y-10918000I-30000J0D01*
G01*
X7667000Y-9543000D02*
G75*
G03*
X7667000Y-9543000I-30000J0D01*
G01*
X7667000Y-9668000D02*
G75*
G03*
X7667000Y-9668000I-30000J0D01*
G01*
X7742000Y-11868000D02*
G75*
G03*
X7742000Y-11868000I-30000J0D01*
G01*
X7742000Y-12018000D02*
G75*
G03*
X7742000Y-12018000I-30000J0D01*
G01*
X7742000Y-12168000D02*
G75*
G03*
X7742000Y-12168000I-30000J0D01*
G01*
X7917000Y-5743000D02*
G75*
G03*
X7917000Y-5743000I-30000J0D01*
G01*
X7917000Y-6818000D02*
G75*
G03*
X7917000Y-6818000I-30000J0D01*
G01*
X7942000Y-8118000D02*
G75*
G03*
X7942000Y-8118000I-30000J0D01*
G01*
X7942000Y-11868000D02*
G75*
G03*
X7942000Y-11868000I-30000J0D01*
G01*
X7942000Y-12018000D02*
G75*
G03*
X7942000Y-12018000I-30000J0D01*
G01*
X7942000Y-12168000D02*
G75*
G03*
X7942000Y-12168000I-30000J0D01*
G01*
X8092000Y-8343000D02*
G75*
G03*
X8092000Y-8343000I-30000J0D01*
G01*
X8092000Y-8493000D02*
G75*
G03*
X8092000Y-8493000I-30000J0D01*
G01*
X8092000Y-9668000D02*
G75*
G03*
X8092000Y-9668000I-30000J0D01*
G01*
X8092000Y-9868000D02*
G75*
G03*
X8092000Y-9868000I-30000J0D01*
G01*
X8092000Y-10068000D02*
G75*
G03*
X8092000Y-10068000I-30000J0D01*
G01*
X8092000Y-10268000D02*
G75*
G03*
X8092000Y-10268000I-30000J0D01*
G01*
X8092000Y-10468000D02*
G75*
G03*
X8092000Y-10468000I-30000J0D01*
G01*
X8092000Y-10668000D02*
G75*
G03*
X8092000Y-10668000I-30000J0D01*
G01*
X8094000Y-8987000D02*
G75*
G03*
X8094000Y-8987000I-30000J0D01*
G01*
X8217000Y-8343000D02*
G75*
G03*
X8217000Y-8343000I-30000J0D01*
G01*
X8217000Y-8493000D02*
G75*
G03*
X8217000Y-8493000I-30000J0D01*
G01*
X8292000Y-9668000D02*
G75*
G03*
X8292000Y-9668000I-30000J0D01*
G01*
X8292000Y-9868000D02*
G75*
G03*
X8292000Y-9868000I-30000J0D01*
G01*
X8292000Y-10068000D02*
G75*
G03*
X8292000Y-10068000I-30000J0D01*
G01*
X8292000Y-10268000D02*
G75*
G03*
X8292000Y-10268000I-30000J0D01*
G01*
X8292000Y-10468000D02*
G75*
G03*
X8292000Y-10468000I-30000J0D01*
G01*
X8292000Y-10668000D02*
G75*
G03*
X8292000Y-10668000I-30000J0D01*
G01*
X8342000Y-8343000D02*
G75*
G03*
X8342000Y-8343000I-30000J0D01*
G01*
X8342000Y-8493000D02*
G75*
G03*
X8342000Y-8493000I-30000J0D01*
G01*
X8467000Y-8343000D02*
G75*
G03*
X8467000Y-8343000I-30000J0D01*
G01*
X8467000Y-8493000D02*
G75*
G03*
X8467000Y-8493000I-30000J0D01*
G01*
X8467000Y-13268000D02*
G75*
G03*
X8467000Y-13268000I-30000J0D01*
G01*
X8467000Y-13418000D02*
G75*
G03*
X8467000Y-13418000I-30000J0D01*
G01*
X8467000Y-13568000D02*
G75*
G03*
X8467000Y-13568000I-30000J0D01*
G01*
X8492000Y-9668000D02*
G75*
G03*
X8492000Y-9668000I-30000J0D01*
G01*
X8492000Y-9868000D02*
G75*
G03*
X8492000Y-9868000I-30000J0D01*
G01*
X8492000Y-10068000D02*
G75*
G03*
X8492000Y-10068000I-30000J0D01*
G01*
X8492000Y-10268000D02*
G75*
G03*
X8492000Y-10268000I-30000J0D01*
G01*
X8492000Y-10468000D02*
G75*
G03*
X8492000Y-10468000I-30000J0D01*
G01*
X8492000Y-10668000D02*
G75*
G03*
X8492000Y-10668000I-30000J0D01*
G01*
X8492000Y-13718000D02*
G75*
G03*
X8492000Y-13718000I-30000J0D01*
G01*
X8492000Y-13868000D02*
G75*
G03*
X8492000Y-13868000I-30000J0D01*
G01*
X8492000Y-14018000D02*
G75*
G03*
X8492000Y-14018000I-30000J0D01*
G01*
X8492000Y-14168000D02*
G75*
G03*
X8492000Y-14168000I-30000J0D01*
G01*
X8642000Y-13268000D02*
G75*
G03*
X8642000Y-13268000I-30000J0D01*
G01*
X8642000Y-13418000D02*
G75*
G03*
X8642000Y-13418000I-30000J0D01*
G01*
X8642000Y-13568000D02*
G75*
G03*
X8642000Y-13568000I-30000J0D01*
G01*
X8642000Y-13718000D02*
G75*
G03*
X8642000Y-13718000I-30000J0D01*
G01*
X8642000Y-13868000D02*
G75*
G03*
X8642000Y-13868000I-30000J0D01*
G01*
X8642000Y-14018000D02*
G75*
G03*
X8642000Y-14018000I-30000J0D01*
G01*
X8642000Y-14168000D02*
G75*
G03*
X8642000Y-14168000I-30000J0D01*
G01*
X8667000Y-8068000D02*
G75*
G03*
X8667000Y-8068000I-30000J0D01*
G01*
X8667000Y-8218000D02*
G75*
G03*
X8667000Y-8218000I-30000J0D01*
G01*
X8667000Y-8368000D02*
G75*
G03*
X8667000Y-8368000I-30000J0D01*
G01*
X8692000Y-9668000D02*
G75*
G03*
X8692000Y-9668000I-30000J0D01*
G01*
X8692000Y-9868000D02*
G75*
G03*
X8692000Y-9868000I-30000J0D01*
G01*
X8692000Y-10068000D02*
G75*
G03*
X8692000Y-10068000I-30000J0D01*
G01*
X8692000Y-10268000D02*
G75*
G03*
X8692000Y-10268000I-30000J0D01*
G01*
X8692000Y-10468000D02*
G75*
G03*
X8692000Y-10468000I-30000J0D01*
G01*
X8692000Y-10668000D02*
G75*
G03*
X8692000Y-10668000I-30000J0D01*
G01*
X8720000Y-11823000D02*
G75*
G03*
X8720000Y-11823000I-30000J0D01*
G01*
X8784100Y-4893000D02*
G75*
G03*
X8784100Y-4893000I-30000J0D01*
G01*
X8792000Y-8068000D02*
G75*
G03*
X8792000Y-8068000I-30000J0D01*
G01*
X8792000Y-8218000D02*
G75*
G03*
X8792000Y-8218000I-30000J0D01*
G01*
X8792000Y-8368000D02*
G75*
G03*
X8792000Y-8368000I-30000J0D01*
G01*
X8817000Y-12018000D02*
G75*
G03*
X8817000Y-12018000I-30000J0D01*
G01*
X8817000Y-12218000D02*
G75*
G03*
X8817000Y-12218000I-30000J0D01*
G01*
X8817000Y-12418000D02*
G75*
G03*
X8817000Y-12418000I-30000J0D01*
G01*
X8817000Y-13268000D02*
G75*
G03*
X8817000Y-13268000I-30000J0D01*
G01*
X8817000Y-13418000D02*
G75*
G03*
X8817000Y-13418000I-30000J0D01*
G01*
X8817000Y-13568000D02*
G75*
G03*
X8817000Y-13568000I-30000J0D01*
G01*
X8892000Y-9668000D02*
G75*
G03*
X8892000Y-9668000I-30000J0D01*
G01*
X8892000Y-9868000D02*
G75*
G03*
X8892000Y-9868000I-30000J0D01*
G01*
X8892000Y-10068000D02*
G75*
G03*
X8892000Y-10068000I-30000J0D01*
G01*
X8892000Y-10268000D02*
G75*
G03*
X8892000Y-10268000I-30000J0D01*
G01*
X8892000Y-10468000D02*
G75*
G03*
X8892000Y-10468000I-30000J0D01*
G01*
X8892000Y-10668000D02*
G75*
G03*
X8892000Y-10668000I-30000J0D01*
G01*
X8898100Y-4893000D02*
G75*
G03*
X8898100Y-4893000I-30000J0D01*
G01*
X8917000Y-8068000D02*
G75*
G03*
X8917000Y-8068000I-30000J0D01*
G01*
X8917000Y-8218000D02*
G75*
G03*
X8917000Y-8218000I-30000J0D01*
G01*
X8917000Y-8368000D02*
G75*
G03*
X8917000Y-8368000I-30000J0D01*
G01*
X8967000Y-12018000D02*
G75*
G03*
X8967000Y-12018000I-30000J0D01*
G01*
X8967000Y-12218000D02*
G75*
G03*
X8967000Y-12218000I-30000J0D01*
G01*
X8967000Y-12418000D02*
G75*
G03*
X8967000Y-12418000I-30000J0D01*
G01*
X8992000Y-5693000D02*
G75*
G03*
X8992000Y-5693000I-30000J0D01*
G01*
X9267000Y-9543000D02*
G75*
G03*
X9267000Y-9543000I-30000J0D01*
G01*
X9267000Y-9668000D02*
G75*
G03*
X9267000Y-9668000I-30000J0D01*
G01*
X9292000Y-10718000D02*
G75*
G03*
X9292000Y-10718000I-30000J0D01*
G01*
X9292000Y-10918000D02*
G75*
G03*
X9292000Y-10918000I-30000J0D01*
G01*
X9417000Y-7818000D02*
G75*
G03*
X9417000Y-7818000I-30000J0D01*
G01*
X9417000Y-7993000D02*
G75*
G03*
X9417000Y-7993000I-30000J0D01*
G01*
X9417000Y-8168000D02*
G75*
G03*
X9417000Y-8168000I-30000J0D01*
G01*
X9417000Y-8343000D02*
G75*
G03*
X9417000Y-8343000I-30000J0D01*
G01*
X9417000Y-8668000D02*
G75*
G03*
X9417000Y-8668000I-30000J0D01*
G01*
X9417000Y-8843000D02*
G75*
G03*
X9417000Y-8843000I-30000J0D01*
G01*
X9417000Y-8993000D02*
G75*
G03*
X9417000Y-8993000I-30000J0D01*
G01*
X9417000Y-9168000D02*
G75*
G03*
X9417000Y-9168000I-30000J0D01*
G01*
X9442000Y-9543000D02*
G75*
G03*
X9442000Y-9543000I-30000J0D01*
G01*
X9442000Y-9668000D02*
G75*
G03*
X9442000Y-9668000I-30000J0D01*
G01*
X9442000Y-10718000D02*
G75*
G03*
X9442000Y-10718000I-30000J0D01*
G01*
X9442000Y-10918000D02*
G75*
G03*
X9442000Y-10918000I-30000J0D01*
G01*
X9545800Y-4893000D02*
G75*
G03*
X9545800Y-4893000I-30000J0D01*
G01*
X9592000Y-7818000D02*
G75*
G03*
X9592000Y-7818000I-30000J0D01*
G01*
X9592000Y-7993000D02*
G75*
G03*
X9592000Y-7993000I-30000J0D01*
G01*
X9592000Y-8168000D02*
G75*
G03*
X9592000Y-8168000I-30000J0D01*
G01*
X9592000Y-8343000D02*
G75*
G03*
X9592000Y-8343000I-30000J0D01*
G01*
X9592000Y-8668000D02*
G75*
G03*
X9592000Y-8668000I-30000J0D01*
G01*
X9592000Y-8843000D02*
G75*
G03*
X9592000Y-8843000I-30000J0D01*
G01*
X9592000Y-8993000D02*
G75*
G03*
X9592000Y-8993000I-30000J0D01*
G01*
X9592000Y-9168000D02*
G75*
G03*
X9592000Y-9168000I-30000J0D01*
G01*
X9592000Y-10718000D02*
G75*
G03*
X9592000Y-10718000I-30000J0D01*
G01*
X9592000Y-10918000D02*
G75*
G03*
X9592000Y-10918000I-30000J0D01*
G01*
X9592000Y-13318000D02*
G75*
G03*
X9592000Y-13318000I-30000J0D01*
G01*
X9592000Y-13468000D02*
G75*
G03*
X9592000Y-13468000I-30000J0D01*
G01*
X9592000Y-13618000D02*
G75*
G03*
X9592000Y-13618000I-30000J0D01*
G01*
X9592000Y-13768000D02*
G75*
G03*
X9592000Y-13768000I-30000J0D01*
G01*
X9592000Y-13918000D02*
G75*
G03*
X9592000Y-13918000I-30000J0D01*
G01*
X9592000Y-14068000D02*
G75*
G03*
X9592000Y-14068000I-30000J0D01*
G01*
X9617000Y-7543000D02*
G75*
G03*
X9617000Y-7543000I-30000J0D01*
G01*
X9617000Y-9543000D02*
G75*
G03*
X9617000Y-9543000I-30000J0D01*
G01*
X9617000Y-9668000D02*
G75*
G03*
X9617000Y-9668000I-30000J0D01*
G01*
X9660100Y-4893000D02*
G75*
G03*
X9660100Y-4893000I-30000J0D01*
G01*
X9760000Y-12148000D02*
G75*
G03*
X9760000Y-12148000I-30000J0D01*
G01*
X9767000Y-7818000D02*
G75*
G03*
X9767000Y-7818000I-30000J0D01*
G01*
X9767000Y-7993000D02*
G75*
G03*
X9767000Y-7993000I-30000J0D01*
G01*
X9767000Y-8168000D02*
G75*
G03*
X9767000Y-8168000I-30000J0D01*
G01*
X9767000Y-8343000D02*
G75*
G03*
X9767000Y-8343000I-30000J0D01*
G01*
X9767000Y-8668000D02*
G75*
G03*
X9767000Y-8668000I-30000J0D01*
G01*
X9767000Y-8843000D02*
G75*
G03*
X9767000Y-8843000I-30000J0D01*
G01*
X9767000Y-8993000D02*
G75*
G03*
X9767000Y-8993000I-30000J0D01*
G01*
X9767000Y-9168000D02*
G75*
G03*
X9767000Y-9168000I-30000J0D01*
G01*
X9792000Y-7543000D02*
G75*
G03*
X9792000Y-7543000I-30000J0D01*
G01*
X9792000Y-13318000D02*
G75*
G03*
X9792000Y-13318000I-30000J0D01*
G01*
X9792000Y-13468000D02*
G75*
G03*
X9792000Y-13468000I-30000J0D01*
G01*
X9792000Y-13618000D02*
G75*
G03*
X9792000Y-13618000I-30000J0D01*
G01*
X9792000Y-13768000D02*
G75*
G03*
X9792000Y-13768000I-30000J0D01*
G01*
X9792000Y-13918000D02*
G75*
G03*
X9792000Y-13918000I-30000J0D01*
G01*
X9792000Y-14068000D02*
G75*
G03*
X9792000Y-14068000I-30000J0D01*
G01*
X9830000Y-11183000D02*
G75*
G03*
X9830000Y-11183000I-30000J0D01*
G01*
X9967000Y-7543000D02*
G75*
G03*
X9967000Y-7543000I-30000J0D01*
G01*
X9982000Y-10638000D02*
G75*
G03*
X9982000Y-10638000I-30000J0D01*
G01*
X10062000Y-11578000D02*
G75*
G03*
X10062000Y-11578000I-30000J0D01*
G01*
X10062000Y-11788000D02*
G75*
G03*
X10062000Y-11788000I-30000J0D01*
G01*
X10117000Y-4893000D02*
G75*
G03*
X10117000Y-4893000I-30000J0D01*
G01*
X10142000Y-6421920D02*
G75*
G03*
X10142000Y-6421920I-30000J0D01*
G01*
X10192000Y-8668000D02*
G75*
G03*
X10192000Y-8668000I-30000J0D01*
G01*
X10192000Y-8843000D02*
G75*
G03*
X10192000Y-8843000I-30000J0D01*
G01*
X10192000Y-8993000D02*
G75*
G03*
X10192000Y-8993000I-30000J0D01*
G01*
X10192000Y-9168000D02*
G75*
G03*
X10192000Y-9168000I-30000J0D01*
G01*
X10217000Y-7818000D02*
G75*
G03*
X10217000Y-7818000I-30000J0D01*
G01*
X10217000Y-7993000D02*
G75*
G03*
X10217000Y-7993000I-30000J0D01*
G01*
X10217000Y-8168000D02*
G75*
G03*
X10217000Y-8168000I-30000J0D01*
G01*
X10217000Y-8343000D02*
G75*
G03*
X10217000Y-8343000I-30000J0D01*
G01*
X10314500Y-9635500D02*
G75*
G03*
X10314500Y-9635500I-30000J0D01*
G01*
X10317000Y-10043000D02*
G75*
G03*
X10317000Y-10043000I-30000J0D01*
G01*
X10367000Y-8668000D02*
G75*
G03*
X10367000Y-8668000I-30000J0D01*
G01*
X10367000Y-8843000D02*
G75*
G03*
X10367000Y-8843000I-30000J0D01*
G01*
X10367000Y-8993000D02*
G75*
G03*
X10367000Y-8993000I-30000J0D01*
G01*
X10367000Y-9168000D02*
G75*
G03*
X10367000Y-9168000I-30000J0D01*
G01*
X10367000Y-9418000D02*
G75*
G03*
X10367000Y-9418000I-30000J0D01*
G01*
X10392000Y-7818000D02*
G75*
G03*
X10392000Y-7818000I-30000J0D01*
G01*
X10392000Y-7993000D02*
G75*
G03*
X10392000Y-7993000I-30000J0D01*
G01*
X10392000Y-8168000D02*
G75*
G03*
X10392000Y-8168000I-30000J0D01*
G01*
X10392000Y-8343000D02*
G75*
G03*
X10392000Y-8343000I-30000J0D01*
G01*
X10452000Y-10348000D02*
G75*
G03*
X10452000Y-10348000I-30000J0D01*
G01*
X10542000Y-4893000D02*
G75*
G03*
X10542000Y-4893000I-30000J0D01*
G01*
X10561800Y-8843000D02*
G75*
G03*
X10561800Y-8843000I-30000J0D01*
G01*
X10567000Y-7818000D02*
G75*
G03*
X10567000Y-7818000I-30000J0D01*
G01*
X10567000Y-7993000D02*
G75*
G03*
X10567000Y-7993000I-30000J0D01*
G01*
X10567000Y-8168000D02*
G75*
G03*
X10567000Y-8168000I-30000J0D01*
G01*
X10567000Y-8343000D02*
G75*
G03*
X10567000Y-8343000I-30000J0D01*
G01*
X10567000Y-8668000D02*
G75*
G03*
X10567000Y-8668000I-30000J0D01*
G01*
X10567000Y-8993000D02*
G75*
G03*
X10567000Y-8993000I-30000J0D01*
G01*
X10567000Y-9168000D02*
G75*
G03*
X10567000Y-9168000I-30000J0D01*
G01*
X10767000Y-4893000D02*
G75*
G03*
X10767000Y-4893000I-30000J0D01*
G01*
X10932000Y-11578000D02*
G75*
G03*
X10932000Y-11578000I-30000J0D01*
G01*
X10932000Y-11788000D02*
G75*
G03*
X10932000Y-11788000I-30000J0D01*
G01*
X10942000Y-4893000D02*
G75*
G03*
X10942000Y-4893000I-30000J0D01*
G01*
X11049500Y-9635500D02*
G75*
G03*
X11049500Y-9635500I-30000J0D01*
G01*
X11052000Y-9098000D02*
G75*
G03*
X11052000Y-9098000I-30000J0D01*
G01*
X11072000Y-10638000D02*
G75*
G03*
X11072000Y-10638000I-30000J0D01*
G01*
X11117000Y-4893000D02*
G75*
G03*
X11117000Y-4893000I-30000J0D01*
G01*
X11122000Y-8460500D02*
G75*
G03*
X11122000Y-8460500I-30000J0D01*
G01*
X11287000Y-10278000D02*
G75*
G03*
X11287000Y-10278000I-30000J0D01*
G01*
X11292000Y-4893000D02*
G75*
G03*
X11292000Y-4893000I-30000J0D01*
G01*
X11292000Y-5043000D02*
G75*
G03*
X11292000Y-5043000I-30000J0D01*
G01*
X11292000Y-5193000D02*
G75*
G03*
X11292000Y-5193000I-30000J0D01*
G01*
X11392000Y-4593000D02*
G75*
G03*
X11392000Y-4593000I-30000J0D01*
G01*
X11392000Y-4718000D02*
G75*
G03*
X11392000Y-4718000I-30000J0D01*
G01*
X11467000Y-4893000D02*
G75*
G03*
X11467000Y-4893000I-30000J0D01*
G01*
X11467000Y-5043000D02*
G75*
G03*
X11467000Y-5043000I-30000J0D01*
G01*
X11467000Y-5193000D02*
G75*
G03*
X11467000Y-5193000I-30000J0D01*
G01*
X11490000Y-4379000D02*
G75*
G03*
X11490000Y-4379000I-30000J0D01*
G01*
X11517000Y-4593000D02*
G75*
G03*
X11517000Y-4593000I-30000J0D01*
G01*
X11517000Y-4718000D02*
G75*
G03*
X11517000Y-4718000I-30000J0D01*
G01*
X11642000Y-4593000D02*
G75*
G03*
X11642000Y-4593000I-30000J0D01*
G01*
X11642000Y-4718000D02*
G75*
G03*
X11642000Y-4718000I-30000J0D01*
G01*
X11647000Y-4378000D02*
G75*
G03*
X11647000Y-4378000I-30000J0D01*
G01*
X11799500Y-14060500D02*
G75*
G03*
X11799500Y-14060500I-30000J0D01*
G01*
X11799500Y-14162000D02*
G75*
G03*
X11799500Y-14162000I-30000J0D01*
G01*
X11802000Y-11588000D02*
G75*
G03*
X11802000Y-11588000I-30000J0D01*
G01*
X11802000Y-11788000D02*
G75*
G03*
X11802000Y-11788000I-30000J0D01*
G01*
X11812000Y-10688000D02*
G75*
G03*
X11812000Y-10688000I-30000J0D01*
G01*
X11942000Y-5393000D02*
G75*
G03*
X11942000Y-5393000I-30000J0D01*
G01*
X12232000Y-10268000D02*
G75*
G03*
X12232000Y-10268000I-30000J0D01*
G01*
X12285000Y-8608000D02*
G75*
G03*
X12285000Y-8608000I-30000J0D01*
G01*
X12315750Y-14060250D02*
G75*
G03*
X12315750Y-14060250I-30000J0D01*
G01*
X12315750Y-14162000D02*
G75*
G03*
X12315750Y-14162000I-30000J0D01*
G01*
X12342000Y-5263000D02*
G75*
G03*
X12342000Y-5263000I-30000J0D01*
G01*
X12344500Y-5030500D02*
G75*
G03*
X12344500Y-5030500I-30000J0D01*
G01*
X12367000Y-9143000D02*
G75*
G03*
X12367000Y-9143000I-30000J0D01*
G01*
X12440000Y-8447000D02*
G75*
G03*
X12440000Y-8447000I-30000J0D01*
G01*
X12470000Y-9453000D02*
G75*
G03*
X12470000Y-9453000I-30000J0D01*
G01*
X12492000Y-8868000D02*
G75*
G03*
X12492000Y-8868000I-30000J0D01*
G01*
X12500000Y-8228000D02*
G75*
G03*
X12500000Y-8228000I-30000J0D01*
G01*
X12592000Y-10548000D02*
G75*
G03*
X12592000Y-10548000I-30000J0D01*
G01*
X12642000Y-11588000D02*
G75*
G03*
X12642000Y-11588000I-30000J0D01*
G01*
X12642000Y-11788000D02*
G75*
G03*
X12642000Y-11788000I-30000J0D01*
G01*
X12759500Y-14061500D02*
G75*
G03*
X12759500Y-14061500I-30000J0D01*
G01*
X12759500Y-14163000D02*
G75*
G03*
X12759500Y-14163000I-30000J0D01*
G01*
X12842000Y-9818000D02*
G75*
G03*
X12842000Y-9818000I-30000J0D01*
G01*
X12882000Y-4448000D02*
G75*
G03*
X12882000Y-4448000I-30000J0D01*
G01*
X12912000Y-5948000D02*
G75*
G03*
X12912000Y-5948000I-30000J0D01*
G01*
X13252000Y-5018000D02*
G75*
G03*
X13252000Y-5018000I-30000J0D01*
G01*
X13252000Y-5148000D02*
G75*
G03*
X13252000Y-5148000I-30000J0D01*
G01*
X13252000Y-5268000D02*
G75*
G03*
X13252000Y-5268000I-30000J0D01*
G01*
X13252000Y-5388000D02*
G75*
G03*
X13252000Y-5388000I-30000J0D01*
G01*
X13272000Y-14060000D02*
G75*
G03*
X13272000Y-14060000I-30000J0D01*
G01*
X13272000Y-14162000D02*
G75*
G03*
X13272000Y-14162000I-30000J0D01*
G01*
X13392000Y-5018000D02*
G75*
G03*
X13392000Y-5018000I-30000J0D01*
G01*
X13392000Y-5148000D02*
G75*
G03*
X13392000Y-5148000I-30000J0D01*
G01*
X13392000Y-5268000D02*
G75*
G03*
X13392000Y-5268000I-30000J0D01*
G01*
X13392000Y-5388000D02*
G75*
G03*
X13392000Y-5388000I-30000J0D01*
G01*
X13432000Y-10788000D02*
G75*
G03*
X13432000Y-10788000I-30000J0D01*
G01*
X13492000Y-11588000D02*
G75*
G03*
X13492000Y-11588000I-30000J0D01*
G01*
X13492000Y-11788000D02*
G75*
G03*
X13492000Y-11788000I-30000J0D01*
G01*
X13532000Y-5018000D02*
G75*
G03*
X13532000Y-5018000I-30000J0D01*
G01*
X13532000Y-5148000D02*
G75*
G03*
X13532000Y-5148000I-30000J0D01*
G01*
X13532000Y-5268000D02*
G75*
G03*
X13532000Y-5268000I-30000J0D01*
G01*
X13532000Y-5388000D02*
G75*
G03*
X13532000Y-5388000I-30000J0D01*
G01*
X13672000Y-5018000D02*
G75*
G03*
X13672000Y-5018000I-30000J0D01*
G01*
X13672000Y-5148000D02*
G75*
G03*
X13672000Y-5148000I-30000J0D01*
G01*
X13672000Y-5268000D02*
G75*
G03*
X13672000Y-5268000I-30000J0D01*
G01*
X13672000Y-5388000D02*
G75*
G03*
X13672000Y-5388000I-30000J0D01*
G01*
X13712000Y-9820500D02*
G75*
G03*
X13712000Y-9820500I-30000J0D01*
G01*
X13825750Y-14060250D02*
G75*
G03*
X13825750Y-14060250I-30000J0D01*
G01*
X13825750Y-14162000D02*
G75*
G03*
X13825750Y-14162000I-30000J0D01*
G01*
X14292000Y-10708000D02*
G75*
G03*
X14292000Y-10708000I-30000J0D01*
G01*
X14345750Y-14059250D02*
G75*
G03*
X14345750Y-14059250I-30000J0D01*
G01*
X14345750Y-14162000D02*
G75*
G03*
X14345750Y-14162000I-30000J0D01*
G01*
X14352000Y-11588000D02*
G75*
G03*
X14352000Y-11588000I-30000J0D01*
G01*
X14352000Y-11788000D02*
G75*
G03*
X14352000Y-11788000I-30000J0D01*
G01*
X14480000Y-7838000D02*
G75*
G03*
X14480000Y-7838000I-30000J0D01*
G01*
X14480000Y-8628000D02*
G75*
G03*
X14480000Y-8628000I-30000J0D01*
G01*
X14520000Y-9128000D02*
G75*
G03*
X14520000Y-9128000I-30000J0D01*
G01*
X14523750Y-9341750D02*
G75*
G03*
X14523750Y-9341750I-30000J0D01*
G01*
X14578201Y-5844201D02*
G75*
G03*
X14578201Y-5844201I-30000J0D01*
G01*
X14642000Y-6778000D02*
G75*
G03*
X14642000Y-6778000I-30000J0D01*
G01*
X14711201Y-5717201D02*
G75*
G03*
X14711201Y-5717201I-30000J0D01*
G01*
X14772000Y-4443000D02*
G75*
G03*
X14772000Y-4443000I-30000J0D01*
G01*
X14777000Y-4573000D02*
G75*
G03*
X14777000Y-4573000I-30000J0D01*
G01*
X14792000Y-6778000D02*
G75*
G03*
X14792000Y-6778000I-30000J0D01*
G01*
X14832000Y-5588000D02*
G75*
G03*
X14832000Y-5588000I-30000J0D01*
G01*
X14855750Y-14060250D02*
G75*
G03*
X14855750Y-14060250I-30000J0D01*
G01*
X14855750Y-14162000D02*
G75*
G03*
X14855750Y-14162000I-30000J0D01*
G01*
X14942000Y-6778000D02*
G75*
G03*
X14942000Y-6778000I-30000J0D01*
G01*
X15120000Y-5738000D02*
G75*
G03*
X15120000Y-5738000I-30000J0D01*
G01*
X15152000Y-10638000D02*
G75*
G03*
X15152000Y-10638000I-30000J0D01*
G01*
X15212000Y-11588000D02*
G75*
G03*
X15212000Y-11588000I-30000J0D01*
G01*
X15212000Y-11788000D02*
G75*
G03*
X15212000Y-11788000I-30000J0D01*
G01*
X15345750Y-14059250D02*
G75*
G03*
X15345750Y-14059250I-30000J0D01*
G01*
X15345750Y-14162000D02*
G75*
G03*
X15345750Y-14162000I-30000J0D01*
G01*
X15472000Y-6248000D02*
G75*
G03*
X15472000Y-6248000I-30000J0D01*
G01*
X15622000Y-10638000D02*
G75*
G03*
X15622000Y-10638000I-30000J0D01*
G01*
X15922000Y-6408000D02*
G75*
G03*
X15922000Y-6408000I-30000J0D01*
G01*
X16007000Y-8943000D02*
G75*
G03*
X16007000Y-8943000I-30000J0D01*
G01*
X16072000Y-11588000D02*
G75*
G03*
X16072000Y-11588000I-30000J0D01*
G01*
X16072000Y-11788000D02*
G75*
G03*
X16072000Y-11788000I-30000J0D01*
G01*
X16152000Y-7448000D02*
G75*
G03*
X16152000Y-7448000I-30000J0D01*
G01*
X16162000Y-8078000D02*
G75*
G03*
X16162000Y-8078000I-30000J0D01*
G01*
X16172000Y-6038000D02*
G75*
G03*
X16172000Y-6038000I-30000J0D01*
G01*
X16222000Y-10178000D02*
G75*
G03*
X16222000Y-10178000I-30000J0D01*
G01*
X16342000Y-10638000D02*
G75*
G03*
X16342000Y-10638000I-30000J0D01*
G01*
X16357000Y-8943001D02*
G75*
G03*
X16357000Y-8943001I-30000J0D01*
G01*
X16392000Y-6043000D02*
G75*
G03*
X16392000Y-6043000I-30000J0D01*
G01*
X16622000Y-7948000D02*
G75*
G03*
X16622000Y-7948000I-30000J0D01*
G01*
X16807000Y-8948000D02*
G75*
G03*
X16807000Y-8948000I-30000J0D01*
G01*
X16862000Y-12208000D02*
G75*
G03*
X16862000Y-12208000I-30000J0D01*
G01*
X16922000Y-7948000D02*
G75*
G03*
X16922000Y-7948000I-30000J0D01*
G01*
X17017000Y-8918000D02*
G75*
G03*
X17017000Y-8918000I-30000J0D01*
G01*
X17142000Y-7308000D02*
G75*
G03*
X17142000Y-7308000I-30000J0D01*
G01*
X17217000Y-8913000D02*
G75*
G03*
X17217000Y-8913000I-30000J0D01*
G01*
X17222000Y-7708000D02*
G75*
G03*
X17222000Y-7708000I-30000J0D01*
G01*
X17242000Y-8478000D02*
G75*
G03*
X17242000Y-8478000I-30000J0D01*
G01*
X17252000Y-11978000D02*
G75*
G03*
X17252000Y-11978000I-30000J0D01*
G01*
X17332000Y-11268000D02*
G75*
G03*
X17332000Y-11268000I-30000J0D01*
G01*
X17432000Y-7708000D02*
G75*
G03*
X17432000Y-7708000I-30000J0D01*
G01*
X17467000Y-4443000D02*
G75*
G03*
X17467000Y-4443000I-30000J0D01*
G01*
X17522000Y-6378000D02*
G75*
G03*
X17522000Y-6378000I-30000J0D01*
G01*
X17522000Y-6618000D02*
G75*
G03*
X17522000Y-6618000I-30000J0D01*
G01*
X17652000Y-12558000D02*
G75*
G03*
X17652000Y-12558000I-30000J0D01*
G01*
X18042000Y-10948000D02*
G75*
G03*
X18042000Y-10948000I-30000J0D01*
G01*
X18092000Y-8368000D02*
G75*
G03*
X18092000Y-8368000I-30000J0D01*
G01*
X18252000Y-8648000D02*
G75*
G03*
X18252000Y-8648000I-30000J0D01*
G01*
X18297000Y-9693000D02*
G75*
G03*
X18297000Y-9693000I-30000J0D01*
G01*
X18312000Y-9383000D02*
G75*
G03*
X18312000Y-9383000I-30000J0D01*
G01*
X18372000Y-8478000D02*
G75*
G03*
X18372000Y-8478000I-30000J0D01*
G01*
X18392000Y-12543000D02*
G75*
G03*
X18392000Y-12543000I-30000J0D01*
G01*
X18422000Y-8668000D02*
G75*
G03*
X18422000Y-8668000I-30000J0D01*
G01*
X18492000Y-9743000D02*
G75*
G03*
X18492000Y-9743000I-30000J0D01*
G01*
X18602000Y-9518000D02*
G75*
G03*
X18602000Y-9518000I-30000J0D01*
G01*
X18832000Y-8908000D02*
G75*
G03*
X18832000Y-8908000I-30000J0D01*
G01*
X18992000Y-5608000D02*
G75*
G03*
X18992000Y-5608000I-30000J0D01*
G01*
X18992000Y-6508000D02*
G75*
G03*
X18992000Y-6508000I-30000J0D01*
G01*
X18992000Y-7748000D02*
G75*
G03*
X18992000Y-7748000I-30000J0D01*
G01*
X18992000Y-8388000D02*
G75*
G03*
X18992000Y-8388000I-30000J0D01*
G01*
X18992000Y-10268000D02*
G75*
G03*
X18992000Y-10268000I-30000J0D01*
G01*
X18992000Y-11468000D02*
G75*
G03*
X18992000Y-11468000I-30000J0D01*
G01*
X18992000Y-12668000D02*
G75*
G03*
X18992000Y-12668000I-30000J0D01*
G01*
X18992000Y-12948000D02*
G75*
G03*
X18992000Y-12948000I-30000J0D01*
G01*
X19367000Y-5913000D02*
G75*
G03*
X19367000Y-5913000I-30000J0D01*
G01*
X19367000Y-6193000D02*
G75*
G03*
X19367000Y-6193000I-30000J0D01*
G01*
X19372000Y-8378000D02*
G75*
G03*
X19372000Y-8378000I-30000J0D01*
G01*
X19372000Y-8648000D02*
G75*
G03*
X19372000Y-8648000I-30000J0D01*
G01*
X19372000Y-12988000D02*
G75*
G03*
X19372000Y-12988000I-30000J0D01*
G01*
X19372000Y-13218000D02*
G75*
G03*
X19372000Y-13218000I-30000J0D01*
G01*
X19382000Y-5108000D02*
G75*
G03*
X19382000Y-5108000I-30000J0D01*
G01*
X19382000Y-5318000D02*
G75*
G03*
X19382000Y-5318000I-30000J0D01*
G01*
X19382000Y-7108000D02*
G75*
G03*
X19382000Y-7108000I-30000J0D01*
G01*
X19382000Y-7418000D02*
G75*
G03*
X19382000Y-7418000I-30000J0D01*
G01*
X19382000Y-9678000D02*
G75*
G03*
X19382000Y-9678000I-30000J0D01*
G01*
X19382000Y-9903000D02*
G75*
G03*
X19382000Y-9903000I-30000J0D01*
G01*
X19382000Y-10868000D02*
G75*
G03*
X19382000Y-10868000I-30000J0D01*
G01*
X19382000Y-11145000D02*
G75*
G03*
X19382000Y-11145000I-30000J0D01*
G01*
X19392000Y-12118000D02*
G75*
G03*
X19392000Y-12118000I-30000J0D01*
G01*
X19392000Y-12398000D02*
G75*
G03*
X19392000Y-12398000I-30000J0D01*
G01*
X9905000Y-12730500D02*
X9905000Y-12805500D01*
X9867500Y-12768000D02*
X9942500Y-12768000D01*
X10032000Y-12730500D02*
X10032000Y-12805500D01*
X9994500Y-12768000D02*
X10069500Y-12768000D01*
X10159000Y-12730500D02*
X10159000Y-12805500D01*
X10121500Y-12768000D02*
X10196500Y-12768000D01*
X10782000Y-12730500D02*
X10782000Y-12805500D01*
X10744500Y-12768000D02*
X10819500Y-12768000D01*
X10909000Y-12730500D02*
X10909000Y-12805500D01*
X10871500Y-12768000D02*
X10946500Y-12768000D01*
X11036000Y-12730500D02*
X11036000Y-12805500D01*
X10998500Y-12768000D02*
X11073500Y-12768000D01*
X11645000Y-12730500D02*
X11645000Y-12805500D01*
X11607500Y-12768000D02*
X11682500Y-12768000D01*
X11772000Y-12730500D02*
X11772000Y-12805500D01*
X11734500Y-12768000D02*
X11809500Y-12768000D01*
X11899000Y-12730500D02*
X11899000Y-12805500D01*
X11861500Y-12768000D02*
X11936500Y-12768000D01*
X12485000Y-12730500D02*
X12485000Y-12805500D01*
X12447500Y-12768000D02*
X12522500Y-12768000D01*
X12612000Y-12730500D02*
X12612000Y-12805500D01*
X12574500Y-12768000D02*
X12649500Y-12768000D01*
X12739000Y-12730500D02*
X12739000Y-12805500D01*
X12701500Y-12768000D02*
X12776500Y-12768000D01*
X13332000Y-12730500D02*
X13332000Y-12805500D01*
X13294500Y-12768000D02*
X13369500Y-12768000D01*
X13459000Y-12730500D02*
X13459000Y-12805500D01*
X13421500Y-12768000D02*
X13496500Y-12768000D01*
X13586000Y-12730500D02*
X13586000Y-12805500D01*
X13548500Y-12768000D02*
X13623500Y-12768000D01*
X14195000Y-12730500D02*
X14195000Y-12805500D01*
X14157500Y-12768000D02*
X14232500Y-12768000D01*
X14322000Y-12730500D02*
X14322000Y-12805500D01*
X14284500Y-12768000D02*
X14359500Y-12768000D01*
X14449000Y-12730500D02*
X14449000Y-12805500D01*
X14411500Y-12768000D02*
X14486500Y-12768000D01*
X15055000Y-12730500D02*
X15055000Y-12805500D01*
X15017500Y-12768000D02*
X15092500Y-12768000D01*
X15182000Y-12730500D02*
X15182000Y-12805500D01*
X15144500Y-12768000D02*
X15219500Y-12768000D01*
X15309000Y-12730500D02*
X15309000Y-12805500D01*
X15271500Y-12768000D02*
X15346500Y-12768000D01*
X15915000Y-12730500D02*
X15915000Y-12805500D01*
X15877500Y-12768000D02*
X15952500Y-12768000D01*
X16042000Y-12730500D02*
X16042000Y-12805500D01*
X16004500Y-12768000D02*
X16079500Y-12768000D01*
X16169000Y-12730500D02*
X16169000Y-12805500D01*
X16131500Y-12768000D02*
X16206500Y-12768000D01*
X16583000Y-12730500D02*
X16583000Y-12805500D01*
X16545500Y-12768000D02*
X16620500Y-12768000D01*
X16710000Y-12730500D02*
X16710000Y-12805500D01*
X16672500Y-12768000D02*
X16747500Y-12768000D01*
X16837000Y-12730500D02*
X16837000Y-12805500D01*
X16799500Y-12768000D02*
X16874500Y-12768000D01*
X17193000Y-12735500D02*
X17193000Y-12810500D01*
X17155500Y-12773000D02*
X17230500Y-12773000D01*
X17320000Y-12735500D02*
X17320000Y-12810500D01*
X17282500Y-12773000D02*
X17357500Y-12773000D01*
X17447000Y-12735500D02*
X17447000Y-12810500D01*
X17409500Y-12773000D02*
X17484500Y-12773000D01*
X17808000Y-12730500D02*
X17808000Y-12805500D01*
X17770500Y-12768000D02*
X17845500Y-12768000D01*
X17935000Y-12730500D02*
X17935000Y-12805500D01*
X17897500Y-12768000D02*
X17972500Y-12768000D01*
X18062000Y-12730500D02*
X18062000Y-12805500D01*
X18024500Y-12768000D02*
X18099500Y-12768000D01*
X19738870Y-4763870D02*
X19738870Y-4710130D01*
X19685130Y-4710130D01*
X19685130Y-4763870D01*
X19738870Y-4763870D01*
X19738870Y-5017870D02*
X19738870Y-4964130D01*
X19685130Y-4964130D01*
X19685130Y-5017870D01*
X19738870Y-5017870D01*
X19738870Y-5990870D02*
X19738870Y-5937130D01*
X19685130Y-5937130D01*
X19685130Y-5990870D01*
X19738870Y-5990870D01*
X19738870Y-6244870D02*
X19738870Y-6191130D01*
X19685130Y-6191130D01*
X19685130Y-6244870D01*
X19738870Y-6244870D01*
X19738870Y-7213870D02*
X19738870Y-7160130D01*
X19685130Y-7160130D01*
X19685130Y-7213870D01*
X19738870Y-7213870D01*
X19738870Y-7467870D02*
X19738870Y-7414130D01*
X19685130Y-7414130D01*
X19685130Y-7467870D01*
X19738870Y-7467870D01*
X19738870Y-8433870D02*
X19738870Y-8380130D01*
X19685130Y-8380130D01*
X19685130Y-8433870D01*
X19738870Y-8433870D01*
X19738870Y-8687870D02*
X19738870Y-8634130D01*
X19685130Y-8634130D01*
X19685130Y-8687870D01*
X19738870Y-8687870D01*
X19738870Y-9703870D02*
X19738870Y-9650130D01*
X19685130Y-9650130D01*
X19685130Y-9703870D01*
X19738870Y-9703870D01*
X19738870Y-9957870D02*
X19738870Y-9904130D01*
X19685130Y-9904130D01*
X19685130Y-9957870D01*
X19738870Y-9957870D01*
X19738870Y-10944870D02*
X19738870Y-10891130D01*
X19685130Y-10891130D01*
X19685130Y-10944870D01*
X19738870Y-10944870D01*
X19738870Y-11198870D02*
X19738870Y-11145130D01*
X19685130Y-11145130D01*
X19685130Y-11198870D01*
X19738870Y-11198870D01*
X19738870Y-12194870D02*
X19738870Y-12141130D01*
X19685130Y-12141130D01*
X19685130Y-12194870D01*
X19738870Y-12194870D01*
X19738870Y-12448870D02*
X19738870Y-12395130D01*
X19685130Y-12395130D01*
X19685130Y-12448870D01*
X19738870Y-12448870D01*
X19738870Y-13418870D02*
X19738870Y-13365130D01*
X19685130Y-13365130D01*
X19685130Y-13418870D01*
X19738870Y-13418870D01*
X19738870Y-13672870D02*
X19738870Y-13619130D01*
X19685130Y-13619130D01*
X19685130Y-13672870D01*
X19738870Y-13672870D01*
X19992870Y-4890870D02*
X19992870Y-4837130D01*
X19939130Y-4837130D01*
X19939130Y-4890870D01*
X19992870Y-4890870D01*
X19992870Y-5144870D02*
X19992870Y-5091130D01*
X19939130Y-5091130D01*
X19939130Y-5144870D01*
X19992870Y-5144870D01*
X19992870Y-6117870D02*
X19992870Y-6064130D01*
X19939130Y-6064130D01*
X19939130Y-6117870D01*
X19992870Y-6117870D01*
X19992870Y-6371870D02*
X19992870Y-6318130D01*
X19939130Y-6318130D01*
X19939130Y-6371870D01*
X19992870Y-6371870D01*
X19992870Y-7340870D02*
X19992870Y-7287130D01*
X19939130Y-7287130D01*
X19939130Y-7340870D01*
X19992870Y-7340870D01*
X19992870Y-7594870D02*
X19992870Y-7541130D01*
X19939130Y-7541130D01*
X19939130Y-7594870D01*
X19992870Y-7594870D01*
X19992870Y-8560870D02*
X19992870Y-8507130D01*
X19939130Y-8507130D01*
X19939130Y-8560870D01*
X19992870Y-8560870D01*
X19992870Y-8814870D02*
X19992870Y-8761130D01*
X19939130Y-8761130D01*
X19939130Y-8814870D01*
X19992870Y-8814870D01*
X19992870Y-9830870D02*
X19992870Y-9777130D01*
X19939130Y-9777130D01*
X19939130Y-9830870D01*
X19992870Y-9830870D01*
X19992870Y-10084870D02*
X19992870Y-10031130D01*
X19939130Y-10031130D01*
X19939130Y-10084870D01*
X19992870Y-10084870D01*
X19992870Y-11071870D02*
X19992870Y-11018130D01*
X19939130Y-11018130D01*
X19939130Y-11071870D01*
X19992870Y-11071870D01*
X19992870Y-11325870D02*
X19992870Y-11272130D01*
X19939130Y-11272130D01*
X19939130Y-11325870D01*
X19992870Y-11325870D01*
X19992870Y-12321870D02*
X19992870Y-12268130D01*
X19939130Y-12268130D01*
X19939130Y-12321870D01*
X19992870Y-12321870D01*
X19992870Y-12575870D02*
X19992870Y-12522130D01*
X19939130Y-12522130D01*
X19939130Y-12575870D01*
X19992870Y-12575870D01*
X19992870Y-13545870D02*
X19992870Y-13492130D01*
X19939130Y-13492130D01*
X19939130Y-13545870D01*
X19992870Y-13545870D01*
X19992870Y-13799870D02*
X19992870Y-13746130D01*
X19939130Y-13746130D01*
X19939130Y-13799870D01*
X19992870Y-13799870D01*
X10034000Y-11328000D02*
X10074000Y-11288000D01*
X10034000Y-11248000D01*
X9994000Y-11288000D01*
X10034000Y-11328000D01*
X10034000Y-12090000D02*
X10074000Y-12050000D01*
X10034000Y-12010000D01*
X9994000Y-12050000D01*
X10034000Y-12090000D01*
X10288000Y-11328000D02*
X10328000Y-11288000D01*
X10288000Y-11248000D01*
X10248000Y-11288000D01*
X10288000Y-11328000D01*
X10288000Y-12090000D02*
X10328000Y-12050000D01*
X10288000Y-12010000D01*
X10248000Y-12050000D01*
X10288000Y-12090000D01*
X10542000Y-11328000D02*
X10582000Y-11288000D01*
X10542000Y-11248000D01*
X10502000Y-11288000D01*
X10542000Y-11328000D01*
X10542000Y-12090000D02*
X10582000Y-12050000D01*
X10542000Y-12010000D01*
X10502000Y-12050000D01*
X10542000Y-12090000D01*
X10904000Y-11328000D02*
X10944000Y-11288000D01*
X10904000Y-11248000D01*
X10864000Y-11288000D01*
X10904000Y-11328000D01*
X10904000Y-12090000D02*
X10944000Y-12050000D01*
X10904000Y-12010000D01*
X10864000Y-12050000D01*
X10904000Y-12090000D01*
X11158000Y-11328000D02*
X11198000Y-11288000D01*
X11158000Y-11248000D01*
X11118000Y-11288000D01*
X11158000Y-11328000D01*
X11158000Y-12090000D02*
X11198000Y-12050000D01*
X11158000Y-12010000D01*
X11118000Y-12050000D01*
X11158000Y-12090000D01*
X11412000Y-11328000D02*
X11452000Y-11288000D01*
X11412000Y-11248000D01*
X11372000Y-11288000D01*
X11412000Y-11328000D01*
X11412000Y-12090000D02*
X11452000Y-12050000D01*
X11412000Y-12010000D01*
X11372000Y-12050000D01*
X11412000Y-12090000D01*
X11774000Y-11328000D02*
X11814000Y-11288000D01*
X11774000Y-11248000D01*
X11734000Y-11288000D01*
X11774000Y-11328000D01*
X11774000Y-12090000D02*
X11814000Y-12050000D01*
X11774000Y-12010000D01*
X11734000Y-12050000D01*
X11774000Y-12090000D01*
X12028000Y-11328000D02*
X12068000Y-11288000D01*
X12028000Y-11248000D01*
X11988000Y-11288000D01*
X12028000Y-11328000D01*
X12028000Y-12090000D02*
X12068000Y-12050000D01*
X12028000Y-12010000D01*
X11988000Y-12050000D01*
X12028000Y-12090000D01*
X12282000Y-11328000D02*
X12322000Y-11288000D01*
X12282000Y-11248000D01*
X12242000Y-11288000D01*
X12282000Y-11328000D01*
X12282000Y-12090000D02*
X12322000Y-12050000D01*
X12282000Y-12010000D01*
X12242000Y-12050000D01*
X12282000Y-12090000D01*
X12614000Y-11328000D02*
X12654000Y-11288000D01*
X12614000Y-11248000D01*
X12574000Y-11288000D01*
X12614000Y-11328000D01*
X12614000Y-12090000D02*
X12654000Y-12050000D01*
X12614000Y-12010000D01*
X12574000Y-12050000D01*
X12614000Y-12090000D01*
X12868000Y-11328000D02*
X12908000Y-11288000D01*
X12868000Y-11248000D01*
X12828000Y-11288000D01*
X12868000Y-11328000D01*
X12868000Y-12090000D02*
X12908000Y-12050000D01*
X12868000Y-12010000D01*
X12828000Y-12050000D01*
X12868000Y-12090000D01*
X13122000Y-11328000D02*
X13162000Y-11288000D01*
X13122000Y-11248000D01*
X13082000Y-11288000D01*
X13122000Y-11328000D01*
X13122000Y-12090000D02*
X13162000Y-12050000D01*
X13122000Y-12010000D01*
X13082000Y-12050000D01*
X13122000Y-12090000D01*
X13464000Y-11328000D02*
X13504000Y-11288000D01*
X13464000Y-11248000D01*
X13424000Y-11288000D01*
X13464000Y-11328000D01*
X13464000Y-12090000D02*
X13504000Y-12050000D01*
X13464000Y-12010000D01*
X13424000Y-12050000D01*
X13464000Y-12090000D01*
X13718000Y-11328000D02*
X13758000Y-11288000D01*
X13718000Y-11248000D01*
X13678000Y-11288000D01*
X13718000Y-11328000D01*
X13718000Y-12090000D02*
X13758000Y-12050000D01*
X13718000Y-12010000D01*
X13678000Y-12050000D01*
X13718000Y-12090000D01*
X13972000Y-11328000D02*
X14012000Y-11288000D01*
X13972000Y-11248000D01*
X13932000Y-11288000D01*
X13972000Y-11328000D01*
X13972000Y-12090000D02*
X14012000Y-12050000D01*
X13972000Y-12010000D01*
X13932000Y-12050000D01*
X13972000Y-12090000D01*
X14322000Y-11326000D02*
X14362000Y-11286000D01*
X14322000Y-11246000D01*
X14282000Y-11286000D01*
X14322000Y-11326000D01*
X14322000Y-12088000D02*
X14362000Y-12048000D01*
X14322000Y-12008000D01*
X14282000Y-12048000D01*
X14322000Y-12088000D01*
X14576000Y-11326000D02*
X14616000Y-11286000D01*
X14576000Y-11246000D01*
X14536000Y-11286000D01*
X14576000Y-11326000D01*
X14576000Y-12088000D02*
X14616000Y-12048000D01*
X14576000Y-12008000D01*
X14536000Y-12048000D01*
X14576000Y-12088000D01*
X14830000Y-11326000D02*
X14870000Y-11286000D01*
X14830000Y-11246000D01*
X14790000Y-11286000D01*
X14830000Y-11326000D01*
X14830000Y-12088000D02*
X14870000Y-12048000D01*
X14830000Y-12008000D01*
X14790000Y-12048000D01*
X14830000Y-12088000D01*
X15182000Y-11326000D02*
X15222000Y-11286000D01*
X15182000Y-11246000D01*
X15142000Y-11286000D01*
X15182000Y-11326000D01*
X15182000Y-12088000D02*
X15222000Y-12048000D01*
X15182000Y-12008000D01*
X15142000Y-12048000D01*
X15182000Y-12088000D01*
X15436000Y-11326000D02*
X15476000Y-11286000D01*
X15436000Y-11246000D01*
X15396000Y-11286000D01*
X15436000Y-11326000D01*
X15436000Y-12088000D02*
X15476000Y-12048000D01*
X15436000Y-12008000D01*
X15396000Y-12048000D01*
X15436000Y-12088000D01*
X15690000Y-11326000D02*
X15730000Y-11286000D01*
X15690000Y-11246000D01*
X15650000Y-11286000D01*
X15690000Y-11326000D01*
X15690000Y-12088000D02*
X15730000Y-12048000D01*
X15690000Y-12008000D01*
X15650000Y-12048000D01*
X15690000Y-12088000D01*
X16042000Y-11326000D02*
X16082000Y-11286000D01*
X16042000Y-11246000D01*
X16002000Y-11286000D01*
X16042000Y-11326000D01*
X16042000Y-12088000D02*
X16082000Y-12048000D01*
X16042000Y-12008000D01*
X16002000Y-12048000D01*
X16042000Y-12088000D01*
X16296000Y-11326000D02*
X16336000Y-11286000D01*
X16296000Y-11246000D01*
X16256000Y-11286000D01*
X16296000Y-11326000D01*
X16296000Y-12088000D02*
X16336000Y-12048000D01*
X16296000Y-12008000D01*
X16256000Y-12048000D01*
X16296000Y-12088000D01*
X16550000Y-11326000D02*
X16590000Y-11286000D01*
X16550000Y-11246000D01*
X16510000Y-11286000D01*
X16550000Y-11326000D01*
X16550000Y-12088000D02*
X16590000Y-12048000D01*
X16550000Y-12008000D01*
X16510000Y-12048000D01*
X16550000Y-12088000D01*
X6062000Y-8743000D02*
X6162000Y-8843000D01*
X6162000Y-8743000D02*
X6062000Y-8843000D01*
X6162000Y-8793000D02*
G75*
G03*
X6162000Y-8793000I-50000J0D01*
G01*
X6662000Y-8743000D02*
X6762000Y-8843000D01*
X6762000Y-8743000D02*
X6662000Y-8843000D01*
X6762000Y-8793000D02*
G75*
G03*
X6762000Y-8793000I-50000J0D01*
G01*
X8037000Y-8743000D02*
X8137000Y-8843000D01*
X8137000Y-8743000D02*
X8037000Y-8843000D01*
X8137000Y-8793000D02*
G75*
G03*
X8137000Y-8793000I-50000J0D01*
G01*
X8637000Y-8743000D02*
X8737000Y-8843000D01*
X8737000Y-8743000D02*
X8637000Y-8843000D01*
X8737000Y-8793000D02*
G75*
G03*
X8737000Y-8793000I-50000J0D01*
G01*
X15037000Y-4778000D02*
X15137000Y-4878000D01*
X15137000Y-4778000D02*
X15037000Y-4878000D01*
X15137000Y-4828000D02*
G75*
G03*
X15137000Y-4828000I-50000J0D01*
G01*
X15037000Y-5032000D02*
X15137000Y-5132000D01*
X15137000Y-5032000D02*
X15037000Y-5132000D01*
X15137000Y-5082000D02*
G75*
G03*
X15137000Y-5082000I-50000J0D01*
G01*
X15037000Y-5286000D02*
X15137000Y-5386000D01*
X15137000Y-5286000D02*
X15037000Y-5386000D01*
X15137000Y-5336000D02*
G75*
G03*
X15137000Y-5336000I-50000J0D01*
G01*
X15090000Y-6044000D02*
X15190000Y-6144000D01*
X15190000Y-6044000D02*
X15090000Y-6144000D01*
X15190000Y-6094000D02*
G75*
G03*
X15190000Y-6094000I-50000J0D01*
G01*
X15090000Y-6298000D02*
X15190000Y-6398000D01*
X15190000Y-6298000D02*
X15090000Y-6398000D01*
X15190000Y-6348000D02*
G75*
G03*
X15190000Y-6348000I-50000J0D01*
G01*
X15862000Y-5558000D02*
X15962000Y-5658000D01*
X15962000Y-5558000D02*
X15862000Y-5658000D01*
X15962000Y-5608000D02*
G75*
G03*
X15962000Y-5608000I-50000J0D01*
G01*
X17462000Y-5558000D02*
X17562000Y-5658000D01*
X17562000Y-5558000D02*
X17462000Y-5658000D01*
X17562000Y-5608000D02*
G75*
G03*
X17562000Y-5608000I-50000J0D01*
G01*
X6719500Y-12635500D02*
X6849500Y-12765500D01*
X6849500Y-12635500D02*
X6719500Y-12765500D01*
X6784500Y-12635500D02*
X6784500Y-12765500D01*
X6719500Y-12700500D02*
X6849500Y-12700500D01*
X6719500Y-13143500D02*
X6849500Y-13273500D01*
X6849500Y-13143500D02*
X6719500Y-13273500D01*
X6784500Y-13143500D02*
X6784500Y-13273500D01*
X6719500Y-13208500D02*
X6849500Y-13208500D01*
X10114000Y-13303000D02*
X10244000Y-13433000D01*
X10244000Y-13303000D02*
X10114000Y-13433000D01*
X10179000Y-13303000D02*
X10179000Y-13433000D01*
X10114000Y-13368000D02*
X10244000Y-13368000D01*
X10622000Y-13303000D02*
X10752000Y-13433000D01*
X10752000Y-13303000D02*
X10622000Y-13433000D01*
X10687000Y-13303000D02*
X10687000Y-13433000D01*
X10622000Y-13368000D02*
X10752000Y-13368000D01*
X11622000Y-13303000D02*
X11752000Y-13433000D01*
X11752000Y-13303000D02*
X11622000Y-13433000D01*
X11687000Y-13303000D02*
X11687000Y-13433000D01*
X11622000Y-13368000D02*
X11752000Y-13368000D01*
X12130000Y-13303000D02*
X12260000Y-13433000D01*
X12260000Y-13303000D02*
X12130000Y-13433000D01*
X12195000Y-13303000D02*
X12195000Y-13433000D01*
X12130000Y-13368000D02*
X12260000Y-13368000D01*
X12638000Y-13303000D02*
X12768000Y-13433000D01*
X12768000Y-13303000D02*
X12638000Y-13433000D01*
X12703000Y-13303000D02*
X12703000Y-13433000D01*
X12638000Y-13368000D02*
X12768000Y-13368000D01*
X13146000Y-13303000D02*
X13276000Y-13433000D01*
X13276000Y-13303000D02*
X13146000Y-13433000D01*
X13211000Y-13303000D02*
X13211000Y-13433000D01*
X13146000Y-13368000D02*
X13276000Y-13368000D01*
X13654000Y-13303000D02*
X13784000Y-13433000D01*
X13784000Y-13303000D02*
X13654000Y-13433000D01*
X13719000Y-13303000D02*
X13719000Y-13433000D01*
X13654000Y-13368000D02*
X13784000Y-13368000D01*
X14162000Y-13303000D02*
X14292000Y-13433000D01*
X14292000Y-13303000D02*
X14162000Y-13433000D01*
X14227000Y-13303000D02*
X14227000Y-13433000D01*
X14162000Y-13368000D02*
X14292000Y-13368000D01*
X14670000Y-13303000D02*
X14800000Y-13433000D01*
X14800000Y-13303000D02*
X14670000Y-13433000D01*
X14735000Y-13303000D02*
X14735000Y-13433000D01*
X14670000Y-13368000D02*
X14800000Y-13368000D01*
X15178000Y-13303000D02*
X15308000Y-13433000D01*
X15308000Y-13303000D02*
X15178000Y-13433000D01*
X15243000Y-13303000D02*
X15243000Y-13433000D01*
X15178000Y-13368000D02*
X15308000Y-13368000D01*
X15287000Y-8013000D02*
X15417000Y-8143000D01*
X15417000Y-8013000D02*
X15287000Y-8143000D01*
X15352000Y-8013000D02*
X15352000Y-8143000D01*
X15287000Y-8078000D02*
X15417000Y-8078000D01*
X16227000Y-13303000D02*
X16357000Y-13433000D01*
X16357000Y-13303000D02*
X16227000Y-13433000D01*
X16292000Y-13303000D02*
X16292000Y-13433000D01*
X16227000Y-13368000D02*
X16357000Y-13368000D01*
X16735000Y-13303000D02*
X16865000Y-13433000D01*
X16865000Y-13303000D02*
X16735000Y-13433000D01*
X16800000Y-13303000D02*
X16800000Y-13433000D01*
X16735000Y-13368000D02*
X16865000Y-13368000D01*
X17243000Y-13303000D02*
X17373000Y-13433000D01*
X17373000Y-13303000D02*
X17243000Y-13433000D01*
X17308000Y-13303000D02*
X17308000Y-13433000D01*
X17243000Y-13368000D02*
X17373000Y-13368000D01*
X17287000Y-8013000D02*
X17417000Y-8143000D01*
X17417000Y-8013000D02*
X17287000Y-8143000D01*
X17352000Y-8013000D02*
X17352000Y-8143000D01*
X17287000Y-8078000D02*
X17417000Y-8078000D01*
X17751000Y-13303000D02*
X17881000Y-13433000D01*
X17881000Y-13303000D02*
X17751000Y-13433000D01*
X17816000Y-13303000D02*
X17816000Y-13433000D01*
X17751000Y-13368000D02*
X17881000Y-13368000D01*
X6202000Y-13708000D02*
X6522000Y-14028000D01*
X6522000Y-13708000D02*
X6202000Y-14028000D01*
X6475138Y-13981138D02*
X6475138Y-13754862D01*
X6248862Y-13754862D01*
X6248862Y-13981138D01*
X6475138Y-13981138D01*
X6254500Y-6410500D02*
X6574500Y-6730500D01*
X6574500Y-6410500D02*
X6254500Y-6730500D01*
X6527638Y-6683638D02*
X6527638Y-6457362D01*
X6301362Y-6457362D01*
X6301362Y-6683638D01*
X6527638Y-6683638D01*
X18902000Y-4508000D02*
X19222000Y-4828000D01*
X19222000Y-4508000D02*
X18902000Y-4828000D01*
X19175138Y-4781138D02*
X19175138Y-4554862D01*
X18948862Y-4554862D01*
X18948862Y-4781138D01*
X19175138Y-4781138D01*
X18902000Y-13708000D02*
X19222000Y-14028000D01*
X19222000Y-13708000D02*
X18902000Y-14028000D01*
X19175138Y-13981138D02*
X19175138Y-13754862D01*
X18948862Y-13754862D01*
X18948862Y-13981138D01*
X19175138Y-13981138D01*
D12*
X5998428Y-14738714D02*
X5998428Y-14438714D01*
X6069857Y-14438714D01*
X6112714Y-14453000D01*
X6141286Y-14481571D01*
X6155571Y-14510143D01*
X6169857Y-14567286D01*
X6169857Y-14610143D01*
X6155571Y-14667286D01*
X6141286Y-14695857D01*
X6112714Y-14724429D01*
X6069857Y-14738714D01*
X5998428Y-14738714D01*
X6298428Y-14738714D02*
X6298428Y-14538714D01*
X6298428Y-14595857D02*
X6312714Y-14567286D01*
X6327000Y-14553000D01*
X6355571Y-14538714D01*
X6384143Y-14538714D01*
X6484143Y-14738714D02*
X6484143Y-14538714D01*
X6484143Y-14438714D02*
X6469857Y-14453000D01*
X6484143Y-14467286D01*
X6498428Y-14453000D01*
X6484143Y-14438714D01*
X6484143Y-14467286D01*
X6669857Y-14738714D02*
X6641286Y-14724429D01*
X6627000Y-14695857D01*
X6627000Y-14438714D01*
X6827000Y-14738714D02*
X6798428Y-14724429D01*
X6784143Y-14695857D01*
X6784143Y-14438714D01*
X7169857Y-14738714D02*
X7169857Y-14438714D01*
X7269857Y-14653000D01*
X7369857Y-14438714D01*
X7369857Y-14738714D01*
X7641286Y-14738714D02*
X7641286Y-14581571D01*
X7627000Y-14553000D01*
X7598428Y-14538714D01*
X7541286Y-14538714D01*
X7512714Y-14553000D01*
X7641286Y-14724429D02*
X7612714Y-14738714D01*
X7541286Y-14738714D01*
X7512714Y-14724429D01*
X7498428Y-14695857D01*
X7498428Y-14667286D01*
X7512714Y-14638714D01*
X7541286Y-14624429D01*
X7612714Y-14624429D01*
X7641286Y-14610143D01*
X7784143Y-14538714D02*
X7784143Y-14838714D01*
X7784143Y-14553000D02*
X7812714Y-14538714D01*
X7869857Y-14538714D01*
X7898428Y-14553000D01*
X7912714Y-14567286D01*
X7927000Y-14595857D01*
X7927000Y-14681571D01*
X7912714Y-14710143D01*
X7898428Y-14724429D01*
X7869857Y-14738714D01*
X7812714Y-14738714D01*
X7784143Y-14724429D01*
X8055571Y-14710143D02*
X8069857Y-14724429D01*
X8055571Y-14738714D01*
X8041286Y-14724429D01*
X8055571Y-14710143D01*
X8055571Y-14738714D01*
X8055571Y-14553000D02*
X8069857Y-14567286D01*
X8055571Y-14581571D01*
X8041286Y-14567286D01*
X8055571Y-14553000D01*
X8055571Y-14581571D01*
X5662000Y-15208000D02*
X5712000Y-15258000D01*
X5712000Y-15208000D02*
X5662000Y-15258000D01*
X6055571Y-15068714D02*
X6084143Y-15068714D01*
X6112714Y-15083000D01*
X6127000Y-15097286D01*
X6141286Y-15125857D01*
X6155571Y-15183000D01*
X6155571Y-15254429D01*
X6141286Y-15311571D01*
X6127000Y-15340143D01*
X6112714Y-15354429D01*
X6084143Y-15368714D01*
X6055571Y-15368714D01*
X6027000Y-15354429D01*
X6012714Y-15340143D01*
X5998428Y-15311571D01*
X5984143Y-15254429D01*
X5984143Y-15183000D01*
X5998428Y-15125857D01*
X6012714Y-15097286D01*
X6027000Y-15083000D01*
X6055571Y-15068714D01*
X6284143Y-15340143D02*
X6298428Y-15354429D01*
X6284143Y-15368714D01*
X6269857Y-15354429D01*
X6284143Y-15340143D01*
X6284143Y-15368714D01*
X6569857Y-15068714D02*
X6427000Y-15068714D01*
X6412714Y-15211571D01*
X6427000Y-15197286D01*
X6455571Y-15183000D01*
X6527000Y-15183000D01*
X6555571Y-15197286D01*
X6569857Y-15211571D01*
X6584143Y-15240143D01*
X6584143Y-15311571D01*
X6569857Y-15340143D01*
X6555571Y-15354429D01*
X6527000Y-15368714D01*
X6455571Y-15368714D01*
X6427000Y-15354429D01*
X6412714Y-15340143D01*
X6769857Y-15068714D02*
X6798428Y-15068714D01*
X6827000Y-15083000D01*
X6841286Y-15097286D01*
X6855571Y-15125857D01*
X6869857Y-15183000D01*
X6869857Y-15254429D01*
X6855571Y-15311571D01*
X6841286Y-15340143D01*
X6827000Y-15354429D01*
X6798428Y-15368714D01*
X6769857Y-15368714D01*
X6741286Y-15354429D01*
X6727000Y-15340143D01*
X6712714Y-15311571D01*
X6698428Y-15254429D01*
X6698428Y-15183000D01*
X6712714Y-15125857D01*
X6727000Y-15097286D01*
X6741286Y-15083000D01*
X6769857Y-15068714D01*
X7055571Y-15068714D02*
X7084143Y-15068714D01*
X7112714Y-15083000D01*
X7127000Y-15097286D01*
X7141286Y-15125857D01*
X7155571Y-15183000D01*
X7155571Y-15254429D01*
X7141286Y-15311571D01*
X7127000Y-15340143D01*
X7112714Y-15354429D01*
X7084143Y-15368714D01*
X7055571Y-15368714D01*
X7027000Y-15354429D01*
X7012714Y-15340143D01*
X6998428Y-15311571D01*
X6984143Y-15254429D01*
X6984143Y-15183000D01*
X6998428Y-15125857D01*
X7012714Y-15097286D01*
X7027000Y-15083000D01*
X7055571Y-15068714D01*
X7284143Y-15368714D02*
X7284143Y-15168714D01*
X7284143Y-15197286D02*
X7298428Y-15183000D01*
X7327000Y-15168714D01*
X7369857Y-15168714D01*
X7398428Y-15183000D01*
X7412714Y-15211571D01*
X7412714Y-15368714D01*
X7412714Y-15211571D02*
X7427000Y-15183000D01*
X7455571Y-15168714D01*
X7498428Y-15168714D01*
X7527000Y-15183000D01*
X7541286Y-15211571D01*
X7541286Y-15368714D01*
X7684143Y-15368714D02*
X7684143Y-15168714D01*
X7684143Y-15197286D02*
X7698428Y-15183000D01*
X7727000Y-15168714D01*
X7769857Y-15168714D01*
X7798428Y-15183000D01*
X7812714Y-15211571D01*
X7812714Y-15368714D01*
X7812714Y-15211571D02*
X7827000Y-15183000D01*
X7855571Y-15168714D01*
X7898428Y-15168714D01*
X7927000Y-15183000D01*
X7941286Y-15211571D01*
X7941286Y-15368714D01*
X8527000Y-15054429D02*
X8269857Y-15440143D01*
X8912714Y-15068714D02*
X8941286Y-15068714D01*
X8969857Y-15083000D01*
X8984143Y-15097286D01*
X8998429Y-15125857D01*
X9012714Y-15183000D01*
X9012714Y-15254429D01*
X8998429Y-15311571D01*
X8984143Y-15340143D01*
X8969857Y-15354429D01*
X8941286Y-15368714D01*
X8912714Y-15368714D01*
X8884143Y-15354429D01*
X8869857Y-15340143D01*
X8855571Y-15311571D01*
X8841286Y-15254429D01*
X8841286Y-15183000D01*
X8855571Y-15125857D01*
X8869857Y-15097286D01*
X8884143Y-15083000D01*
X8912714Y-15068714D01*
X9141286Y-15340143D02*
X9155571Y-15354429D01*
X9141286Y-15368714D01*
X9127000Y-15354429D01*
X9141286Y-15340143D01*
X9141286Y-15368714D01*
X9341286Y-15068714D02*
X9369857Y-15068714D01*
X9398429Y-15083000D01*
X9412714Y-15097286D01*
X9427000Y-15125857D01*
X9441286Y-15183000D01*
X9441286Y-15254429D01*
X9427000Y-15311571D01*
X9412714Y-15340143D01*
X9398429Y-15354429D01*
X9369857Y-15368714D01*
X9341286Y-15368714D01*
X9312714Y-15354429D01*
X9298429Y-15340143D01*
X9284143Y-15311571D01*
X9269857Y-15254429D01*
X9269857Y-15183000D01*
X9284143Y-15125857D01*
X9298429Y-15097286D01*
X9312714Y-15083000D01*
X9341286Y-15068714D01*
X9727000Y-15368714D02*
X9555571Y-15368714D01*
X9641286Y-15368714D02*
X9641286Y-15068714D01*
X9612714Y-15111571D01*
X9584143Y-15140143D01*
X9555571Y-15154429D01*
X9869857Y-15368714D02*
X9927000Y-15368714D01*
X9955571Y-15354429D01*
X9969857Y-15340143D01*
X9998429Y-15297286D01*
X10012714Y-15240143D01*
X10012714Y-15125857D01*
X9998429Y-15097286D01*
X9984143Y-15083000D01*
X9955571Y-15068714D01*
X9898429Y-15068714D01*
X9869857Y-15083000D01*
X9855571Y-15097286D01*
X9841286Y-15125857D01*
X9841286Y-15197286D01*
X9855571Y-15225857D01*
X9869857Y-15240143D01*
X9898429Y-15254429D01*
X9955571Y-15254429D01*
X9984143Y-15240143D01*
X9998429Y-15225857D01*
X10012714Y-15197286D01*
X10112714Y-15068714D02*
X10312714Y-15068714D01*
X10184143Y-15368714D01*
X10412714Y-15068714D02*
X10412714Y-15125857D01*
X10527000Y-15068714D02*
X10527000Y-15125857D01*
X10969857Y-15483000D02*
X10955571Y-15468714D01*
X10927000Y-15425857D01*
X10912714Y-15397286D01*
X10898429Y-15354429D01*
X10884143Y-15283000D01*
X10884143Y-15225857D01*
X10898429Y-15154429D01*
X10912714Y-15111571D01*
X10927000Y-15083000D01*
X10955571Y-15040143D01*
X10969857Y-15025857D01*
X11055571Y-15068714D02*
X11241286Y-15068714D01*
X11141286Y-15183000D01*
X11184143Y-15183000D01*
X11212714Y-15197286D01*
X11227000Y-15211571D01*
X11241286Y-15240143D01*
X11241286Y-15311571D01*
X11227000Y-15340143D01*
X11212714Y-15354429D01*
X11184143Y-15368714D01*
X11098429Y-15368714D01*
X11069857Y-15354429D01*
X11055571Y-15340143D01*
X11355571Y-15097286D02*
X11369857Y-15083000D01*
X11398428Y-15068714D01*
X11469857Y-15068714D01*
X11498428Y-15083000D01*
X11512714Y-15097286D01*
X11527000Y-15125857D01*
X11527000Y-15154429D01*
X11512714Y-15197286D01*
X11341286Y-15368714D01*
X11527000Y-15368714D01*
X11884143Y-15368714D02*
X11884143Y-15068714D01*
X12012714Y-15368714D02*
X12012714Y-15211571D01*
X11998428Y-15183000D01*
X11969857Y-15168714D01*
X11927000Y-15168714D01*
X11898428Y-15183000D01*
X11884143Y-15197286D01*
X12198428Y-15368714D02*
X12169857Y-15354429D01*
X12155571Y-15340143D01*
X12141286Y-15311571D01*
X12141286Y-15225857D01*
X12155571Y-15197286D01*
X12169857Y-15183000D01*
X12198428Y-15168714D01*
X12241286Y-15168714D01*
X12269857Y-15183000D01*
X12284143Y-15197286D01*
X12298428Y-15225857D01*
X12298428Y-15311571D01*
X12284143Y-15340143D01*
X12269857Y-15354429D01*
X12241286Y-15368714D01*
X12198428Y-15368714D01*
X12469857Y-15368714D02*
X12441286Y-15354429D01*
X12427000Y-15325857D01*
X12427000Y-15068714D01*
X12698428Y-15354429D02*
X12669857Y-15368714D01*
X12612714Y-15368714D01*
X12584143Y-15354429D01*
X12569857Y-15325857D01*
X12569857Y-15211571D01*
X12584143Y-15183000D01*
X12612714Y-15168714D01*
X12669857Y-15168714D01*
X12698428Y-15183000D01*
X12712714Y-15211571D01*
X12712714Y-15240143D01*
X12569857Y-15268714D01*
X12827000Y-15354429D02*
X12855571Y-15368714D01*
X12912714Y-15368714D01*
X12941286Y-15354429D01*
X12955571Y-15325857D01*
X12955571Y-15311571D01*
X12941286Y-15283000D01*
X12912714Y-15268714D01*
X12869857Y-15268714D01*
X12841286Y-15254429D01*
X12827000Y-15225857D01*
X12827000Y-15211571D01*
X12841286Y-15183000D01*
X12869857Y-15168714D01*
X12912714Y-15168714D01*
X12941286Y-15183000D01*
X13055571Y-15483000D02*
X13069857Y-15468714D01*
X13098428Y-15425857D01*
X13112714Y-15397286D01*
X13127000Y-15354429D01*
X13141286Y-15283000D01*
X13141286Y-15225857D01*
X13127000Y-15154429D01*
X13112714Y-15111571D01*
X13098428Y-15083000D01*
X13069857Y-15040143D01*
X13055571Y-15025857D01*
X5712000Y-15629000D02*
G75*
G03*
X5712000Y-15629000I-30000J0D01*
G01*
X6055571Y-15464714D02*
X6084143Y-15464714D01*
X6112714Y-15479000D01*
X6127000Y-15493286D01*
X6141286Y-15521857D01*
X6155571Y-15579000D01*
X6155571Y-15650429D01*
X6141286Y-15707571D01*
X6127000Y-15736143D01*
X6112714Y-15750429D01*
X6084143Y-15764714D01*
X6055571Y-15764714D01*
X6027000Y-15750429D01*
X6012714Y-15736143D01*
X5998428Y-15707571D01*
X5984143Y-15650429D01*
X5984143Y-15579000D01*
X5998428Y-15521857D01*
X6012714Y-15493286D01*
X6027000Y-15479000D01*
X6055571Y-15464714D01*
X6284143Y-15736143D02*
X6298428Y-15750429D01*
X6284143Y-15764714D01*
X6269857Y-15750429D01*
X6284143Y-15736143D01*
X6284143Y-15764714D01*
X6555571Y-15464714D02*
X6498428Y-15464714D01*
X6469857Y-15479000D01*
X6455571Y-15493286D01*
X6427000Y-15536143D01*
X6412714Y-15593286D01*
X6412714Y-15707571D01*
X6427000Y-15736143D01*
X6441286Y-15750429D01*
X6469857Y-15764714D01*
X6527000Y-15764714D01*
X6555571Y-15750429D01*
X6569857Y-15736143D01*
X6584143Y-15707571D01*
X6584143Y-15636143D01*
X6569857Y-15607571D01*
X6555571Y-15593286D01*
X6527000Y-15579000D01*
X6469857Y-15579000D01*
X6441286Y-15593286D01*
X6427000Y-15607571D01*
X6412714Y-15636143D01*
X6769857Y-15464714D02*
X6798428Y-15464714D01*
X6827000Y-15479000D01*
X6841286Y-15493286D01*
X6855571Y-15521857D01*
X6869857Y-15579000D01*
X6869857Y-15650429D01*
X6855571Y-15707571D01*
X6841286Y-15736143D01*
X6827000Y-15750429D01*
X6798428Y-15764714D01*
X6769857Y-15764714D01*
X6741286Y-15750429D01*
X6727000Y-15736143D01*
X6712714Y-15707571D01*
X6698428Y-15650429D01*
X6698428Y-15579000D01*
X6712714Y-15521857D01*
X6727000Y-15493286D01*
X6741286Y-15479000D01*
X6769857Y-15464714D01*
X7055571Y-15464714D02*
X7084143Y-15464714D01*
X7112714Y-15479000D01*
X7127000Y-15493286D01*
X7141286Y-15521857D01*
X7155571Y-15579000D01*
X7155571Y-15650429D01*
X7141286Y-15707571D01*
X7127000Y-15736143D01*
X7112714Y-15750429D01*
X7084143Y-15764714D01*
X7055571Y-15764714D01*
X7027000Y-15750429D01*
X7012714Y-15736143D01*
X6998428Y-15707571D01*
X6984143Y-15650429D01*
X6984143Y-15579000D01*
X6998428Y-15521857D01*
X7012714Y-15493286D01*
X7027000Y-15479000D01*
X7055571Y-15464714D01*
X7284143Y-15764714D02*
X7284143Y-15564714D01*
X7284143Y-15593286D02*
X7298428Y-15579000D01*
X7327000Y-15564714D01*
X7369857Y-15564714D01*
X7398428Y-15579000D01*
X7412714Y-15607571D01*
X7412714Y-15764714D01*
X7412714Y-15607571D02*
X7427000Y-15579000D01*
X7455571Y-15564714D01*
X7498428Y-15564714D01*
X7527000Y-15579000D01*
X7541286Y-15607571D01*
X7541286Y-15764714D01*
X7684143Y-15764714D02*
X7684143Y-15564714D01*
X7684143Y-15593286D02*
X7698428Y-15579000D01*
X7727000Y-15564714D01*
X7769857Y-15564714D01*
X7798428Y-15579000D01*
X7812714Y-15607571D01*
X7812714Y-15764714D01*
X7812714Y-15607571D02*
X7827000Y-15579000D01*
X7855571Y-15564714D01*
X7898428Y-15564714D01*
X7927000Y-15579000D01*
X7941286Y-15607571D01*
X7941286Y-15764714D01*
X8527000Y-15450429D02*
X8269857Y-15836143D01*
X8912714Y-15464714D02*
X8941286Y-15464714D01*
X8969857Y-15479000D01*
X8984143Y-15493286D01*
X8998429Y-15521857D01*
X9012714Y-15579000D01*
X9012714Y-15650429D01*
X8998429Y-15707571D01*
X8984143Y-15736143D01*
X8969857Y-15750429D01*
X8941286Y-15764714D01*
X8912714Y-15764714D01*
X8884143Y-15750429D01*
X8869857Y-15736143D01*
X8855571Y-15707571D01*
X8841286Y-15650429D01*
X8841286Y-15579000D01*
X8855571Y-15521857D01*
X8869857Y-15493286D01*
X8884143Y-15479000D01*
X8912714Y-15464714D01*
X9141286Y-15736143D02*
X9155571Y-15750429D01*
X9141286Y-15764714D01*
X9127000Y-15750429D01*
X9141286Y-15736143D01*
X9141286Y-15764714D01*
X9341286Y-15464714D02*
X9369857Y-15464714D01*
X9398429Y-15479000D01*
X9412714Y-15493286D01*
X9427000Y-15521857D01*
X9441286Y-15579000D01*
X9441286Y-15650429D01*
X9427000Y-15707571D01*
X9412714Y-15736143D01*
X9398429Y-15750429D01*
X9369857Y-15764714D01*
X9341286Y-15764714D01*
X9312714Y-15750429D01*
X9298429Y-15736143D01*
X9284143Y-15707571D01*
X9269857Y-15650429D01*
X9269857Y-15579000D01*
X9284143Y-15521857D01*
X9298429Y-15493286D01*
X9312714Y-15479000D01*
X9341286Y-15464714D01*
X9555571Y-15493286D02*
X9569857Y-15479000D01*
X9598429Y-15464714D01*
X9669857Y-15464714D01*
X9698429Y-15479000D01*
X9712714Y-15493286D01*
X9727000Y-15521857D01*
X9727000Y-15550429D01*
X9712714Y-15593286D01*
X9541286Y-15764714D01*
X9727000Y-15764714D01*
X9827000Y-15464714D02*
X10012714Y-15464714D01*
X9912714Y-15579000D01*
X9955571Y-15579000D01*
X9984143Y-15593286D01*
X9998429Y-15607571D01*
X10012714Y-15636143D01*
X10012714Y-15707571D01*
X9998429Y-15736143D01*
X9984143Y-15750429D01*
X9955571Y-15764714D01*
X9869857Y-15764714D01*
X9841286Y-15750429D01*
X9827000Y-15736143D01*
X10269857Y-15464714D02*
X10212714Y-15464714D01*
X10184143Y-15479000D01*
X10169857Y-15493286D01*
X10141286Y-15536143D01*
X10127000Y-15593286D01*
X10127000Y-15707571D01*
X10141286Y-15736143D01*
X10155571Y-15750429D01*
X10184143Y-15764714D01*
X10241286Y-15764714D01*
X10269857Y-15750429D01*
X10284143Y-15736143D01*
X10298429Y-15707571D01*
X10298429Y-15636143D01*
X10284143Y-15607571D01*
X10269857Y-15593286D01*
X10241286Y-15579000D01*
X10184143Y-15579000D01*
X10155571Y-15593286D01*
X10141286Y-15607571D01*
X10127000Y-15636143D01*
X10412714Y-15464714D02*
X10412714Y-15521857D01*
X10527000Y-15464714D02*
X10527000Y-15521857D01*
X10969857Y-15879000D02*
X10955571Y-15864714D01*
X10927000Y-15821857D01*
X10912714Y-15793286D01*
X10898429Y-15750429D01*
X10884143Y-15679000D01*
X10884143Y-15621857D01*
X10898429Y-15550429D01*
X10912714Y-15507571D01*
X10927000Y-15479000D01*
X10955571Y-15436143D01*
X10969857Y-15421857D01*
X11212714Y-15564714D02*
X11212714Y-15764714D01*
X11141286Y-15450429D02*
X11069857Y-15664714D01*
X11255571Y-15664714D01*
X11512714Y-15464714D02*
X11369857Y-15464714D01*
X11355571Y-15607571D01*
X11369857Y-15593286D01*
X11398428Y-15579000D01*
X11469857Y-15579000D01*
X11498428Y-15593286D01*
X11512714Y-15607571D01*
X11527000Y-15636143D01*
X11527000Y-15707571D01*
X11512714Y-15736143D01*
X11498428Y-15750429D01*
X11469857Y-15764714D01*
X11398428Y-15764714D01*
X11369857Y-15750429D01*
X11355571Y-15736143D01*
X11812714Y-15764714D02*
X11641286Y-15764714D01*
X11727000Y-15764714D02*
X11727000Y-15464714D01*
X11698428Y-15507571D01*
X11669857Y-15536143D01*
X11641286Y-15550429D01*
X12169857Y-15764714D02*
X12169857Y-15464714D01*
X12298428Y-15764714D02*
X12298428Y-15607571D01*
X12284143Y-15579000D01*
X12255571Y-15564714D01*
X12212714Y-15564714D01*
X12184143Y-15579000D01*
X12169857Y-15593286D01*
X12484143Y-15764714D02*
X12455571Y-15750429D01*
X12441286Y-15736143D01*
X12427000Y-15707571D01*
X12427000Y-15621857D01*
X12441286Y-15593286D01*
X12455571Y-15579000D01*
X12484143Y-15564714D01*
X12527000Y-15564714D01*
X12555571Y-15579000D01*
X12569857Y-15593286D01*
X12584143Y-15621857D01*
X12584143Y-15707571D01*
X12569857Y-15736143D01*
X12555571Y-15750429D01*
X12527000Y-15764714D01*
X12484143Y-15764714D01*
X12755571Y-15764714D02*
X12727000Y-15750429D01*
X12712714Y-15721857D01*
X12712714Y-15464714D01*
X12984143Y-15750429D02*
X12955571Y-15764714D01*
X12898428Y-15764714D01*
X12869857Y-15750429D01*
X12855571Y-15721857D01*
X12855571Y-15607571D01*
X12869857Y-15579000D01*
X12898428Y-15564714D01*
X12955571Y-15564714D01*
X12984143Y-15579000D01*
X12998428Y-15607571D01*
X12998428Y-15636143D01*
X12855571Y-15664714D01*
X13112714Y-15750429D02*
X13141286Y-15764714D01*
X13198428Y-15764714D01*
X13227000Y-15750429D01*
X13241286Y-15721857D01*
X13241286Y-15707571D01*
X13227000Y-15679000D01*
X13198428Y-15664714D01*
X13155571Y-15664714D01*
X13127000Y-15650429D01*
X13112714Y-15621857D01*
X13112714Y-15607571D01*
X13127000Y-15579000D01*
X13155571Y-15564714D01*
X13198428Y-15564714D01*
X13227000Y-15579000D01*
X13341286Y-15879000D02*
X13355571Y-15864714D01*
X13384143Y-15821857D01*
X13398428Y-15793286D01*
X13412714Y-15750429D01*
X13427000Y-15679000D01*
X13427000Y-15621857D01*
X13412714Y-15550429D01*
X13398428Y-15507571D01*
X13384143Y-15479000D01*
X13355571Y-15436143D01*
X13341286Y-15421857D01*
X5674500Y-15987500D02*
X5674500Y-16062500D01*
X5637000Y-16025000D02*
X5712000Y-16025000D01*
X6055571Y-15860714D02*
X6084143Y-15860714D01*
X6112714Y-15875000D01*
X6127000Y-15889286D01*
X6141286Y-15917857D01*
X6155571Y-15975000D01*
X6155571Y-16046429D01*
X6141286Y-16103571D01*
X6127000Y-16132143D01*
X6112714Y-16146429D01*
X6084143Y-16160714D01*
X6055571Y-16160714D01*
X6027000Y-16146429D01*
X6012714Y-16132143D01*
X5998428Y-16103571D01*
X5984143Y-16046429D01*
X5984143Y-15975000D01*
X5998428Y-15917857D01*
X6012714Y-15889286D01*
X6027000Y-15875000D01*
X6055571Y-15860714D01*
X6284143Y-16132143D02*
X6298428Y-16146429D01*
X6284143Y-16160714D01*
X6269857Y-16146429D01*
X6284143Y-16132143D01*
X6284143Y-16160714D01*
X6398428Y-15860714D02*
X6598428Y-15860714D01*
X6469857Y-16160714D01*
X6855571Y-15860714D02*
X6712714Y-15860714D01*
X6698428Y-16003571D01*
X6712714Y-15989286D01*
X6741286Y-15975000D01*
X6812714Y-15975000D01*
X6841286Y-15989286D01*
X6855571Y-16003571D01*
X6869857Y-16032143D01*
X6869857Y-16103571D01*
X6855571Y-16132143D01*
X6841286Y-16146429D01*
X6812714Y-16160714D01*
X6741286Y-16160714D01*
X6712714Y-16146429D01*
X6698428Y-16132143D01*
X7055571Y-15860714D02*
X7084143Y-15860714D01*
X7112714Y-15875000D01*
X7127000Y-15889286D01*
X7141286Y-15917857D01*
X7155571Y-15975000D01*
X7155571Y-16046429D01*
X7141286Y-16103571D01*
X7127000Y-16132143D01*
X7112714Y-16146429D01*
X7084143Y-16160714D01*
X7055571Y-16160714D01*
X7027000Y-16146429D01*
X7012714Y-16132143D01*
X6998428Y-16103571D01*
X6984143Y-16046429D01*
X6984143Y-15975000D01*
X6998428Y-15917857D01*
X7012714Y-15889286D01*
X7027000Y-15875000D01*
X7055571Y-15860714D01*
X7284143Y-16160714D02*
X7284143Y-15960714D01*
X7284143Y-15989286D02*
X7298428Y-15975000D01*
X7327000Y-15960714D01*
X7369857Y-15960714D01*
X7398428Y-15975000D01*
X7412714Y-16003571D01*
X7412714Y-16160714D01*
X7412714Y-16003571D02*
X7427000Y-15975000D01*
X7455571Y-15960714D01*
X7498428Y-15960714D01*
X7527000Y-15975000D01*
X7541286Y-16003571D01*
X7541286Y-16160714D01*
X7684143Y-16160714D02*
X7684143Y-15960714D01*
X7684143Y-15989286D02*
X7698428Y-15975000D01*
X7727000Y-15960714D01*
X7769857Y-15960714D01*
X7798428Y-15975000D01*
X7812714Y-16003571D01*
X7812714Y-16160714D01*
X7812714Y-16003571D02*
X7827000Y-15975000D01*
X7855571Y-15960714D01*
X7898428Y-15960714D01*
X7927000Y-15975000D01*
X7941286Y-16003571D01*
X7941286Y-16160714D01*
X8527000Y-15846429D02*
X8269857Y-16232143D01*
X8912714Y-15860714D02*
X8941286Y-15860714D01*
X8969857Y-15875000D01*
X8984143Y-15889286D01*
X8998429Y-15917857D01*
X9012714Y-15975000D01*
X9012714Y-16046429D01*
X8998429Y-16103571D01*
X8984143Y-16132143D01*
X8969857Y-16146429D01*
X8941286Y-16160714D01*
X8912714Y-16160714D01*
X8884143Y-16146429D01*
X8869857Y-16132143D01*
X8855571Y-16103571D01*
X8841286Y-16046429D01*
X8841286Y-15975000D01*
X8855571Y-15917857D01*
X8869857Y-15889286D01*
X8884143Y-15875000D01*
X8912714Y-15860714D01*
X9141286Y-16132143D02*
X9155571Y-16146429D01*
X9141286Y-16160714D01*
X9127000Y-16146429D01*
X9141286Y-16132143D01*
X9141286Y-16160714D01*
X9341286Y-15860714D02*
X9369857Y-15860714D01*
X9398429Y-15875000D01*
X9412714Y-15889286D01*
X9427000Y-15917857D01*
X9441286Y-15975000D01*
X9441286Y-16046429D01*
X9427000Y-16103571D01*
X9412714Y-16132143D01*
X9398429Y-16146429D01*
X9369857Y-16160714D01*
X9341286Y-16160714D01*
X9312714Y-16146429D01*
X9298429Y-16132143D01*
X9284143Y-16103571D01*
X9269857Y-16046429D01*
X9269857Y-15975000D01*
X9284143Y-15917857D01*
X9298429Y-15889286D01*
X9312714Y-15875000D01*
X9341286Y-15860714D01*
X9555571Y-15889286D02*
X9569857Y-15875000D01*
X9598429Y-15860714D01*
X9669857Y-15860714D01*
X9698429Y-15875000D01*
X9712714Y-15889286D01*
X9727000Y-15917857D01*
X9727000Y-15946429D01*
X9712714Y-15989286D01*
X9541286Y-16160714D01*
X9727000Y-16160714D01*
X9869857Y-16160714D02*
X9927000Y-16160714D01*
X9955571Y-16146429D01*
X9969857Y-16132143D01*
X9998429Y-16089286D01*
X10012714Y-16032143D01*
X10012714Y-15917857D01*
X9998429Y-15889286D01*
X9984143Y-15875000D01*
X9955571Y-15860714D01*
X9898429Y-15860714D01*
X9869857Y-15875000D01*
X9855571Y-15889286D01*
X9841286Y-15917857D01*
X9841286Y-15989286D01*
X9855571Y-16017857D01*
X9869857Y-16032143D01*
X9898429Y-16046429D01*
X9955571Y-16046429D01*
X9984143Y-16032143D01*
X9998429Y-16017857D01*
X10012714Y-15989286D01*
X10284143Y-15860714D02*
X10141286Y-15860714D01*
X10127000Y-16003571D01*
X10141286Y-15989286D01*
X10169857Y-15975000D01*
X10241286Y-15975000D01*
X10269857Y-15989286D01*
X10284143Y-16003571D01*
X10298429Y-16032143D01*
X10298429Y-16103571D01*
X10284143Y-16132143D01*
X10269857Y-16146429D01*
X10241286Y-16160714D01*
X10169857Y-16160714D01*
X10141286Y-16146429D01*
X10127000Y-16132143D01*
X10412714Y-15860714D02*
X10412714Y-15917857D01*
X10527000Y-15860714D02*
X10527000Y-15917857D01*
X10969857Y-16275000D02*
X10955571Y-16260714D01*
X10927000Y-16217857D01*
X10912714Y-16189286D01*
X10898429Y-16146429D01*
X10884143Y-16075000D01*
X10884143Y-16017857D01*
X10898429Y-15946429D01*
X10912714Y-15903571D01*
X10927000Y-15875000D01*
X10955571Y-15832143D01*
X10969857Y-15817857D01*
X11055571Y-15860714D02*
X11241286Y-15860714D01*
X11141286Y-15975000D01*
X11184143Y-15975000D01*
X11212714Y-15989286D01*
X11227000Y-16003571D01*
X11241286Y-16032143D01*
X11241286Y-16103571D01*
X11227000Y-16132143D01*
X11212714Y-16146429D01*
X11184143Y-16160714D01*
X11098429Y-16160714D01*
X11069857Y-16146429D01*
X11055571Y-16132143D01*
X11341286Y-15860714D02*
X11527000Y-15860714D01*
X11427000Y-15975000D01*
X11469857Y-15975000D01*
X11498428Y-15989286D01*
X11512714Y-16003571D01*
X11527000Y-16032143D01*
X11527000Y-16103571D01*
X11512714Y-16132143D01*
X11498428Y-16146429D01*
X11469857Y-16160714D01*
X11384143Y-16160714D01*
X11355571Y-16146429D01*
X11341286Y-16132143D01*
X11884143Y-16160714D02*
X11884143Y-15860714D01*
X12012714Y-16160714D02*
X12012714Y-16003571D01*
X11998428Y-15975000D01*
X11969857Y-15960714D01*
X11927000Y-15960714D01*
X11898428Y-15975000D01*
X11884143Y-15989286D01*
X12198428Y-16160714D02*
X12169857Y-16146429D01*
X12155571Y-16132143D01*
X12141286Y-16103571D01*
X12141286Y-16017857D01*
X12155571Y-15989286D01*
X12169857Y-15975000D01*
X12198428Y-15960714D01*
X12241286Y-15960714D01*
X12269857Y-15975000D01*
X12284143Y-15989286D01*
X12298428Y-16017857D01*
X12298428Y-16103571D01*
X12284143Y-16132143D01*
X12269857Y-16146429D01*
X12241286Y-16160714D01*
X12198428Y-16160714D01*
X12469857Y-16160714D02*
X12441286Y-16146429D01*
X12427000Y-16117857D01*
X12427000Y-15860714D01*
X12698428Y-16146429D02*
X12669857Y-16160714D01*
X12612714Y-16160714D01*
X12584143Y-16146429D01*
X12569857Y-16117857D01*
X12569857Y-16003571D01*
X12584143Y-15975000D01*
X12612714Y-15960714D01*
X12669857Y-15960714D01*
X12698428Y-15975000D01*
X12712714Y-16003571D01*
X12712714Y-16032143D01*
X12569857Y-16060714D01*
X12827000Y-16146429D02*
X12855571Y-16160714D01*
X12912714Y-16160714D01*
X12941286Y-16146429D01*
X12955571Y-16117857D01*
X12955571Y-16103571D01*
X12941286Y-16075000D01*
X12912714Y-16060714D01*
X12869857Y-16060714D01*
X12841286Y-16046429D01*
X12827000Y-16017857D01*
X12827000Y-16003571D01*
X12841286Y-15975000D01*
X12869857Y-15960714D01*
X12912714Y-15960714D01*
X12941286Y-15975000D01*
X13055571Y-16275000D02*
X13069857Y-16260714D01*
X13098428Y-16217857D01*
X13112714Y-16189286D01*
X13127000Y-16146429D01*
X13141286Y-16075000D01*
X13141286Y-16017857D01*
X13127000Y-15946429D01*
X13112714Y-15903571D01*
X13098428Y-15875000D01*
X13069857Y-15832143D01*
X13055571Y-15817857D01*
X5700870Y-16447870D02*
X5700870Y-16394130D01*
X5647130Y-16394130D01*
X5647130Y-16447870D01*
X5700870Y-16447870D01*
X6055571Y-16256714D02*
X6084143Y-16256714D01*
X6112714Y-16271000D01*
X6127000Y-16285286D01*
X6141286Y-16313857D01*
X6155571Y-16371000D01*
X6155571Y-16442429D01*
X6141286Y-16499571D01*
X6127000Y-16528143D01*
X6112714Y-16542429D01*
X6084143Y-16556714D01*
X6055571Y-16556714D01*
X6027000Y-16542429D01*
X6012714Y-16528143D01*
X5998428Y-16499571D01*
X5984143Y-16442429D01*
X5984143Y-16371000D01*
X5998428Y-16313857D01*
X6012714Y-16285286D01*
X6027000Y-16271000D01*
X6055571Y-16256714D01*
X6284143Y-16528143D02*
X6298428Y-16542429D01*
X6284143Y-16556714D01*
X6269857Y-16542429D01*
X6284143Y-16528143D01*
X6284143Y-16556714D01*
X6398428Y-16256714D02*
X6598428Y-16256714D01*
X6469857Y-16556714D01*
X6841286Y-16256714D02*
X6784143Y-16256714D01*
X6755571Y-16271000D01*
X6741286Y-16285286D01*
X6712714Y-16328143D01*
X6698428Y-16385286D01*
X6698428Y-16499571D01*
X6712714Y-16528143D01*
X6727000Y-16542429D01*
X6755571Y-16556714D01*
X6812714Y-16556714D01*
X6841286Y-16542429D01*
X6855571Y-16528143D01*
X6869857Y-16499571D01*
X6869857Y-16428143D01*
X6855571Y-16399571D01*
X6841286Y-16385286D01*
X6812714Y-16371000D01*
X6755571Y-16371000D01*
X6727000Y-16385286D01*
X6712714Y-16399571D01*
X6698428Y-16428143D01*
X7055571Y-16256714D02*
X7084143Y-16256714D01*
X7112714Y-16271000D01*
X7127000Y-16285286D01*
X7141286Y-16313857D01*
X7155571Y-16371000D01*
X7155571Y-16442429D01*
X7141286Y-16499571D01*
X7127000Y-16528143D01*
X7112714Y-16542429D01*
X7084143Y-16556714D01*
X7055571Y-16556714D01*
X7027000Y-16542429D01*
X7012714Y-16528143D01*
X6998428Y-16499571D01*
X6984143Y-16442429D01*
X6984143Y-16371000D01*
X6998428Y-16313857D01*
X7012714Y-16285286D01*
X7027000Y-16271000D01*
X7055571Y-16256714D01*
X7284143Y-16556714D02*
X7284143Y-16356714D01*
X7284143Y-16385286D02*
X7298428Y-16371000D01*
X7327000Y-16356714D01*
X7369857Y-16356714D01*
X7398428Y-16371000D01*
X7412714Y-16399571D01*
X7412714Y-16556714D01*
X7412714Y-16399571D02*
X7427000Y-16371000D01*
X7455571Y-16356714D01*
X7498428Y-16356714D01*
X7527000Y-16371000D01*
X7541286Y-16399571D01*
X7541286Y-16556714D01*
X7684143Y-16556714D02*
X7684143Y-16356714D01*
X7684143Y-16385286D02*
X7698428Y-16371000D01*
X7727000Y-16356714D01*
X7769857Y-16356714D01*
X7798428Y-16371000D01*
X7812714Y-16399571D01*
X7812714Y-16556714D01*
X7812714Y-16399571D02*
X7827000Y-16371000D01*
X7855571Y-16356714D01*
X7898428Y-16356714D01*
X7927000Y-16371000D01*
X7941286Y-16399571D01*
X7941286Y-16556714D01*
X8527000Y-16242429D02*
X8269857Y-16628143D01*
X8912714Y-16256714D02*
X8941286Y-16256714D01*
X8969857Y-16271000D01*
X8984143Y-16285286D01*
X8998429Y-16313857D01*
X9012714Y-16371000D01*
X9012714Y-16442429D01*
X8998429Y-16499571D01*
X8984143Y-16528143D01*
X8969857Y-16542429D01*
X8941286Y-16556714D01*
X8912714Y-16556714D01*
X8884143Y-16542429D01*
X8869857Y-16528143D01*
X8855571Y-16499571D01*
X8841286Y-16442429D01*
X8841286Y-16371000D01*
X8855571Y-16313857D01*
X8869857Y-16285286D01*
X8884143Y-16271000D01*
X8912714Y-16256714D01*
X9141286Y-16528143D02*
X9155571Y-16542429D01*
X9141286Y-16556714D01*
X9127000Y-16542429D01*
X9141286Y-16528143D01*
X9141286Y-16556714D01*
X9341286Y-16256714D02*
X9369857Y-16256714D01*
X9398429Y-16271000D01*
X9412714Y-16285286D01*
X9427000Y-16313857D01*
X9441286Y-16371000D01*
X9441286Y-16442429D01*
X9427000Y-16499571D01*
X9412714Y-16528143D01*
X9398429Y-16542429D01*
X9369857Y-16556714D01*
X9341286Y-16556714D01*
X9312714Y-16542429D01*
X9298429Y-16528143D01*
X9284143Y-16499571D01*
X9269857Y-16442429D01*
X9269857Y-16371000D01*
X9284143Y-16313857D01*
X9298429Y-16285286D01*
X9312714Y-16271000D01*
X9341286Y-16256714D01*
X9555571Y-16285286D02*
X9569857Y-16271000D01*
X9598429Y-16256714D01*
X9669857Y-16256714D01*
X9698429Y-16271000D01*
X9712714Y-16285286D01*
X9727000Y-16313857D01*
X9727000Y-16342429D01*
X9712714Y-16385286D01*
X9541286Y-16556714D01*
X9727000Y-16556714D01*
X9869857Y-16556714D02*
X9927000Y-16556714D01*
X9955571Y-16542429D01*
X9969857Y-16528143D01*
X9998429Y-16485286D01*
X10012714Y-16428143D01*
X10012714Y-16313857D01*
X9998429Y-16285286D01*
X9984143Y-16271000D01*
X9955571Y-16256714D01*
X9898429Y-16256714D01*
X9869857Y-16271000D01*
X9855571Y-16285286D01*
X9841286Y-16313857D01*
X9841286Y-16385286D01*
X9855571Y-16413857D01*
X9869857Y-16428143D01*
X9898429Y-16442429D01*
X9955571Y-16442429D01*
X9984143Y-16428143D01*
X9998429Y-16413857D01*
X10012714Y-16385286D01*
X10155571Y-16556714D02*
X10212714Y-16556714D01*
X10241286Y-16542429D01*
X10255571Y-16528143D01*
X10284143Y-16485286D01*
X10298429Y-16428143D01*
X10298429Y-16313857D01*
X10284143Y-16285286D01*
X10269857Y-16271000D01*
X10241286Y-16256714D01*
X10184143Y-16256714D01*
X10155571Y-16271000D01*
X10141286Y-16285286D01*
X10127000Y-16313857D01*
X10127000Y-16385286D01*
X10141286Y-16413857D01*
X10155571Y-16428143D01*
X10184143Y-16442429D01*
X10241286Y-16442429D01*
X10269857Y-16428143D01*
X10284143Y-16413857D01*
X10298429Y-16385286D01*
X10412714Y-16256714D02*
X10412714Y-16313857D01*
X10527000Y-16256714D02*
X10527000Y-16313857D01*
X10969857Y-16671000D02*
X10955571Y-16656714D01*
X10927000Y-16613857D01*
X10912714Y-16585286D01*
X10898429Y-16542429D01*
X10884143Y-16471000D01*
X10884143Y-16413857D01*
X10898429Y-16342429D01*
X10912714Y-16299571D01*
X10927000Y-16271000D01*
X10955571Y-16228143D01*
X10969857Y-16213857D01*
X11055571Y-16256714D02*
X11241286Y-16256714D01*
X11141286Y-16371000D01*
X11184143Y-16371000D01*
X11212714Y-16385286D01*
X11227000Y-16399571D01*
X11241286Y-16428143D01*
X11241286Y-16499571D01*
X11227000Y-16528143D01*
X11212714Y-16542429D01*
X11184143Y-16556714D01*
X11098429Y-16556714D01*
X11069857Y-16542429D01*
X11055571Y-16528143D01*
X11355571Y-16285286D02*
X11369857Y-16271000D01*
X11398428Y-16256714D01*
X11469857Y-16256714D01*
X11498428Y-16271000D01*
X11512714Y-16285286D01*
X11527000Y-16313857D01*
X11527000Y-16342429D01*
X11512714Y-16385286D01*
X11341286Y-16556714D01*
X11527000Y-16556714D01*
X11884143Y-16556714D02*
X11884143Y-16256714D01*
X12012714Y-16556714D02*
X12012714Y-16399571D01*
X11998428Y-16371000D01*
X11969857Y-16356714D01*
X11927000Y-16356714D01*
X11898428Y-16371000D01*
X11884143Y-16385286D01*
X12198428Y-16556714D02*
X12169857Y-16542429D01*
X12155571Y-16528143D01*
X12141286Y-16499571D01*
X12141286Y-16413857D01*
X12155571Y-16385286D01*
X12169857Y-16371000D01*
X12198428Y-16356714D01*
X12241286Y-16356714D01*
X12269857Y-16371000D01*
X12284143Y-16385286D01*
X12298428Y-16413857D01*
X12298428Y-16499571D01*
X12284143Y-16528143D01*
X12269857Y-16542429D01*
X12241286Y-16556714D01*
X12198428Y-16556714D01*
X12469857Y-16556714D02*
X12441286Y-16542429D01*
X12427000Y-16513857D01*
X12427000Y-16256714D01*
X12698428Y-16542429D02*
X12669857Y-16556714D01*
X12612714Y-16556714D01*
X12584143Y-16542429D01*
X12569857Y-16513857D01*
X12569857Y-16399571D01*
X12584143Y-16371000D01*
X12612714Y-16356714D01*
X12669857Y-16356714D01*
X12698428Y-16371000D01*
X12712714Y-16399571D01*
X12712714Y-16428143D01*
X12569857Y-16456714D01*
X12827000Y-16542429D02*
X12855571Y-16556714D01*
X12912714Y-16556714D01*
X12941286Y-16542429D01*
X12955571Y-16513857D01*
X12955571Y-16499571D01*
X12941286Y-16471000D01*
X12912714Y-16456714D01*
X12869857Y-16456714D01*
X12841286Y-16442429D01*
X12827000Y-16413857D01*
X12827000Y-16399571D01*
X12841286Y-16371000D01*
X12869857Y-16356714D01*
X12912714Y-16356714D01*
X12941286Y-16371000D01*
X13055571Y-16671000D02*
X13069857Y-16656714D01*
X13098428Y-16613857D01*
X13112714Y-16585286D01*
X13127000Y-16542429D01*
X13141286Y-16471000D01*
X13141286Y-16413857D01*
X13127000Y-16342429D01*
X13112714Y-16299571D01*
X13098428Y-16271000D01*
X13069857Y-16228143D01*
X13055571Y-16213857D01*
X5672000Y-16857000D02*
X5712000Y-16817000D01*
X5672000Y-16777000D01*
X5632000Y-16817000D01*
X5672000Y-16857000D01*
X6055571Y-16652714D02*
X6084143Y-16652714D01*
X6112714Y-16667000D01*
X6127000Y-16681286D01*
X6141286Y-16709857D01*
X6155571Y-16767000D01*
X6155571Y-16838429D01*
X6141286Y-16895572D01*
X6127000Y-16924143D01*
X6112714Y-16938429D01*
X6084143Y-16952714D01*
X6055571Y-16952714D01*
X6027000Y-16938429D01*
X6012714Y-16924143D01*
X5998428Y-16895572D01*
X5984143Y-16838429D01*
X5984143Y-16767000D01*
X5998428Y-16709857D01*
X6012714Y-16681286D01*
X6027000Y-16667000D01*
X6055571Y-16652714D01*
X6284143Y-16924143D02*
X6298428Y-16938429D01*
X6284143Y-16952714D01*
X6269857Y-16938429D01*
X6284143Y-16924143D01*
X6284143Y-16952714D01*
X6469857Y-16781286D02*
X6441286Y-16767000D01*
X6427000Y-16752714D01*
X6412714Y-16724143D01*
X6412714Y-16709857D01*
X6427000Y-16681286D01*
X6441286Y-16667000D01*
X6469857Y-16652714D01*
X6527000Y-16652714D01*
X6555571Y-16667000D01*
X6569857Y-16681286D01*
X6584143Y-16709857D01*
X6584143Y-16724143D01*
X6569857Y-16752714D01*
X6555571Y-16767000D01*
X6527000Y-16781286D01*
X6469857Y-16781286D01*
X6441286Y-16795572D01*
X6427000Y-16809857D01*
X6412714Y-16838429D01*
X6412714Y-16895572D01*
X6427000Y-16924143D01*
X6441286Y-16938429D01*
X6469857Y-16952714D01*
X6527000Y-16952714D01*
X6555571Y-16938429D01*
X6569857Y-16924143D01*
X6584143Y-16895572D01*
X6584143Y-16838429D01*
X6569857Y-16809857D01*
X6555571Y-16795572D01*
X6527000Y-16781286D01*
X6769857Y-16652714D02*
X6798428Y-16652714D01*
X6827000Y-16667000D01*
X6841286Y-16681286D01*
X6855571Y-16709857D01*
X6869857Y-16767000D01*
X6869857Y-16838429D01*
X6855571Y-16895572D01*
X6841286Y-16924143D01*
X6827000Y-16938429D01*
X6798428Y-16952714D01*
X6769857Y-16952714D01*
X6741286Y-16938429D01*
X6727000Y-16924143D01*
X6712714Y-16895572D01*
X6698428Y-16838429D01*
X6698428Y-16767000D01*
X6712714Y-16709857D01*
X6727000Y-16681286D01*
X6741286Y-16667000D01*
X6769857Y-16652714D01*
X7055571Y-16652714D02*
X7084143Y-16652714D01*
X7112714Y-16667000D01*
X7127000Y-16681286D01*
X7141286Y-16709857D01*
X7155571Y-16767000D01*
X7155571Y-16838429D01*
X7141286Y-16895572D01*
X7127000Y-16924143D01*
X7112714Y-16938429D01*
X7084143Y-16952714D01*
X7055571Y-16952714D01*
X7027000Y-16938429D01*
X7012714Y-16924143D01*
X6998428Y-16895572D01*
X6984143Y-16838429D01*
X6984143Y-16767000D01*
X6998428Y-16709857D01*
X7012714Y-16681286D01*
X7027000Y-16667000D01*
X7055571Y-16652714D01*
X7284143Y-16952714D02*
X7284143Y-16752714D01*
X7284143Y-16781286D02*
X7298428Y-16767000D01*
X7327000Y-16752714D01*
X7369857Y-16752714D01*
X7398428Y-16767000D01*
X7412714Y-16795572D01*
X7412714Y-16952714D01*
X7412714Y-16795572D02*
X7427000Y-16767000D01*
X7455571Y-16752714D01*
X7498428Y-16752714D01*
X7527000Y-16767000D01*
X7541286Y-16795572D01*
X7541286Y-16952714D01*
X7684143Y-16952714D02*
X7684143Y-16752714D01*
X7684143Y-16781286D02*
X7698428Y-16767000D01*
X7727000Y-16752714D01*
X7769857Y-16752714D01*
X7798428Y-16767000D01*
X7812714Y-16795572D01*
X7812714Y-16952714D01*
X7812714Y-16795572D02*
X7827000Y-16767000D01*
X7855571Y-16752714D01*
X7898428Y-16752714D01*
X7927000Y-16767000D01*
X7941286Y-16795572D01*
X7941286Y-16952714D01*
X8527000Y-16638429D02*
X8269857Y-17024143D01*
X8912714Y-16652714D02*
X8941286Y-16652714D01*
X8969857Y-16667000D01*
X8984143Y-16681286D01*
X8998429Y-16709857D01*
X9012714Y-16767000D01*
X9012714Y-16838429D01*
X8998429Y-16895572D01*
X8984143Y-16924143D01*
X8969857Y-16938429D01*
X8941286Y-16952714D01*
X8912714Y-16952714D01*
X8884143Y-16938429D01*
X8869857Y-16924143D01*
X8855571Y-16895572D01*
X8841286Y-16838429D01*
X8841286Y-16767000D01*
X8855571Y-16709857D01*
X8869857Y-16681286D01*
X8884143Y-16667000D01*
X8912714Y-16652714D01*
X9141286Y-16924143D02*
X9155571Y-16938429D01*
X9141286Y-16952714D01*
X9127000Y-16938429D01*
X9141286Y-16924143D01*
X9141286Y-16952714D01*
X9341286Y-16652714D02*
X9369857Y-16652714D01*
X9398429Y-16667000D01*
X9412714Y-16681286D01*
X9427000Y-16709857D01*
X9441286Y-16767000D01*
X9441286Y-16838429D01*
X9427000Y-16895572D01*
X9412714Y-16924143D01*
X9398429Y-16938429D01*
X9369857Y-16952714D01*
X9341286Y-16952714D01*
X9312714Y-16938429D01*
X9298429Y-16924143D01*
X9284143Y-16895572D01*
X9269857Y-16838429D01*
X9269857Y-16767000D01*
X9284143Y-16709857D01*
X9298429Y-16681286D01*
X9312714Y-16667000D01*
X9341286Y-16652714D01*
X9541286Y-16652714D02*
X9727000Y-16652714D01*
X9627000Y-16767000D01*
X9669857Y-16767000D01*
X9698429Y-16781286D01*
X9712714Y-16795572D01*
X9727000Y-16824143D01*
X9727000Y-16895572D01*
X9712714Y-16924143D01*
X9698429Y-16938429D01*
X9669857Y-16952714D01*
X9584143Y-16952714D01*
X9555571Y-16938429D01*
X9541286Y-16924143D01*
X10012714Y-16952714D02*
X9841286Y-16952714D01*
X9927000Y-16952714D02*
X9927000Y-16652714D01*
X9898429Y-16695571D01*
X9869857Y-16724143D01*
X9841286Y-16738429D01*
X10284143Y-16652714D02*
X10141286Y-16652714D01*
X10127000Y-16795572D01*
X10141286Y-16781286D01*
X10169857Y-16767000D01*
X10241286Y-16767000D01*
X10269857Y-16781286D01*
X10284143Y-16795572D01*
X10298429Y-16824143D01*
X10298429Y-16895572D01*
X10284143Y-16924143D01*
X10269857Y-16938429D01*
X10241286Y-16952714D01*
X10169857Y-16952714D01*
X10141286Y-16938429D01*
X10127000Y-16924143D01*
X10412714Y-16652714D02*
X10412714Y-16709857D01*
X10527000Y-16652714D02*
X10527000Y-16709857D01*
X10969857Y-17067000D02*
X10955571Y-17052714D01*
X10927000Y-17009857D01*
X10912714Y-16981286D01*
X10898429Y-16938429D01*
X10884143Y-16867000D01*
X10884143Y-16809857D01*
X10898429Y-16738429D01*
X10912714Y-16695571D01*
X10927000Y-16667000D01*
X10955571Y-16624143D01*
X10969857Y-16609857D01*
X11212714Y-16752714D02*
X11212714Y-16952714D01*
X11141286Y-16638429D02*
X11069857Y-16852714D01*
X11255571Y-16852714D01*
X11412714Y-16781286D02*
X11384143Y-16767000D01*
X11369857Y-16752714D01*
X11355571Y-16724143D01*
X11355571Y-16709857D01*
X11369857Y-16681286D01*
X11384143Y-16667000D01*
X11412714Y-16652714D01*
X11469857Y-16652714D01*
X11498428Y-16667000D01*
X11512714Y-16681286D01*
X11527000Y-16709857D01*
X11527000Y-16724143D01*
X11512714Y-16752714D01*
X11498428Y-16767000D01*
X11469857Y-16781286D01*
X11412714Y-16781286D01*
X11384143Y-16795572D01*
X11369857Y-16809857D01*
X11355571Y-16838429D01*
X11355571Y-16895572D01*
X11369857Y-16924143D01*
X11384143Y-16938429D01*
X11412714Y-16952714D01*
X11469857Y-16952714D01*
X11498428Y-16938429D01*
X11512714Y-16924143D01*
X11527000Y-16895572D01*
X11527000Y-16838429D01*
X11512714Y-16809857D01*
X11498428Y-16795572D01*
X11469857Y-16781286D01*
X11884143Y-16952714D02*
X11884143Y-16652714D01*
X12012714Y-16952714D02*
X12012714Y-16795572D01*
X11998428Y-16767000D01*
X11969857Y-16752714D01*
X11927000Y-16752714D01*
X11898428Y-16767000D01*
X11884143Y-16781286D01*
X12198428Y-16952714D02*
X12169857Y-16938429D01*
X12155571Y-16924143D01*
X12141286Y-16895572D01*
X12141286Y-16809857D01*
X12155571Y-16781286D01*
X12169857Y-16767000D01*
X12198428Y-16752714D01*
X12241286Y-16752714D01*
X12269857Y-16767000D01*
X12284143Y-16781286D01*
X12298428Y-16809857D01*
X12298428Y-16895572D01*
X12284143Y-16924143D01*
X12269857Y-16938429D01*
X12241286Y-16952714D01*
X12198428Y-16952714D01*
X12469857Y-16952714D02*
X12441286Y-16938429D01*
X12427000Y-16909857D01*
X12427000Y-16652714D01*
X12698428Y-16938429D02*
X12669857Y-16952714D01*
X12612714Y-16952714D01*
X12584143Y-16938429D01*
X12569857Y-16909857D01*
X12569857Y-16795572D01*
X12584143Y-16767000D01*
X12612714Y-16752714D01*
X12669857Y-16752714D01*
X12698428Y-16767000D01*
X12712714Y-16795572D01*
X12712714Y-16824143D01*
X12569857Y-16852714D01*
X12827000Y-16938429D02*
X12855571Y-16952714D01*
X12912714Y-16952714D01*
X12941286Y-16938429D01*
X12955571Y-16909857D01*
X12955571Y-16895572D01*
X12941286Y-16867000D01*
X12912714Y-16852714D01*
X12869857Y-16852714D01*
X12841286Y-16838429D01*
X12827000Y-16809857D01*
X12827000Y-16795572D01*
X12841286Y-16767000D01*
X12869857Y-16752714D01*
X12912714Y-16752714D01*
X12941286Y-16767000D01*
X13055571Y-17067000D02*
X13069857Y-17052714D01*
X13098428Y-17009857D01*
X13112714Y-16981286D01*
X13127000Y-16938429D01*
X13141286Y-16867000D01*
X13141286Y-16809857D01*
X13127000Y-16738429D01*
X13112714Y-16695571D01*
X13098428Y-16667000D01*
X13069857Y-16624143D01*
X13055571Y-16609857D01*
X5612000Y-17163000D02*
X5712000Y-17263000D01*
X5712000Y-17163000D02*
X5612000Y-17263000D01*
X5712000Y-17213000D02*
G75*
G03*
X5712000Y-17213000I-50000J0D01*
G01*
X6155571Y-17348714D02*
X5984143Y-17348714D01*
X6069857Y-17348714D02*
X6069857Y-17048714D01*
X6041286Y-17091572D01*
X6012714Y-17120143D01*
X5984143Y-17134429D01*
X6284143Y-17320143D02*
X6298428Y-17334429D01*
X6284143Y-17348714D01*
X6269857Y-17334429D01*
X6284143Y-17320143D01*
X6284143Y-17348714D01*
X6484143Y-17048714D02*
X6512714Y-17048714D01*
X6541286Y-17063000D01*
X6555571Y-17077286D01*
X6569857Y-17105857D01*
X6584143Y-17163000D01*
X6584143Y-17234429D01*
X6569857Y-17291572D01*
X6555571Y-17320143D01*
X6541286Y-17334429D01*
X6512714Y-17348714D01*
X6484143Y-17348714D01*
X6455571Y-17334429D01*
X6441286Y-17320143D01*
X6427000Y-17291572D01*
X6412714Y-17234429D01*
X6412714Y-17163000D01*
X6427000Y-17105857D01*
X6441286Y-17077286D01*
X6455571Y-17063000D01*
X6484143Y-17048714D01*
X6769857Y-17048714D02*
X6798428Y-17048714D01*
X6827000Y-17063000D01*
X6841286Y-17077286D01*
X6855571Y-17105857D01*
X6869857Y-17163000D01*
X6869857Y-17234429D01*
X6855571Y-17291572D01*
X6841286Y-17320143D01*
X6827000Y-17334429D01*
X6798428Y-17348714D01*
X6769857Y-17348714D01*
X6741286Y-17334429D01*
X6727000Y-17320143D01*
X6712714Y-17291572D01*
X6698428Y-17234429D01*
X6698428Y-17163000D01*
X6712714Y-17105857D01*
X6727000Y-17077286D01*
X6741286Y-17063000D01*
X6769857Y-17048714D01*
X7055571Y-17048714D02*
X7084143Y-17048714D01*
X7112714Y-17063000D01*
X7127000Y-17077286D01*
X7141286Y-17105857D01*
X7155571Y-17163000D01*
X7155571Y-17234429D01*
X7141286Y-17291572D01*
X7127000Y-17320143D01*
X7112714Y-17334429D01*
X7084143Y-17348714D01*
X7055571Y-17348714D01*
X7027000Y-17334429D01*
X7012714Y-17320143D01*
X6998428Y-17291572D01*
X6984143Y-17234429D01*
X6984143Y-17163000D01*
X6998428Y-17105857D01*
X7012714Y-17077286D01*
X7027000Y-17063000D01*
X7055571Y-17048714D01*
X7284143Y-17348714D02*
X7284143Y-17148714D01*
X7284143Y-17177286D02*
X7298428Y-17163000D01*
X7327000Y-17148714D01*
X7369857Y-17148714D01*
X7398428Y-17163000D01*
X7412714Y-17191572D01*
X7412714Y-17348714D01*
X7412714Y-17191572D02*
X7427000Y-17163000D01*
X7455571Y-17148714D01*
X7498428Y-17148714D01*
X7527000Y-17163000D01*
X7541286Y-17191572D01*
X7541286Y-17348714D01*
X7684143Y-17348714D02*
X7684143Y-17148714D01*
X7684143Y-17177286D02*
X7698428Y-17163000D01*
X7727000Y-17148714D01*
X7769857Y-17148714D01*
X7798428Y-17163000D01*
X7812714Y-17191572D01*
X7812714Y-17348714D01*
X7812714Y-17191572D02*
X7827000Y-17163000D01*
X7855571Y-17148714D01*
X7898428Y-17148714D01*
X7927000Y-17163000D01*
X7941286Y-17191572D01*
X7941286Y-17348714D01*
X8527000Y-17034429D02*
X8269857Y-17420143D01*
X8912714Y-17048714D02*
X8941286Y-17048714D01*
X8969857Y-17063000D01*
X8984143Y-17077286D01*
X8998429Y-17105857D01*
X9012714Y-17163000D01*
X9012714Y-17234429D01*
X8998429Y-17291572D01*
X8984143Y-17320143D01*
X8969857Y-17334429D01*
X8941286Y-17348714D01*
X8912714Y-17348714D01*
X8884143Y-17334429D01*
X8869857Y-17320143D01*
X8855571Y-17291572D01*
X8841286Y-17234429D01*
X8841286Y-17163000D01*
X8855571Y-17105857D01*
X8869857Y-17077286D01*
X8884143Y-17063000D01*
X8912714Y-17048714D01*
X9141286Y-17320143D02*
X9155571Y-17334429D01*
X9141286Y-17348714D01*
X9127000Y-17334429D01*
X9141286Y-17320143D01*
X9141286Y-17348714D01*
X9341286Y-17048714D02*
X9369857Y-17048714D01*
X9398429Y-17063000D01*
X9412714Y-17077286D01*
X9427000Y-17105857D01*
X9441286Y-17163000D01*
X9441286Y-17234429D01*
X9427000Y-17291572D01*
X9412714Y-17320143D01*
X9398429Y-17334429D01*
X9369857Y-17348714D01*
X9341286Y-17348714D01*
X9312714Y-17334429D01*
X9298429Y-17320143D01*
X9284143Y-17291572D01*
X9269857Y-17234429D01*
X9269857Y-17163000D01*
X9284143Y-17105857D01*
X9298429Y-17077286D01*
X9312714Y-17063000D01*
X9341286Y-17048714D01*
X9541286Y-17048714D02*
X9727000Y-17048714D01*
X9627000Y-17163000D01*
X9669857Y-17163000D01*
X9698429Y-17177286D01*
X9712714Y-17191572D01*
X9727000Y-17220143D01*
X9727000Y-17291572D01*
X9712714Y-17320143D01*
X9698429Y-17334429D01*
X9669857Y-17348714D01*
X9584143Y-17348714D01*
X9555571Y-17334429D01*
X9541286Y-17320143D01*
X9869857Y-17348714D02*
X9927000Y-17348714D01*
X9955571Y-17334429D01*
X9969857Y-17320143D01*
X9998429Y-17277286D01*
X10012714Y-17220143D01*
X10012714Y-17105857D01*
X9998429Y-17077286D01*
X9984143Y-17063000D01*
X9955571Y-17048714D01*
X9898429Y-17048714D01*
X9869857Y-17063000D01*
X9855571Y-17077286D01*
X9841286Y-17105857D01*
X9841286Y-17177286D01*
X9855571Y-17205857D01*
X9869857Y-17220143D01*
X9898429Y-17234429D01*
X9955571Y-17234429D01*
X9984143Y-17220143D01*
X9998429Y-17205857D01*
X10012714Y-17177286D01*
X10269857Y-17148714D02*
X10269857Y-17348714D01*
X10198429Y-17034429D02*
X10127000Y-17248714D01*
X10312714Y-17248714D01*
X10412714Y-17048714D02*
X10412714Y-17105857D01*
X10527000Y-17048714D02*
X10527000Y-17105857D01*
X10969857Y-17463000D02*
X10955571Y-17448714D01*
X10927000Y-17405857D01*
X10912714Y-17377286D01*
X10898429Y-17334429D01*
X10884143Y-17263000D01*
X10884143Y-17205857D01*
X10898429Y-17134429D01*
X10912714Y-17091572D01*
X10927000Y-17063000D01*
X10955571Y-17020143D01*
X10969857Y-17005857D01*
X11241286Y-17348714D02*
X11069857Y-17348714D01*
X11155571Y-17348714D02*
X11155571Y-17048714D01*
X11127000Y-17091572D01*
X11098429Y-17120143D01*
X11069857Y-17134429D01*
X11527000Y-17348714D02*
X11355571Y-17348714D01*
X11441286Y-17348714D02*
X11441286Y-17048714D01*
X11412714Y-17091572D01*
X11384143Y-17120143D01*
X11355571Y-17134429D01*
X11884143Y-17348714D02*
X11884143Y-17048714D01*
X12012714Y-17348714D02*
X12012714Y-17191572D01*
X11998428Y-17163000D01*
X11969857Y-17148714D01*
X11927000Y-17148714D01*
X11898428Y-17163000D01*
X11884143Y-17177286D01*
X12198428Y-17348714D02*
X12169857Y-17334429D01*
X12155571Y-17320143D01*
X12141286Y-17291572D01*
X12141286Y-17205857D01*
X12155571Y-17177286D01*
X12169857Y-17163000D01*
X12198428Y-17148714D01*
X12241286Y-17148714D01*
X12269857Y-17163000D01*
X12284143Y-17177286D01*
X12298428Y-17205857D01*
X12298428Y-17291572D01*
X12284143Y-17320143D01*
X12269857Y-17334429D01*
X12241286Y-17348714D01*
X12198428Y-17348714D01*
X12469857Y-17348714D02*
X12441286Y-17334429D01*
X12427000Y-17305857D01*
X12427000Y-17048714D01*
X12698428Y-17334429D02*
X12669857Y-17348714D01*
X12612714Y-17348714D01*
X12584143Y-17334429D01*
X12569857Y-17305857D01*
X12569857Y-17191572D01*
X12584143Y-17163000D01*
X12612714Y-17148714D01*
X12669857Y-17148714D01*
X12698428Y-17163000D01*
X12712714Y-17191572D01*
X12712714Y-17220143D01*
X12569857Y-17248714D01*
X12827000Y-17334429D02*
X12855571Y-17348714D01*
X12912714Y-17348714D01*
X12941286Y-17334429D01*
X12955571Y-17305857D01*
X12955571Y-17291572D01*
X12941286Y-17263000D01*
X12912714Y-17248714D01*
X12869857Y-17248714D01*
X12841286Y-17234429D01*
X12827000Y-17205857D01*
X12827000Y-17191572D01*
X12841286Y-17163000D01*
X12869857Y-17148714D01*
X12912714Y-17148714D01*
X12941286Y-17163000D01*
X13055571Y-17463000D02*
X13069857Y-17448714D01*
X13098428Y-17405857D01*
X13112714Y-17377286D01*
X13127000Y-17334429D01*
X13141286Y-17263000D01*
X13141286Y-17205857D01*
X13127000Y-17134429D01*
X13112714Y-17091572D01*
X13098428Y-17063000D01*
X13069857Y-17020143D01*
X13055571Y-17005857D01*
X5582000Y-17544000D02*
X5712000Y-17674000D01*
X5712000Y-17544000D02*
X5582000Y-17674000D01*
X5647000Y-17544000D02*
X5647000Y-17674000D01*
X5582000Y-17609000D02*
X5712000Y-17609000D01*
X6155571Y-17744714D02*
X5984143Y-17744714D01*
X6069857Y-17744714D02*
X6069857Y-17444714D01*
X6041286Y-17487572D01*
X6012714Y-17516143D01*
X5984143Y-17530429D01*
X6284143Y-17716143D02*
X6298428Y-17730429D01*
X6284143Y-17744714D01*
X6269857Y-17730429D01*
X6284143Y-17716143D01*
X6284143Y-17744714D01*
X6398428Y-17444714D02*
X6584143Y-17444714D01*
X6484143Y-17559000D01*
X6527000Y-17559000D01*
X6555571Y-17573286D01*
X6569857Y-17587572D01*
X6584143Y-17616143D01*
X6584143Y-17687572D01*
X6569857Y-17716143D01*
X6555571Y-17730429D01*
X6527000Y-17744714D01*
X6441286Y-17744714D01*
X6412714Y-17730429D01*
X6398428Y-17716143D01*
X6769857Y-17444714D02*
X6798428Y-17444714D01*
X6827000Y-17459000D01*
X6841286Y-17473286D01*
X6855571Y-17501857D01*
X6869857Y-17559000D01*
X6869857Y-17630429D01*
X6855571Y-17687572D01*
X6841286Y-17716143D01*
X6827000Y-17730429D01*
X6798428Y-17744714D01*
X6769857Y-17744714D01*
X6741286Y-17730429D01*
X6727000Y-17716143D01*
X6712714Y-17687572D01*
X6698428Y-17630429D01*
X6698428Y-17559000D01*
X6712714Y-17501857D01*
X6727000Y-17473286D01*
X6741286Y-17459000D01*
X6769857Y-17444714D01*
X7055571Y-17444714D02*
X7084143Y-17444714D01*
X7112714Y-17459000D01*
X7127000Y-17473286D01*
X7141286Y-17501857D01*
X7155571Y-17559000D01*
X7155571Y-17630429D01*
X7141286Y-17687572D01*
X7127000Y-17716143D01*
X7112714Y-17730429D01*
X7084143Y-17744714D01*
X7055571Y-17744714D01*
X7027000Y-17730429D01*
X7012714Y-17716143D01*
X6998428Y-17687572D01*
X6984143Y-17630429D01*
X6984143Y-17559000D01*
X6998428Y-17501857D01*
X7012714Y-17473286D01*
X7027000Y-17459000D01*
X7055571Y-17444714D01*
X7284143Y-17744714D02*
X7284143Y-17544714D01*
X7284143Y-17573286D02*
X7298428Y-17559000D01*
X7327000Y-17544714D01*
X7369857Y-17544714D01*
X7398428Y-17559000D01*
X7412714Y-17587572D01*
X7412714Y-17744714D01*
X7412714Y-17587572D02*
X7427000Y-17559000D01*
X7455571Y-17544714D01*
X7498428Y-17544714D01*
X7527000Y-17559000D01*
X7541286Y-17587572D01*
X7541286Y-17744714D01*
X7684143Y-17744714D02*
X7684143Y-17544714D01*
X7684143Y-17573286D02*
X7698428Y-17559000D01*
X7727000Y-17544714D01*
X7769857Y-17544714D01*
X7798428Y-17559000D01*
X7812714Y-17587572D01*
X7812714Y-17744714D01*
X7812714Y-17587572D02*
X7827000Y-17559000D01*
X7855571Y-17544714D01*
X7898428Y-17544714D01*
X7927000Y-17559000D01*
X7941286Y-17587572D01*
X7941286Y-17744714D01*
X8527000Y-17430429D02*
X8269857Y-17816143D01*
X8912714Y-17444714D02*
X8941286Y-17444714D01*
X8969857Y-17459000D01*
X8984143Y-17473286D01*
X8998429Y-17501857D01*
X9012714Y-17559000D01*
X9012714Y-17630429D01*
X8998429Y-17687572D01*
X8984143Y-17716143D01*
X8969857Y-17730429D01*
X8941286Y-17744714D01*
X8912714Y-17744714D01*
X8884143Y-17730429D01*
X8869857Y-17716143D01*
X8855571Y-17687572D01*
X8841286Y-17630429D01*
X8841286Y-17559000D01*
X8855571Y-17501857D01*
X8869857Y-17473286D01*
X8884143Y-17459000D01*
X8912714Y-17444714D01*
X9141286Y-17716143D02*
X9155571Y-17730429D01*
X9141286Y-17744714D01*
X9127000Y-17730429D01*
X9141286Y-17716143D01*
X9141286Y-17744714D01*
X9341286Y-17444714D02*
X9369857Y-17444714D01*
X9398429Y-17459000D01*
X9412714Y-17473286D01*
X9427000Y-17501857D01*
X9441286Y-17559000D01*
X9441286Y-17630429D01*
X9427000Y-17687572D01*
X9412714Y-17716143D01*
X9398429Y-17730429D01*
X9369857Y-17744714D01*
X9341286Y-17744714D01*
X9312714Y-17730429D01*
X9298429Y-17716143D01*
X9284143Y-17687572D01*
X9269857Y-17630429D01*
X9269857Y-17559000D01*
X9284143Y-17501857D01*
X9298429Y-17473286D01*
X9312714Y-17459000D01*
X9341286Y-17444714D01*
X9712714Y-17444714D02*
X9569857Y-17444714D01*
X9555571Y-17587572D01*
X9569857Y-17573286D01*
X9598429Y-17559000D01*
X9669857Y-17559000D01*
X9698429Y-17573286D01*
X9712714Y-17587572D01*
X9727000Y-17616143D01*
X9727000Y-17687572D01*
X9712714Y-17716143D01*
X9698429Y-17730429D01*
X9669857Y-17744714D01*
X9598429Y-17744714D01*
X9569857Y-17730429D01*
X9555571Y-17716143D01*
X10012714Y-17744714D02*
X9841286Y-17744714D01*
X9927000Y-17744714D02*
X9927000Y-17444714D01*
X9898429Y-17487572D01*
X9869857Y-17516143D01*
X9841286Y-17530429D01*
X10127000Y-17473286D02*
X10141286Y-17459000D01*
X10169857Y-17444714D01*
X10241286Y-17444714D01*
X10269857Y-17459000D01*
X10284143Y-17473286D01*
X10298429Y-17501857D01*
X10298429Y-17530429D01*
X10284143Y-17573286D01*
X10112714Y-17744714D01*
X10298429Y-17744714D01*
X10412714Y-17444714D02*
X10412714Y-17501857D01*
X10527000Y-17444714D02*
X10527000Y-17501857D01*
X10969857Y-17859000D02*
X10955571Y-17844714D01*
X10927000Y-17801857D01*
X10912714Y-17773286D01*
X10898429Y-17730429D01*
X10884143Y-17659000D01*
X10884143Y-17601857D01*
X10898429Y-17530429D01*
X10912714Y-17487572D01*
X10927000Y-17459000D01*
X10955571Y-17416143D01*
X10969857Y-17401857D01*
X11241286Y-17744714D02*
X11069857Y-17744714D01*
X11155571Y-17744714D02*
X11155571Y-17444714D01*
X11127000Y-17487572D01*
X11098429Y-17516143D01*
X11069857Y-17530429D01*
X11412714Y-17573286D02*
X11384143Y-17559000D01*
X11369857Y-17544714D01*
X11355571Y-17516143D01*
X11355571Y-17501857D01*
X11369857Y-17473286D01*
X11384143Y-17459000D01*
X11412714Y-17444714D01*
X11469857Y-17444714D01*
X11498428Y-17459000D01*
X11512714Y-17473286D01*
X11527000Y-17501857D01*
X11527000Y-17516143D01*
X11512714Y-17544714D01*
X11498428Y-17559000D01*
X11469857Y-17573286D01*
X11412714Y-17573286D01*
X11384143Y-17587572D01*
X11369857Y-17601857D01*
X11355571Y-17630429D01*
X11355571Y-17687572D01*
X11369857Y-17716143D01*
X11384143Y-17730429D01*
X11412714Y-17744714D01*
X11469857Y-17744714D01*
X11498428Y-17730429D01*
X11512714Y-17716143D01*
X11527000Y-17687572D01*
X11527000Y-17630429D01*
X11512714Y-17601857D01*
X11498428Y-17587572D01*
X11469857Y-17573286D01*
X11884143Y-17744714D02*
X11884143Y-17444714D01*
X12012714Y-17744714D02*
X12012714Y-17587572D01*
X11998428Y-17559000D01*
X11969857Y-17544714D01*
X11927000Y-17544714D01*
X11898428Y-17559000D01*
X11884143Y-17573286D01*
X12198428Y-17744714D02*
X12169857Y-17730429D01*
X12155571Y-17716143D01*
X12141286Y-17687572D01*
X12141286Y-17601857D01*
X12155571Y-17573286D01*
X12169857Y-17559000D01*
X12198428Y-17544714D01*
X12241286Y-17544714D01*
X12269857Y-17559000D01*
X12284143Y-17573286D01*
X12298428Y-17601857D01*
X12298428Y-17687572D01*
X12284143Y-17716143D01*
X12269857Y-17730429D01*
X12241286Y-17744714D01*
X12198428Y-17744714D01*
X12469857Y-17744714D02*
X12441286Y-17730429D01*
X12427000Y-17701857D01*
X12427000Y-17444714D01*
X12698428Y-17730429D02*
X12669857Y-17744714D01*
X12612714Y-17744714D01*
X12584143Y-17730429D01*
X12569857Y-17701857D01*
X12569857Y-17587572D01*
X12584143Y-17559000D01*
X12612714Y-17544714D01*
X12669857Y-17544714D01*
X12698428Y-17559000D01*
X12712714Y-17587572D01*
X12712714Y-17616143D01*
X12569857Y-17644714D01*
X12827000Y-17730429D02*
X12855571Y-17744714D01*
X12912714Y-17744714D01*
X12941286Y-17730429D01*
X12955571Y-17701857D01*
X12955571Y-17687572D01*
X12941286Y-17659000D01*
X12912714Y-17644714D01*
X12869857Y-17644714D01*
X12841286Y-17630429D01*
X12827000Y-17601857D01*
X12827000Y-17587572D01*
X12841286Y-17559000D01*
X12869857Y-17544714D01*
X12912714Y-17544714D01*
X12941286Y-17559000D01*
X13055571Y-17859000D02*
X13069857Y-17844714D01*
X13098428Y-17801857D01*
X13112714Y-17773286D01*
X13127000Y-17730429D01*
X13141286Y-17659000D01*
X13141286Y-17601857D01*
X13127000Y-17530429D01*
X13112714Y-17487572D01*
X13098428Y-17459000D01*
X13069857Y-17416143D01*
X13055571Y-17401857D01*
X5392000Y-17845000D02*
X5712000Y-18165000D01*
X5712000Y-17845000D02*
X5392000Y-18165000D01*
X5665138Y-18118138D02*
X5665138Y-17891862D01*
X5438862Y-17891862D01*
X5438862Y-18118138D01*
X5665138Y-18118138D01*
X5969857Y-17840714D02*
X6155571Y-17840714D01*
X6055571Y-17955000D01*
X6098428Y-17955000D01*
X6127000Y-17969286D01*
X6141286Y-17983572D01*
X6155571Y-18012143D01*
X6155571Y-18083572D01*
X6141286Y-18112143D01*
X6127000Y-18126429D01*
X6098428Y-18140714D01*
X6012714Y-18140714D01*
X5984143Y-18126429D01*
X5969857Y-18112143D01*
X6284143Y-18112143D02*
X6298428Y-18126429D01*
X6284143Y-18140714D01*
X6269857Y-18126429D01*
X6284143Y-18112143D01*
X6284143Y-18140714D01*
X6412714Y-17869286D02*
X6427000Y-17855000D01*
X6455571Y-17840714D01*
X6527000Y-17840714D01*
X6555571Y-17855000D01*
X6569857Y-17869286D01*
X6584143Y-17897857D01*
X6584143Y-17926429D01*
X6569857Y-17969286D01*
X6398428Y-18140714D01*
X6584143Y-18140714D01*
X6769857Y-17840714D02*
X6798428Y-17840714D01*
X6827000Y-17855000D01*
X6841286Y-17869286D01*
X6855571Y-17897857D01*
X6869857Y-17955000D01*
X6869857Y-18026429D01*
X6855571Y-18083572D01*
X6841286Y-18112143D01*
X6827000Y-18126429D01*
X6798428Y-18140714D01*
X6769857Y-18140714D01*
X6741286Y-18126429D01*
X6727000Y-18112143D01*
X6712714Y-18083572D01*
X6698428Y-18026429D01*
X6698428Y-17955000D01*
X6712714Y-17897857D01*
X6727000Y-17869286D01*
X6741286Y-17855000D01*
X6769857Y-17840714D01*
X7055571Y-17840714D02*
X7084143Y-17840714D01*
X7112714Y-17855000D01*
X7127000Y-17869286D01*
X7141286Y-17897857D01*
X7155571Y-17955000D01*
X7155571Y-18026429D01*
X7141286Y-18083572D01*
X7127000Y-18112143D01*
X7112714Y-18126429D01*
X7084143Y-18140714D01*
X7055571Y-18140714D01*
X7027000Y-18126429D01*
X7012714Y-18112143D01*
X6998428Y-18083572D01*
X6984143Y-18026429D01*
X6984143Y-17955000D01*
X6998428Y-17897857D01*
X7012714Y-17869286D01*
X7027000Y-17855000D01*
X7055571Y-17840714D01*
X7284143Y-18140714D02*
X7284143Y-17940714D01*
X7284143Y-17969286D02*
X7298428Y-17955000D01*
X7327000Y-17940714D01*
X7369857Y-17940714D01*
X7398428Y-17955000D01*
X7412714Y-17983572D01*
X7412714Y-18140714D01*
X7412714Y-17983572D02*
X7427000Y-17955000D01*
X7455571Y-17940714D01*
X7498428Y-17940714D01*
X7527000Y-17955000D01*
X7541286Y-17983572D01*
X7541286Y-18140714D01*
X7684143Y-18140714D02*
X7684143Y-17940714D01*
X7684143Y-17969286D02*
X7698428Y-17955000D01*
X7727000Y-17940714D01*
X7769857Y-17940714D01*
X7798428Y-17955000D01*
X7812714Y-17983572D01*
X7812714Y-18140714D01*
X7812714Y-17983572D02*
X7827000Y-17955000D01*
X7855571Y-17940714D01*
X7898428Y-17940714D01*
X7927000Y-17955000D01*
X7941286Y-17983572D01*
X7941286Y-18140714D01*
X8527000Y-17826429D02*
X8269857Y-18212143D01*
X8912714Y-17840714D02*
X8941286Y-17840714D01*
X8969857Y-17855000D01*
X8984143Y-17869286D01*
X8998429Y-17897857D01*
X9012714Y-17955000D01*
X9012714Y-18026429D01*
X8998429Y-18083572D01*
X8984143Y-18112143D01*
X8969857Y-18126429D01*
X8941286Y-18140714D01*
X8912714Y-18140714D01*
X8884143Y-18126429D01*
X8869857Y-18112143D01*
X8855571Y-18083572D01*
X8841286Y-18026429D01*
X8841286Y-17955000D01*
X8855571Y-17897857D01*
X8869857Y-17869286D01*
X8884143Y-17855000D01*
X8912714Y-17840714D01*
X9141286Y-18112143D02*
X9155571Y-18126429D01*
X9141286Y-18140714D01*
X9127000Y-18126429D01*
X9141286Y-18112143D01*
X9141286Y-18140714D01*
X9441286Y-18140714D02*
X9269857Y-18140714D01*
X9355571Y-18140714D02*
X9355571Y-17840714D01*
X9327000Y-17883572D01*
X9298429Y-17912143D01*
X9269857Y-17926429D01*
X9555571Y-17869286D02*
X9569857Y-17855000D01*
X9598429Y-17840714D01*
X9669857Y-17840714D01*
X9698429Y-17855000D01*
X9712714Y-17869286D01*
X9727000Y-17897857D01*
X9727000Y-17926429D01*
X9712714Y-17969286D01*
X9541286Y-18140714D01*
X9727000Y-18140714D01*
X9984143Y-17840714D02*
X9927000Y-17840714D01*
X9898429Y-17855000D01*
X9884143Y-17869286D01*
X9855571Y-17912143D01*
X9841286Y-17969286D01*
X9841286Y-18083572D01*
X9855571Y-18112143D01*
X9869857Y-18126429D01*
X9898429Y-18140714D01*
X9955571Y-18140714D01*
X9984143Y-18126429D01*
X9998429Y-18112143D01*
X10012714Y-18083572D01*
X10012714Y-18012143D01*
X9998429Y-17983572D01*
X9984143Y-17969286D01*
X9955571Y-17955000D01*
X9898429Y-17955000D01*
X9869857Y-17969286D01*
X9855571Y-17983572D01*
X9841286Y-18012143D01*
X10198429Y-17840714D02*
X10227000Y-17840714D01*
X10255571Y-17855000D01*
X10269857Y-17869286D01*
X10284143Y-17897857D01*
X10298429Y-17955000D01*
X10298429Y-18026429D01*
X10284143Y-18083572D01*
X10269857Y-18112143D01*
X10255571Y-18126429D01*
X10227000Y-18140714D01*
X10198429Y-18140714D01*
X10169857Y-18126429D01*
X10155571Y-18112143D01*
X10141286Y-18083572D01*
X10127000Y-18026429D01*
X10127000Y-17955000D01*
X10141286Y-17897857D01*
X10155571Y-17869286D01*
X10169857Y-17855000D01*
X10198429Y-17840714D01*
X10412714Y-17840714D02*
X10412714Y-17897857D01*
X10527000Y-17840714D02*
X10527000Y-17897857D01*
X10969857Y-18255000D02*
X10955571Y-18240714D01*
X10927000Y-18197857D01*
X10912714Y-18169286D01*
X10898429Y-18126429D01*
X10884143Y-18055000D01*
X10884143Y-17997857D01*
X10898429Y-17926429D01*
X10912714Y-17883572D01*
X10927000Y-17855000D01*
X10955571Y-17812143D01*
X10969857Y-17797857D01*
X11212714Y-17940714D02*
X11212714Y-18140714D01*
X11141286Y-17826429D02*
X11069857Y-18040714D01*
X11255571Y-18040714D01*
X11598428Y-18140714D02*
X11598428Y-17840714D01*
X11727000Y-18140714D02*
X11727000Y-17983572D01*
X11712714Y-17955000D01*
X11684143Y-17940714D01*
X11641286Y-17940714D01*
X11612714Y-17955000D01*
X11598428Y-17969286D01*
X11912714Y-18140714D02*
X11884143Y-18126429D01*
X11869857Y-18112143D01*
X11855571Y-18083572D01*
X11855571Y-17997857D01*
X11869857Y-17969286D01*
X11884143Y-17955000D01*
X11912714Y-17940714D01*
X11955571Y-17940714D01*
X11984143Y-17955000D01*
X11998428Y-17969286D01*
X12012714Y-17997857D01*
X12012714Y-18083572D01*
X11998428Y-18112143D01*
X11984143Y-18126429D01*
X11955571Y-18140714D01*
X11912714Y-18140714D01*
X12184143Y-18140714D02*
X12155571Y-18126429D01*
X12141286Y-18097857D01*
X12141286Y-17840714D01*
X12412714Y-18126429D02*
X12384143Y-18140714D01*
X12327000Y-18140714D01*
X12298428Y-18126429D01*
X12284143Y-18097857D01*
X12284143Y-17983572D01*
X12298428Y-17955000D01*
X12327000Y-17940714D01*
X12384143Y-17940714D01*
X12412714Y-17955000D01*
X12427000Y-17983572D01*
X12427000Y-18012143D01*
X12284143Y-18040714D01*
X12541286Y-18126429D02*
X12569857Y-18140714D01*
X12627000Y-18140714D01*
X12655571Y-18126429D01*
X12669857Y-18097857D01*
X12669857Y-18083572D01*
X12655571Y-18055000D01*
X12627000Y-18040714D01*
X12584143Y-18040714D01*
X12555571Y-18026429D01*
X12541286Y-17997857D01*
X12541286Y-17983572D01*
X12555571Y-17955000D01*
X12584143Y-17940714D01*
X12627000Y-17940714D01*
X12655571Y-17955000D01*
X12769857Y-18255000D02*
X12784143Y-18240714D01*
X12812714Y-18197857D01*
X12827000Y-18169286D01*
X12841286Y-18126429D01*
X12855571Y-18055000D01*
X12855571Y-17997857D01*
X12841286Y-17926429D01*
X12827000Y-17883572D01*
X12812714Y-17855000D01*
X12784143Y-17812143D01*
X12769857Y-17797857D01*
M02*
