G04 #@! TF.GenerationSoftware,KiCad,Pcbnew,5.1.10*
G04 #@! TF.CreationDate,2021-10-17T19:13:25-03:00*
G04 #@! TF.ProjectId,tesis,74657369-732e-46b6-9963-61645f706362,v1.0*
G04 #@! TF.SameCoordinates,Original*
G04 #@! TF.FileFunction,Paste,Bot*
G04 #@! TF.FilePolarity,Positive*
%FSLAX46Y46*%
G04 Gerber Fmt 4.6, Leading zero omitted, Abs format (unit mm)*
G04 Created by KiCad (PCBNEW 5.1.10) date 2021-10-17 19:13:25*
%MOMM*%
%LPD*%
G01*
G04 APERTURE LIST*
%ADD10R,3.000000X1.000000*%
%ADD11R,1.800000X2.000000*%
%ADD12R,2.000000X4.500000*%
%ADD13R,4.550000X5.250000*%
%ADD14R,4.600000X1.100000*%
%ADD15R,0.800000X0.900000*%
%ADD16R,1.000000X1.000000*%
%ADD17R,2.200000X1.050000*%
%ADD18R,3.300000X1.700000*%
%ADD19R,1.000000X3.000000*%
%ADD20R,1.500000X2.000000*%
G04 APERTURE END LIST*
D10*
X137570000Y-91330000D03*
X137570000Y-92930000D03*
X137570000Y-94530000D03*
X131170000Y-91330000D03*
X131170000Y-92930000D03*
X131170000Y-94530000D03*
X137570000Y-82330000D03*
X137570000Y-83930000D03*
X137570000Y-85530000D03*
X131170000Y-82330000D03*
X131170000Y-83930000D03*
X131170000Y-85530000D03*
D11*
X97995000Y-65380000D03*
D12*
X93995000Y-66380000D03*
D13*
X67620000Y-104955000D03*
X62770000Y-99405000D03*
X67620000Y-99405000D03*
X62770000Y-104955000D03*
D14*
X74345000Y-105580000D03*
X74345000Y-103880000D03*
X74345000Y-102180000D03*
X74345000Y-100480000D03*
X74345000Y-98780000D03*
G36*
G01*
X183419999Y-90880000D02*
X184320001Y-90880000D01*
G75*
G02*
X184570000Y-91129999I0J-249999D01*
G01*
X184570000Y-91830001D01*
G75*
G02*
X184320001Y-92080000I-249999J0D01*
G01*
X183419999Y-92080000D01*
G75*
G02*
X183170000Y-91830001I0J249999D01*
G01*
X183170000Y-91129999D01*
G75*
G02*
X183419999Y-90880000I249999J0D01*
G01*
G37*
G36*
G01*
X183419999Y-88880000D02*
X184320001Y-88880000D01*
G75*
G02*
X184570000Y-89129999I0J-249999D01*
G01*
X184570000Y-89830001D01*
G75*
G02*
X184320001Y-90080000I-249999J0D01*
G01*
X183419999Y-90080000D01*
G75*
G02*
X183170000Y-89830001I0J249999D01*
G01*
X183170000Y-89129999D01*
G75*
G02*
X183419999Y-88880000I249999J0D01*
G01*
G37*
G36*
G01*
X94675000Y-127780000D02*
X95625000Y-127780000D01*
G75*
G02*
X95875000Y-128030000I0J-250000D01*
G01*
X95875000Y-128705000D01*
G75*
G02*
X95625000Y-128955000I-250000J0D01*
G01*
X94675000Y-128955000D01*
G75*
G02*
X94425000Y-128705000I0J250000D01*
G01*
X94425000Y-128030000D01*
G75*
G02*
X94675000Y-127780000I250000J0D01*
G01*
G37*
G36*
G01*
X94675000Y-125705000D02*
X95625000Y-125705000D01*
G75*
G02*
X95875000Y-125955000I0J-250000D01*
G01*
X95875000Y-126630000D01*
G75*
G02*
X95625000Y-126880000I-250000J0D01*
G01*
X94675000Y-126880000D01*
G75*
G02*
X94425000Y-126630000I0J250000D01*
G01*
X94425000Y-125955000D01*
G75*
G02*
X94675000Y-125705000I250000J0D01*
G01*
G37*
G36*
G01*
X96825000Y-127780000D02*
X97775000Y-127780000D01*
G75*
G02*
X98025000Y-128030000I0J-250000D01*
G01*
X98025000Y-128705000D01*
G75*
G02*
X97775000Y-128955000I-250000J0D01*
G01*
X96825000Y-128955000D01*
G75*
G02*
X96575000Y-128705000I0J250000D01*
G01*
X96575000Y-128030000D01*
G75*
G02*
X96825000Y-127780000I250000J0D01*
G01*
G37*
G36*
G01*
X96825000Y-125705000D02*
X97775000Y-125705000D01*
G75*
G02*
X98025000Y-125955000I0J-250000D01*
G01*
X98025000Y-126630000D01*
G75*
G02*
X97775000Y-126880000I-250000J0D01*
G01*
X96825000Y-126880000D01*
G75*
G02*
X96575000Y-126630000I0J250000D01*
G01*
X96575000Y-125955000D01*
G75*
G02*
X96825000Y-125705000I250000J0D01*
G01*
G37*
G36*
G01*
X93687500Y-124055000D02*
X93687500Y-125005000D01*
G75*
G02*
X93437500Y-125255000I-250000J0D01*
G01*
X92762500Y-125255000D01*
G75*
G02*
X92512500Y-125005000I0J250000D01*
G01*
X92512500Y-124055000D01*
G75*
G02*
X92762500Y-123805000I250000J0D01*
G01*
X93437500Y-123805000D01*
G75*
G02*
X93687500Y-124055000I0J-250000D01*
G01*
G37*
G36*
G01*
X91612500Y-124055000D02*
X91612500Y-125005000D01*
G75*
G02*
X91362500Y-125255000I-250000J0D01*
G01*
X90687500Y-125255000D01*
G75*
G02*
X90437500Y-125005000I0J250000D01*
G01*
X90437500Y-124055000D01*
G75*
G02*
X90687500Y-123805000I250000J0D01*
G01*
X91362500Y-123805000D01*
G75*
G02*
X91612500Y-124055000I0J-250000D01*
G01*
G37*
G36*
G01*
X97145000Y-97842500D02*
X98095000Y-97842500D01*
G75*
G02*
X98345000Y-98092500I0J-250000D01*
G01*
X98345000Y-98767500D01*
G75*
G02*
X98095000Y-99017500I-250000J0D01*
G01*
X97145000Y-99017500D01*
G75*
G02*
X96895000Y-98767500I0J250000D01*
G01*
X96895000Y-98092500D01*
G75*
G02*
X97145000Y-97842500I250000J0D01*
G01*
G37*
G36*
G01*
X97145000Y-99917500D02*
X98095000Y-99917500D01*
G75*
G02*
X98345000Y-100167500I0J-250000D01*
G01*
X98345000Y-100842500D01*
G75*
G02*
X98095000Y-101092500I-250000J0D01*
G01*
X97145000Y-101092500D01*
G75*
G02*
X96895000Y-100842500I0J250000D01*
G01*
X96895000Y-100167500D01*
G75*
G02*
X97145000Y-99917500I250000J0D01*
G01*
G37*
G36*
G01*
X78145000Y-99842500D02*
X79095000Y-99842500D01*
G75*
G02*
X79345000Y-100092500I0J-250000D01*
G01*
X79345000Y-100767500D01*
G75*
G02*
X79095000Y-101017500I-250000J0D01*
G01*
X78145000Y-101017500D01*
G75*
G02*
X77895000Y-100767500I0J250000D01*
G01*
X77895000Y-100092500D01*
G75*
G02*
X78145000Y-99842500I250000J0D01*
G01*
G37*
G36*
G01*
X78145000Y-97767500D02*
X79095000Y-97767500D01*
G75*
G02*
X79345000Y-98017500I0J-250000D01*
G01*
X79345000Y-98692500D01*
G75*
G02*
X79095000Y-98942500I-250000J0D01*
G01*
X78145000Y-98942500D01*
G75*
G02*
X77895000Y-98692500I0J250000D01*
G01*
X77895000Y-98017500D01*
G75*
G02*
X78145000Y-97767500I250000J0D01*
G01*
G37*
G36*
G01*
X93305000Y-129455000D02*
X93005000Y-129455000D01*
G75*
G02*
X92855000Y-129305000I0J150000D01*
G01*
X92855000Y-127655000D01*
G75*
G02*
X93005000Y-127505000I150000J0D01*
G01*
X93305000Y-127505000D01*
G75*
G02*
X93455000Y-127655000I0J-150000D01*
G01*
X93455000Y-129305000D01*
G75*
G02*
X93305000Y-129455000I-150000J0D01*
G01*
G37*
G36*
G01*
X92035000Y-129455000D02*
X91735000Y-129455000D01*
G75*
G02*
X91585000Y-129305000I0J150000D01*
G01*
X91585000Y-127655000D01*
G75*
G02*
X91735000Y-127505000I150000J0D01*
G01*
X92035000Y-127505000D01*
G75*
G02*
X92185000Y-127655000I0J-150000D01*
G01*
X92185000Y-129305000D01*
G75*
G02*
X92035000Y-129455000I-150000J0D01*
G01*
G37*
G36*
G01*
X90765000Y-129455000D02*
X90465000Y-129455000D01*
G75*
G02*
X90315000Y-129305000I0J150000D01*
G01*
X90315000Y-127655000D01*
G75*
G02*
X90465000Y-127505000I150000J0D01*
G01*
X90765000Y-127505000D01*
G75*
G02*
X90915000Y-127655000I0J-150000D01*
G01*
X90915000Y-129305000D01*
G75*
G02*
X90765000Y-129455000I-150000J0D01*
G01*
G37*
G36*
G01*
X89495000Y-129455000D02*
X89195000Y-129455000D01*
G75*
G02*
X89045000Y-129305000I0J150000D01*
G01*
X89045000Y-127655000D01*
G75*
G02*
X89195000Y-127505000I150000J0D01*
G01*
X89495000Y-127505000D01*
G75*
G02*
X89645000Y-127655000I0J-150000D01*
G01*
X89645000Y-129305000D01*
G75*
G02*
X89495000Y-129455000I-150000J0D01*
G01*
G37*
G36*
G01*
X89495000Y-134405000D02*
X89195000Y-134405000D01*
G75*
G02*
X89045000Y-134255000I0J150000D01*
G01*
X89045000Y-132605000D01*
G75*
G02*
X89195000Y-132455000I150000J0D01*
G01*
X89495000Y-132455000D01*
G75*
G02*
X89645000Y-132605000I0J-150000D01*
G01*
X89645000Y-134255000D01*
G75*
G02*
X89495000Y-134405000I-150000J0D01*
G01*
G37*
G36*
G01*
X90765000Y-134405000D02*
X90465000Y-134405000D01*
G75*
G02*
X90315000Y-134255000I0J150000D01*
G01*
X90315000Y-132605000D01*
G75*
G02*
X90465000Y-132455000I150000J0D01*
G01*
X90765000Y-132455000D01*
G75*
G02*
X90915000Y-132605000I0J-150000D01*
G01*
X90915000Y-134255000D01*
G75*
G02*
X90765000Y-134405000I-150000J0D01*
G01*
G37*
G36*
G01*
X92035000Y-134405000D02*
X91735000Y-134405000D01*
G75*
G02*
X91585000Y-134255000I0J150000D01*
G01*
X91585000Y-132605000D01*
G75*
G02*
X91735000Y-132455000I150000J0D01*
G01*
X92035000Y-132455000D01*
G75*
G02*
X92185000Y-132605000I0J-150000D01*
G01*
X92185000Y-134255000D01*
G75*
G02*
X92035000Y-134405000I-150000J0D01*
G01*
G37*
G36*
G01*
X93305000Y-134405000D02*
X93005000Y-134405000D01*
G75*
G02*
X92855000Y-134255000I0J150000D01*
G01*
X92855000Y-132605000D01*
G75*
G02*
X93005000Y-132455000I150000J0D01*
G01*
X93305000Y-132455000D01*
G75*
G02*
X93455000Y-132605000I0J-150000D01*
G01*
X93455000Y-134255000D01*
G75*
G02*
X93305000Y-134405000I-150000J0D01*
G01*
G37*
X93895000Y-98780000D03*
X93895000Y-100480000D03*
X93895000Y-102180000D03*
X93895000Y-103880000D03*
X93895000Y-105580000D03*
D13*
X82320000Y-104955000D03*
X87170000Y-99405000D03*
X82320000Y-99405000D03*
X87170000Y-104955000D03*
G36*
G01*
X80020000Y-94130001D02*
X80020000Y-93229999D01*
G75*
G02*
X80269999Y-92980000I249999J0D01*
G01*
X80970001Y-92980000D01*
G75*
G02*
X81220000Y-93229999I0J-249999D01*
G01*
X81220000Y-94130001D01*
G75*
G02*
X80970001Y-94380000I-249999J0D01*
G01*
X80269999Y-94380000D01*
G75*
G02*
X80020000Y-94130001I0J249999D01*
G01*
G37*
G36*
G01*
X82020000Y-94130001D02*
X82020000Y-93229999D01*
G75*
G02*
X82269999Y-92980000I249999J0D01*
G01*
X82970001Y-92980000D01*
G75*
G02*
X83220000Y-93229999I0J-249999D01*
G01*
X83220000Y-94130001D01*
G75*
G02*
X82970001Y-94380000I-249999J0D01*
G01*
X82269999Y-94380000D01*
G75*
G02*
X82020000Y-94130001I0J249999D01*
G01*
G37*
G36*
G01*
X90100000Y-94130001D02*
X90100000Y-93229999D01*
G75*
G02*
X90349999Y-92980000I249999J0D01*
G01*
X91050001Y-92980000D01*
G75*
G02*
X91300000Y-93229999I0J-249999D01*
G01*
X91300000Y-94130001D01*
G75*
G02*
X91050001Y-94380000I-249999J0D01*
G01*
X90349999Y-94380000D01*
G75*
G02*
X90100000Y-94130001I0J249999D01*
G01*
G37*
G36*
G01*
X88100000Y-94130001D02*
X88100000Y-93229999D01*
G75*
G02*
X88349999Y-92980000I249999J0D01*
G01*
X89050001Y-92980000D01*
G75*
G02*
X89300000Y-93229999I0J-249999D01*
G01*
X89300000Y-94130001D01*
G75*
G02*
X89050001Y-94380000I-249999J0D01*
G01*
X88349999Y-94380000D01*
G75*
G02*
X88100000Y-94130001I0J249999D01*
G01*
G37*
G36*
G01*
X60520000Y-94130001D02*
X60520000Y-93229999D01*
G75*
G02*
X60769999Y-92980000I249999J0D01*
G01*
X61470001Y-92980000D01*
G75*
G02*
X61720000Y-93229999I0J-249999D01*
G01*
X61720000Y-94130001D01*
G75*
G02*
X61470001Y-94380000I-249999J0D01*
G01*
X60769999Y-94380000D01*
G75*
G02*
X60520000Y-94130001I0J249999D01*
G01*
G37*
G36*
G01*
X62520000Y-94130001D02*
X62520000Y-93229999D01*
G75*
G02*
X62769999Y-92980000I249999J0D01*
G01*
X63470001Y-92980000D01*
G75*
G02*
X63720000Y-93229999I0J-249999D01*
G01*
X63720000Y-94130001D01*
G75*
G02*
X63470001Y-94380000I-249999J0D01*
G01*
X62769999Y-94380000D01*
G75*
G02*
X62520000Y-94130001I0J249999D01*
G01*
G37*
G36*
G01*
X70500000Y-94130001D02*
X70500000Y-93229999D01*
G75*
G02*
X70749999Y-92980000I249999J0D01*
G01*
X71450001Y-92980000D01*
G75*
G02*
X71700000Y-93229999I0J-249999D01*
G01*
X71700000Y-94130001D01*
G75*
G02*
X71450001Y-94380000I-249999J0D01*
G01*
X70749999Y-94380000D01*
G75*
G02*
X70500000Y-94130001I0J249999D01*
G01*
G37*
G36*
G01*
X68500000Y-94130001D02*
X68500000Y-93229999D01*
G75*
G02*
X68749999Y-92980000I249999J0D01*
G01*
X69450001Y-92980000D01*
G75*
G02*
X69700000Y-93229999I0J-249999D01*
G01*
X69700000Y-94130001D01*
G75*
G02*
X69450001Y-94380000I-249999J0D01*
G01*
X68749999Y-94380000D01*
G75*
G02*
X68500000Y-94130001I0J249999D01*
G01*
G37*
G36*
G01*
X172495000Y-92942200D02*
X172495000Y-93892200D01*
G75*
G02*
X172245000Y-94142200I-250000J0D01*
G01*
X171570000Y-94142200D01*
G75*
G02*
X171320000Y-93892200I0J250000D01*
G01*
X171320000Y-92942200D01*
G75*
G02*
X171570000Y-92692200I250000J0D01*
G01*
X172245000Y-92692200D01*
G75*
G02*
X172495000Y-92942200I0J-250000D01*
G01*
G37*
G36*
G01*
X170420000Y-92942200D02*
X170420000Y-93892200D01*
G75*
G02*
X170170000Y-94142200I-250000J0D01*
G01*
X169495000Y-94142200D01*
G75*
G02*
X169245000Y-93892200I0J250000D01*
G01*
X169245000Y-92942200D01*
G75*
G02*
X169495000Y-92692200I250000J0D01*
G01*
X170170000Y-92692200D01*
G75*
G02*
X170420000Y-92942200I0J-250000D01*
G01*
G37*
G36*
G01*
X170457500Y-90542200D02*
X170457500Y-91492200D01*
G75*
G02*
X170207500Y-91742200I-250000J0D01*
G01*
X169532500Y-91742200D01*
G75*
G02*
X169282500Y-91492200I0J250000D01*
G01*
X169282500Y-90542200D01*
G75*
G02*
X169532500Y-90292200I250000J0D01*
G01*
X170207500Y-90292200D01*
G75*
G02*
X170457500Y-90542200I0J-250000D01*
G01*
G37*
G36*
G01*
X172532500Y-90542200D02*
X172532500Y-91492200D01*
G75*
G02*
X172282500Y-91742200I-250000J0D01*
G01*
X171607500Y-91742200D01*
G75*
G02*
X171357500Y-91492200I0J250000D01*
G01*
X171357500Y-90542200D01*
G75*
G02*
X171607500Y-90292200I250000J0D01*
G01*
X172282500Y-90292200D01*
G75*
G02*
X172532500Y-90542200I0J-250000D01*
G01*
G37*
G36*
G01*
X188920000Y-100530001D02*
X188920000Y-99629999D01*
G75*
G02*
X189169999Y-99380000I249999J0D01*
G01*
X189870001Y-99380000D01*
G75*
G02*
X190120000Y-99629999I0J-249999D01*
G01*
X190120000Y-100530001D01*
G75*
G02*
X189870001Y-100780000I-249999J0D01*
G01*
X189169999Y-100780000D01*
G75*
G02*
X188920000Y-100530001I0J249999D01*
G01*
G37*
G36*
G01*
X190920000Y-100530001D02*
X190920000Y-99629999D01*
G75*
G02*
X191169999Y-99380000I249999J0D01*
G01*
X191870001Y-99380000D01*
G75*
G02*
X192120000Y-99629999I0J-249999D01*
G01*
X192120000Y-100530001D01*
G75*
G02*
X191870001Y-100780000I-249999J0D01*
G01*
X191169999Y-100780000D01*
G75*
G02*
X190920000Y-100530001I0J249999D01*
G01*
G37*
G36*
G01*
X190920000Y-98480001D02*
X190920000Y-97579999D01*
G75*
G02*
X191169999Y-97330000I249999J0D01*
G01*
X191870001Y-97330000D01*
G75*
G02*
X192120000Y-97579999I0J-249999D01*
G01*
X192120000Y-98480001D01*
G75*
G02*
X191870001Y-98730000I-249999J0D01*
G01*
X191169999Y-98730000D01*
G75*
G02*
X190920000Y-98480001I0J249999D01*
G01*
G37*
G36*
G01*
X188920000Y-98480001D02*
X188920000Y-97579999D01*
G75*
G02*
X189169999Y-97330000I249999J0D01*
G01*
X189870001Y-97330000D01*
G75*
G02*
X190120000Y-97579999I0J-249999D01*
G01*
X190120000Y-98480001D01*
G75*
G02*
X189870001Y-98730000I-249999J0D01*
G01*
X189169999Y-98730000D01*
G75*
G02*
X188920000Y-98480001I0J249999D01*
G01*
G37*
G36*
G01*
X189020000Y-88030001D02*
X189020000Y-87129999D01*
G75*
G02*
X189269999Y-86880000I249999J0D01*
G01*
X189970001Y-86880000D01*
G75*
G02*
X190220000Y-87129999I0J-249999D01*
G01*
X190220000Y-88030001D01*
G75*
G02*
X189970001Y-88280000I-249999J0D01*
G01*
X189269999Y-88280000D01*
G75*
G02*
X189020000Y-88030001I0J249999D01*
G01*
G37*
G36*
G01*
X191020000Y-88030001D02*
X191020000Y-87129999D01*
G75*
G02*
X191269999Y-86880000I249999J0D01*
G01*
X191970001Y-86880000D01*
G75*
G02*
X192220000Y-87129999I0J-249999D01*
G01*
X192220000Y-88030001D01*
G75*
G02*
X191970001Y-88280000I-249999J0D01*
G01*
X191269999Y-88280000D01*
G75*
G02*
X191020000Y-88030001I0J249999D01*
G01*
G37*
G36*
G01*
X191020000Y-86030001D02*
X191020000Y-85129999D01*
G75*
G02*
X191269999Y-84880000I249999J0D01*
G01*
X191970001Y-84880000D01*
G75*
G02*
X192220000Y-85129999I0J-249999D01*
G01*
X192220000Y-86030001D01*
G75*
G02*
X191970001Y-86280000I-249999J0D01*
G01*
X191269999Y-86280000D01*
G75*
G02*
X191020000Y-86030001I0J249999D01*
G01*
G37*
G36*
G01*
X189020000Y-86030001D02*
X189020000Y-85129999D01*
G75*
G02*
X189269999Y-84880000I249999J0D01*
G01*
X189970001Y-84880000D01*
G75*
G02*
X190220000Y-85129999I0J-249999D01*
G01*
X190220000Y-86030001D01*
G75*
G02*
X189970001Y-86280000I-249999J0D01*
G01*
X189269999Y-86280000D01*
G75*
G02*
X189020000Y-86030001I0J249999D01*
G01*
G37*
G36*
G01*
X189020000Y-75630001D02*
X189020000Y-74729999D01*
G75*
G02*
X189269999Y-74480000I249999J0D01*
G01*
X189970001Y-74480000D01*
G75*
G02*
X190220000Y-74729999I0J-249999D01*
G01*
X190220000Y-75630001D01*
G75*
G02*
X189970001Y-75880000I-249999J0D01*
G01*
X189269999Y-75880000D01*
G75*
G02*
X189020000Y-75630001I0J249999D01*
G01*
G37*
G36*
G01*
X191020000Y-75630001D02*
X191020000Y-74729999D01*
G75*
G02*
X191269999Y-74480000I249999J0D01*
G01*
X191970001Y-74480000D01*
G75*
G02*
X192220000Y-74729999I0J-249999D01*
G01*
X192220000Y-75630001D01*
G75*
G02*
X191970001Y-75880000I-249999J0D01*
G01*
X191269999Y-75880000D01*
G75*
G02*
X191020000Y-75630001I0J249999D01*
G01*
G37*
G36*
G01*
X189020000Y-73630001D02*
X189020000Y-72729999D01*
G75*
G02*
X189269999Y-72480000I249999J0D01*
G01*
X189970001Y-72480000D01*
G75*
G02*
X190220000Y-72729999I0J-249999D01*
G01*
X190220000Y-73630001D01*
G75*
G02*
X189970001Y-73880000I-249999J0D01*
G01*
X189269999Y-73880000D01*
G75*
G02*
X189020000Y-73630001I0J249999D01*
G01*
G37*
G36*
G01*
X191020000Y-73630001D02*
X191020000Y-72729999D01*
G75*
G02*
X191269999Y-72480000I249999J0D01*
G01*
X191970001Y-72480000D01*
G75*
G02*
X192220000Y-72729999I0J-249999D01*
G01*
X192220000Y-73630001D01*
G75*
G02*
X191970001Y-73880000I-249999J0D01*
G01*
X191269999Y-73880000D01*
G75*
G02*
X191020000Y-73630001I0J249999D01*
G01*
G37*
G36*
G01*
X185569999Y-88880000D02*
X186470001Y-88880000D01*
G75*
G02*
X186720000Y-89129999I0J-249999D01*
G01*
X186720000Y-89830001D01*
G75*
G02*
X186470001Y-90080000I-249999J0D01*
G01*
X185569999Y-90080000D01*
G75*
G02*
X185320000Y-89830001I0J249999D01*
G01*
X185320000Y-89129999D01*
G75*
G02*
X185569999Y-88880000I249999J0D01*
G01*
G37*
G36*
G01*
X185569999Y-90880000D02*
X186470001Y-90880000D01*
G75*
G02*
X186720000Y-91129999I0J-249999D01*
G01*
X186720000Y-91830001D01*
G75*
G02*
X186470001Y-92080000I-249999J0D01*
G01*
X185569999Y-92080000D01*
G75*
G02*
X185320000Y-91830001I0J249999D01*
G01*
X185320000Y-91129999D01*
G75*
G02*
X185569999Y-90880000I249999J0D01*
G01*
G37*
G36*
G01*
X191020000Y-63430001D02*
X191020000Y-62529999D01*
G75*
G02*
X191269999Y-62280000I249999J0D01*
G01*
X191970001Y-62280000D01*
G75*
G02*
X192220000Y-62529999I0J-249999D01*
G01*
X192220000Y-63430001D01*
G75*
G02*
X191970001Y-63680000I-249999J0D01*
G01*
X191269999Y-63680000D01*
G75*
G02*
X191020000Y-63430001I0J249999D01*
G01*
G37*
G36*
G01*
X189020000Y-63430001D02*
X189020000Y-62529999D01*
G75*
G02*
X189269999Y-62280000I249999J0D01*
G01*
X189970001Y-62280000D01*
G75*
G02*
X190220000Y-62529999I0J-249999D01*
G01*
X190220000Y-63430001D01*
G75*
G02*
X189970001Y-63680000I-249999J0D01*
G01*
X189269999Y-63680000D01*
G75*
G02*
X189020000Y-63430001I0J249999D01*
G01*
G37*
G36*
G01*
X189020000Y-61330001D02*
X189020000Y-60429999D01*
G75*
G02*
X189269999Y-60180000I249999J0D01*
G01*
X189970001Y-60180000D01*
G75*
G02*
X190220000Y-60429999I0J-249999D01*
G01*
X190220000Y-61330001D01*
G75*
G02*
X189970001Y-61580000I-249999J0D01*
G01*
X189269999Y-61580000D01*
G75*
G02*
X189020000Y-61330001I0J249999D01*
G01*
G37*
G36*
G01*
X191020000Y-61330001D02*
X191020000Y-60429999D01*
G75*
G02*
X191269999Y-60180000I249999J0D01*
G01*
X191970001Y-60180000D01*
G75*
G02*
X192220000Y-60429999I0J-249999D01*
G01*
X192220000Y-61330001D01*
G75*
G02*
X191970001Y-61580000I-249999J0D01*
G01*
X191269999Y-61580000D01*
G75*
G02*
X191020000Y-61330001I0J249999D01*
G01*
G37*
G36*
G01*
X191020000Y-54630001D02*
X191020000Y-53729999D01*
G75*
G02*
X191269999Y-53480000I249999J0D01*
G01*
X191970001Y-53480000D01*
G75*
G02*
X192220000Y-53729999I0J-249999D01*
G01*
X192220000Y-54630001D01*
G75*
G02*
X191970001Y-54880000I-249999J0D01*
G01*
X191269999Y-54880000D01*
G75*
G02*
X191020000Y-54630001I0J249999D01*
G01*
G37*
G36*
G01*
X189020000Y-54630001D02*
X189020000Y-53729999D01*
G75*
G02*
X189269999Y-53480000I249999J0D01*
G01*
X189970001Y-53480000D01*
G75*
G02*
X190220000Y-53729999I0J-249999D01*
G01*
X190220000Y-54630001D01*
G75*
G02*
X189970001Y-54880000I-249999J0D01*
G01*
X189269999Y-54880000D01*
G75*
G02*
X189020000Y-54630001I0J249999D01*
G01*
G37*
G36*
G01*
X189020000Y-52630001D02*
X189020000Y-51729999D01*
G75*
G02*
X189269999Y-51480000I249999J0D01*
G01*
X189970001Y-51480000D01*
G75*
G02*
X190220000Y-51729999I0J-249999D01*
G01*
X190220000Y-52630001D01*
G75*
G02*
X189970001Y-52880000I-249999J0D01*
G01*
X189269999Y-52880000D01*
G75*
G02*
X189020000Y-52630001I0J249999D01*
G01*
G37*
G36*
G01*
X191020000Y-52630001D02*
X191020000Y-51729999D01*
G75*
G02*
X191269999Y-51480000I249999J0D01*
G01*
X191970001Y-51480000D01*
G75*
G02*
X192220000Y-51729999I0J-249999D01*
G01*
X192220000Y-52630001D01*
G75*
G02*
X191970001Y-52880000I-249999J0D01*
G01*
X191269999Y-52880000D01*
G75*
G02*
X191020000Y-52630001I0J249999D01*
G01*
G37*
G36*
G01*
X190920000Y-112830001D02*
X190920000Y-111929999D01*
G75*
G02*
X191169999Y-111680000I249999J0D01*
G01*
X191870001Y-111680000D01*
G75*
G02*
X192120000Y-111929999I0J-249999D01*
G01*
X192120000Y-112830001D01*
G75*
G02*
X191870001Y-113080000I-249999J0D01*
G01*
X191169999Y-113080000D01*
G75*
G02*
X190920000Y-112830001I0J249999D01*
G01*
G37*
G36*
G01*
X188920000Y-112830001D02*
X188920000Y-111929999D01*
G75*
G02*
X189169999Y-111680000I249999J0D01*
G01*
X189870001Y-111680000D01*
G75*
G02*
X190120000Y-111929999I0J-249999D01*
G01*
X190120000Y-112830001D01*
G75*
G02*
X189870001Y-113080000I-249999J0D01*
G01*
X189169999Y-113080000D01*
G75*
G02*
X188920000Y-112830001I0J249999D01*
G01*
G37*
G36*
G01*
X188920000Y-110830001D02*
X188920000Y-109929999D01*
G75*
G02*
X189169999Y-109680000I249999J0D01*
G01*
X189870001Y-109680000D01*
G75*
G02*
X190120000Y-109929999I0J-249999D01*
G01*
X190120000Y-110830001D01*
G75*
G02*
X189870001Y-111080000I-249999J0D01*
G01*
X189169999Y-111080000D01*
G75*
G02*
X188920000Y-110830001I0J249999D01*
G01*
G37*
G36*
G01*
X190920000Y-110830001D02*
X190920000Y-109929999D01*
G75*
G02*
X191169999Y-109680000I249999J0D01*
G01*
X191870001Y-109680000D01*
G75*
G02*
X192120000Y-109929999I0J-249999D01*
G01*
X192120000Y-110830001D01*
G75*
G02*
X191870001Y-111080000I-249999J0D01*
G01*
X191169999Y-111080000D01*
G75*
G02*
X190920000Y-110830001I0J249999D01*
G01*
G37*
G36*
G01*
X191020000Y-125430001D02*
X191020000Y-124529999D01*
G75*
G02*
X191269999Y-124280000I249999J0D01*
G01*
X191970001Y-124280000D01*
G75*
G02*
X192220000Y-124529999I0J-249999D01*
G01*
X192220000Y-125430001D01*
G75*
G02*
X191970001Y-125680000I-249999J0D01*
G01*
X191269999Y-125680000D01*
G75*
G02*
X191020000Y-125430001I0J249999D01*
G01*
G37*
G36*
G01*
X189020000Y-125430001D02*
X189020000Y-124529999D01*
G75*
G02*
X189269999Y-124280000I249999J0D01*
G01*
X189970001Y-124280000D01*
G75*
G02*
X190220000Y-124529999I0J-249999D01*
G01*
X190220000Y-125430001D01*
G75*
G02*
X189970001Y-125680000I-249999J0D01*
G01*
X189269999Y-125680000D01*
G75*
G02*
X189020000Y-125430001I0J249999D01*
G01*
G37*
G36*
G01*
X189020000Y-123430001D02*
X189020000Y-122529999D01*
G75*
G02*
X189269999Y-122280000I249999J0D01*
G01*
X189970001Y-122280000D01*
G75*
G02*
X190220000Y-122529999I0J-249999D01*
G01*
X190220000Y-123430001D01*
G75*
G02*
X189970001Y-123680000I-249999J0D01*
G01*
X189269999Y-123680000D01*
G75*
G02*
X189020000Y-123430001I0J249999D01*
G01*
G37*
G36*
G01*
X191020000Y-123430001D02*
X191020000Y-122529999D01*
G75*
G02*
X191269999Y-122280000I249999J0D01*
G01*
X191970001Y-122280000D01*
G75*
G02*
X192220000Y-122529999I0J-249999D01*
G01*
X192220000Y-123430001D01*
G75*
G02*
X191970001Y-123680000I-249999J0D01*
G01*
X191269999Y-123680000D01*
G75*
G02*
X191020000Y-123430001I0J249999D01*
G01*
G37*
G36*
G01*
X190970000Y-133630001D02*
X190970000Y-132729999D01*
G75*
G02*
X191219999Y-132480000I249999J0D01*
G01*
X191920001Y-132480000D01*
G75*
G02*
X192170000Y-132729999I0J-249999D01*
G01*
X192170000Y-133630001D01*
G75*
G02*
X191920001Y-133880000I-249999J0D01*
G01*
X191219999Y-133880000D01*
G75*
G02*
X190970000Y-133630001I0J249999D01*
G01*
G37*
G36*
G01*
X188970000Y-133630001D02*
X188970000Y-132729999D01*
G75*
G02*
X189219999Y-132480000I249999J0D01*
G01*
X189920001Y-132480000D01*
G75*
G02*
X190170000Y-132729999I0J-249999D01*
G01*
X190170000Y-133630001D01*
G75*
G02*
X189920001Y-133880000I-249999J0D01*
G01*
X189219999Y-133880000D01*
G75*
G02*
X188970000Y-133630001I0J249999D01*
G01*
G37*
G36*
G01*
X190970000Y-131630001D02*
X190970000Y-130729999D01*
G75*
G02*
X191219999Y-130480000I249999J0D01*
G01*
X191920001Y-130480000D01*
G75*
G02*
X192170000Y-130729999I0J-249999D01*
G01*
X192170000Y-131630001D01*
G75*
G02*
X191920001Y-131880000I-249999J0D01*
G01*
X191219999Y-131880000D01*
G75*
G02*
X190970000Y-131630001I0J249999D01*
G01*
G37*
G36*
G01*
X188970000Y-131630001D02*
X188970000Y-130729999D01*
G75*
G02*
X189219999Y-130480000I249999J0D01*
G01*
X189920001Y-130480000D01*
G75*
G02*
X190170000Y-130729999I0J-249999D01*
G01*
X190170000Y-131630001D01*
G75*
G02*
X189920001Y-131880000I-249999J0D01*
G01*
X189219999Y-131880000D01*
G75*
G02*
X188970000Y-131630001I0J249999D01*
G01*
G37*
G36*
G01*
X181495000Y-96080000D02*
X181295000Y-96080000D01*
G75*
G02*
X181195000Y-95980000I0J100000D01*
G01*
X181195000Y-94705000D01*
G75*
G02*
X181295000Y-94605000I100000J0D01*
G01*
X181495000Y-94605000D01*
G75*
G02*
X181595000Y-94705000I0J-100000D01*
G01*
X181595000Y-95980000D01*
G75*
G02*
X181495000Y-96080000I-100000J0D01*
G01*
G37*
G36*
G01*
X180845000Y-96080000D02*
X180645000Y-96080000D01*
G75*
G02*
X180545000Y-95980000I0J100000D01*
G01*
X180545000Y-94705000D01*
G75*
G02*
X180645000Y-94605000I100000J0D01*
G01*
X180845000Y-94605000D01*
G75*
G02*
X180945000Y-94705000I0J-100000D01*
G01*
X180945000Y-95980000D01*
G75*
G02*
X180845000Y-96080000I-100000J0D01*
G01*
G37*
G36*
G01*
X180195000Y-96080000D02*
X179995000Y-96080000D01*
G75*
G02*
X179895000Y-95980000I0J100000D01*
G01*
X179895000Y-94705000D01*
G75*
G02*
X179995000Y-94605000I100000J0D01*
G01*
X180195000Y-94605000D01*
G75*
G02*
X180295000Y-94705000I0J-100000D01*
G01*
X180295000Y-95980000D01*
G75*
G02*
X180195000Y-96080000I-100000J0D01*
G01*
G37*
G36*
G01*
X179545000Y-96080000D02*
X179345000Y-96080000D01*
G75*
G02*
X179245000Y-95980000I0J100000D01*
G01*
X179245000Y-94705000D01*
G75*
G02*
X179345000Y-94605000I100000J0D01*
G01*
X179545000Y-94605000D01*
G75*
G02*
X179645000Y-94705000I0J-100000D01*
G01*
X179645000Y-95980000D01*
G75*
G02*
X179545000Y-96080000I-100000J0D01*
G01*
G37*
G36*
G01*
X178895000Y-96080000D02*
X178695000Y-96080000D01*
G75*
G02*
X178595000Y-95980000I0J100000D01*
G01*
X178595000Y-94705000D01*
G75*
G02*
X178695000Y-94605000I100000J0D01*
G01*
X178895000Y-94605000D01*
G75*
G02*
X178995000Y-94705000I0J-100000D01*
G01*
X178995000Y-95980000D01*
G75*
G02*
X178895000Y-96080000I-100000J0D01*
G01*
G37*
G36*
G01*
X178245000Y-96080000D02*
X178045000Y-96080000D01*
G75*
G02*
X177945000Y-95980000I0J100000D01*
G01*
X177945000Y-94705000D01*
G75*
G02*
X178045000Y-94605000I100000J0D01*
G01*
X178245000Y-94605000D01*
G75*
G02*
X178345000Y-94705000I0J-100000D01*
G01*
X178345000Y-95980000D01*
G75*
G02*
X178245000Y-96080000I-100000J0D01*
G01*
G37*
G36*
G01*
X177595000Y-96080000D02*
X177395000Y-96080000D01*
G75*
G02*
X177295000Y-95980000I0J100000D01*
G01*
X177295000Y-94705000D01*
G75*
G02*
X177395000Y-94605000I100000J0D01*
G01*
X177595000Y-94605000D01*
G75*
G02*
X177695000Y-94705000I0J-100000D01*
G01*
X177695000Y-95980000D01*
G75*
G02*
X177595000Y-96080000I-100000J0D01*
G01*
G37*
G36*
G01*
X176945000Y-96080000D02*
X176745000Y-96080000D01*
G75*
G02*
X176645000Y-95980000I0J100000D01*
G01*
X176645000Y-94705000D01*
G75*
G02*
X176745000Y-94605000I100000J0D01*
G01*
X176945000Y-94605000D01*
G75*
G02*
X177045000Y-94705000I0J-100000D01*
G01*
X177045000Y-95980000D01*
G75*
G02*
X176945000Y-96080000I-100000J0D01*
G01*
G37*
G36*
G01*
X176295000Y-96080000D02*
X176095000Y-96080000D01*
G75*
G02*
X175995000Y-95980000I0J100000D01*
G01*
X175995000Y-94705000D01*
G75*
G02*
X176095000Y-94605000I100000J0D01*
G01*
X176295000Y-94605000D01*
G75*
G02*
X176395000Y-94705000I0J-100000D01*
G01*
X176395000Y-95980000D01*
G75*
G02*
X176295000Y-96080000I-100000J0D01*
G01*
G37*
G36*
G01*
X175645000Y-96080000D02*
X175445000Y-96080000D01*
G75*
G02*
X175345000Y-95980000I0J100000D01*
G01*
X175345000Y-94705000D01*
G75*
G02*
X175445000Y-94605000I100000J0D01*
G01*
X175645000Y-94605000D01*
G75*
G02*
X175745000Y-94705000I0J-100000D01*
G01*
X175745000Y-95980000D01*
G75*
G02*
X175645000Y-96080000I-100000J0D01*
G01*
G37*
G36*
G01*
X174995000Y-96080000D02*
X174795000Y-96080000D01*
G75*
G02*
X174695000Y-95980000I0J100000D01*
G01*
X174695000Y-94705000D01*
G75*
G02*
X174795000Y-94605000I100000J0D01*
G01*
X174995000Y-94605000D01*
G75*
G02*
X175095000Y-94705000I0J-100000D01*
G01*
X175095000Y-95980000D01*
G75*
G02*
X174995000Y-96080000I-100000J0D01*
G01*
G37*
G36*
G01*
X174345000Y-96080000D02*
X174145000Y-96080000D01*
G75*
G02*
X174045000Y-95980000I0J100000D01*
G01*
X174045000Y-94705000D01*
G75*
G02*
X174145000Y-94605000I100000J0D01*
G01*
X174345000Y-94605000D01*
G75*
G02*
X174445000Y-94705000I0J-100000D01*
G01*
X174445000Y-95980000D01*
G75*
G02*
X174345000Y-96080000I-100000J0D01*
G01*
G37*
G36*
G01*
X174345000Y-90355000D02*
X174145000Y-90355000D01*
G75*
G02*
X174045000Y-90255000I0J100000D01*
G01*
X174045000Y-88980000D01*
G75*
G02*
X174145000Y-88880000I100000J0D01*
G01*
X174345000Y-88880000D01*
G75*
G02*
X174445000Y-88980000I0J-100000D01*
G01*
X174445000Y-90255000D01*
G75*
G02*
X174345000Y-90355000I-100000J0D01*
G01*
G37*
G36*
G01*
X174995000Y-90355000D02*
X174795000Y-90355000D01*
G75*
G02*
X174695000Y-90255000I0J100000D01*
G01*
X174695000Y-88980000D01*
G75*
G02*
X174795000Y-88880000I100000J0D01*
G01*
X174995000Y-88880000D01*
G75*
G02*
X175095000Y-88980000I0J-100000D01*
G01*
X175095000Y-90255000D01*
G75*
G02*
X174995000Y-90355000I-100000J0D01*
G01*
G37*
G36*
G01*
X175645000Y-90355000D02*
X175445000Y-90355000D01*
G75*
G02*
X175345000Y-90255000I0J100000D01*
G01*
X175345000Y-88980000D01*
G75*
G02*
X175445000Y-88880000I100000J0D01*
G01*
X175645000Y-88880000D01*
G75*
G02*
X175745000Y-88980000I0J-100000D01*
G01*
X175745000Y-90255000D01*
G75*
G02*
X175645000Y-90355000I-100000J0D01*
G01*
G37*
G36*
G01*
X176295000Y-90355000D02*
X176095000Y-90355000D01*
G75*
G02*
X175995000Y-90255000I0J100000D01*
G01*
X175995000Y-88980000D01*
G75*
G02*
X176095000Y-88880000I100000J0D01*
G01*
X176295000Y-88880000D01*
G75*
G02*
X176395000Y-88980000I0J-100000D01*
G01*
X176395000Y-90255000D01*
G75*
G02*
X176295000Y-90355000I-100000J0D01*
G01*
G37*
G36*
G01*
X176945000Y-90355000D02*
X176745000Y-90355000D01*
G75*
G02*
X176645000Y-90255000I0J100000D01*
G01*
X176645000Y-88980000D01*
G75*
G02*
X176745000Y-88880000I100000J0D01*
G01*
X176945000Y-88880000D01*
G75*
G02*
X177045000Y-88980000I0J-100000D01*
G01*
X177045000Y-90255000D01*
G75*
G02*
X176945000Y-90355000I-100000J0D01*
G01*
G37*
G36*
G01*
X177595000Y-90355000D02*
X177395000Y-90355000D01*
G75*
G02*
X177295000Y-90255000I0J100000D01*
G01*
X177295000Y-88980000D01*
G75*
G02*
X177395000Y-88880000I100000J0D01*
G01*
X177595000Y-88880000D01*
G75*
G02*
X177695000Y-88980000I0J-100000D01*
G01*
X177695000Y-90255000D01*
G75*
G02*
X177595000Y-90355000I-100000J0D01*
G01*
G37*
G36*
G01*
X178245000Y-90355000D02*
X178045000Y-90355000D01*
G75*
G02*
X177945000Y-90255000I0J100000D01*
G01*
X177945000Y-88980000D01*
G75*
G02*
X178045000Y-88880000I100000J0D01*
G01*
X178245000Y-88880000D01*
G75*
G02*
X178345000Y-88980000I0J-100000D01*
G01*
X178345000Y-90255000D01*
G75*
G02*
X178245000Y-90355000I-100000J0D01*
G01*
G37*
G36*
G01*
X178895000Y-90355000D02*
X178695000Y-90355000D01*
G75*
G02*
X178595000Y-90255000I0J100000D01*
G01*
X178595000Y-88980000D01*
G75*
G02*
X178695000Y-88880000I100000J0D01*
G01*
X178895000Y-88880000D01*
G75*
G02*
X178995000Y-88980000I0J-100000D01*
G01*
X178995000Y-90255000D01*
G75*
G02*
X178895000Y-90355000I-100000J0D01*
G01*
G37*
G36*
G01*
X179545000Y-90355000D02*
X179345000Y-90355000D01*
G75*
G02*
X179245000Y-90255000I0J100000D01*
G01*
X179245000Y-88980000D01*
G75*
G02*
X179345000Y-88880000I100000J0D01*
G01*
X179545000Y-88880000D01*
G75*
G02*
X179645000Y-88980000I0J-100000D01*
G01*
X179645000Y-90255000D01*
G75*
G02*
X179545000Y-90355000I-100000J0D01*
G01*
G37*
G36*
G01*
X180195000Y-90355000D02*
X179995000Y-90355000D01*
G75*
G02*
X179895000Y-90255000I0J100000D01*
G01*
X179895000Y-88980000D01*
G75*
G02*
X179995000Y-88880000I100000J0D01*
G01*
X180195000Y-88880000D01*
G75*
G02*
X180295000Y-88980000I0J-100000D01*
G01*
X180295000Y-90255000D01*
G75*
G02*
X180195000Y-90355000I-100000J0D01*
G01*
G37*
G36*
G01*
X180845000Y-90355000D02*
X180645000Y-90355000D01*
G75*
G02*
X180545000Y-90255000I0J100000D01*
G01*
X180545000Y-88980000D01*
G75*
G02*
X180645000Y-88880000I100000J0D01*
G01*
X180845000Y-88880000D01*
G75*
G02*
X180945000Y-88980000I0J-100000D01*
G01*
X180945000Y-90255000D01*
G75*
G02*
X180845000Y-90355000I-100000J0D01*
G01*
G37*
G36*
G01*
X181495000Y-90355000D02*
X181295000Y-90355000D01*
G75*
G02*
X181195000Y-90255000I0J100000D01*
G01*
X181195000Y-88980000D01*
G75*
G02*
X181295000Y-88880000I100000J0D01*
G01*
X181495000Y-88880000D01*
G75*
G02*
X181595000Y-88980000I0J-100000D01*
G01*
X181595000Y-90255000D01*
G75*
G02*
X181495000Y-90355000I-100000J0D01*
G01*
G37*
G36*
G01*
X144975000Y-84805000D02*
X144025000Y-84805000D01*
G75*
G02*
X143775000Y-84555000I0J250000D01*
G01*
X143775000Y-83880000D01*
G75*
G02*
X144025000Y-83630000I250000J0D01*
G01*
X144975000Y-83630000D01*
G75*
G02*
X145225000Y-83880000I0J-250000D01*
G01*
X145225000Y-84555000D01*
G75*
G02*
X144975000Y-84805000I-250000J0D01*
G01*
G37*
G36*
G01*
X144975000Y-82730000D02*
X144025000Y-82730000D01*
G75*
G02*
X143775000Y-82480000I0J250000D01*
G01*
X143775000Y-81805000D01*
G75*
G02*
X144025000Y-81555000I250000J0D01*
G01*
X144975000Y-81555000D01*
G75*
G02*
X145225000Y-81805000I0J-250000D01*
G01*
X145225000Y-82480000D01*
G75*
G02*
X144975000Y-82730000I-250000J0D01*
G01*
G37*
G36*
G01*
X141575000Y-91930000D02*
X140625000Y-91930000D01*
G75*
G02*
X140375000Y-91680000I0J250000D01*
G01*
X140375000Y-91005000D01*
G75*
G02*
X140625000Y-90755000I250000J0D01*
G01*
X141575000Y-90755000D01*
G75*
G02*
X141825000Y-91005000I0J-250000D01*
G01*
X141825000Y-91680000D01*
G75*
G02*
X141575000Y-91930000I-250000J0D01*
G01*
G37*
G36*
G01*
X141575000Y-94005000D02*
X140625000Y-94005000D01*
G75*
G02*
X140375000Y-93755000I0J250000D01*
G01*
X140375000Y-93080000D01*
G75*
G02*
X140625000Y-92830000I250000J0D01*
G01*
X141575000Y-92830000D01*
G75*
G02*
X141825000Y-93080000I0J-250000D01*
G01*
X141825000Y-93755000D01*
G75*
G02*
X141575000Y-94005000I-250000J0D01*
G01*
G37*
G36*
G01*
X115032500Y-140155000D02*
X115032500Y-139205000D01*
G75*
G02*
X115282500Y-138955000I250000J0D01*
G01*
X115957500Y-138955000D01*
G75*
G02*
X116207500Y-139205000I0J-250000D01*
G01*
X116207500Y-140155000D01*
G75*
G02*
X115957500Y-140405000I-250000J0D01*
G01*
X115282500Y-140405000D01*
G75*
G02*
X115032500Y-140155000I0J250000D01*
G01*
G37*
G36*
G01*
X117107500Y-140155000D02*
X117107500Y-139205000D01*
G75*
G02*
X117357500Y-138955000I250000J0D01*
G01*
X118032500Y-138955000D01*
G75*
G02*
X118282500Y-139205000I0J-250000D01*
G01*
X118282500Y-140155000D01*
G75*
G02*
X118032500Y-140405000I-250000J0D01*
G01*
X117357500Y-140405000D01*
G75*
G02*
X117107500Y-140155000I0J250000D01*
G01*
G37*
G36*
G01*
X120195000Y-140155000D02*
X120195000Y-139205000D01*
G75*
G02*
X120445000Y-138955000I250000J0D01*
G01*
X121120000Y-138955000D01*
G75*
G02*
X121370000Y-139205000I0J-250000D01*
G01*
X121370000Y-140155000D01*
G75*
G02*
X121120000Y-140405000I-250000J0D01*
G01*
X120445000Y-140405000D01*
G75*
G02*
X120195000Y-140155000I0J250000D01*
G01*
G37*
G36*
G01*
X122270000Y-140155000D02*
X122270000Y-139205000D01*
G75*
G02*
X122520000Y-138955000I250000J0D01*
G01*
X123195000Y-138955000D01*
G75*
G02*
X123445000Y-139205000I0J-250000D01*
G01*
X123445000Y-140155000D01*
G75*
G02*
X123195000Y-140405000I-250000J0D01*
G01*
X122520000Y-140405000D01*
G75*
G02*
X122270000Y-140155000I0J250000D01*
G01*
G37*
G36*
G01*
X124632500Y-140155000D02*
X124632500Y-139205000D01*
G75*
G02*
X124882500Y-138955000I250000J0D01*
G01*
X125557500Y-138955000D01*
G75*
G02*
X125807500Y-139205000I0J-250000D01*
G01*
X125807500Y-140155000D01*
G75*
G02*
X125557500Y-140405000I-250000J0D01*
G01*
X124882500Y-140405000D01*
G75*
G02*
X124632500Y-140155000I0J250000D01*
G01*
G37*
G36*
G01*
X126707500Y-140155000D02*
X126707500Y-139205000D01*
G75*
G02*
X126957500Y-138955000I250000J0D01*
G01*
X127632500Y-138955000D01*
G75*
G02*
X127882500Y-139205000I0J-250000D01*
G01*
X127882500Y-140155000D01*
G75*
G02*
X127632500Y-140405000I-250000J0D01*
G01*
X126957500Y-140405000D01*
G75*
G02*
X126707500Y-140155000I0J250000D01*
G01*
G37*
G36*
G01*
X131832500Y-140155000D02*
X131832500Y-139205000D01*
G75*
G02*
X132082500Y-138955000I250000J0D01*
G01*
X132757500Y-138955000D01*
G75*
G02*
X133007500Y-139205000I0J-250000D01*
G01*
X133007500Y-140155000D01*
G75*
G02*
X132757500Y-140405000I-250000J0D01*
G01*
X132082500Y-140405000D01*
G75*
G02*
X131832500Y-140155000I0J250000D01*
G01*
G37*
G36*
G01*
X129757500Y-140155000D02*
X129757500Y-139205000D01*
G75*
G02*
X130007500Y-138955000I250000J0D01*
G01*
X130682500Y-138955000D01*
G75*
G02*
X130932500Y-139205000I0J-250000D01*
G01*
X130932500Y-140155000D01*
G75*
G02*
X130682500Y-140405000I-250000J0D01*
G01*
X130007500Y-140405000D01*
G75*
G02*
X129757500Y-140155000I0J250000D01*
G01*
G37*
G36*
G01*
X135295000Y-140155000D02*
X135295000Y-139205000D01*
G75*
G02*
X135545000Y-138955000I250000J0D01*
G01*
X136220000Y-138955000D01*
G75*
G02*
X136470000Y-139205000I0J-250000D01*
G01*
X136470000Y-140155000D01*
G75*
G02*
X136220000Y-140405000I-250000J0D01*
G01*
X135545000Y-140405000D01*
G75*
G02*
X135295000Y-140155000I0J250000D01*
G01*
G37*
G36*
G01*
X137370000Y-140155000D02*
X137370000Y-139205000D01*
G75*
G02*
X137620000Y-138955000I250000J0D01*
G01*
X138295000Y-138955000D01*
G75*
G02*
X138545000Y-139205000I0J-250000D01*
G01*
X138545000Y-140155000D01*
G75*
G02*
X138295000Y-140405000I-250000J0D01*
G01*
X137620000Y-140405000D01*
G75*
G02*
X137370000Y-140155000I0J250000D01*
G01*
G37*
G36*
G01*
X142570000Y-140155000D02*
X142570000Y-139205000D01*
G75*
G02*
X142820000Y-138955000I250000J0D01*
G01*
X143495000Y-138955000D01*
G75*
G02*
X143745000Y-139205000I0J-250000D01*
G01*
X143745000Y-140155000D01*
G75*
G02*
X143495000Y-140405000I-250000J0D01*
G01*
X142820000Y-140405000D01*
G75*
G02*
X142570000Y-140155000I0J250000D01*
G01*
G37*
G36*
G01*
X140495000Y-140155000D02*
X140495000Y-139205000D01*
G75*
G02*
X140745000Y-138955000I250000J0D01*
G01*
X141420000Y-138955000D01*
G75*
G02*
X141670000Y-139205000I0J-250000D01*
G01*
X141670000Y-140155000D01*
G75*
G02*
X141420000Y-140405000I-250000J0D01*
G01*
X140745000Y-140405000D01*
G75*
G02*
X140495000Y-140155000I0J250000D01*
G01*
G37*
G36*
G01*
X147670000Y-140155000D02*
X147670000Y-139205000D01*
G75*
G02*
X147920000Y-138955000I250000J0D01*
G01*
X148595000Y-138955000D01*
G75*
G02*
X148845000Y-139205000I0J-250000D01*
G01*
X148845000Y-140155000D01*
G75*
G02*
X148595000Y-140405000I-250000J0D01*
G01*
X147920000Y-140405000D01*
G75*
G02*
X147670000Y-140155000I0J250000D01*
G01*
G37*
G36*
G01*
X145595000Y-140155000D02*
X145595000Y-139205000D01*
G75*
G02*
X145845000Y-138955000I250000J0D01*
G01*
X146520000Y-138955000D01*
G75*
G02*
X146770000Y-139205000I0J-250000D01*
G01*
X146770000Y-140155000D01*
G75*
G02*
X146520000Y-140405000I-250000J0D01*
G01*
X145845000Y-140405000D01*
G75*
G02*
X145595000Y-140155000I0J250000D01*
G01*
G37*
G36*
G01*
X152570000Y-140155000D02*
X152570000Y-139205000D01*
G75*
G02*
X152820000Y-138955000I250000J0D01*
G01*
X153495000Y-138955000D01*
G75*
G02*
X153745000Y-139205000I0J-250000D01*
G01*
X153745000Y-140155000D01*
G75*
G02*
X153495000Y-140405000I-250000J0D01*
G01*
X152820000Y-140405000D01*
G75*
G02*
X152570000Y-140155000I0J250000D01*
G01*
G37*
G36*
G01*
X150495000Y-140155000D02*
X150495000Y-139205000D01*
G75*
G02*
X150745000Y-138955000I250000J0D01*
G01*
X151420000Y-138955000D01*
G75*
G02*
X151670000Y-139205000I0J-250000D01*
G01*
X151670000Y-140155000D01*
G75*
G02*
X151420000Y-140405000I-250000J0D01*
G01*
X150745000Y-140405000D01*
G75*
G02*
X150495000Y-140155000I0J250000D01*
G01*
G37*
D15*
X101955000Y-115880000D03*
X103855000Y-115880000D03*
X102905000Y-117880000D03*
X110591000Y-115880000D03*
X112491000Y-115880000D03*
X111541000Y-117880000D03*
X120304000Y-117880000D03*
X121254000Y-115880000D03*
X119354000Y-115880000D03*
X128686000Y-117880000D03*
X129636000Y-115880000D03*
X127736000Y-115880000D03*
X137195000Y-117880000D03*
X138145000Y-115880000D03*
X136245000Y-115880000D03*
X144815000Y-115880000D03*
X146715000Y-115880000D03*
X145765000Y-117880000D03*
X153470000Y-115862000D03*
X155370000Y-115862000D03*
X154420000Y-117862000D03*
X162820000Y-117880000D03*
X163770000Y-115880000D03*
X161870000Y-115880000D03*
G36*
G01*
X100420000Y-124330001D02*
X100420000Y-123429999D01*
G75*
G02*
X100669999Y-123180000I249999J0D01*
G01*
X101370001Y-123180000D01*
G75*
G02*
X101620000Y-123429999I0J-249999D01*
G01*
X101620000Y-124330001D01*
G75*
G02*
X101370001Y-124580000I-249999J0D01*
G01*
X100669999Y-124580000D01*
G75*
G02*
X100420000Y-124330001I0J249999D01*
G01*
G37*
G36*
G01*
X98420000Y-124330001D02*
X98420000Y-123429999D01*
G75*
G02*
X98669999Y-123180000I249999J0D01*
G01*
X99370001Y-123180000D01*
G75*
G02*
X99620000Y-123429999I0J-249999D01*
G01*
X99620000Y-124330001D01*
G75*
G02*
X99370001Y-124580000I-249999J0D01*
G01*
X98669999Y-124580000D01*
G75*
G02*
X98420000Y-124330001I0J249999D01*
G01*
G37*
G36*
G01*
X107220000Y-124330001D02*
X107220000Y-123429999D01*
G75*
G02*
X107469999Y-123180000I249999J0D01*
G01*
X108170001Y-123180000D01*
G75*
G02*
X108420000Y-123429999I0J-249999D01*
G01*
X108420000Y-124330001D01*
G75*
G02*
X108170001Y-124580000I-249999J0D01*
G01*
X107469999Y-124580000D01*
G75*
G02*
X107220000Y-124330001I0J249999D01*
G01*
G37*
G36*
G01*
X109220000Y-124330001D02*
X109220000Y-123429999D01*
G75*
G02*
X109469999Y-123180000I249999J0D01*
G01*
X110170001Y-123180000D01*
G75*
G02*
X110420000Y-123429999I0J-249999D01*
G01*
X110420000Y-124330001D01*
G75*
G02*
X110170001Y-124580000I-249999J0D01*
G01*
X109469999Y-124580000D01*
G75*
G02*
X109220000Y-124330001I0J249999D01*
G01*
G37*
G36*
G01*
X115020000Y-137930001D02*
X115020000Y-137029999D01*
G75*
G02*
X115269999Y-136780000I249999J0D01*
G01*
X115970001Y-136780000D01*
G75*
G02*
X116220000Y-137029999I0J-249999D01*
G01*
X116220000Y-137930001D01*
G75*
G02*
X115970001Y-138180000I-249999J0D01*
G01*
X115269999Y-138180000D01*
G75*
G02*
X115020000Y-137930001I0J249999D01*
G01*
G37*
G36*
G01*
X117020000Y-137930001D02*
X117020000Y-137029999D01*
G75*
G02*
X117269999Y-136780000I249999J0D01*
G01*
X117970001Y-136780000D01*
G75*
G02*
X118220000Y-137029999I0J-249999D01*
G01*
X118220000Y-137930001D01*
G75*
G02*
X117970001Y-138180000I-249999J0D01*
G01*
X117269999Y-138180000D01*
G75*
G02*
X117020000Y-137930001I0J249999D01*
G01*
G37*
G36*
G01*
X120220000Y-137930001D02*
X120220000Y-137029999D01*
G75*
G02*
X120469999Y-136780000I249999J0D01*
G01*
X121170001Y-136780000D01*
G75*
G02*
X121420000Y-137029999I0J-249999D01*
G01*
X121420000Y-137930001D01*
G75*
G02*
X121170001Y-138180000I-249999J0D01*
G01*
X120469999Y-138180000D01*
G75*
G02*
X120220000Y-137930001I0J249999D01*
G01*
G37*
G36*
G01*
X122220000Y-137930001D02*
X122220000Y-137029999D01*
G75*
G02*
X122469999Y-136780000I249999J0D01*
G01*
X123170001Y-136780000D01*
G75*
G02*
X123420000Y-137029999I0J-249999D01*
G01*
X123420000Y-137930001D01*
G75*
G02*
X123170001Y-138180000I-249999J0D01*
G01*
X122469999Y-138180000D01*
G75*
G02*
X122220000Y-137930001I0J249999D01*
G01*
G37*
G36*
G01*
X103420000Y-110530001D02*
X103420000Y-109629999D01*
G75*
G02*
X103669999Y-109380000I249999J0D01*
G01*
X104370001Y-109380000D01*
G75*
G02*
X104620000Y-109629999I0J-249999D01*
G01*
X104620000Y-110530001D01*
G75*
G02*
X104370001Y-110780000I-249999J0D01*
G01*
X103669999Y-110780000D01*
G75*
G02*
X103420000Y-110530001I0J249999D01*
G01*
G37*
G36*
G01*
X105420000Y-110530001D02*
X105420000Y-109629999D01*
G75*
G02*
X105669999Y-109380000I249999J0D01*
G01*
X106370001Y-109380000D01*
G75*
G02*
X106620000Y-109629999I0J-249999D01*
G01*
X106620000Y-110530001D01*
G75*
G02*
X106370001Y-110780000I-249999J0D01*
G01*
X105669999Y-110780000D01*
G75*
G02*
X105420000Y-110530001I0J249999D01*
G01*
G37*
G36*
G01*
X102320000Y-109629999D02*
X102320000Y-110530001D01*
G75*
G02*
X102070001Y-110780000I-249999J0D01*
G01*
X101369999Y-110780000D01*
G75*
G02*
X101120000Y-110530001I0J249999D01*
G01*
X101120000Y-109629999D01*
G75*
G02*
X101369999Y-109380000I249999J0D01*
G01*
X102070001Y-109380000D01*
G75*
G02*
X102320000Y-109629999I0J-249999D01*
G01*
G37*
G36*
G01*
X100320000Y-109629999D02*
X100320000Y-110530001D01*
G75*
G02*
X100070001Y-110780000I-249999J0D01*
G01*
X99369999Y-110780000D01*
G75*
G02*
X99120000Y-110530001I0J249999D01*
G01*
X99120000Y-109629999D01*
G75*
G02*
X99369999Y-109380000I249999J0D01*
G01*
X100070001Y-109380000D01*
G75*
G02*
X100320000Y-109629999I0J-249999D01*
G01*
G37*
G36*
G01*
X114220000Y-110530001D02*
X114220000Y-109629999D01*
G75*
G02*
X114469999Y-109380000I249999J0D01*
G01*
X115170001Y-109380000D01*
G75*
G02*
X115420000Y-109629999I0J-249999D01*
G01*
X115420000Y-110530001D01*
G75*
G02*
X115170001Y-110780000I-249999J0D01*
G01*
X114469999Y-110780000D01*
G75*
G02*
X114220000Y-110530001I0J249999D01*
G01*
G37*
G36*
G01*
X112220000Y-110530001D02*
X112220000Y-109629999D01*
G75*
G02*
X112469999Y-109380000I249999J0D01*
G01*
X113170001Y-109380000D01*
G75*
G02*
X113420000Y-109629999I0J-249999D01*
G01*
X113420000Y-110530001D01*
G75*
G02*
X113170001Y-110780000I-249999J0D01*
G01*
X112469999Y-110780000D01*
G75*
G02*
X112220000Y-110530001I0J249999D01*
G01*
G37*
G36*
G01*
X109020000Y-109629999D02*
X109020000Y-110530001D01*
G75*
G02*
X108770001Y-110780000I-249999J0D01*
G01*
X108069999Y-110780000D01*
G75*
G02*
X107820000Y-110530001I0J249999D01*
G01*
X107820000Y-109629999D01*
G75*
G02*
X108069999Y-109380000I249999J0D01*
G01*
X108770001Y-109380000D01*
G75*
G02*
X109020000Y-109629999I0J-249999D01*
G01*
G37*
G36*
G01*
X111020000Y-109629999D02*
X111020000Y-110530001D01*
G75*
G02*
X110770001Y-110780000I-249999J0D01*
G01*
X110069999Y-110780000D01*
G75*
G02*
X109820000Y-110530001I0J249999D01*
G01*
X109820000Y-109629999D01*
G75*
G02*
X110069999Y-109380000I249999J0D01*
G01*
X110770001Y-109380000D01*
G75*
G02*
X111020000Y-109629999I0J-249999D01*
G01*
G37*
G36*
G01*
X115820000Y-124330001D02*
X115820000Y-123429999D01*
G75*
G02*
X116069999Y-123180000I249999J0D01*
G01*
X116770001Y-123180000D01*
G75*
G02*
X117020000Y-123429999I0J-249999D01*
G01*
X117020000Y-124330001D01*
G75*
G02*
X116770001Y-124580000I-249999J0D01*
G01*
X116069999Y-124580000D01*
G75*
G02*
X115820000Y-124330001I0J249999D01*
G01*
G37*
G36*
G01*
X117820000Y-124330001D02*
X117820000Y-123429999D01*
G75*
G02*
X118069999Y-123180000I249999J0D01*
G01*
X118770001Y-123180000D01*
G75*
G02*
X119020000Y-123429999I0J-249999D01*
G01*
X119020000Y-124330001D01*
G75*
G02*
X118770001Y-124580000I-249999J0D01*
G01*
X118069999Y-124580000D01*
G75*
G02*
X117820000Y-124330001I0J249999D01*
G01*
G37*
G36*
G01*
X126220000Y-124330001D02*
X126220000Y-123429999D01*
G75*
G02*
X126469999Y-123180000I249999J0D01*
G01*
X127170001Y-123180000D01*
G75*
G02*
X127420000Y-123429999I0J-249999D01*
G01*
X127420000Y-124330001D01*
G75*
G02*
X127170001Y-124580000I-249999J0D01*
G01*
X126469999Y-124580000D01*
G75*
G02*
X126220000Y-124330001I0J249999D01*
G01*
G37*
G36*
G01*
X124220000Y-124330001D02*
X124220000Y-123429999D01*
G75*
G02*
X124469999Y-123180000I249999J0D01*
G01*
X125170001Y-123180000D01*
G75*
G02*
X125420000Y-123429999I0J-249999D01*
G01*
X125420000Y-124330001D01*
G75*
G02*
X125170001Y-124580000I-249999J0D01*
G01*
X124469999Y-124580000D01*
G75*
G02*
X124220000Y-124330001I0J249999D01*
G01*
G37*
G36*
G01*
X126620000Y-137930001D02*
X126620000Y-137029999D01*
G75*
G02*
X126869999Y-136780000I249999J0D01*
G01*
X127570001Y-136780000D01*
G75*
G02*
X127820000Y-137029999I0J-249999D01*
G01*
X127820000Y-137930001D01*
G75*
G02*
X127570001Y-138180000I-249999J0D01*
G01*
X126869999Y-138180000D01*
G75*
G02*
X126620000Y-137930001I0J249999D01*
G01*
G37*
G36*
G01*
X124620000Y-137930001D02*
X124620000Y-137029999D01*
G75*
G02*
X124869999Y-136780000I249999J0D01*
G01*
X125570001Y-136780000D01*
G75*
G02*
X125820000Y-137029999I0J-249999D01*
G01*
X125820000Y-137930001D01*
G75*
G02*
X125570001Y-138180000I-249999J0D01*
G01*
X124869999Y-138180000D01*
G75*
G02*
X124620000Y-137930001I0J249999D01*
G01*
G37*
G36*
G01*
X131820000Y-138030001D02*
X131820000Y-137129999D01*
G75*
G02*
X132069999Y-136880000I249999J0D01*
G01*
X132770001Y-136880000D01*
G75*
G02*
X133020000Y-137129999I0J-249999D01*
G01*
X133020000Y-138030001D01*
G75*
G02*
X132770001Y-138280000I-249999J0D01*
G01*
X132069999Y-138280000D01*
G75*
G02*
X131820000Y-138030001I0J249999D01*
G01*
G37*
G36*
G01*
X129820000Y-138030001D02*
X129820000Y-137129999D01*
G75*
G02*
X130069999Y-136880000I249999J0D01*
G01*
X130770001Y-136880000D01*
G75*
G02*
X131020000Y-137129999I0J-249999D01*
G01*
X131020000Y-138030001D01*
G75*
G02*
X130770001Y-138280000I-249999J0D01*
G01*
X130069999Y-138280000D01*
G75*
G02*
X129820000Y-138030001I0J249999D01*
G01*
G37*
G36*
G01*
X120820000Y-110530001D02*
X120820000Y-109629999D01*
G75*
G02*
X121069999Y-109380000I249999J0D01*
G01*
X121770001Y-109380000D01*
G75*
G02*
X122020000Y-109629999I0J-249999D01*
G01*
X122020000Y-110530001D01*
G75*
G02*
X121770001Y-110780000I-249999J0D01*
G01*
X121069999Y-110780000D01*
G75*
G02*
X120820000Y-110530001I0J249999D01*
G01*
G37*
G36*
G01*
X122820000Y-110530001D02*
X122820000Y-109629999D01*
G75*
G02*
X123069999Y-109380000I249999J0D01*
G01*
X123770001Y-109380000D01*
G75*
G02*
X124020000Y-109629999I0J-249999D01*
G01*
X124020000Y-110530001D01*
G75*
G02*
X123770001Y-110780000I-249999J0D01*
G01*
X123069999Y-110780000D01*
G75*
G02*
X122820000Y-110530001I0J249999D01*
G01*
G37*
G36*
G01*
X117820000Y-109629999D02*
X117820000Y-110530001D01*
G75*
G02*
X117570001Y-110780000I-249999J0D01*
G01*
X116869999Y-110780000D01*
G75*
G02*
X116620000Y-110530001I0J249999D01*
G01*
X116620000Y-109629999D01*
G75*
G02*
X116869999Y-109380000I249999J0D01*
G01*
X117570001Y-109380000D01*
G75*
G02*
X117820000Y-109629999I0J-249999D01*
G01*
G37*
G36*
G01*
X119820000Y-109629999D02*
X119820000Y-110530001D01*
G75*
G02*
X119570001Y-110780000I-249999J0D01*
G01*
X118869999Y-110780000D01*
G75*
G02*
X118620000Y-110530001I0J249999D01*
G01*
X118620000Y-109629999D01*
G75*
G02*
X118869999Y-109380000I249999J0D01*
G01*
X119570001Y-109380000D01*
G75*
G02*
X119820000Y-109629999I0J-249999D01*
G01*
G37*
G36*
G01*
X129220000Y-110530001D02*
X129220000Y-109629999D01*
G75*
G02*
X129469999Y-109380000I249999J0D01*
G01*
X130170001Y-109380000D01*
G75*
G02*
X130420000Y-109629999I0J-249999D01*
G01*
X130420000Y-110530001D01*
G75*
G02*
X130170001Y-110780000I-249999J0D01*
G01*
X129469999Y-110780000D01*
G75*
G02*
X129220000Y-110530001I0J249999D01*
G01*
G37*
G36*
G01*
X131220000Y-110530001D02*
X131220000Y-109629999D01*
G75*
G02*
X131469999Y-109380000I249999J0D01*
G01*
X132170001Y-109380000D01*
G75*
G02*
X132420000Y-109629999I0J-249999D01*
G01*
X132420000Y-110530001D01*
G75*
G02*
X132170001Y-110780000I-249999J0D01*
G01*
X131469999Y-110780000D01*
G75*
G02*
X131220000Y-110530001I0J249999D01*
G01*
G37*
G36*
G01*
X128220000Y-109629999D02*
X128220000Y-110530001D01*
G75*
G02*
X127970001Y-110780000I-249999J0D01*
G01*
X127269999Y-110780000D01*
G75*
G02*
X127020000Y-110530001I0J249999D01*
G01*
X127020000Y-109629999D01*
G75*
G02*
X127269999Y-109380000I249999J0D01*
G01*
X127970001Y-109380000D01*
G75*
G02*
X128220000Y-109629999I0J-249999D01*
G01*
G37*
G36*
G01*
X126220000Y-109629999D02*
X126220000Y-110530001D01*
G75*
G02*
X125970001Y-110780000I-249999J0D01*
G01*
X125269999Y-110780000D01*
G75*
G02*
X125020000Y-110530001I0J249999D01*
G01*
X125020000Y-109629999D01*
G75*
G02*
X125269999Y-109380000I249999J0D01*
G01*
X125970001Y-109380000D01*
G75*
G02*
X126220000Y-109629999I0J-249999D01*
G01*
G37*
G36*
G01*
X132720000Y-124330001D02*
X132720000Y-123429999D01*
G75*
G02*
X132969999Y-123180000I249999J0D01*
G01*
X133670001Y-123180000D01*
G75*
G02*
X133920000Y-123429999I0J-249999D01*
G01*
X133920000Y-124330001D01*
G75*
G02*
X133670001Y-124580000I-249999J0D01*
G01*
X132969999Y-124580000D01*
G75*
G02*
X132720000Y-124330001I0J249999D01*
G01*
G37*
G36*
G01*
X134720000Y-124330001D02*
X134720000Y-123429999D01*
G75*
G02*
X134969999Y-123180000I249999J0D01*
G01*
X135670001Y-123180000D01*
G75*
G02*
X135920000Y-123429999I0J-249999D01*
G01*
X135920000Y-124330001D01*
G75*
G02*
X135670001Y-124580000I-249999J0D01*
G01*
X134969999Y-124580000D01*
G75*
G02*
X134720000Y-124330001I0J249999D01*
G01*
G37*
G36*
G01*
X143320000Y-124330001D02*
X143320000Y-123429999D01*
G75*
G02*
X143569999Y-123180000I249999J0D01*
G01*
X144270001Y-123180000D01*
G75*
G02*
X144520000Y-123429999I0J-249999D01*
G01*
X144520000Y-124330001D01*
G75*
G02*
X144270001Y-124580000I-249999J0D01*
G01*
X143569999Y-124580000D01*
G75*
G02*
X143320000Y-124330001I0J249999D01*
G01*
G37*
G36*
G01*
X141320000Y-124330001D02*
X141320000Y-123429999D01*
G75*
G02*
X141569999Y-123180000I249999J0D01*
G01*
X142270001Y-123180000D01*
G75*
G02*
X142520000Y-123429999I0J-249999D01*
G01*
X142520000Y-124330001D01*
G75*
G02*
X142270001Y-124580000I-249999J0D01*
G01*
X141569999Y-124580000D01*
G75*
G02*
X141320000Y-124330001I0J249999D01*
G01*
G37*
G36*
G01*
X135320000Y-138030001D02*
X135320000Y-137129999D01*
G75*
G02*
X135569999Y-136880000I249999J0D01*
G01*
X136270001Y-136880000D01*
G75*
G02*
X136520000Y-137129999I0J-249999D01*
G01*
X136520000Y-138030001D01*
G75*
G02*
X136270001Y-138280000I-249999J0D01*
G01*
X135569999Y-138280000D01*
G75*
G02*
X135320000Y-138030001I0J249999D01*
G01*
G37*
G36*
G01*
X137320000Y-138030001D02*
X137320000Y-137129999D01*
G75*
G02*
X137569999Y-136880000I249999J0D01*
G01*
X138270001Y-136880000D01*
G75*
G02*
X138520000Y-137129999I0J-249999D01*
G01*
X138520000Y-138030001D01*
G75*
G02*
X138270001Y-138280000I-249999J0D01*
G01*
X137569999Y-138280000D01*
G75*
G02*
X137320000Y-138030001I0J249999D01*
G01*
G37*
G36*
G01*
X140520000Y-137930001D02*
X140520000Y-137029999D01*
G75*
G02*
X140769999Y-136780000I249999J0D01*
G01*
X141470001Y-136780000D01*
G75*
G02*
X141720000Y-137029999I0J-249999D01*
G01*
X141720000Y-137930001D01*
G75*
G02*
X141470001Y-138180000I-249999J0D01*
G01*
X140769999Y-138180000D01*
G75*
G02*
X140520000Y-137930001I0J249999D01*
G01*
G37*
G36*
G01*
X142520000Y-137930001D02*
X142520000Y-137029999D01*
G75*
G02*
X142769999Y-136780000I249999J0D01*
G01*
X143470001Y-136780000D01*
G75*
G02*
X143720000Y-137029999I0J-249999D01*
G01*
X143720000Y-137930001D01*
G75*
G02*
X143470001Y-138180000I-249999J0D01*
G01*
X142769999Y-138180000D01*
G75*
G02*
X142520000Y-137930001I0J249999D01*
G01*
G37*
G36*
G01*
X139820000Y-110530001D02*
X139820000Y-109629999D01*
G75*
G02*
X140069999Y-109380000I249999J0D01*
G01*
X140770001Y-109380000D01*
G75*
G02*
X141020000Y-109629999I0J-249999D01*
G01*
X141020000Y-110530001D01*
G75*
G02*
X140770001Y-110780000I-249999J0D01*
G01*
X140069999Y-110780000D01*
G75*
G02*
X139820000Y-110530001I0J249999D01*
G01*
G37*
G36*
G01*
X137820000Y-110530001D02*
X137820000Y-109629999D01*
G75*
G02*
X138069999Y-109380000I249999J0D01*
G01*
X138770001Y-109380000D01*
G75*
G02*
X139020000Y-109629999I0J-249999D01*
G01*
X139020000Y-110530001D01*
G75*
G02*
X138770001Y-110780000I-249999J0D01*
G01*
X138069999Y-110780000D01*
G75*
G02*
X137820000Y-110530001I0J249999D01*
G01*
G37*
G36*
G01*
X134620000Y-109629999D02*
X134620000Y-110530001D01*
G75*
G02*
X134370001Y-110780000I-249999J0D01*
G01*
X133669999Y-110780000D01*
G75*
G02*
X133420000Y-110530001I0J249999D01*
G01*
X133420000Y-109629999D01*
G75*
G02*
X133669999Y-109380000I249999J0D01*
G01*
X134370001Y-109380000D01*
G75*
G02*
X134620000Y-109629999I0J-249999D01*
G01*
G37*
G36*
G01*
X136620000Y-109629999D02*
X136620000Y-110530001D01*
G75*
G02*
X136370001Y-110780000I-249999J0D01*
G01*
X135669999Y-110780000D01*
G75*
G02*
X135420000Y-110530001I0J249999D01*
G01*
X135420000Y-109629999D01*
G75*
G02*
X135669999Y-109380000I249999J0D01*
G01*
X136370001Y-109380000D01*
G75*
G02*
X136620000Y-109629999I0J-249999D01*
G01*
G37*
G36*
G01*
X148320000Y-110530001D02*
X148320000Y-109629999D01*
G75*
G02*
X148569999Y-109380000I249999J0D01*
G01*
X149270001Y-109380000D01*
G75*
G02*
X149520000Y-109629999I0J-249999D01*
G01*
X149520000Y-110530001D01*
G75*
G02*
X149270001Y-110780000I-249999J0D01*
G01*
X148569999Y-110780000D01*
G75*
G02*
X148320000Y-110530001I0J249999D01*
G01*
G37*
G36*
G01*
X146320000Y-110530001D02*
X146320000Y-109629999D01*
G75*
G02*
X146569999Y-109380000I249999J0D01*
G01*
X147270001Y-109380000D01*
G75*
G02*
X147520000Y-109629999I0J-249999D01*
G01*
X147520000Y-110530001D01*
G75*
G02*
X147270001Y-110780000I-249999J0D01*
G01*
X146569999Y-110780000D01*
G75*
G02*
X146320000Y-110530001I0J249999D01*
G01*
G37*
G36*
G01*
X145220000Y-109629999D02*
X145220000Y-110530001D01*
G75*
G02*
X144970001Y-110780000I-249999J0D01*
G01*
X144269999Y-110780000D01*
G75*
G02*
X144020000Y-110530001I0J249999D01*
G01*
X144020000Y-109629999D01*
G75*
G02*
X144269999Y-109380000I249999J0D01*
G01*
X144970001Y-109380000D01*
G75*
G02*
X145220000Y-109629999I0J-249999D01*
G01*
G37*
G36*
G01*
X143220000Y-109629999D02*
X143220000Y-110530001D01*
G75*
G02*
X142970001Y-110780000I-249999J0D01*
G01*
X142269999Y-110780000D01*
G75*
G02*
X142020000Y-110530001I0J249999D01*
G01*
X142020000Y-109629999D01*
G75*
G02*
X142269999Y-109380000I249999J0D01*
G01*
X142970001Y-109380000D01*
G75*
G02*
X143220000Y-109629999I0J-249999D01*
G01*
G37*
G36*
G01*
X149970000Y-124330001D02*
X149970000Y-123429999D01*
G75*
G02*
X150219999Y-123180000I249999J0D01*
G01*
X150920001Y-123180000D01*
G75*
G02*
X151170000Y-123429999I0J-249999D01*
G01*
X151170000Y-124330001D01*
G75*
G02*
X150920001Y-124580000I-249999J0D01*
G01*
X150219999Y-124580000D01*
G75*
G02*
X149970000Y-124330001I0J249999D01*
G01*
G37*
G36*
G01*
X151970000Y-124330001D02*
X151970000Y-123429999D01*
G75*
G02*
X152219999Y-123180000I249999J0D01*
G01*
X152920001Y-123180000D01*
G75*
G02*
X153170000Y-123429999I0J-249999D01*
G01*
X153170000Y-124330001D01*
G75*
G02*
X152920001Y-124580000I-249999J0D01*
G01*
X152219999Y-124580000D01*
G75*
G02*
X151970000Y-124330001I0J249999D01*
G01*
G37*
G36*
G01*
X160520000Y-124330001D02*
X160520000Y-123429999D01*
G75*
G02*
X160769999Y-123180000I249999J0D01*
G01*
X161470001Y-123180000D01*
G75*
G02*
X161720000Y-123429999I0J-249999D01*
G01*
X161720000Y-124330001D01*
G75*
G02*
X161470001Y-124580000I-249999J0D01*
G01*
X160769999Y-124580000D01*
G75*
G02*
X160520000Y-124330001I0J249999D01*
G01*
G37*
G36*
G01*
X158520000Y-124330001D02*
X158520000Y-123429999D01*
G75*
G02*
X158769999Y-123180000I249999J0D01*
G01*
X159470001Y-123180000D01*
G75*
G02*
X159720000Y-123429999I0J-249999D01*
G01*
X159720000Y-124330001D01*
G75*
G02*
X159470001Y-124580000I-249999J0D01*
G01*
X158769999Y-124580000D01*
G75*
G02*
X158520000Y-124330001I0J249999D01*
G01*
G37*
G36*
G01*
X147620000Y-138030001D02*
X147620000Y-137129999D01*
G75*
G02*
X147869999Y-136880000I249999J0D01*
G01*
X148570001Y-136880000D01*
G75*
G02*
X148820000Y-137129999I0J-249999D01*
G01*
X148820000Y-138030001D01*
G75*
G02*
X148570001Y-138280000I-249999J0D01*
G01*
X147869999Y-138280000D01*
G75*
G02*
X147620000Y-138030001I0J249999D01*
G01*
G37*
G36*
G01*
X145620000Y-138030001D02*
X145620000Y-137129999D01*
G75*
G02*
X145869999Y-136880000I249999J0D01*
G01*
X146570001Y-136880000D01*
G75*
G02*
X146820000Y-137129999I0J-249999D01*
G01*
X146820000Y-138030001D01*
G75*
G02*
X146570001Y-138280000I-249999J0D01*
G01*
X145869999Y-138280000D01*
G75*
G02*
X145620000Y-138030001I0J249999D01*
G01*
G37*
G36*
G01*
X152520000Y-138030001D02*
X152520000Y-137129999D01*
G75*
G02*
X152769999Y-136880000I249999J0D01*
G01*
X153470001Y-136880000D01*
G75*
G02*
X153720000Y-137129999I0J-249999D01*
G01*
X153720000Y-138030001D01*
G75*
G02*
X153470001Y-138280000I-249999J0D01*
G01*
X152769999Y-138280000D01*
G75*
G02*
X152520000Y-138030001I0J249999D01*
G01*
G37*
G36*
G01*
X150520000Y-138030001D02*
X150520000Y-137129999D01*
G75*
G02*
X150769999Y-136880000I249999J0D01*
G01*
X151470001Y-136880000D01*
G75*
G02*
X151720000Y-137129999I0J-249999D01*
G01*
X151720000Y-138030001D01*
G75*
G02*
X151470001Y-138280000I-249999J0D01*
G01*
X150769999Y-138280000D01*
G75*
G02*
X150520000Y-138030001I0J249999D01*
G01*
G37*
G36*
G01*
X154720000Y-110530001D02*
X154720000Y-109629999D01*
G75*
G02*
X154969999Y-109380000I249999J0D01*
G01*
X155670001Y-109380000D01*
G75*
G02*
X155920000Y-109629999I0J-249999D01*
G01*
X155920000Y-110530001D01*
G75*
G02*
X155670001Y-110780000I-249999J0D01*
G01*
X154969999Y-110780000D01*
G75*
G02*
X154720000Y-110530001I0J249999D01*
G01*
G37*
G36*
G01*
X156720000Y-110530001D02*
X156720000Y-109629999D01*
G75*
G02*
X156969999Y-109380000I249999J0D01*
G01*
X157670001Y-109380000D01*
G75*
G02*
X157920000Y-109629999I0J-249999D01*
G01*
X157920000Y-110530001D01*
G75*
G02*
X157670001Y-110780000I-249999J0D01*
G01*
X156969999Y-110780000D01*
G75*
G02*
X156720000Y-110530001I0J249999D01*
G01*
G37*
G36*
G01*
X151820000Y-109629999D02*
X151820000Y-110530001D01*
G75*
G02*
X151570001Y-110780000I-249999J0D01*
G01*
X150869999Y-110780000D01*
G75*
G02*
X150620000Y-110530001I0J249999D01*
G01*
X150620000Y-109629999D01*
G75*
G02*
X150869999Y-109380000I249999J0D01*
G01*
X151570001Y-109380000D01*
G75*
G02*
X151820000Y-109629999I0J-249999D01*
G01*
G37*
G36*
G01*
X153820000Y-109629999D02*
X153820000Y-110530001D01*
G75*
G02*
X153570001Y-110780000I-249999J0D01*
G01*
X152869999Y-110780000D01*
G75*
G02*
X152620000Y-110530001I0J249999D01*
G01*
X152620000Y-109629999D01*
G75*
G02*
X152869999Y-109380000I249999J0D01*
G01*
X153570001Y-109380000D01*
G75*
G02*
X153820000Y-109629999I0J-249999D01*
G01*
G37*
G36*
G01*
X165520000Y-110530001D02*
X165520000Y-109629999D01*
G75*
G02*
X165769999Y-109380000I249999J0D01*
G01*
X166470001Y-109380000D01*
G75*
G02*
X166720000Y-109629999I0J-249999D01*
G01*
X166720000Y-110530001D01*
G75*
G02*
X166470001Y-110780000I-249999J0D01*
G01*
X165769999Y-110780000D01*
G75*
G02*
X165520000Y-110530001I0J249999D01*
G01*
G37*
G36*
G01*
X163520000Y-110530001D02*
X163520000Y-109629999D01*
G75*
G02*
X163769999Y-109380000I249999J0D01*
G01*
X164470001Y-109380000D01*
G75*
G02*
X164720000Y-109629999I0J-249999D01*
G01*
X164720000Y-110530001D01*
G75*
G02*
X164470001Y-110780000I-249999J0D01*
G01*
X163769999Y-110780000D01*
G75*
G02*
X163520000Y-110530001I0J249999D01*
G01*
G37*
G36*
G01*
X162420000Y-109629999D02*
X162420000Y-110530001D01*
G75*
G02*
X162170001Y-110780000I-249999J0D01*
G01*
X161469999Y-110780000D01*
G75*
G02*
X161220000Y-110530001I0J249999D01*
G01*
X161220000Y-109629999D01*
G75*
G02*
X161469999Y-109380000I249999J0D01*
G01*
X162170001Y-109380000D01*
G75*
G02*
X162420000Y-109629999I0J-249999D01*
G01*
G37*
G36*
G01*
X160420000Y-109629999D02*
X160420000Y-110530001D01*
G75*
G02*
X160170001Y-110780000I-249999J0D01*
G01*
X159469999Y-110780000D01*
G75*
G02*
X159220000Y-110530001I0J249999D01*
G01*
X159220000Y-109629999D01*
G75*
G02*
X159469999Y-109380000I249999J0D01*
G01*
X160170001Y-109380000D01*
G75*
G02*
X160420000Y-109629999I0J-249999D01*
G01*
G37*
X168720000Y-54680000D03*
X167770000Y-56680000D03*
X169670000Y-56680000D03*
G36*
G01*
X171370000Y-125080001D02*
X171370000Y-124179999D01*
G75*
G02*
X171619999Y-123930000I249999J0D01*
G01*
X172320001Y-123930000D01*
G75*
G02*
X172570000Y-124179999I0J-249999D01*
G01*
X172570000Y-125080001D01*
G75*
G02*
X172320001Y-125330000I-249999J0D01*
G01*
X171619999Y-125330000D01*
G75*
G02*
X171370000Y-125080001I0J249999D01*
G01*
G37*
G36*
G01*
X173370000Y-125080001D02*
X173370000Y-124179999D01*
G75*
G02*
X173619999Y-123930000I249999J0D01*
G01*
X174320001Y-123930000D01*
G75*
G02*
X174570000Y-124179999I0J-249999D01*
G01*
X174570000Y-125080001D01*
G75*
G02*
X174320001Y-125330000I-249999J0D01*
G01*
X173619999Y-125330000D01*
G75*
G02*
X173370000Y-125080001I0J249999D01*
G01*
G37*
G36*
G01*
X163970001Y-57380000D02*
X163069999Y-57380000D01*
G75*
G02*
X162820000Y-57130001I0J249999D01*
G01*
X162820000Y-56429999D01*
G75*
G02*
X163069999Y-56180000I249999J0D01*
G01*
X163970001Y-56180000D01*
G75*
G02*
X164220000Y-56429999I0J-249999D01*
G01*
X164220000Y-57130001D01*
G75*
G02*
X163970001Y-57380000I-249999J0D01*
G01*
G37*
G36*
G01*
X163970001Y-55380000D02*
X163069999Y-55380000D01*
G75*
G02*
X162820000Y-55130001I0J249999D01*
G01*
X162820000Y-54429999D01*
G75*
G02*
X163069999Y-54180000I249999J0D01*
G01*
X163970001Y-54180000D01*
G75*
G02*
X164220000Y-54429999I0J-249999D01*
G01*
X164220000Y-55130001D01*
G75*
G02*
X163970001Y-55380000I-249999J0D01*
G01*
G37*
G36*
G01*
X167270000Y-125030001D02*
X167270000Y-124129999D01*
G75*
G02*
X167519999Y-123880000I249999J0D01*
G01*
X168220001Y-123880000D01*
G75*
G02*
X168470000Y-124129999I0J-249999D01*
G01*
X168470000Y-125030001D01*
G75*
G02*
X168220001Y-125280000I-249999J0D01*
G01*
X167519999Y-125280000D01*
G75*
G02*
X167270000Y-125030001I0J249999D01*
G01*
G37*
G36*
G01*
X165270000Y-125030001D02*
X165270000Y-124129999D01*
G75*
G02*
X165519999Y-123880000I249999J0D01*
G01*
X166220001Y-123880000D01*
G75*
G02*
X166470000Y-124129999I0J-249999D01*
G01*
X166470000Y-125030001D01*
G75*
G02*
X166220001Y-125280000I-249999J0D01*
G01*
X165519999Y-125280000D01*
G75*
G02*
X165270000Y-125030001I0J249999D01*
G01*
G37*
G36*
G01*
X166070001Y-55380000D02*
X165169999Y-55380000D01*
G75*
G02*
X164920000Y-55130001I0J249999D01*
G01*
X164920000Y-54429999D01*
G75*
G02*
X165169999Y-54180000I249999J0D01*
G01*
X166070001Y-54180000D01*
G75*
G02*
X166320000Y-54429999I0J-249999D01*
G01*
X166320000Y-55130001D01*
G75*
G02*
X166070001Y-55380000I-249999J0D01*
G01*
G37*
G36*
G01*
X166070001Y-57380000D02*
X165169999Y-57380000D01*
G75*
G02*
X164920000Y-57130001I0J249999D01*
G01*
X164920000Y-56429999D01*
G75*
G02*
X165169999Y-56180000I249999J0D01*
G01*
X166070001Y-56180000D01*
G75*
G02*
X166320000Y-56429999I0J-249999D01*
G01*
X166320000Y-57130001D01*
G75*
G02*
X166070001Y-57380000I-249999J0D01*
G01*
G37*
G36*
G01*
X179520000Y-125030001D02*
X179520000Y-124129999D01*
G75*
G02*
X179769999Y-123880000I249999J0D01*
G01*
X180470001Y-123880000D01*
G75*
G02*
X180720000Y-124129999I0J-249999D01*
G01*
X180720000Y-125030001D01*
G75*
G02*
X180470001Y-125280000I-249999J0D01*
G01*
X179769999Y-125280000D01*
G75*
G02*
X179520000Y-125030001I0J249999D01*
G01*
G37*
G36*
G01*
X177520000Y-125030001D02*
X177520000Y-124129999D01*
G75*
G02*
X177769999Y-123880000I249999J0D01*
G01*
X178470001Y-123880000D01*
G75*
G02*
X178720000Y-124129999I0J-249999D01*
G01*
X178720000Y-125030001D01*
G75*
G02*
X178470001Y-125280000I-249999J0D01*
G01*
X177769999Y-125280000D01*
G75*
G02*
X177520000Y-125030001I0J249999D01*
G01*
G37*
D16*
X63945000Y-58030000D03*
X60945000Y-58030000D03*
D17*
X62445000Y-59505000D03*
X62445000Y-56555000D03*
G36*
G01*
X178545000Y-65605000D02*
X179495000Y-65605000D01*
G75*
G02*
X179745000Y-65855000I0J-250000D01*
G01*
X179745000Y-66530000D01*
G75*
G02*
X179495000Y-66780000I-250000J0D01*
G01*
X178545000Y-66780000D01*
G75*
G02*
X178295000Y-66530000I0J250000D01*
G01*
X178295000Y-65855000D01*
G75*
G02*
X178545000Y-65605000I250000J0D01*
G01*
G37*
G36*
G01*
X178545000Y-67680000D02*
X179495000Y-67680000D01*
G75*
G02*
X179745000Y-67930000I0J-250000D01*
G01*
X179745000Y-68605000D01*
G75*
G02*
X179495000Y-68855000I-250000J0D01*
G01*
X178545000Y-68855000D01*
G75*
G02*
X178295000Y-68605000I0J250000D01*
G01*
X178295000Y-67930000D01*
G75*
G02*
X178545000Y-67680000I250000J0D01*
G01*
G37*
G36*
G01*
X176395000Y-67680000D02*
X177345000Y-67680000D01*
G75*
G02*
X177595000Y-67930000I0J-250000D01*
G01*
X177595000Y-68605000D01*
G75*
G02*
X177345000Y-68855000I-250000J0D01*
G01*
X176395000Y-68855000D01*
G75*
G02*
X176145000Y-68605000I0J250000D01*
G01*
X176145000Y-67930000D01*
G75*
G02*
X176395000Y-67680000I250000J0D01*
G01*
G37*
G36*
G01*
X176395000Y-65605000D02*
X177345000Y-65605000D01*
G75*
G02*
X177595000Y-65855000I0J-250000D01*
G01*
X177595000Y-66530000D01*
G75*
G02*
X177345000Y-66780000I-250000J0D01*
G01*
X176395000Y-66780000D01*
G75*
G02*
X176145000Y-66530000I0J250000D01*
G01*
X176145000Y-65855000D01*
G75*
G02*
X176395000Y-65605000I250000J0D01*
G01*
G37*
G36*
G01*
X176820000Y-71155000D02*
X176820000Y-72105000D01*
G75*
G02*
X176570000Y-72355000I-250000J0D01*
G01*
X175895000Y-72355000D01*
G75*
G02*
X175645000Y-72105000I0J250000D01*
G01*
X175645000Y-71155000D01*
G75*
G02*
X175895000Y-70905000I250000J0D01*
G01*
X176570000Y-70905000D01*
G75*
G02*
X176820000Y-71155000I0J-250000D01*
G01*
G37*
G36*
G01*
X174745000Y-71155000D02*
X174745000Y-72105000D01*
G75*
G02*
X174495000Y-72355000I-250000J0D01*
G01*
X173820000Y-72355000D01*
G75*
G02*
X173570000Y-72105000I0J250000D01*
G01*
X173570000Y-71155000D01*
G75*
G02*
X173820000Y-70905000I250000J0D01*
G01*
X174495000Y-70905000D01*
G75*
G02*
X174745000Y-71155000I0J-250000D01*
G01*
G37*
G36*
G01*
X174745000Y-73355000D02*
X174745000Y-74305000D01*
G75*
G02*
X174495000Y-74555000I-250000J0D01*
G01*
X173820000Y-74555000D01*
G75*
G02*
X173570000Y-74305000I0J250000D01*
G01*
X173570000Y-73355000D01*
G75*
G02*
X173820000Y-73105000I250000J0D01*
G01*
X174495000Y-73105000D01*
G75*
G02*
X174745000Y-73355000I0J-250000D01*
G01*
G37*
G36*
G01*
X176820000Y-73355000D02*
X176820000Y-74305000D01*
G75*
G02*
X176570000Y-74555000I-250000J0D01*
G01*
X175895000Y-74555000D01*
G75*
G02*
X175645000Y-74305000I0J250000D01*
G01*
X175645000Y-73355000D01*
G75*
G02*
X175895000Y-73105000I250000J0D01*
G01*
X176570000Y-73105000D01*
G75*
G02*
X176820000Y-73355000I0J-250000D01*
G01*
G37*
G36*
G01*
X78320000Y-76155000D02*
X78320000Y-75205000D01*
G75*
G02*
X78570000Y-74955000I250000J0D01*
G01*
X79245000Y-74955000D01*
G75*
G02*
X79495000Y-75205000I0J-250000D01*
G01*
X79495000Y-76155000D01*
G75*
G02*
X79245000Y-76405000I-250000J0D01*
G01*
X78570000Y-76405000D01*
G75*
G02*
X78320000Y-76155000I0J250000D01*
G01*
G37*
G36*
G01*
X76245000Y-76155000D02*
X76245000Y-75205000D01*
G75*
G02*
X76495000Y-74955000I250000J0D01*
G01*
X77170000Y-74955000D01*
G75*
G02*
X77420000Y-75205000I0J-250000D01*
G01*
X77420000Y-76155000D01*
G75*
G02*
X77170000Y-76405000I-250000J0D01*
G01*
X76495000Y-76405000D01*
G75*
G02*
X76245000Y-76155000I0J250000D01*
G01*
G37*
G36*
G01*
X76245000Y-73905000D02*
X76245000Y-72955000D01*
G75*
G02*
X76495000Y-72705000I250000J0D01*
G01*
X77170000Y-72705000D01*
G75*
G02*
X77420000Y-72955000I0J-250000D01*
G01*
X77420000Y-73905000D01*
G75*
G02*
X77170000Y-74155000I-250000J0D01*
G01*
X76495000Y-74155000D01*
G75*
G02*
X76245000Y-73905000I0J250000D01*
G01*
G37*
G36*
G01*
X78320000Y-73905000D02*
X78320000Y-72955000D01*
G75*
G02*
X78570000Y-72705000I250000J0D01*
G01*
X79245000Y-72705000D01*
G75*
G02*
X79495000Y-72955000I0J-250000D01*
G01*
X79495000Y-73905000D01*
G75*
G02*
X79245000Y-74155000I-250000J0D01*
G01*
X78570000Y-74155000D01*
G75*
G02*
X78320000Y-73905000I0J250000D01*
G01*
G37*
G36*
G01*
X70094999Y-70055000D02*
X70895001Y-70055000D01*
G75*
G02*
X71145000Y-70304999I0J-249999D01*
G01*
X71145000Y-71130001D01*
G75*
G02*
X70895001Y-71380000I-249999J0D01*
G01*
X70094999Y-71380000D01*
G75*
G02*
X69845000Y-71130001I0J249999D01*
G01*
X69845000Y-70304999D01*
G75*
G02*
X70094999Y-70055000I249999J0D01*
G01*
G37*
G36*
G01*
X70094999Y-68130000D02*
X70895001Y-68130000D01*
G75*
G02*
X71145000Y-68379999I0J-249999D01*
G01*
X71145000Y-69205001D01*
G75*
G02*
X70895001Y-69455000I-249999J0D01*
G01*
X70094999Y-69455000D01*
G75*
G02*
X69845000Y-69205001I0J249999D01*
G01*
X69845000Y-68379999D01*
G75*
G02*
X70094999Y-68130000I249999J0D01*
G01*
G37*
G36*
G01*
X69220001Y-58605000D02*
X68319999Y-58605000D01*
G75*
G02*
X68070000Y-58355001I0J249999D01*
G01*
X68070000Y-57704999D01*
G75*
G02*
X68319999Y-57455000I249999J0D01*
G01*
X69220001Y-57455000D01*
G75*
G02*
X69470000Y-57704999I0J-249999D01*
G01*
X69470000Y-58355001D01*
G75*
G02*
X69220001Y-58605000I-249999J0D01*
G01*
G37*
G36*
G01*
X69220001Y-60655000D02*
X68319999Y-60655000D01*
G75*
G02*
X68070000Y-60405001I0J249999D01*
G01*
X68070000Y-59754999D01*
G75*
G02*
X68319999Y-59505000I249999J0D01*
G01*
X69220001Y-59505000D01*
G75*
G02*
X69470000Y-59754999I0J-249999D01*
G01*
X69470000Y-60405001D01*
G75*
G02*
X69220001Y-60655000I-249999J0D01*
G01*
G37*
G36*
G01*
X156745001Y-63030000D02*
X155844999Y-63030000D01*
G75*
G02*
X155595000Y-62780001I0J249999D01*
G01*
X155595000Y-62079999D01*
G75*
G02*
X155844999Y-61830000I249999J0D01*
G01*
X156745001Y-61830000D01*
G75*
G02*
X156995000Y-62079999I0J-249999D01*
G01*
X156995000Y-62780001D01*
G75*
G02*
X156745001Y-63030000I-249999J0D01*
G01*
G37*
G36*
G01*
X156745001Y-61030000D02*
X155844999Y-61030000D01*
G75*
G02*
X155595000Y-60780001I0J249999D01*
G01*
X155595000Y-60079999D01*
G75*
G02*
X155844999Y-59830000I249999J0D01*
G01*
X156745001Y-59830000D01*
G75*
G02*
X156995000Y-60079999I0J-249999D01*
G01*
X156995000Y-60780001D01*
G75*
G02*
X156745001Y-61030000I-249999J0D01*
G01*
G37*
G36*
G01*
X159370001Y-61030000D02*
X158469999Y-61030000D01*
G75*
G02*
X158220000Y-60780001I0J249999D01*
G01*
X158220000Y-60079999D01*
G75*
G02*
X158469999Y-59830000I249999J0D01*
G01*
X159370001Y-59830000D01*
G75*
G02*
X159620000Y-60079999I0J-249999D01*
G01*
X159620000Y-60780001D01*
G75*
G02*
X159370001Y-61030000I-249999J0D01*
G01*
G37*
G36*
G01*
X159370001Y-63030000D02*
X158469999Y-63030000D01*
G75*
G02*
X158220000Y-62780001I0J249999D01*
G01*
X158220000Y-62079999D01*
G75*
G02*
X158469999Y-61830000I249999J0D01*
G01*
X159370001Y-61830000D01*
G75*
G02*
X159620000Y-62079999I0J-249999D01*
G01*
X159620000Y-62780001D01*
G75*
G02*
X159370001Y-63030000I-249999J0D01*
G01*
G37*
G36*
G01*
X71570000Y-59804999D02*
X71570000Y-60705001D01*
G75*
G02*
X71320001Y-60955000I-249999J0D01*
G01*
X70619999Y-60955000D01*
G75*
G02*
X70370000Y-60705001I0J249999D01*
G01*
X70370000Y-59804999D01*
G75*
G02*
X70619999Y-59555000I249999J0D01*
G01*
X71320001Y-59555000D01*
G75*
G02*
X71570000Y-59804999I0J-249999D01*
G01*
G37*
G36*
G01*
X73570000Y-59804999D02*
X73570000Y-60705001D01*
G75*
G02*
X73320001Y-60955000I-249999J0D01*
G01*
X72619999Y-60955000D01*
G75*
G02*
X72370000Y-60705001I0J249999D01*
G01*
X72370000Y-59804999D01*
G75*
G02*
X72619999Y-59555000I249999J0D01*
G01*
X73320001Y-59555000D01*
G75*
G02*
X73570000Y-59804999I0J-249999D01*
G01*
G37*
G36*
G01*
X73145001Y-71355000D02*
X72244999Y-71355000D01*
G75*
G02*
X71995000Y-71105001I0J249999D01*
G01*
X71995000Y-70404999D01*
G75*
G02*
X72244999Y-70155000I249999J0D01*
G01*
X73145001Y-70155000D01*
G75*
G02*
X73395000Y-70404999I0J-249999D01*
G01*
X73395000Y-71105001D01*
G75*
G02*
X73145001Y-71355000I-249999J0D01*
G01*
G37*
G36*
G01*
X73145001Y-69355000D02*
X72244999Y-69355000D01*
G75*
G02*
X71995000Y-69105001I0J249999D01*
G01*
X71995000Y-68404999D01*
G75*
G02*
X72244999Y-68155000I249999J0D01*
G01*
X73145001Y-68155000D01*
G75*
G02*
X73395000Y-68404999I0J-249999D01*
G01*
X73395000Y-69105001D01*
G75*
G02*
X73145001Y-69355000I-249999J0D01*
G01*
G37*
G36*
G01*
X162469999Y-82180000D02*
X163370001Y-82180000D01*
G75*
G02*
X163620000Y-82429999I0J-249999D01*
G01*
X163620000Y-83130001D01*
G75*
G02*
X163370001Y-83380000I-249999J0D01*
G01*
X162469999Y-83380000D01*
G75*
G02*
X162220000Y-83130001I0J249999D01*
G01*
X162220000Y-82429999D01*
G75*
G02*
X162469999Y-82180000I249999J0D01*
G01*
G37*
G36*
G01*
X162469999Y-84180000D02*
X163370001Y-84180000D01*
G75*
G02*
X163620000Y-84429999I0J-249999D01*
G01*
X163620000Y-85130001D01*
G75*
G02*
X163370001Y-85380000I-249999J0D01*
G01*
X162469999Y-85380000D01*
G75*
G02*
X162220000Y-85130001I0J249999D01*
G01*
X162220000Y-84429999D01*
G75*
G02*
X162469999Y-84180000I249999J0D01*
G01*
G37*
G36*
G01*
X165469999Y-84180000D02*
X166370001Y-84180000D01*
G75*
G02*
X166620000Y-84429999I0J-249999D01*
G01*
X166620000Y-85130001D01*
G75*
G02*
X166370001Y-85380000I-249999J0D01*
G01*
X165469999Y-85380000D01*
G75*
G02*
X165220000Y-85130001I0J249999D01*
G01*
X165220000Y-84429999D01*
G75*
G02*
X165469999Y-84180000I249999J0D01*
G01*
G37*
G36*
G01*
X165469999Y-82180000D02*
X166370001Y-82180000D01*
G75*
G02*
X166620000Y-82429999I0J-249999D01*
G01*
X166620000Y-83130001D01*
G75*
G02*
X166370001Y-83380000I-249999J0D01*
G01*
X165469999Y-83380000D01*
G75*
G02*
X165220000Y-83130001I0J249999D01*
G01*
X165220000Y-82429999D01*
G75*
G02*
X165469999Y-82180000I249999J0D01*
G01*
G37*
G36*
G01*
X168469999Y-82180000D02*
X169370001Y-82180000D01*
G75*
G02*
X169620000Y-82429999I0J-249999D01*
G01*
X169620000Y-83130001D01*
G75*
G02*
X169370001Y-83380000I-249999J0D01*
G01*
X168469999Y-83380000D01*
G75*
G02*
X168220000Y-83130001I0J249999D01*
G01*
X168220000Y-82429999D01*
G75*
G02*
X168469999Y-82180000I249999J0D01*
G01*
G37*
G36*
G01*
X168469999Y-84180000D02*
X169370001Y-84180000D01*
G75*
G02*
X169620000Y-84429999I0J-249999D01*
G01*
X169620000Y-85130001D01*
G75*
G02*
X169370001Y-85380000I-249999J0D01*
G01*
X168469999Y-85380000D01*
G75*
G02*
X168220000Y-85130001I0J249999D01*
G01*
X168220000Y-84429999D01*
G75*
G02*
X168469999Y-84180000I249999J0D01*
G01*
G37*
G36*
G01*
X162469999Y-82180000D02*
X163370001Y-82180000D01*
G75*
G02*
X163620000Y-82429999I0J-249999D01*
G01*
X163620000Y-83130001D01*
G75*
G02*
X163370001Y-83380000I-249999J0D01*
G01*
X162469999Y-83380000D01*
G75*
G02*
X162220000Y-83130001I0J249999D01*
G01*
X162220000Y-82429999D01*
G75*
G02*
X162469999Y-82180000I249999J0D01*
G01*
G37*
G36*
G01*
X162469999Y-80180000D02*
X163370001Y-80180000D01*
G75*
G02*
X163620000Y-80429999I0J-249999D01*
G01*
X163620000Y-81130001D01*
G75*
G02*
X163370001Y-81380000I-249999J0D01*
G01*
X162469999Y-81380000D01*
G75*
G02*
X162220000Y-81130001I0J249999D01*
G01*
X162220000Y-80429999D01*
G75*
G02*
X162469999Y-80180000I249999J0D01*
G01*
G37*
G36*
G01*
X165469999Y-80180000D02*
X166370001Y-80180000D01*
G75*
G02*
X166620000Y-80429999I0J-249999D01*
G01*
X166620000Y-81130001D01*
G75*
G02*
X166370001Y-81380000I-249999J0D01*
G01*
X165469999Y-81380000D01*
G75*
G02*
X165220000Y-81130001I0J249999D01*
G01*
X165220000Y-80429999D01*
G75*
G02*
X165469999Y-80180000I249999J0D01*
G01*
G37*
G36*
G01*
X165469999Y-82180000D02*
X166370001Y-82180000D01*
G75*
G02*
X166620000Y-82429999I0J-249999D01*
G01*
X166620000Y-83130001D01*
G75*
G02*
X166370001Y-83380000I-249999J0D01*
G01*
X165469999Y-83380000D01*
G75*
G02*
X165220000Y-83130001I0J249999D01*
G01*
X165220000Y-82429999D01*
G75*
G02*
X165469999Y-82180000I249999J0D01*
G01*
G37*
G36*
G01*
X168469999Y-82180000D02*
X169370001Y-82180000D01*
G75*
G02*
X169620000Y-82429999I0J-249999D01*
G01*
X169620000Y-83130001D01*
G75*
G02*
X169370001Y-83380000I-249999J0D01*
G01*
X168469999Y-83380000D01*
G75*
G02*
X168220000Y-83130001I0J249999D01*
G01*
X168220000Y-82429999D01*
G75*
G02*
X168469999Y-82180000I249999J0D01*
G01*
G37*
G36*
G01*
X168469999Y-80180000D02*
X169370001Y-80180000D01*
G75*
G02*
X169620000Y-80429999I0J-249999D01*
G01*
X169620000Y-81130001D01*
G75*
G02*
X169370001Y-81380000I-249999J0D01*
G01*
X168469999Y-81380000D01*
G75*
G02*
X168220000Y-81130001I0J249999D01*
G01*
X168220000Y-80429999D01*
G75*
G02*
X168469999Y-80180000I249999J0D01*
G01*
G37*
G36*
G01*
X172095000Y-62285000D02*
X172095000Y-62585000D01*
G75*
G02*
X171945000Y-62735000I-150000J0D01*
G01*
X170195000Y-62735000D01*
G75*
G02*
X170045000Y-62585000I0J150000D01*
G01*
X170045000Y-62285000D01*
G75*
G02*
X170195000Y-62135000I150000J0D01*
G01*
X171945000Y-62135000D01*
G75*
G02*
X172095000Y-62285000I0J-150000D01*
G01*
G37*
G36*
G01*
X172095000Y-63555000D02*
X172095000Y-63855000D01*
G75*
G02*
X171945000Y-64005000I-150000J0D01*
G01*
X170195000Y-64005000D01*
G75*
G02*
X170045000Y-63855000I0J150000D01*
G01*
X170045000Y-63555000D01*
G75*
G02*
X170195000Y-63405000I150000J0D01*
G01*
X171945000Y-63405000D01*
G75*
G02*
X172095000Y-63555000I0J-150000D01*
G01*
G37*
G36*
G01*
X172095000Y-64825000D02*
X172095000Y-65125000D01*
G75*
G02*
X171945000Y-65275000I-150000J0D01*
G01*
X170195000Y-65275000D01*
G75*
G02*
X170045000Y-65125000I0J150000D01*
G01*
X170045000Y-64825000D01*
G75*
G02*
X170195000Y-64675000I150000J0D01*
G01*
X171945000Y-64675000D01*
G75*
G02*
X172095000Y-64825000I0J-150000D01*
G01*
G37*
G36*
G01*
X172095000Y-66095000D02*
X172095000Y-66395000D01*
G75*
G02*
X171945000Y-66545000I-150000J0D01*
G01*
X170195000Y-66545000D01*
G75*
G02*
X170045000Y-66395000I0J150000D01*
G01*
X170045000Y-66095000D01*
G75*
G02*
X170195000Y-65945000I150000J0D01*
G01*
X171945000Y-65945000D01*
G75*
G02*
X172095000Y-66095000I0J-150000D01*
G01*
G37*
G36*
G01*
X172095000Y-67365000D02*
X172095000Y-67665000D01*
G75*
G02*
X171945000Y-67815000I-150000J0D01*
G01*
X170195000Y-67815000D01*
G75*
G02*
X170045000Y-67665000I0J150000D01*
G01*
X170045000Y-67365000D01*
G75*
G02*
X170195000Y-67215000I150000J0D01*
G01*
X171945000Y-67215000D01*
G75*
G02*
X172095000Y-67365000I0J-150000D01*
G01*
G37*
G36*
G01*
X172095000Y-68635000D02*
X172095000Y-68935000D01*
G75*
G02*
X171945000Y-69085000I-150000J0D01*
G01*
X170195000Y-69085000D01*
G75*
G02*
X170045000Y-68935000I0J150000D01*
G01*
X170045000Y-68635000D01*
G75*
G02*
X170195000Y-68485000I150000J0D01*
G01*
X171945000Y-68485000D01*
G75*
G02*
X172095000Y-68635000I0J-150000D01*
G01*
G37*
G36*
G01*
X172095000Y-69905000D02*
X172095000Y-70205000D01*
G75*
G02*
X171945000Y-70355000I-150000J0D01*
G01*
X170195000Y-70355000D01*
G75*
G02*
X170045000Y-70205000I0J150000D01*
G01*
X170045000Y-69905000D01*
G75*
G02*
X170195000Y-69755000I150000J0D01*
G01*
X171945000Y-69755000D01*
G75*
G02*
X172095000Y-69905000I0J-150000D01*
G01*
G37*
G36*
G01*
X172095000Y-71175000D02*
X172095000Y-71475000D01*
G75*
G02*
X171945000Y-71625000I-150000J0D01*
G01*
X170195000Y-71625000D01*
G75*
G02*
X170045000Y-71475000I0J150000D01*
G01*
X170045000Y-71175000D01*
G75*
G02*
X170195000Y-71025000I150000J0D01*
G01*
X171945000Y-71025000D01*
G75*
G02*
X172095000Y-71175000I0J-150000D01*
G01*
G37*
G36*
G01*
X162795000Y-71175000D02*
X162795000Y-71475000D01*
G75*
G02*
X162645000Y-71625000I-150000J0D01*
G01*
X160895000Y-71625000D01*
G75*
G02*
X160745000Y-71475000I0J150000D01*
G01*
X160745000Y-71175000D01*
G75*
G02*
X160895000Y-71025000I150000J0D01*
G01*
X162645000Y-71025000D01*
G75*
G02*
X162795000Y-71175000I0J-150000D01*
G01*
G37*
G36*
G01*
X162795000Y-69905000D02*
X162795000Y-70205000D01*
G75*
G02*
X162645000Y-70355000I-150000J0D01*
G01*
X160895000Y-70355000D01*
G75*
G02*
X160745000Y-70205000I0J150000D01*
G01*
X160745000Y-69905000D01*
G75*
G02*
X160895000Y-69755000I150000J0D01*
G01*
X162645000Y-69755000D01*
G75*
G02*
X162795000Y-69905000I0J-150000D01*
G01*
G37*
G36*
G01*
X162795000Y-68635000D02*
X162795000Y-68935000D01*
G75*
G02*
X162645000Y-69085000I-150000J0D01*
G01*
X160895000Y-69085000D01*
G75*
G02*
X160745000Y-68935000I0J150000D01*
G01*
X160745000Y-68635000D01*
G75*
G02*
X160895000Y-68485000I150000J0D01*
G01*
X162645000Y-68485000D01*
G75*
G02*
X162795000Y-68635000I0J-150000D01*
G01*
G37*
G36*
G01*
X162795000Y-67365000D02*
X162795000Y-67665000D01*
G75*
G02*
X162645000Y-67815000I-150000J0D01*
G01*
X160895000Y-67815000D01*
G75*
G02*
X160745000Y-67665000I0J150000D01*
G01*
X160745000Y-67365000D01*
G75*
G02*
X160895000Y-67215000I150000J0D01*
G01*
X162645000Y-67215000D01*
G75*
G02*
X162795000Y-67365000I0J-150000D01*
G01*
G37*
G36*
G01*
X162795000Y-66095000D02*
X162795000Y-66395000D01*
G75*
G02*
X162645000Y-66545000I-150000J0D01*
G01*
X160895000Y-66545000D01*
G75*
G02*
X160745000Y-66395000I0J150000D01*
G01*
X160745000Y-66095000D01*
G75*
G02*
X160895000Y-65945000I150000J0D01*
G01*
X162645000Y-65945000D01*
G75*
G02*
X162795000Y-66095000I0J-150000D01*
G01*
G37*
G36*
G01*
X162795000Y-64825000D02*
X162795000Y-65125000D01*
G75*
G02*
X162645000Y-65275000I-150000J0D01*
G01*
X160895000Y-65275000D01*
G75*
G02*
X160745000Y-65125000I0J150000D01*
G01*
X160745000Y-64825000D01*
G75*
G02*
X160895000Y-64675000I150000J0D01*
G01*
X162645000Y-64675000D01*
G75*
G02*
X162795000Y-64825000I0J-150000D01*
G01*
G37*
G36*
G01*
X162795000Y-63555000D02*
X162795000Y-63855000D01*
G75*
G02*
X162645000Y-64005000I-150000J0D01*
G01*
X160895000Y-64005000D01*
G75*
G02*
X160745000Y-63855000I0J150000D01*
G01*
X160745000Y-63555000D01*
G75*
G02*
X160895000Y-63405000I150000J0D01*
G01*
X162645000Y-63405000D01*
G75*
G02*
X162795000Y-63555000I0J-150000D01*
G01*
G37*
G36*
G01*
X162795000Y-62285000D02*
X162795000Y-62585000D01*
G75*
G02*
X162645000Y-62735000I-150000J0D01*
G01*
X160895000Y-62735000D01*
G75*
G02*
X160745000Y-62585000I0J150000D01*
G01*
X160745000Y-62285000D01*
G75*
G02*
X160895000Y-62135000I150000J0D01*
G01*
X162645000Y-62135000D01*
G75*
G02*
X162795000Y-62285000I0J-150000D01*
G01*
G37*
G36*
G01*
X74345000Y-71130000D02*
X74345000Y-70730000D01*
G75*
G02*
X74545000Y-70530000I200000J0D01*
G01*
X75945000Y-70530000D01*
G75*
G02*
X76145000Y-70730000I0J-200000D01*
G01*
X76145000Y-71130000D01*
G75*
G02*
X75945000Y-71330000I-200000J0D01*
G01*
X74545000Y-71330000D01*
G75*
G02*
X74345000Y-71130000I0J200000D01*
G01*
G37*
G36*
G01*
X74345000Y-70030000D02*
X74345000Y-69630000D01*
G75*
G02*
X74545000Y-69430000I200000J0D01*
G01*
X75945000Y-69430000D01*
G75*
G02*
X76145000Y-69630000I0J-200000D01*
G01*
X76145000Y-70030000D01*
G75*
G02*
X75945000Y-70230000I-200000J0D01*
G01*
X74545000Y-70230000D01*
G75*
G02*
X74345000Y-70030000I0J200000D01*
G01*
G37*
G36*
G01*
X74345000Y-68930000D02*
X74345000Y-68530000D01*
G75*
G02*
X74545000Y-68330000I200000J0D01*
G01*
X75945000Y-68330000D01*
G75*
G02*
X76145000Y-68530000I0J-200000D01*
G01*
X76145000Y-68930000D01*
G75*
G02*
X75945000Y-69130000I-200000J0D01*
G01*
X74545000Y-69130000D01*
G75*
G02*
X74345000Y-68930000I0J200000D01*
G01*
G37*
G36*
G01*
X74345000Y-67830000D02*
X74345000Y-67430000D01*
G75*
G02*
X74545000Y-67230000I200000J0D01*
G01*
X75945000Y-67230000D01*
G75*
G02*
X76145000Y-67430000I0J-200000D01*
G01*
X76145000Y-67830000D01*
G75*
G02*
X75945000Y-68030000I-200000J0D01*
G01*
X74545000Y-68030000D01*
G75*
G02*
X74345000Y-67830000I0J200000D01*
G01*
G37*
G36*
G01*
X74345000Y-66730000D02*
X74345000Y-66330000D01*
G75*
G02*
X74545000Y-66130000I200000J0D01*
G01*
X75945000Y-66130000D01*
G75*
G02*
X76145000Y-66330000I0J-200000D01*
G01*
X76145000Y-66730000D01*
G75*
G02*
X75945000Y-66930000I-200000J0D01*
G01*
X74545000Y-66930000D01*
G75*
G02*
X74345000Y-66730000I0J200000D01*
G01*
G37*
G36*
G01*
X74345000Y-65630000D02*
X74345000Y-65230000D01*
G75*
G02*
X74545000Y-65030000I200000J0D01*
G01*
X75945000Y-65030000D01*
G75*
G02*
X76145000Y-65230000I0J-200000D01*
G01*
X76145000Y-65630000D01*
G75*
G02*
X75945000Y-65830000I-200000J0D01*
G01*
X74545000Y-65830000D01*
G75*
G02*
X74345000Y-65630000I0J200000D01*
G01*
G37*
G36*
G01*
X74345000Y-64530000D02*
X74345000Y-64130000D01*
G75*
G02*
X74545000Y-63930000I200000J0D01*
G01*
X75945000Y-63930000D01*
G75*
G02*
X76145000Y-64130000I0J-200000D01*
G01*
X76145000Y-64530000D01*
G75*
G02*
X75945000Y-64730000I-200000J0D01*
G01*
X74545000Y-64730000D01*
G75*
G02*
X74345000Y-64530000I0J200000D01*
G01*
G37*
G36*
G01*
X74345000Y-61530000D02*
X74345000Y-61130000D01*
G75*
G02*
X74545000Y-60930000I200000J0D01*
G01*
X75945000Y-60930000D01*
G75*
G02*
X76145000Y-61130000I0J-200000D01*
G01*
X76145000Y-61530000D01*
G75*
G02*
X75945000Y-61730000I-200000J0D01*
G01*
X74545000Y-61730000D01*
G75*
G02*
X74345000Y-61530000I0J200000D01*
G01*
G37*
G36*
G01*
X74345000Y-60430000D02*
X74345000Y-60030000D01*
G75*
G02*
X74545000Y-59830000I200000J0D01*
G01*
X75945000Y-59830000D01*
G75*
G02*
X76145000Y-60030000I0J-200000D01*
G01*
X76145000Y-60430000D01*
G75*
G02*
X75945000Y-60630000I-200000J0D01*
G01*
X74545000Y-60630000D01*
G75*
G02*
X74345000Y-60430000I0J200000D01*
G01*
G37*
G36*
G01*
X74345000Y-59330000D02*
X74345000Y-58930000D01*
G75*
G02*
X74545000Y-58730000I200000J0D01*
G01*
X75945000Y-58730000D01*
G75*
G02*
X76145000Y-58930000I0J-200000D01*
G01*
X76145000Y-59330000D01*
G75*
G02*
X75945000Y-59530000I-200000J0D01*
G01*
X74545000Y-59530000D01*
G75*
G02*
X74345000Y-59330000I0J200000D01*
G01*
G37*
G36*
G01*
X74345000Y-58230000D02*
X74345000Y-57830000D01*
G75*
G02*
X74545000Y-57630000I200000J0D01*
G01*
X75945000Y-57630000D01*
G75*
G02*
X76145000Y-57830000I0J-200000D01*
G01*
X76145000Y-58230000D01*
G75*
G02*
X75945000Y-58430000I-200000J0D01*
G01*
X74545000Y-58430000D01*
G75*
G02*
X74345000Y-58230000I0J200000D01*
G01*
G37*
G36*
G01*
X74345000Y-57130000D02*
X74345000Y-56730000D01*
G75*
G02*
X74545000Y-56530000I200000J0D01*
G01*
X75945000Y-56530000D01*
G75*
G02*
X76145000Y-56730000I0J-200000D01*
G01*
X76145000Y-57130000D01*
G75*
G02*
X75945000Y-57330000I-200000J0D01*
G01*
X74545000Y-57330000D01*
G75*
G02*
X74345000Y-57130000I0J200000D01*
G01*
G37*
G36*
G01*
X86345000Y-57130000D02*
X86345000Y-56730000D01*
G75*
G02*
X86545000Y-56530000I200000J0D01*
G01*
X87945000Y-56530000D01*
G75*
G02*
X88145000Y-56730000I0J-200000D01*
G01*
X88145000Y-57130000D01*
G75*
G02*
X87945000Y-57330000I-200000J0D01*
G01*
X86545000Y-57330000D01*
G75*
G02*
X86345000Y-57130000I0J200000D01*
G01*
G37*
G36*
G01*
X86345000Y-58230000D02*
X86345000Y-57830000D01*
G75*
G02*
X86545000Y-57630000I200000J0D01*
G01*
X87945000Y-57630000D01*
G75*
G02*
X88145000Y-57830000I0J-200000D01*
G01*
X88145000Y-58230000D01*
G75*
G02*
X87945000Y-58430000I-200000J0D01*
G01*
X86545000Y-58430000D01*
G75*
G02*
X86345000Y-58230000I0J200000D01*
G01*
G37*
G36*
G01*
X86345000Y-59330000D02*
X86345000Y-58930000D01*
G75*
G02*
X86545000Y-58730000I200000J0D01*
G01*
X87945000Y-58730000D01*
G75*
G02*
X88145000Y-58930000I0J-200000D01*
G01*
X88145000Y-59330000D01*
G75*
G02*
X87945000Y-59530000I-200000J0D01*
G01*
X86545000Y-59530000D01*
G75*
G02*
X86345000Y-59330000I0J200000D01*
G01*
G37*
G36*
G01*
X86345000Y-60430000D02*
X86345000Y-60030000D01*
G75*
G02*
X86545000Y-59830000I200000J0D01*
G01*
X87945000Y-59830000D01*
G75*
G02*
X88145000Y-60030000I0J-200000D01*
G01*
X88145000Y-60430000D01*
G75*
G02*
X87945000Y-60630000I-200000J0D01*
G01*
X86545000Y-60630000D01*
G75*
G02*
X86345000Y-60430000I0J200000D01*
G01*
G37*
G36*
G01*
X86345000Y-61530000D02*
X86345000Y-61130000D01*
G75*
G02*
X86545000Y-60930000I200000J0D01*
G01*
X87945000Y-60930000D01*
G75*
G02*
X88145000Y-61130000I0J-200000D01*
G01*
X88145000Y-61530000D01*
G75*
G02*
X87945000Y-61730000I-200000J0D01*
G01*
X86545000Y-61730000D01*
G75*
G02*
X86345000Y-61530000I0J200000D01*
G01*
G37*
G36*
G01*
X86345000Y-64530000D02*
X86345000Y-64130000D01*
G75*
G02*
X86545000Y-63930000I200000J0D01*
G01*
X87945000Y-63930000D01*
G75*
G02*
X88145000Y-64130000I0J-200000D01*
G01*
X88145000Y-64530000D01*
G75*
G02*
X87945000Y-64730000I-200000J0D01*
G01*
X86545000Y-64730000D01*
G75*
G02*
X86345000Y-64530000I0J200000D01*
G01*
G37*
G36*
G01*
X86345000Y-65630000D02*
X86345000Y-65230000D01*
G75*
G02*
X86545000Y-65030000I200000J0D01*
G01*
X87945000Y-65030000D01*
G75*
G02*
X88145000Y-65230000I0J-200000D01*
G01*
X88145000Y-65630000D01*
G75*
G02*
X87945000Y-65830000I-200000J0D01*
G01*
X86545000Y-65830000D01*
G75*
G02*
X86345000Y-65630000I0J200000D01*
G01*
G37*
G36*
G01*
X86345000Y-66730000D02*
X86345000Y-66330000D01*
G75*
G02*
X86545000Y-66130000I200000J0D01*
G01*
X87945000Y-66130000D01*
G75*
G02*
X88145000Y-66330000I0J-200000D01*
G01*
X88145000Y-66730000D01*
G75*
G02*
X87945000Y-66930000I-200000J0D01*
G01*
X86545000Y-66930000D01*
G75*
G02*
X86345000Y-66730000I0J200000D01*
G01*
G37*
G36*
G01*
X86345000Y-67830000D02*
X86345000Y-67430000D01*
G75*
G02*
X86545000Y-67230000I200000J0D01*
G01*
X87945000Y-67230000D01*
G75*
G02*
X88145000Y-67430000I0J-200000D01*
G01*
X88145000Y-67830000D01*
G75*
G02*
X87945000Y-68030000I-200000J0D01*
G01*
X86545000Y-68030000D01*
G75*
G02*
X86345000Y-67830000I0J200000D01*
G01*
G37*
G36*
G01*
X86345000Y-68930000D02*
X86345000Y-68530000D01*
G75*
G02*
X86545000Y-68330000I200000J0D01*
G01*
X87945000Y-68330000D01*
G75*
G02*
X88145000Y-68530000I0J-200000D01*
G01*
X88145000Y-68930000D01*
G75*
G02*
X87945000Y-69130000I-200000J0D01*
G01*
X86545000Y-69130000D01*
G75*
G02*
X86345000Y-68930000I0J200000D01*
G01*
G37*
G36*
G01*
X86345000Y-70030000D02*
X86345000Y-69630000D01*
G75*
G02*
X86545000Y-69430000I200000J0D01*
G01*
X87945000Y-69430000D01*
G75*
G02*
X88145000Y-69630000I0J-200000D01*
G01*
X88145000Y-70030000D01*
G75*
G02*
X87945000Y-70230000I-200000J0D01*
G01*
X86545000Y-70230000D01*
G75*
G02*
X86345000Y-70030000I0J200000D01*
G01*
G37*
G36*
G01*
X86345000Y-71130000D02*
X86345000Y-70730000D01*
G75*
G02*
X86545000Y-70530000I200000J0D01*
G01*
X87945000Y-70530000D01*
G75*
G02*
X88145000Y-70730000I0J-200000D01*
G01*
X88145000Y-71130000D01*
G75*
G02*
X87945000Y-71330000I-200000J0D01*
G01*
X86545000Y-71330000D01*
G75*
G02*
X86345000Y-71130000I0J200000D01*
G01*
G37*
G36*
G01*
X162870000Y-78435000D02*
X162870000Y-78135000D01*
G75*
G02*
X163020000Y-77985000I150000J0D01*
G01*
X164670000Y-77985000D01*
G75*
G02*
X164820000Y-78135000I0J-150000D01*
G01*
X164820000Y-78435000D01*
G75*
G02*
X164670000Y-78585000I-150000J0D01*
G01*
X163020000Y-78585000D01*
G75*
G02*
X162870000Y-78435000I0J150000D01*
G01*
G37*
G36*
G01*
X162870000Y-77165000D02*
X162870000Y-76865000D01*
G75*
G02*
X163020000Y-76715000I150000J0D01*
G01*
X164670000Y-76715000D01*
G75*
G02*
X164820000Y-76865000I0J-150000D01*
G01*
X164820000Y-77165000D01*
G75*
G02*
X164670000Y-77315000I-150000J0D01*
G01*
X163020000Y-77315000D01*
G75*
G02*
X162870000Y-77165000I0J150000D01*
G01*
G37*
G36*
G01*
X162870000Y-75895000D02*
X162870000Y-75595000D01*
G75*
G02*
X163020000Y-75445000I150000J0D01*
G01*
X164670000Y-75445000D01*
G75*
G02*
X164820000Y-75595000I0J-150000D01*
G01*
X164820000Y-75895000D01*
G75*
G02*
X164670000Y-76045000I-150000J0D01*
G01*
X163020000Y-76045000D01*
G75*
G02*
X162870000Y-75895000I0J150000D01*
G01*
G37*
G36*
G01*
X162870000Y-74625000D02*
X162870000Y-74325000D01*
G75*
G02*
X163020000Y-74175000I150000J0D01*
G01*
X164670000Y-74175000D01*
G75*
G02*
X164820000Y-74325000I0J-150000D01*
G01*
X164820000Y-74625000D01*
G75*
G02*
X164670000Y-74775000I-150000J0D01*
G01*
X163020000Y-74775000D01*
G75*
G02*
X162870000Y-74625000I0J150000D01*
G01*
G37*
G36*
G01*
X167820000Y-74625000D02*
X167820000Y-74325000D01*
G75*
G02*
X167970000Y-74175000I150000J0D01*
G01*
X169620000Y-74175000D01*
G75*
G02*
X169770000Y-74325000I0J-150000D01*
G01*
X169770000Y-74625000D01*
G75*
G02*
X169620000Y-74775000I-150000J0D01*
G01*
X167970000Y-74775000D01*
G75*
G02*
X167820000Y-74625000I0J150000D01*
G01*
G37*
G36*
G01*
X167820000Y-75895000D02*
X167820000Y-75595000D01*
G75*
G02*
X167970000Y-75445000I150000J0D01*
G01*
X169620000Y-75445000D01*
G75*
G02*
X169770000Y-75595000I0J-150000D01*
G01*
X169770000Y-75895000D01*
G75*
G02*
X169620000Y-76045000I-150000J0D01*
G01*
X167970000Y-76045000D01*
G75*
G02*
X167820000Y-75895000I0J150000D01*
G01*
G37*
G36*
G01*
X167820000Y-77165000D02*
X167820000Y-76865000D01*
G75*
G02*
X167970000Y-76715000I150000J0D01*
G01*
X169620000Y-76715000D01*
G75*
G02*
X169770000Y-76865000I0J-150000D01*
G01*
X169770000Y-77165000D01*
G75*
G02*
X169620000Y-77315000I-150000J0D01*
G01*
X167970000Y-77315000D01*
G75*
G02*
X167820000Y-77165000I0J150000D01*
G01*
G37*
G36*
G01*
X167820000Y-78435000D02*
X167820000Y-78135000D01*
G75*
G02*
X167970000Y-77985000I150000J0D01*
G01*
X169620000Y-77985000D01*
G75*
G02*
X169770000Y-78135000I0J-150000D01*
G01*
X169770000Y-78435000D01*
G75*
G02*
X169620000Y-78585000I-150000J0D01*
G01*
X167970000Y-78585000D01*
G75*
G02*
X167820000Y-78435000I0J150000D01*
G01*
G37*
D18*
X91595000Y-71530000D03*
X97095000Y-71530000D03*
D19*
X62765000Y-51300000D03*
X62765000Y-46260000D03*
X65305000Y-51300000D03*
X65305000Y-46260000D03*
X67845000Y-51300000D03*
X67845000Y-46260000D03*
X70385000Y-51300000D03*
X70385000Y-46260000D03*
X72925000Y-51300000D03*
X72925000Y-46260000D03*
X75465000Y-51300000D03*
X75465000Y-46260000D03*
X78005000Y-51300000D03*
X78005000Y-46260000D03*
X80545000Y-51300000D03*
X80545000Y-46260000D03*
X83085000Y-51300000D03*
X83085000Y-46260000D03*
X85625000Y-51300000D03*
X85625000Y-46260000D03*
X88165000Y-51300000D03*
X88165000Y-46260000D03*
X90705000Y-51300000D03*
X90705000Y-46260000D03*
X93245000Y-51300000D03*
X93245000Y-46260000D03*
X95785000Y-51300000D03*
X95785000Y-46260000D03*
X98325000Y-51300000D03*
X98325000Y-46260000D03*
X100865000Y-51300000D03*
X100865000Y-46260000D03*
X103405000Y-51300000D03*
X103405000Y-46260000D03*
X105945000Y-51300000D03*
X105945000Y-46260000D03*
X108485000Y-51300000D03*
X108485000Y-46260000D03*
X111025000Y-51300000D03*
X111025000Y-46260000D03*
D20*
X76720000Y-138925000D03*
X81820000Y-138925000D03*
X81820000Y-130185000D03*
X76720000Y-130185000D03*
G36*
G01*
X95650000Y-121979999D02*
X95650000Y-122880001D01*
G75*
G02*
X95400001Y-123130000I-249999J0D01*
G01*
X94699999Y-123130000D01*
G75*
G02*
X94450000Y-122880001I0J249999D01*
G01*
X94450000Y-121979999D01*
G75*
G02*
X94699999Y-121730000I249999J0D01*
G01*
X95400001Y-121730000D01*
G75*
G02*
X95650000Y-121979999I0J-249999D01*
G01*
G37*
G36*
G01*
X93650000Y-121979999D02*
X93650000Y-122880001D01*
G75*
G02*
X93400001Y-123130000I-249999J0D01*
G01*
X92699999Y-123130000D01*
G75*
G02*
X92450000Y-122880001I0J249999D01*
G01*
X92450000Y-121979999D01*
G75*
G02*
X92699999Y-121730000I249999J0D01*
G01*
X93400001Y-121730000D01*
G75*
G02*
X93650000Y-121979999I0J-249999D01*
G01*
G37*
G36*
G01*
X93650000Y-119929999D02*
X93650000Y-120830001D01*
G75*
G02*
X93400001Y-121080000I-249999J0D01*
G01*
X92699999Y-121080000D01*
G75*
G02*
X92450000Y-120830001I0J249999D01*
G01*
X92450000Y-119929999D01*
G75*
G02*
X92699999Y-119680000I249999J0D01*
G01*
X93400001Y-119680000D01*
G75*
G02*
X93650000Y-119929999I0J-249999D01*
G01*
G37*
G36*
G01*
X95650000Y-119929999D02*
X95650000Y-120830001D01*
G75*
G02*
X95400001Y-121080000I-249999J0D01*
G01*
X94699999Y-121080000D01*
G75*
G02*
X94450000Y-120830001I0J249999D01*
G01*
X94450000Y-119929999D01*
G75*
G02*
X94699999Y-119680000I249999J0D01*
G01*
X95400001Y-119680000D01*
G75*
G02*
X95650000Y-119929999I0J-249999D01*
G01*
G37*
G36*
G01*
X90850000Y-113325000D02*
X90850000Y-113625000D01*
G75*
G02*
X90700000Y-113775000I-150000J0D01*
G01*
X89050000Y-113775000D01*
G75*
G02*
X88900000Y-113625000I0J150000D01*
G01*
X88900000Y-113325000D01*
G75*
G02*
X89050000Y-113175000I150000J0D01*
G01*
X90700000Y-113175000D01*
G75*
G02*
X90850000Y-113325000I0J-150000D01*
G01*
G37*
G36*
G01*
X90850000Y-114595000D02*
X90850000Y-114895000D01*
G75*
G02*
X90700000Y-115045000I-150000J0D01*
G01*
X89050000Y-115045000D01*
G75*
G02*
X88900000Y-114895000I0J150000D01*
G01*
X88900000Y-114595000D01*
G75*
G02*
X89050000Y-114445000I150000J0D01*
G01*
X90700000Y-114445000D01*
G75*
G02*
X90850000Y-114595000I0J-150000D01*
G01*
G37*
G36*
G01*
X90850000Y-115865000D02*
X90850000Y-116165000D01*
G75*
G02*
X90700000Y-116315000I-150000J0D01*
G01*
X89050000Y-116315000D01*
G75*
G02*
X88900000Y-116165000I0J150000D01*
G01*
X88900000Y-115865000D01*
G75*
G02*
X89050000Y-115715000I150000J0D01*
G01*
X90700000Y-115715000D01*
G75*
G02*
X90850000Y-115865000I0J-150000D01*
G01*
G37*
G36*
G01*
X90850000Y-117135000D02*
X90850000Y-117435000D01*
G75*
G02*
X90700000Y-117585000I-150000J0D01*
G01*
X89050000Y-117585000D01*
G75*
G02*
X88900000Y-117435000I0J150000D01*
G01*
X88900000Y-117135000D01*
G75*
G02*
X89050000Y-116985000I150000J0D01*
G01*
X90700000Y-116985000D01*
G75*
G02*
X90850000Y-117135000I0J-150000D01*
G01*
G37*
G36*
G01*
X95800000Y-117135000D02*
X95800000Y-117435000D01*
G75*
G02*
X95650000Y-117585000I-150000J0D01*
G01*
X94000000Y-117585000D01*
G75*
G02*
X93850000Y-117435000I0J150000D01*
G01*
X93850000Y-117135000D01*
G75*
G02*
X94000000Y-116985000I150000J0D01*
G01*
X95650000Y-116985000D01*
G75*
G02*
X95800000Y-117135000I0J-150000D01*
G01*
G37*
G36*
G01*
X95800000Y-115865000D02*
X95800000Y-116165000D01*
G75*
G02*
X95650000Y-116315000I-150000J0D01*
G01*
X94000000Y-116315000D01*
G75*
G02*
X93850000Y-116165000I0J150000D01*
G01*
X93850000Y-115865000D01*
G75*
G02*
X94000000Y-115715000I150000J0D01*
G01*
X95650000Y-115715000D01*
G75*
G02*
X95800000Y-115865000I0J-150000D01*
G01*
G37*
G36*
G01*
X95800000Y-114595000D02*
X95800000Y-114895000D01*
G75*
G02*
X95650000Y-115045000I-150000J0D01*
G01*
X94000000Y-115045000D01*
G75*
G02*
X93850000Y-114895000I0J150000D01*
G01*
X93850000Y-114595000D01*
G75*
G02*
X94000000Y-114445000I150000J0D01*
G01*
X95650000Y-114445000D01*
G75*
G02*
X95800000Y-114595000I0J-150000D01*
G01*
G37*
G36*
G01*
X95800000Y-113325000D02*
X95800000Y-113625000D01*
G75*
G02*
X95650000Y-113775000I-150000J0D01*
G01*
X94000000Y-113775000D01*
G75*
G02*
X93850000Y-113625000I0J150000D01*
G01*
X93850000Y-113325000D01*
G75*
G02*
X94000000Y-113175000I150000J0D01*
G01*
X95650000Y-113175000D01*
G75*
G02*
X95800000Y-113325000I0J-150000D01*
G01*
G37*
G36*
G01*
X86100000Y-94130001D02*
X86100000Y-93229999D01*
G75*
G02*
X86349999Y-92980000I249999J0D01*
G01*
X87050001Y-92980000D01*
G75*
G02*
X87300000Y-93229999I0J-249999D01*
G01*
X87300000Y-94130001D01*
G75*
G02*
X87050001Y-94380000I-249999J0D01*
G01*
X86349999Y-94380000D01*
G75*
G02*
X86100000Y-94130001I0J249999D01*
G01*
G37*
G36*
G01*
X84100000Y-94130001D02*
X84100000Y-93229999D01*
G75*
G02*
X84349999Y-92980000I249999J0D01*
G01*
X85050001Y-92980000D01*
G75*
G02*
X85300000Y-93229999I0J-249999D01*
G01*
X85300000Y-94130001D01*
G75*
G02*
X85050001Y-94380000I-249999J0D01*
G01*
X84349999Y-94380000D01*
G75*
G02*
X84100000Y-94130001I0J249999D01*
G01*
G37*
G36*
G01*
X80000000Y-91930001D02*
X80000000Y-91029999D01*
G75*
G02*
X80249999Y-90780000I249999J0D01*
G01*
X80950001Y-90780000D01*
G75*
G02*
X81200000Y-91029999I0J-249999D01*
G01*
X81200000Y-91930001D01*
G75*
G02*
X80950001Y-92180000I-249999J0D01*
G01*
X80249999Y-92180000D01*
G75*
G02*
X80000000Y-91930001I0J249999D01*
G01*
G37*
G36*
G01*
X82000000Y-91930001D02*
X82000000Y-91029999D01*
G75*
G02*
X82249999Y-90780000I249999J0D01*
G01*
X82950001Y-90780000D01*
G75*
G02*
X83200000Y-91029999I0J-249999D01*
G01*
X83200000Y-91930001D01*
G75*
G02*
X82950001Y-92180000I-249999J0D01*
G01*
X82249999Y-92180000D01*
G75*
G02*
X82000000Y-91930001I0J249999D01*
G01*
G37*
G36*
G01*
X66500000Y-94130001D02*
X66500000Y-93229999D01*
G75*
G02*
X66749999Y-92980000I249999J0D01*
G01*
X67450001Y-92980000D01*
G75*
G02*
X67700000Y-93229999I0J-249999D01*
G01*
X67700000Y-94130001D01*
G75*
G02*
X67450001Y-94380000I-249999J0D01*
G01*
X66749999Y-94380000D01*
G75*
G02*
X66500000Y-94130001I0J249999D01*
G01*
G37*
G36*
G01*
X64500000Y-94130001D02*
X64500000Y-93229999D01*
G75*
G02*
X64749999Y-92980000I249999J0D01*
G01*
X65450001Y-92980000D01*
G75*
G02*
X65700000Y-93229999I0J-249999D01*
G01*
X65700000Y-94130001D01*
G75*
G02*
X65450001Y-94380000I-249999J0D01*
G01*
X64749999Y-94380000D01*
G75*
G02*
X64500000Y-94130001I0J249999D01*
G01*
G37*
G36*
G01*
X60511600Y-91930001D02*
X60511600Y-91029999D01*
G75*
G02*
X60761599Y-90780000I249999J0D01*
G01*
X61461601Y-90780000D01*
G75*
G02*
X61711600Y-91029999I0J-249999D01*
G01*
X61711600Y-91930001D01*
G75*
G02*
X61461601Y-92180000I-249999J0D01*
G01*
X60761599Y-92180000D01*
G75*
G02*
X60511600Y-91930001I0J249999D01*
G01*
G37*
G36*
G01*
X62511600Y-91930001D02*
X62511600Y-91029999D01*
G75*
G02*
X62761599Y-90780000I249999J0D01*
G01*
X63461601Y-90780000D01*
G75*
G02*
X63711600Y-91029999I0J-249999D01*
G01*
X63711600Y-91930001D01*
G75*
G02*
X63461601Y-92180000I-249999J0D01*
G01*
X62761599Y-92180000D01*
G75*
G02*
X62511600Y-91930001I0J249999D01*
G01*
G37*
G36*
G01*
X96770000Y-57805000D02*
X96570000Y-57805000D01*
G75*
G02*
X96470000Y-57705000I0J100000D01*
G01*
X96470000Y-56430000D01*
G75*
G02*
X96570000Y-56330000I100000J0D01*
G01*
X96770000Y-56330000D01*
G75*
G02*
X96870000Y-56430000I0J-100000D01*
G01*
X96870000Y-57705000D01*
G75*
G02*
X96770000Y-57805000I-100000J0D01*
G01*
G37*
G36*
G01*
X96120000Y-57805000D02*
X95920000Y-57805000D01*
G75*
G02*
X95820000Y-57705000I0J100000D01*
G01*
X95820000Y-56430000D01*
G75*
G02*
X95920000Y-56330000I100000J0D01*
G01*
X96120000Y-56330000D01*
G75*
G02*
X96220000Y-56430000I0J-100000D01*
G01*
X96220000Y-57705000D01*
G75*
G02*
X96120000Y-57805000I-100000J0D01*
G01*
G37*
G36*
G01*
X95470000Y-57805000D02*
X95270000Y-57805000D01*
G75*
G02*
X95170000Y-57705000I0J100000D01*
G01*
X95170000Y-56430000D01*
G75*
G02*
X95270000Y-56330000I100000J0D01*
G01*
X95470000Y-56330000D01*
G75*
G02*
X95570000Y-56430000I0J-100000D01*
G01*
X95570000Y-57705000D01*
G75*
G02*
X95470000Y-57805000I-100000J0D01*
G01*
G37*
G36*
G01*
X94820000Y-57805000D02*
X94620000Y-57805000D01*
G75*
G02*
X94520000Y-57705000I0J100000D01*
G01*
X94520000Y-56430000D01*
G75*
G02*
X94620000Y-56330000I100000J0D01*
G01*
X94820000Y-56330000D01*
G75*
G02*
X94920000Y-56430000I0J-100000D01*
G01*
X94920000Y-57705000D01*
G75*
G02*
X94820000Y-57805000I-100000J0D01*
G01*
G37*
G36*
G01*
X94820000Y-63530000D02*
X94620000Y-63530000D01*
G75*
G02*
X94520000Y-63430000I0J100000D01*
G01*
X94520000Y-62155000D01*
G75*
G02*
X94620000Y-62055000I100000J0D01*
G01*
X94820000Y-62055000D01*
G75*
G02*
X94920000Y-62155000I0J-100000D01*
G01*
X94920000Y-63430000D01*
G75*
G02*
X94820000Y-63530000I-100000J0D01*
G01*
G37*
G36*
G01*
X95470000Y-63530000D02*
X95270000Y-63530000D01*
G75*
G02*
X95170000Y-63430000I0J100000D01*
G01*
X95170000Y-62155000D01*
G75*
G02*
X95270000Y-62055000I100000J0D01*
G01*
X95470000Y-62055000D01*
G75*
G02*
X95570000Y-62155000I0J-100000D01*
G01*
X95570000Y-63430000D01*
G75*
G02*
X95470000Y-63530000I-100000J0D01*
G01*
G37*
G36*
G01*
X96120000Y-63530000D02*
X95920000Y-63530000D01*
G75*
G02*
X95820000Y-63430000I0J100000D01*
G01*
X95820000Y-62155000D01*
G75*
G02*
X95920000Y-62055000I100000J0D01*
G01*
X96120000Y-62055000D01*
G75*
G02*
X96220000Y-62155000I0J-100000D01*
G01*
X96220000Y-63430000D01*
G75*
G02*
X96120000Y-63530000I-100000J0D01*
G01*
G37*
G36*
G01*
X96770000Y-63530000D02*
X96570000Y-63530000D01*
G75*
G02*
X96470000Y-63430000I0J100000D01*
G01*
X96470000Y-62155000D01*
G75*
G02*
X96570000Y-62055000I100000J0D01*
G01*
X96770000Y-62055000D01*
G75*
G02*
X96870000Y-62155000I0J-100000D01*
G01*
X96870000Y-63430000D01*
G75*
G02*
X96770000Y-63530000I-100000J0D01*
G01*
G37*
M02*
