<svg id="Capa_1" data-name="Capa 1" xmlns="http://www.w3.org/2000/svg" viewBox="0 0 516.57 567.1"><defs><style>.cls-1{fill:#b886bb;}.cls-2{fill:#d22521;}</style></defs><title>azafran</title><path class="cls-1" d="M297.64,137.73s-49.47,30.17-54.38,109.81,27.37,135.78,27.37,135.78-21.17-32.86-54-41c-29.82-9.95-64-1.76-83.5,4.56S85.49,363.68,67,364s-26.9-7.37-27.6-6.08,2.72,9.68,5.15,12.63,4.67,7.95,13.56,15.9,16.26,10.76,32.05,13.34c9.74,4.13,76.64-3.55,132.56-3.69,50,3.47,60,43.9,64.85,63.56,4.21,52.87,2.74,135.25,1.87,135.9-.39.3-17.25-31.48-38.3-66.13-24.61-40.53-73-74.56-73-74.56,6.61,11.63,52.38,62.22,77.84,122.21,8.53,20.12,15.55,39.83,19.88,57.31,10.15,41,10.52,70.41,10.52,70.41h22.38s.37-29.4,10.53-70.41c4.33-17.48,11.34-37.19,19.88-57.3,25.46-60,71.22-110.59,77.83-122.22,0,0-48.36,34-73,74.56-21.05,34.65-37.91,66.43-38.3,66.13-.86-.65-2.34-83,1.87-135.9,4.86-19.66,14.88-60.09,64.85-63.56,55.93.14,122.83,7.82,132.57,3.69,15.79-2.58,23.15-5.38,32-13.34s11.14-13,13.57-15.9,5.84-11.35,5.15-12.63-9.13,6.43-27.61,6.08-46.6-10.88-66.07-17.19-53.69-14.51-83.51-4.56c-32.86,8.18-54,41-54,41S356.86,327.19,352,247.54s-54.39-109.81-54.39-109.81" transform="translate(-39.32 -137.73)"/><path class="cls-1" d="M105.84,224.86s34.85,6.31,78.59,41.87S246,348.12,246,348.12s-15.21-15.43-48.19-18.48-44.67,4-44.67,4-16.84-22.22-29.24-47.13S105.84,224.86,105.84,224.86Z" transform="translate(-39.32 -137.73)"/><path class="cls-1" d="M489.6,224.86s-34.85,6.31-78.59,41.87-61.51,81.39-61.51,81.39,15.2-15.43,48.18-18.48,44.68,4,44.68,4,16.84-22.22,29.23-47.13S489.6,224.86,489.6,224.86Z" transform="translate(-39.32 -137.73)"/><path class="cls-2" d="M69.35,286.49c1.05-.35,5,16.84,27.14,31.93s44.26,15.58,44.44,16.84-30.41,9.71-51.82-9.47S68.3,286.84,69.35,286.49Z" transform="translate(-39.32 -137.73)"/><path class="cls-2" d="M218.52,204c1.36-.09-6.66,28.24-2.45,52.8s20.34,42.06,19.65,42.45-24-7.71-31.05-38.59S217.16,204.13,218.52,204Z" transform="translate(-39.32 -137.73)"/><path class="cls-2" d="M525.19,286.49c-1.05-.35-5,16.84-27.13,31.93S453.79,334,453.62,335.26s30.4,9.71,51.81-9.47S526.25,286.84,525.19,286.49Z" transform="translate(-39.32 -137.73)"/><path class="cls-2" d="M376,204c-1.36-.09,6.67,28.24,2.46,52.8s-20.35,42.06-19.65,42.45,24-7.71,31.05-38.59S377.38,204.13,376,204Z" transform="translate(-39.32 -137.73)"/></svg>