<svg id="Capa_1" data-name="Capa 1" xmlns="http://www.w3.org/2000/svg" xmlns:xlink="http://www.w3.org/1999/xlink" viewBox="0 0 561.2 275.97"><defs><style>.cls-1{fill:url(#Degradado_sin_nombre);}.cls-2,.cls-4{fill:#cb89bb;}.cls-3{fill:#d3161d;}.cls-4,.cls-7{isolation:isolate;font-size:137.45px;font-family:TrebuchetMS-Bold, Trebuchet MS;font-weight:700;}.cls-5{letter-spacing:-0.04em;}.cls-6{letter-spacing:-0.02em;}.cls-7{fill:#0d9839;letter-spacing:-0.03em;}.cls-8{fill:none;stroke:#ffcc07;stroke-miterlimit:10;stroke-width:5.09px;}</style><linearGradient id="Degradado_sin_nombre" x1="701.33" y1="-106.83" x2="701.33" y2="59.97" gradientTransform="matrix(0.93, 0.36, 0.36, -0.93, -167.19, -194.33)" gradientUnits="userSpaceOnUse"><stop offset="0.02" stop-color="#3a9236"/><stop offset="0.23" stop-color="#3c9238"/><stop offset="0.31" stop-color="#43913e"/><stop offset="0.36" stop-color="#4e9149"/><stop offset="0.4" stop-color="#5f9058"/><stop offset="0.44" stop-color="#758e6c"/><stop offset="0.47" stop-color="#918d85"/><stop offset="0.5" stop-color="#b08ba2"/><stop offset="0.52" stop-color="#cb89bb"/><stop offset="1" stop-color="#cb89bb"/></linearGradient></defs><title>smart-saffron</title><path class="cls-1" d="M510.22.61s-16.74,2.85-26.78,24.06-7.4,40-7.4,40-2.17-11.27-10.2-17.09c-7-5.95-17.21-7.44-23.2-7.84s-14.77-.58-19.83-2.49-6.5-4.94-6.83-4.66-.32,2.93,0,4a23.44,23.44,0,0,0,2,5.82c1.55,3.14,3.24,4.71,7.25,7.13,2.19,2.18,21.22,7.37,36.43,13.42,13.2,6.38,11.51,18.51,10.67,24.4-4.63,14.9-14,37.22-14.34,37.31-.14,0-1.25-10.48-3.18-22.22-2.26-13.75-11.68-28.3-11.68-28.3.52,3.89,7.43,22.69,7.79,41.84a116.33,116.33,0,0,1-.86,17.8,100.35,100.35,0,0,1-4.84,20.37l6.08,2.44a101.83,101.83,0,0,1,10.56-18.08A116.06,116.06,0,0,1,473.53,125C487,111.43,505,102.59,508,100.14c0,0-16.86,4-28,12.41-9.5,7.17-17.56,14-17.63,13.89s8.44-22.92,15.36-36.9c3.47-4.83,10.62-14.78,24.57-10.29,15.19,6.12,32.53,15.5,35.63,15.43,4.56,1,6.88,1,10.16-.16a22.71,22.71,0,0,0,5.42-2.87c1-.54,2.83-2.46,2.78-2.88s-3.18.76-8.16-1.34-11.48-8-16.08-11.89-13-9.8-22.19-10.33c-9.83-1.34-19.18,5.33-19.18,5.33S505.63,58.73,513,36.45,510.23.55,510.23.55" transform="translate(0 0)"/><path class="cls-2" d="M448.59,3.53s8.79,5.51,16.79,20a64.72,64.72,0,0,1,7.8,28.91s-2.45-5.87-11.08-10.29-12.57-3.78-12.57-3.78a100.39,100.39,0,0,1-2.8-16C446.09,14.16,448.59,3.53,448.59,3.53Z" transform="translate(0 0)"/><path class="cls-2" d="M552.86,45.28s-10.15-2.07-25.93,2.88a64.58,64.58,0,0,0-25.61,15.53s5.82-2.56,15.11.2,11.71,5.94,11.71,5.94a99.88,99.88,0,0,0,13.09-9.68C547.32,54.7,552.86,45.28,552.86,45.28Z" transform="translate(0 0)"/><path class="cls-3" d="M431.92,16.38c.33,0-.47,5.15,3.88,11.67s10.33,9.07,10.24,9.44-9.32-.66-13.05-8.23S431.59,16.37,431.92,16.38Z" transform="translate(0 0)"/><path class="cls-3" d="M481.47,10.1c.38.13-4.9,7-6.44,14.15S476,38,475.73,38s-5.69-4.72-4.22-13.91S481.09,10,481.47,10.1Z" transform="translate(0 0)"/><path class="cls-3" d="M555.8,66c-.25-.21-3.21,4-10.87,5.76s-13.73-.56-13.91-.23,7.2,6,15.11,3S556,66.19,555.8,66Z" transform="translate(0 0)"/><path class="cls-3" d="M524.27,27.24c-.36-.17-1.27,8.44-5.1,14.68s-10.13,9.27-10,9.45,7.37.52,12.66-7.15S524.59,27.44,524.27,27.24Z" transform="translate(0 0)"/><text class="cls-4" transform="translate(0 117.89) scale(0.94 1)">SMA<tspan class="cls-5" x="259.73" y="0">R</tspan><tspan class="cls-6" x="338.12" y="0">T</tspan></text><text class="cls-7" transform="translate(0 238.93)">SAFFRON</text><line class="cls-8" x1="406.5" y1="130.09" x2="10.65" y2="130.09"/></svg>