<svg id="Capa_1" data-name="Capa 1" xmlns="http://www.w3.org/2000/svg" viewBox="0 0 561.2 275.97"><defs><style>.cls-1,.cls-6{fill:#cb89bb;}.cls-2{fill:#d3161d;}.cls-3,.cls-6{isolation:isolate;font-size:137.45px;font-family:TrebuchetMS-Bold, Trebuchet MS;font-weight:700;}.cls-3{fill:#592679;}.cls-4{letter-spacing:-0.04em;}.cls-5{letter-spacing:-0.02em;}.cls-6{letter-spacing:-0.03em;}.cls-7{fill:none;stroke:#ffcc07;stroke-miterlimit:10;stroke-width:5.09px;}</style></defs><title>smart-saffron1</title><path class="cls-1" d="M499.27,3.29s11.43,12.24,6.64,34.88S487.81,74,487.81,74s8.43-7.55,18.2-7.31c9.07-.49,18,4.43,22.88,7.7s11.94,8.36,17.06,9.88,8,0,8.14.42-1.5,2.5-2.4,3.14a24.24,24.24,0,0,1-5,3.4c-3.08,1.54-5.35,1.76-9.94,1.26-3,.41-21-6.88-36.6-11.22C486,78.4,477.79,87.12,473.21,92.4S459.37,112,457.4,114.35c-2.54,3-4.12,6-4.07,6.41s.08,2.16,11.05-2c7.57-2.89,9.81-4.62,17.84-6.23,9.06-1.82,14.43.43,14.43.43-.22.05-5.54-.85-13.65,2-7.1,2.49-8.94,4.67-13.77,6.83-10.13,4.52-17.44,7.48-19.57,10.34-7,9.4-1.69,19.11-1.69,19.11s-34.51-7.31-23.61-11.44,12.11-16.24,12.8-22.53c1.48-13.46-4.16-22.46-9.38-27.77a17,17,0,0,1-4.53-8.09,26,26,0,0,0,6.88,5.27c4.36,2.4,7.6,7,10.86,12.76,2.47,4.34,3.49,16.51,4.55,17.18.44.27,1.93-1.25,6.13-5.35,16.7-21.1,20.46-36.67,6.83-41.48-15.57-4.26-34.78-7.26-37.17-9.16-4.19-1.94-6-3.28-7.89-6.19A23.6,23.6,0,0,1,410.9,49c-.45-1-.75-3.62-.46-3.93s2,2.5,7.21,3.83,13.81.54,19.71.27,16.06.08,23.58,5.15c8.52,4.81,11.87,15.62,11.87,15.62s-4.65-18.16,2.87-40S499.3,3.33,499.3,3.33" transform="translate(0 0)"/><path class="cls-1" d="M545.9,42.43s-10.19-.91-25.1,5.66a63.64,63.64,0,0,0-23.4,18s5.42-3.14,14.83-1.45,12.12,4.54,12.12,4.54a98.05,98.05,0,0,0,11.77-10.92C541.5,52.23,545.9,42.43,545.9,42.43Z" transform="translate(0 0)"/><path class="cls-1" d="M439.13,12.88s9.21,4.45,18.63,17.75a63.76,63.76,0,0,1,10.8,27.48s-3-5.48-12-8.87-12.74-2.32-12.74-2.32a98.39,98.39,0,0,1-4.49-15.43C437.85,23.58,439.13,12.88,439.13,12.88Z" transform="translate(0 0)"/><path class="cls-2" d="M551.29,62.43c-.27-.18-2.7,4.32-10,6.83s-13.52,1-13.66,1.29,7.71,5.06,15.14,1.34S551.56,62.61,551.29,62.43Z" transform="translate(0 0)"/><path class="cls-2" d="M516.16,27.91c-.38-.13-.33,8.41-3.4,15S503.85,53.05,504,53.21s7.28-.3,11.61-8.39S516.56,28,516.16,27.91Z" transform="translate(0 0)"/><path class="cls-2" d="M424.47,27.37c.32,0,.1,5.1,5.08,11s11.11,7.76,11.06,8.13-9.21.37-13.68-6.63S424.15,27.43,424.47,27.37Z" transform="translate(0 0)"/><path class="cls-2" d="M472.34,15.8c.38.08-4,7.38-4.77,14.57s2.42,13.32,2.19,13.38-6.09-4-5.65-13.18S472,15.72,472.34,15.8Z" transform="translate(0 0)"/><text class="cls-3" transform="translate(0 117.89) scale(0.94 1)">SMA<tspan class="cls-4" x="259.73" y="0">R</tspan><tspan class="cls-5" x="338.12" y="0">T</tspan></text><text class="cls-6" transform="translate(0 238.93)">SAFFRON</text><line class="cls-7" x1="395.85" y1="130.09" y2="130.09"/></svg>